<?xml version="1.0" encoding="UTF-8" standalone="no"?>
<!DOCTYPE svg PUBLIC "-//W3C//DTD SVG 1.1//EN"
 "http://www.w3.org/Graphics/SVG/1.1/DTD/svg11.dtd">
<!-- Generated by graphviz version 2.40.1 (20161225.0304)
 -->
<!-- Title: dependencies Pages: 1 -->
<svg width="1089pt" height="284pt"
 viewBox="0.00 0.00 1089.00 284.00" xmlns="http://www.w3.org/2000/svg" xmlns:xlink="http://www.w3.org/1999/xlink">
<g id="graph0" class="graph" transform="scale(1 1) rotate(0) translate(4 280)">
<title>dependencies</title>
<polygon fill="#ffffff" stroke="transparent" points="-4,4 -4,-280 1085,-280 1085,4 -4,4"/>
<text text-anchor="start" x="519.5091" y="-42.4" font-family="sans-serif" font-weight="bold" font-size="14.00" fill="#000000">Legend</text>
<polygon fill="#ffffb3" stroke="transparent" points="306.5,-10 306.5,-30 326.5,-30 326.5,-10 306.5,-10"/>
<text text-anchor="start" x="330.129" y="-15.4" font-family="sans-serif" font-size="14.00" fill="#000000"> &#160;Declarations</text>
<polygon fill="#8dd3c7" stroke="transparent" points="419.5,-10 419.5,-30 439.5,-30 439.5,-10 419.5,-10"/>
<text text-anchor="start" x="443.2251" y="-15.4" font-family="sans-serif" font-size="14.00" fill="#000000"> &#160;Module</text>
<polygon fill="#80b1d3" stroke="transparent" points="505.5,-10 505.5,-30 525.5,-30 525.5,-10 505.5,-10"/>
<text text-anchor="start" x="529.2812" y="-15.4" font-family="sans-serif" font-size="14.00" fill="#000000"> &#160;Bootstrap</text>
<polygon fill="#fdb462" stroke="transparent" points="602.5,-10 602.5,-30 622.5,-30 622.5,-10 602.5,-10"/>
<text text-anchor="start" x="626.1732" y="-15.4" font-family="sans-serif" font-size="14.00" fill="#000000"> &#160;Providers</text>
<polygon fill="#fb8072" stroke="transparent" points="698.5,-10 698.5,-30 718.5,-30 718.5,-10 698.5,-10"/>
<text text-anchor="start" x="722.2258" y="-15.4" font-family="sans-serif" font-size="14.00" fill="#000000"> &#160;Exports</text>
<g id="clust1" class="cluster">
<title>cluster_DynamicFormModule</title>
<polygon fill="none" stroke="#000000" stroke-dasharray="1,5" points="8,-70 8,-268 1073,-268 1073,-70 8,-70"/>
</g>
<g id="clust2" class="cluster">
<title>cluster_DynamicFormModule_declarations</title>
<polygon fill="none" stroke="#000000" points="657,-78 657,-130 1065,-130 1065,-78 657,-78"/>
</g>
<g id="clust5" class="cluster">
<title>cluster_DynamicFormModule_imports</title>
<polygon fill="none" stroke="#000000" points="246,-78 246,-130 649,-130 649,-78 246,-78"/>
</g>
<g id="clust6" class="cluster">
<title>cluster_DynamicFormModule_exports</title>
<polygon fill="none" stroke="#000000" points="305,-208 305,-260 720,-260 720,-208 305,-208"/>
</g>
<g id="clust8" class="cluster">
<title>cluster_DynamicFormModule_providers</title>
<polygon fill="none" stroke="#000000" points="16,-78 16,-130 238,-130 238,-78 16,-78"/>
</g>
<!-- DynamicFormComponent -->
<g id="node1" class="node">
<title>DynamicFormComponent</title>
<polygon fill="#ffffb3" stroke="#000000" points="1057.4832,-122 894.5168,-122 894.5168,-86 1057.4832,-86 1057.4832,-122"/>
<text text-anchor="middle" x="976" y="-99.8" font-family="Times,serif" font-size="14.00" fill="#000000">DynamicFormComponent</text>
</g>
<!-- DynamicFormModule -->
<g id="node3" class="node">
<title>DynamicFormModule</title>
<polygon fill="#8dd3c7" stroke="#000000" points="594.7007,-187 591.7007,-191 570.7007,-191 567.7007,-187 453.2993,-187 453.2993,-151 594.7007,-151 594.7007,-187"/>
<text text-anchor="middle" x="524" y="-164.8" font-family="Times,serif" font-size="14.00" fill="#000000">DynamicFormModule</text>
</g>
<!-- DynamicFormComponent&#45;&gt;DynamicFormModule -->
<g id="edge1" class="edge">
<title>DynamicFormComponent&#45;&gt;DynamicFormModule</title>
<path fill="none" stroke="#000000" d="M976,-122.2843C976,-143.3211 976,-175 976,-175 976,-175 604.625,-175 604.625,-175"/>
<polygon fill="#000000" stroke="#000000" points="604.625,-171.5001 594.625,-175 604.625,-178.5001 604.625,-171.5001"/>
</g>
<!-- DynamicFormPropertyComponent -->
<g id="node2" class="node">
<title>DynamicFormPropertyComponent</title>
<polygon fill="#ffffb3" stroke="#000000" points="876.6923,-122 665.3077,-122 665.3077,-86 876.6923,-86 876.6923,-122"/>
<text text-anchor="middle" x="771" y="-99.8" font-family="Times,serif" font-size="14.00" fill="#000000">DynamicFormPropertyComponent</text>
</g>
<!-- DynamicFormPropertyComponent&#45;&gt;DynamicFormModule -->
<g id="edge2" class="edge">
<title>DynamicFormPropertyComponent&#45;&gt;DynamicFormModule</title>
<path fill="none" stroke="#000000" d="M688.8228,-122.0225C688.8228,-139.3734 688.8228,-163 688.8228,-163 688.8228,-163 604.8562,-163 604.8562,-163"/>
<polygon fill="#000000" stroke="#000000" points="604.8563,-159.5001 594.8562,-163 604.8562,-166.5001 604.8563,-159.5001"/>
</g>
<!-- DynamicFormComponent  -->
<g id="node7" class="node">
<title>DynamicFormComponent </title>
<polygon fill="#fb8072" stroke="#000000" points="712.4839,-252 545.5161,-252 545.5161,-216 712.4839,-216 712.4839,-252"/>
<text text-anchor="middle" x="629" y="-229.8" font-family="Times,serif" font-size="14.00" fill="#000000">DynamicFormComponent </text>
</g>
<!-- DynamicFormModule&#45;&gt;DynamicFormComponent  -->
<g id="edge6" class="edge">
<title>DynamicFormModule&#45;&gt;DynamicFormComponent </title>
<path fill="none" stroke="#000000" stroke-dasharray="5,2" d="M570.1794,-187.1061C570.1794,-187.1061 570.1794,-205.991 570.1794,-205.991"/>
<polygon fill="#000000" stroke="#000000" points="566.6794,-205.9909 570.1794,-215.991 573.6794,-205.991 566.6794,-205.9909"/>
</g>
<!-- DynamicFormPropertyComponent  -->
<g id="node8" class="node">
<title>DynamicFormPropertyComponent </title>
<polygon fill="#fb8072" stroke="#000000" points="527.1924,-252 312.8076,-252 312.8076,-216 527.1924,-216 527.1924,-252"/>
<text text-anchor="middle" x="420" y="-229.8" font-family="Times,serif" font-size="14.00" fill="#000000">DynamicFormPropertyComponent </text>
</g>
<!-- DynamicFormModule&#45;&gt;DynamicFormPropertyComponent  -->
<g id="edge7" class="edge">
<title>DynamicFormModule&#45;&gt;DynamicFormPropertyComponent </title>
<path fill="none" stroke="#000000" stroke-dasharray="5,2" d="M490.3729,-187.1061C490.3729,-187.1061 490.3729,-205.991 490.3729,-205.991"/>
<polygon fill="#000000" stroke="#000000" points="486.873,-205.9909 490.3729,-215.991 493.873,-205.991 486.873,-205.9909"/>
</g>
<!-- CommonModule -->
<g id="node4" class="node">
<title>CommonModule</title>
<polygon fill="#8dd3c7" stroke="#000000" points="640.6681,-122 637.6681,-126 616.6681,-126 613.6681,-122 529.3319,-122 529.3319,-86 640.6681,-86 640.6681,-122"/>
<text text-anchor="middle" x="585" y="-99.8" font-family="Times,serif" font-size="14.00" fill="#000000">CommonModule</text>
</g>
<!-- CommonModule&#45;&gt;DynamicFormModule -->
<g id="edge3" class="edge">
<title>CommonModule&#45;&gt;DynamicFormModule</title>
<path fill="none" stroke="#000000" d="M561.8833,-122.1061C561.8833,-122.1061 561.8833,-140.991 561.8833,-140.991"/>
<polygon fill="#000000" stroke="#000000" points="558.3833,-140.9909 561.8833,-150.991 565.3833,-140.991 558.3833,-140.9909"/>
</g>
<!-- FormsModule -->
<g id="node5" class="node">
<title>FormsModule</title>
<polygon fill="#8dd3c7" stroke="#000000" points="511.8288,-122 508.8288,-126 487.8288,-126 484.8288,-122 416.1712,-122 416.1712,-86 511.8288,-86 511.8288,-122"/>
<text text-anchor="middle" x="464" y="-99.8" font-family="Times,serif" font-size="14.00" fill="#000000">FormsModule</text>
</g>
<!-- FormsModule&#45;&gt;DynamicFormModule -->
<g id="edge4" class="edge">
<title>FormsModule&#45;&gt;DynamicFormModule</title>
<path fill="none" stroke="#000000" d="M482.5319,-122.1061C482.5319,-122.1061 482.5319,-140.991 482.5319,-140.991"/>
<polygon fill="#000000" stroke="#000000" points="479.032,-140.9909 482.5319,-150.991 486.032,-140.991 479.032,-140.9909"/>
</g>
<!-- ReactiveFormsModule -->
<g id="node6" class="node">
<title>ReactiveFormsModule</title>
<polygon fill="#8dd3c7" stroke="#000000" points="398.3047,-122 395.3047,-126 374.3047,-126 371.3047,-122 253.6953,-122 253.6953,-86 398.3047,-86 398.3047,-122"/>
<text text-anchor="middle" x="326" y="-99.8" font-family="Times,serif" font-size="14.00" fill="#000000">ReactiveFormsModule</text>
</g>
<!-- ReactiveFormsModule&#45;&gt;DynamicFormModule -->
<g id="edge5" class="edge">
<title>ReactiveFormsModule&#45;&gt;DynamicFormModule</title>
<path fill="none" stroke="#000000" d="M355.4031,-122.0225C355.4031,-139.3734 355.4031,-163 355.4031,-163 355.4031,-163 442.9884,-163 442.9884,-163"/>
<polygon fill="#000000" stroke="#000000" points="442.9884,-166.5001 452.9884,-163 442.9883,-159.5001 442.9884,-166.5001"/>
</g>
<!-- PropertyControlService -->
<g id="node9" class="node">
<title>PropertyControlService</title>
<ellipse fill="#fdb462" stroke="#000000" cx="127" cy="-104" rx="102.5073" ry="18"/>
<text text-anchor="middle" x="127" y="-99.8" font-family="Times,serif" font-size="14.00" fill="#000000">PropertyControlService</text>
</g>
<!-- PropertyControlService&#45;&gt;DynamicFormModule -->
<g id="edge8" class="edge">
<title>PropertyControlService&#45;&gt;DynamicFormModule</title>
<path fill="none" stroke="#000000" d="M127,-122.2843C127,-143.3211 127,-175 127,-175 127,-175 443.0244,-175 443.0244,-175"/>
<polygon fill="#000000" stroke="#000000" points="443.0244,-178.5001 453.0244,-175 443.0243,-171.5001 443.0244,-178.5001"/>
</g>
</g>
</svg>
