<?xml version="1.0" encoding="UTF-8" standalone="no"?>
<!DOCTYPE svg PUBLIC "-//W3C//DTD SVG 1.1//EN"
 "http://www.w3.org/Graphics/SVG/1.1/DTD/svg11.dtd">
<!-- Generated by graphviz version 2.40.1 (20161225.0304)
 -->
<!-- Title: dependencies Pages: 1 -->
<svg width="873pt" height="284pt"
 viewBox="0.00 0.00 873.00 284.00" xmlns="http://www.w3.org/2000/svg" xmlns:xlink="http://www.w3.org/1999/xlink">
<g id="graph0" class="graph" transform="scale(1 1) rotate(0) translate(4 280)">
<title>dependencies</title>
<polygon fill="#ffffff" stroke="transparent" points="-4,4 -4,-280 869,-280 869,4 -4,4"/>
<text text-anchor="start" x="411.5091" y="-42.4" font-family="sans-serif" font-weight="bold" font-size="14.00" fill="#000000">Legend</text>
<polygon fill="#ffffb3" stroke="transparent" points="198.5,-10 198.5,-30 218.5,-30 218.5,-10 198.5,-10"/>
<text text-anchor="start" x="222.129" y="-15.4" font-family="sans-serif" font-size="14.00" fill="#000000"> &#160;Declarations</text>
<polygon fill="#8dd3c7" stroke="transparent" points="311.5,-10 311.5,-30 331.5,-30 331.5,-10 311.5,-10"/>
<text text-anchor="start" x="335.2251" y="-15.4" font-family="sans-serif" font-size="14.00" fill="#000000"> &#160;Module</text>
<polygon fill="#80b1d3" stroke="transparent" points="397.5,-10 397.5,-30 417.5,-30 417.5,-10 397.5,-10"/>
<text text-anchor="start" x="421.2812" y="-15.4" font-family="sans-serif" font-size="14.00" fill="#000000"> &#160;Bootstrap</text>
<polygon fill="#fdb462" stroke="transparent" points="494.5,-10 494.5,-30 514.5,-30 514.5,-10 494.5,-10"/>
<text text-anchor="start" x="518.1732" y="-15.4" font-family="sans-serif" font-size="14.00" fill="#000000"> &#160;Providers</text>
<polygon fill="#fb8072" stroke="transparent" points="590.5,-10 590.5,-30 610.5,-30 610.5,-10 590.5,-10"/>
<text text-anchor="start" x="614.2258" y="-15.4" font-family="sans-serif" font-size="14.00" fill="#000000"> &#160;Exports</text>
<g id="clust1" class="cluster">
<title>cluster_TypeAheadInputModule</title>
<polygon fill="none" stroke="#000000" stroke-dasharray="1,5" points="8,-70 8,-268 857,-268 857,-70 8,-70"/>
</g>
<g id="clust2" class="cluster">
<title>cluster_TypeAheadInputModule_declarations</title>
<polygon fill="none" stroke="#000000" points="657,-78 657,-130 849,-130 849,-78 657,-78"/>
</g>
<g id="clust4" class="cluster">
<title>cluster_TypeAheadInputModule_imports</title>
<polygon fill="none" stroke="#000000" points="16,-78 16,-130 649,-130 649,-78 16,-78"/>
</g>
<g id="clust5" class="cluster">
<title>cluster_TypeAheadInputModule_exports</title>
<polygon fill="none" stroke="#000000" points="305,-208 305,-260 501,-260 501,-208 305,-208"/>
</g>
<!-- TypeAheadInputComponent -->
<g id="node1" class="node">
<title>TypeAheadInputComponent</title>
<polygon fill="#ffffb3" stroke="#000000" points="841.1867,-122 664.8133,-122 664.8133,-86 841.1867,-86 841.1867,-122"/>
<text text-anchor="middle" x="753" y="-99.8" font-family="Times,serif" font-size="14.00" fill="#000000">TypeAheadInputComponent</text>
</g>
<!-- TypeAheadInputModule -->
<g id="node2" class="node">
<title>TypeAheadInputModule</title>
<polygon fill="#8dd3c7" stroke="#000000" points="480.4045,-187 477.4045,-191 456.4045,-191 453.4045,-187 325.5955,-187 325.5955,-151 480.4045,-151 480.4045,-187"/>
<text text-anchor="middle" x="403" y="-164.8" font-family="Times,serif" font-size="14.00" fill="#000000">TypeAheadInputModule</text>
</g>
<!-- TypeAheadInputComponent&#45;&gt;TypeAheadInputModule -->
<g id="edge1" class="edge">
<title>TypeAheadInputComponent&#45;&gt;TypeAheadInputModule</title>
<path fill="none" stroke="#000000" d="M753,-122.2843C753,-143.3211 753,-175 753,-175 753,-175 490.2423,-175 490.2423,-175"/>
<polygon fill="#000000" stroke="#000000" points="490.2423,-171.5001 480.2423,-175 490.2422,-178.5001 490.2423,-171.5001"/>
</g>
<!-- TypeAheadInputComponent  -->
<g id="node8" class="node">
<title>TypeAheadInputComponent </title>
<polygon fill="#fb8072" stroke="#000000" points="492.6869,-252 313.3131,-252 313.3131,-216 492.6869,-216 492.6869,-252"/>
<text text-anchor="middle" x="403" y="-229.8" font-family="Times,serif" font-size="14.00" fill="#000000">TypeAheadInputComponent </text>
</g>
<!-- TypeAheadInputModule&#45;&gt;TypeAheadInputComponent  -->
<g id="edge7" class="edge">
<title>TypeAheadInputModule&#45;&gt;TypeAheadInputComponent </title>
<path fill="none" stroke="#000000" stroke-dasharray="5,2" d="M403,-187.1061C403,-187.1061 403,-205.991 403,-205.991"/>
<polygon fill="#000000" stroke="#000000" points="399.5001,-205.9909 403,-215.991 406.5001,-205.991 399.5001,-205.9909"/>
</g>
<!-- CommonModule -->
<g id="node3" class="node">
<title>CommonModule</title>
<polygon fill="#8dd3c7" stroke="#000000" points="640.6681,-122 637.6681,-126 616.6681,-126 613.6681,-122 529.3319,-122 529.3319,-86 640.6681,-86 640.6681,-122"/>
<text text-anchor="middle" x="585" y="-99.8" font-family="Times,serif" font-size="14.00" fill="#000000">CommonModule</text>
</g>
<!-- CommonModule&#45;&gt;TypeAheadInputModule -->
<g id="edge2" class="edge">
<title>CommonModule&#45;&gt;TypeAheadInputModule</title>
<path fill="none" stroke="#000000" d="M585,-122.0225C585,-139.3734 585,-163 585,-163 585,-163 490.4483,-163 490.4483,-163"/>
<polygon fill="#000000" stroke="#000000" points="490.4483,-159.5001 480.4483,-163 490.4483,-166.5001 490.4483,-159.5001"/>
</g>
<!-- FormsModule -->
<g id="node4" class="node">
<title>FormsModule</title>
<polygon fill="#8dd3c7" stroke="#000000" points="511.8288,-122 508.8288,-126 487.8288,-126 484.8288,-122 416.1712,-122 416.1712,-86 511.8288,-86 511.8288,-122"/>
<text text-anchor="middle" x="464" y="-99.8" font-family="Times,serif" font-size="14.00" fill="#000000">FormsModule</text>
</g>
<!-- FormsModule&#45;&gt;TypeAheadInputModule -->
<g id="edge3" class="edge">
<title>FormsModule&#45;&gt;TypeAheadInputModule</title>
<path fill="none" stroke="#000000" d="M448.269,-122.1061C448.269,-122.1061 448.269,-140.991 448.269,-140.991"/>
<polygon fill="#000000" stroke="#000000" points="444.769,-140.9909 448.269,-150.991 451.769,-140.991 444.769,-140.9909"/>
</g>
<!-- MatInputModule -->
<g id="node5" class="node">
<title>MatInputModule</title>
<polygon fill="#8dd3c7" stroke="#000000" points="398.6513,-122 395.6513,-126 374.6513,-126 371.6513,-122 287.3487,-122 287.3487,-86 398.6513,-86 398.6513,-122"/>
<text text-anchor="middle" x="343" y="-99.8" font-family="Times,serif" font-size="14.00" fill="#000000">MatInputModule</text>
</g>
<!-- MatInputModule&#45;&gt;TypeAheadInputModule -->
<g id="edge4" class="edge">
<title>MatInputModule&#45;&gt;TypeAheadInputModule</title>
<path fill="none" stroke="#000000" d="M362.3117,-122.1061C362.3117,-122.1061 362.3117,-140.991 362.3117,-140.991"/>
<polygon fill="#000000" stroke="#000000" points="358.8118,-140.9909 362.3117,-150.991 365.8118,-140.991 358.8118,-140.9909"/>
</g>
<!-- MatButtonModule -->
<g id="node6" class="node">
<title>MatButtonModule</title>
<polygon fill="#8dd3c7" stroke="#000000" points="269.2176,-122 266.2176,-126 245.2176,-126 242.2176,-122 148.7824,-122 148.7824,-86 269.2176,-86 269.2176,-122"/>
<text text-anchor="middle" x="209" y="-99.8" font-family="Times,serif" font-size="14.00" fill="#000000">MatButtonModule</text>
</g>
<!-- MatButtonModule&#45;&gt;TypeAheadInputModule -->
<g id="edge5" class="edge">
<title>MatButtonModule&#45;&gt;TypeAheadInputModule</title>
<path fill="none" stroke="#000000" d="M209,-122.0225C209,-139.3734 209,-163 209,-163 209,-163 315.7686,-163 315.7686,-163"/>
<polygon fill="#000000" stroke="#000000" points="315.7687,-166.5001 325.7686,-163 315.7686,-159.5001 315.7687,-166.5001"/>
</g>
<!-- MatIconModule -->
<g id="node7" class="node">
<title>MatIconModule</title>
<polygon fill="#8dd3c7" stroke="#000000" points="130.4748,-122 127.4748,-126 106.4748,-126 103.4748,-122 23.5252,-122 23.5252,-86 130.4748,-86 130.4748,-122"/>
<text text-anchor="middle" x="77" y="-99.8" font-family="Times,serif" font-size="14.00" fill="#000000">MatIconModule</text>
</g>
<!-- MatIconModule&#45;&gt;TypeAheadInputModule -->
<g id="edge6" class="edge">
<title>MatIconModule&#45;&gt;TypeAheadInputModule</title>
<path fill="none" stroke="#000000" d="M77,-122.2843C77,-143.3211 77,-175 77,-175 77,-175 315.7426,-175 315.7426,-175"/>
<polygon fill="#000000" stroke="#000000" points="315.7426,-178.5001 325.7426,-175 315.7425,-171.5001 315.7426,-178.5001"/>
</g>
</g>
</svg>
