<?xml version="1.0" encoding="UTF-8" standalone="no"?>
<!DOCTYPE svg PUBLIC "-//W3C//DTD SVG 1.1//EN"
 "http://www.w3.org/Graphics/SVG/1.1/DTD/svg11.dtd">
<!-- Generated by graphviz version 2.40.1 (20161225.0304)
 -->
<!-- Title: dependencies Pages: 1 -->
<svg width="504pt" height="284pt"
 viewBox="0.00 0.00 504.00 284.00" xmlns="http://www.w3.org/2000/svg" xmlns:xlink="http://www.w3.org/1999/xlink">
<g id="graph0" class="graph" transform="scale(1 1) rotate(0) translate(4 280)">
<title>dependencies</title>
<polygon fill="#ffffff" stroke="transparent" points="-4,4 -4,-280 500,-280 500,4 -4,4"/>
<text text-anchor="start" x="227.0091" y="-42.4" font-family="sans-serif" font-weight="bold" font-size="14.00" fill="#000000">Legend</text>
<polygon fill="#ffffb3" stroke="transparent" points="14,-10 14,-30 34,-30 34,-10 14,-10"/>
<text text-anchor="start" x="37.629" y="-15.4" font-family="sans-serif" font-size="14.00" fill="#000000"> &#160;Declarations</text>
<polygon fill="#8dd3c7" stroke="transparent" points="127,-10 127,-30 147,-30 147,-10 127,-10"/>
<text text-anchor="start" x="150.7251" y="-15.4" font-family="sans-serif" font-size="14.00" fill="#000000"> &#160;Module</text>
<polygon fill="#80b1d3" stroke="transparent" points="213,-10 213,-30 233,-30 233,-10 213,-10"/>
<text text-anchor="start" x="236.7812" y="-15.4" font-family="sans-serif" font-size="14.00" fill="#000000"> &#160;Bootstrap</text>
<polygon fill="#fdb462" stroke="transparent" points="310,-10 310,-30 330,-30 330,-10 310,-10"/>
<text text-anchor="start" x="333.6732" y="-15.4" font-family="sans-serif" font-size="14.00" fill="#000000"> &#160;Providers</text>
<polygon fill="#fb8072" stroke="transparent" points="406,-10 406,-30 426,-30 426,-10 406,-10"/>
<text text-anchor="start" x="429.7258" y="-15.4" font-family="sans-serif" font-size="14.00" fill="#000000"> &#160;Exports</text>
<g id="clust1" class="cluster">
<title>cluster_LayoutModule</title>
<polygon fill="none" stroke="#000000" stroke-dasharray="1,5" points="62,-70 62,-268 434,-268 434,-70 62,-70"/>
</g>
<g id="clust2" class="cluster">
<title>cluster_LayoutModule_declarations</title>
<polygon fill="none" stroke="#000000" points="206,-78 206,-130 426,-130 426,-78 206,-78"/>
</g>
<g id="clust4" class="cluster">
<title>cluster_LayoutModule_imports</title>
<polygon fill="none" stroke="#000000" points="70,-78 70,-130 198,-130 198,-78 70,-78"/>
</g>
<g id="clust5" class="cluster">
<title>cluster_LayoutModule_exports</title>
<polygon fill="none" stroke="#000000" points="136,-208 136,-260 360,-260 360,-208 136,-208"/>
</g>
<!-- BoardLayoutManagerComponent -->
<g id="node1" class="node">
<title>BoardLayoutManagerComponent</title>
<polygon fill="#ffffb3" stroke="#000000" points="418.451,-122 213.549,-122 213.549,-86 418.451,-86 418.451,-122"/>
<text text-anchor="middle" x="316" y="-99.8" font-family="Times,serif" font-size="14.00" fill="#000000">BoardLayoutManagerComponent</text>
</g>
<!-- LayoutModule -->
<g id="node2" class="node">
<title>LayoutModule</title>
<polygon fill="#8dd3c7" stroke="#000000" points="297.7078,-187 294.7078,-191 273.7078,-191 270.7078,-187 198.2922,-187 198.2922,-151 297.7078,-151 297.7078,-187"/>
<text text-anchor="middle" x="248" y="-164.8" font-family="Times,serif" font-size="14.00" fill="#000000">LayoutModule</text>
</g>
<!-- BoardLayoutManagerComponent&#45;&gt;LayoutModule -->
<g id="edge1" class="edge">
<title>BoardLayoutManagerComponent&#45;&gt;LayoutModule</title>
<path fill="none" stroke="#000000" d="M255.5642,-122.1061C255.5642,-122.1061 255.5642,-140.991 255.5642,-140.991"/>
<polygon fill="#000000" stroke="#000000" points="252.0642,-140.9909 255.5642,-150.991 259.0642,-140.991 252.0642,-140.9909"/>
</g>
<!-- BoardLayoutManagerComponent  -->
<g id="node4" class="node">
<title>BoardLayoutManagerComponent </title>
<polygon fill="#fb8072" stroke="#000000" points="352.4515,-252 143.5485,-252 143.5485,-216 352.4515,-216 352.4515,-252"/>
<text text-anchor="middle" x="248" y="-229.8" font-family="Times,serif" font-size="14.00" fill="#000000">BoardLayoutManagerComponent </text>
</g>
<!-- LayoutModule&#45;&gt;BoardLayoutManagerComponent  -->
<g id="edge3" class="edge">
<title>LayoutModule&#45;&gt;BoardLayoutManagerComponent </title>
<path fill="none" stroke="#000000" stroke-dasharray="5,2" d="M248,-187.1061C248,-187.1061 248,-205.991 248,-205.991"/>
<polygon fill="#000000" stroke="#000000" points="244.5001,-205.9909 248,-215.991 251.5001,-205.991 244.5001,-205.9909"/>
</g>
<!-- CommonModule -->
<g id="node3" class="node">
<title>CommonModule</title>
<polygon fill="#8dd3c7" stroke="#000000" points="189.6681,-122 186.6681,-126 165.6681,-126 162.6681,-122 78.3319,-122 78.3319,-86 189.6681,-86 189.6681,-122"/>
<text text-anchor="middle" x="134" y="-99.8" font-family="Times,serif" font-size="14.00" fill="#000000">CommonModule</text>
</g>
<!-- CommonModule&#45;&gt;LayoutModule -->
<g id="edge2" class="edge">
<title>CommonModule&#45;&gt;LayoutModule</title>
<path fill="none" stroke="#000000" d="M189.99,-104C199.2799,-104 205.9604,-104 205.9604,-104 205.9604,-104 205.9604,-140.8939 205.9604,-140.8939"/>
<polygon fill="#000000" stroke="#000000" points="202.4604,-140.8938 205.9604,-150.8939 209.4604,-140.8939 202.4604,-140.8938"/>
</g>
</g>
</svg>
