<?xml version="1.0" encoding="UTF-8" standalone="no"?>
<!DOCTYPE svg PUBLIC "-//W3C//DTD SVG 1.1//EN"
 "http://www.w3.org/Graphics/SVG/1.1/DTD/svg11.dtd">
<!-- Generated by graphviz version 2.40.1 (20161225.0304)
 -->
<!-- Title: dependencies Pages: 1 -->
<svg width="528pt" height="284pt"
 viewBox="0.00 0.00 528.00 284.00" xmlns="http://www.w3.org/2000/svg" xmlns:xlink="http://www.w3.org/1999/xlink">
<g id="graph0" class="graph" transform="scale(1 1) rotate(0) translate(4 280)">
<title>dependencies</title>
<polygon fill="#ffffff" stroke="transparent" points="-4,4 -4,-280 524,-280 524,4 -4,4"/>
<text text-anchor="start" x="239.0091" y="-42.4" font-family="sans-serif" font-weight="bold" font-size="14.00" fill="#000000">Legend</text>
<polygon fill="#ffffb3" stroke="transparent" points="26,-10 26,-30 46,-30 46,-10 26,-10"/>
<text text-anchor="start" x="49.629" y="-15.4" font-family="sans-serif" font-size="14.00" fill="#000000"> &#160;Declarations</text>
<polygon fill="#8dd3c7" stroke="transparent" points="139,-10 139,-30 159,-30 159,-10 139,-10"/>
<text text-anchor="start" x="162.7251" y="-15.4" font-family="sans-serif" font-size="14.00" fill="#000000"> &#160;Module</text>
<polygon fill="#80b1d3" stroke="transparent" points="225,-10 225,-30 245,-30 245,-10 225,-10"/>
<text text-anchor="start" x="248.7812" y="-15.4" font-family="sans-serif" font-size="14.00" fill="#000000"> &#160;Bootstrap</text>
<polygon fill="#fdb462" stroke="transparent" points="322,-10 322,-30 342,-30 342,-10 322,-10"/>
<text text-anchor="start" x="345.6732" y="-15.4" font-family="sans-serif" font-size="14.00" fill="#000000"> &#160;Providers</text>
<polygon fill="#fb8072" stroke="transparent" points="418,-10 418,-30 438,-30 438,-10 418,-10"/>
<text text-anchor="start" x="441.7258" y="-15.4" font-family="sans-serif" font-size="14.00" fill="#000000"> &#160;Exports</text>
<g id="clust1" class="cluster">
<title>cluster_AddGadgetModule</title>
<polygon fill="none" stroke="#000000" stroke-dasharray="1,5" points="8,-70 8,-268 512,-268 512,-70 8,-70"/>
</g>
<g id="clust2" class="cluster">
<title>cluster_AddGadgetModule_declarations</title>
<polygon fill="none" stroke="#000000" points="342,-78 342,-130 504,-130 504,-78 342,-78"/>
</g>
<g id="clust4" class="cluster">
<title>cluster_AddGadgetModule_imports</title>
<polygon fill="none" stroke="#000000" points="210,-78 210,-130 334,-130 334,-78 210,-78"/>
</g>
<g id="clust5" class="cluster">
<title>cluster_AddGadgetModule_exports</title>
<polygon fill="none" stroke="#000000" points="189,-208 189,-260 355,-260 355,-208 189,-208"/>
</g>
<g id="clust7" class="cluster">
<title>cluster_AddGadgetModule_providers</title>
<polygon fill="none" stroke="#000000" points="16,-78 16,-130 202,-130 202,-78 16,-78"/>
</g>
<!-- AddGadgetComponent -->
<g id="node1" class="node">
<title>AddGadgetComponent</title>
<polygon fill="#ffffb3" stroke="#000000" points="495.8655,-122 350.1345,-122 350.1345,-86 495.8655,-86 495.8655,-122"/>
<text text-anchor="middle" x="423" y="-99.8" font-family="Times,serif" font-size="14.00" fill="#000000">AddGadgetComponent</text>
</g>
<!-- AddGadgetModule -->
<g id="node2" class="node">
<title>AddGadgetModule</title>
<polygon fill="#8dd3c7" stroke="#000000" points="334.0828,-187 331.0828,-191 310.0828,-191 307.0828,-187 209.9172,-187 209.9172,-151 334.0828,-151 334.0828,-187"/>
<text text-anchor="middle" x="272" y="-164.8" font-family="Times,serif" font-size="14.00" fill="#000000">AddGadgetModule</text>
</g>
<!-- AddGadgetComponent&#45;&gt;AddGadgetModule -->
<g id="edge1" class="edge">
<title>AddGadgetComponent&#45;&gt;AddGadgetModule</title>
<path fill="none" stroke="#000000" d="M349.6909,-104C338.1595,-104 329.9593,-104 329.9593,-104 329.9593,-104 329.9593,-140.8939 329.9593,-140.8939"/>
<polygon fill="#000000" stroke="#000000" points="326.4594,-140.8938 329.9593,-150.8939 333.4594,-140.8939 326.4594,-140.8938"/>
</g>
<!-- AddGadgetComponent  -->
<g id="node4" class="node">
<title>AddGadgetComponent </title>
<polygon fill="#fb8072" stroke="#000000" points="346.8658,-252 197.1342,-252 197.1342,-216 346.8658,-216 346.8658,-252"/>
<text text-anchor="middle" x="272" y="-229.8" font-family="Times,serif" font-size="14.00" fill="#000000">AddGadgetComponent </text>
</g>
<!-- AddGadgetModule&#45;&gt;AddGadgetComponent  -->
<g id="edge3" class="edge">
<title>AddGadgetModule&#45;&gt;AddGadgetComponent </title>
<path fill="none" stroke="#000000" stroke-dasharray="5,2" d="M272,-187.1061C272,-187.1061 272,-205.991 272,-205.991"/>
<polygon fill="#000000" stroke="#000000" points="268.5001,-205.9909 272,-215.991 275.5001,-205.991 268.5001,-205.9909"/>
</g>
<!-- DataListModule -->
<g id="node3" class="node">
<title>DataListModule</title>
<polygon fill="#8dd3c7" stroke="#000000" points="325.7549,-122 322.7549,-126 301.7549,-126 298.7549,-122 218.2451,-122 218.2451,-86 325.7549,-86 325.7549,-122"/>
<text text-anchor="middle" x="272" y="-99.8" font-family="Times,serif" font-size="14.00" fill="#000000">DataListModule</text>
</g>
<!-- DataListModule&#45;&gt;AddGadgetModule -->
<g id="edge2" class="edge">
<title>DataListModule&#45;&gt;AddGadgetModule</title>
<path fill="none" stroke="#000000" d="M272,-122.1061C272,-122.1061 272,-140.991 272,-140.991"/>
<polygon fill="#000000" stroke="#000000" points="268.5001,-140.9909 272,-150.991 275.5001,-140.991 268.5001,-140.9909"/>
</g>
<!-- AddGadgetService -->
<g id="node5" class="node">
<title>AddGadgetService</title>
<ellipse fill="#fdb462" stroke="#000000" cx="109" cy="-104" rx="84.5112" ry="18"/>
<text text-anchor="middle" x="109" y="-99.8" font-family="Times,serif" font-size="14.00" fill="#000000">AddGadgetService</text>
</g>
<!-- AddGadgetService&#45;&gt;AddGadgetModule -->
<g id="edge4" class="edge">
<title>AddGadgetService&#45;&gt;AddGadgetModule</title>
<path fill="none" stroke="#000000" d="M193.5384,-104C205.616,-104 214.0407,-104 214.0407,-104 214.0407,-104 214.0407,-140.8939 214.0407,-140.8939"/>
<polygon fill="#000000" stroke="#000000" points="210.5407,-140.8938 214.0407,-150.8939 217.5407,-140.8939 210.5407,-140.8938"/>
</g>
</g>
</svg>
