<?xml version="1.0" encoding="UTF-8" standalone="no"?>
<!DOCTYPE svg PUBLIC "-//W3C//DTD SVG 1.1//EN"
 "http://www.w3.org/Graphics/SVG/1.1/DTD/svg11.dtd">
<!-- Generated by graphviz version 2.40.1 (20161225.0304)
 -->
<!-- Title: dependencies Pages: 1 -->
<svg width="1357pt" height="284pt"
 viewBox="0.00 0.00 1357.00 284.00" xmlns="http://www.w3.org/2000/svg" xmlns:xlink="http://www.w3.org/1999/xlink">
<g id="graph0" class="graph" transform="scale(1 1) rotate(0) translate(4 280)">
<title>dependencies</title>
<polygon fill="#ffffff" stroke="transparent" points="-4,4 -4,-280 1353,-280 1353,4 -4,4"/>
<text text-anchor="start" x="653.5091" y="-42.4" font-family="sans-serif" font-weight="bold" font-size="14.00" fill="#000000">Legend</text>
<polygon fill="#ffffb3" stroke="transparent" points="440.5,-10 440.5,-30 460.5,-30 460.5,-10 440.5,-10"/>
<text text-anchor="start" x="464.129" y="-15.4" font-family="sans-serif" font-size="14.00" fill="#000000"> &#160;Declarations</text>
<polygon fill="#8dd3c7" stroke="transparent" points="553.5,-10 553.5,-30 573.5,-30 573.5,-10 553.5,-10"/>
<text text-anchor="start" x="577.2251" y="-15.4" font-family="sans-serif" font-size="14.00" fill="#000000"> &#160;Module</text>
<polygon fill="#80b1d3" stroke="transparent" points="639.5,-10 639.5,-30 659.5,-30 659.5,-10 639.5,-10"/>
<text text-anchor="start" x="663.2812" y="-15.4" font-family="sans-serif" font-size="14.00" fill="#000000"> &#160;Bootstrap</text>
<polygon fill="#fdb462" stroke="transparent" points="736.5,-10 736.5,-30 756.5,-30 756.5,-10 736.5,-10"/>
<text text-anchor="start" x="760.1732" y="-15.4" font-family="sans-serif" font-size="14.00" fill="#000000"> &#160;Providers</text>
<polygon fill="#fb8072" stroke="transparent" points="832.5,-10 832.5,-30 852.5,-30 852.5,-10 832.5,-10"/>
<text text-anchor="start" x="856.2258" y="-15.4" font-family="sans-serif" font-size="14.00" fill="#000000"> &#160;Exports</text>
<g id="clust1" class="cluster">
<title>cluster_AppModule</title>
<polygon fill="none" stroke="#000000" stroke-dasharray="1,5" points="8,-70 8,-268 1341,-268 1341,-70 8,-70"/>
</g>
<g id="clust2" class="cluster">
<title>cluster_AppModule_declarations</title>
<polygon fill="none" stroke="#000000" points="1211,-78 1211,-130 1333,-130 1333,-78 1211,-78"/>
</g>
<g id="clust4" class="cluster">
<title>cluster_AppModule_imports</title>
<polygon fill="none" stroke="#000000" points="16,-78 16,-130 1203,-130 1203,-78 16,-78"/>
</g>
<g id="clust6" class="cluster">
<title>cluster_AppModule_bootstrap</title>
<polygon fill="none" stroke="#000000" points="585,-208 585,-260 709,-260 709,-208 585,-208"/>
</g>
<!-- AppComponent -->
<g id="node1" class="node">
<title>AppComponent</title>
<polygon fill="#ffffb3" stroke="#000000" points="1324.9399,-122 1219.0601,-122 1219.0601,-86 1324.9399,-86 1324.9399,-122"/>
<text text-anchor="middle" x="1272" y="-99.8" font-family="Times,serif" font-size="14.00" fill="#000000">AppComponent</text>
</g>
<!-- AppModule -->
<g id="node2" class="node">
<title>AppModule</title>
<polygon fill="#8dd3c7" stroke="#000000" points="688.6571,-187 685.6571,-191 664.6571,-191 661.6571,-187 605.3429,-187 605.3429,-151 688.6571,-151 688.6571,-187"/>
<text text-anchor="middle" x="647" y="-164.8" font-family="Times,serif" font-size="14.00" fill="#000000">AppModule</text>
</g>
<!-- AppComponent&#45;&gt;AppModule -->
<g id="edge1" class="edge">
<title>AppComponent&#45;&gt;AppModule</title>
<path fill="none" stroke="#000000" d="M1272,-122.0109C1272,-144.4852 1272,-180 1272,-180 1272,-180 698.9785,-180 698.9785,-180"/>
<polygon fill="#000000" stroke="#000000" points="698.9785,-176.5001 688.9785,-180 698.9785,-183.5001 698.9785,-176.5001"/>
</g>
<!-- AppComponent  -->
<g id="node12" class="node">
<title>AppComponent </title>
<polygon fill="#80b1d3" stroke="#000000" points="701.439,-252 592.561,-252 592.561,-216 701.439,-216 701.439,-252"/>
<text text-anchor="middle" x="647" y="-229.8" font-family="Times,serif" font-size="14.00" fill="#000000">AppComponent </text>
</g>
<!-- AppModule&#45;&gt;AppComponent  -->
<g id="edge11" class="edge">
<title>AppModule&#45;&gt;AppComponent </title>
<path fill="none" stroke="#000000" stroke-dasharray="1,5" d="M647,-187.1061C647,-187.1061 647,-205.991 647,-205.991"/>
<polygon fill="#000000" stroke="#000000" points="643.5001,-205.9909 647,-215.991 650.5001,-205.991 643.5001,-205.9909"/>
</g>
<!-- BrowserModule -->
<g id="node3" class="node">
<title>BrowserModule</title>
<polygon fill="#8dd3c7" stroke="#000000" points="1195.4734,-122 1192.4734,-126 1171.4734,-126 1168.4734,-122 1088.5266,-122 1088.5266,-86 1195.4734,-86 1195.4734,-122"/>
<text text-anchor="middle" x="1142" y="-99.8" font-family="Times,serif" font-size="14.00" fill="#000000">BrowserModule</text>
</g>
<!-- BrowserModule&#45;&gt;AppModule -->
<g id="edge2" class="edge">
<title>BrowserModule&#45;&gt;AppModule</title>
<path fill="none" stroke="#000000" d="M1142,-122.1289C1142,-142.5724 1142,-173 1142,-173 1142,-173 698.7768,-173 698.7768,-173"/>
<polygon fill="#000000" stroke="#000000" points="698.7768,-169.5001 688.7768,-173 698.7768,-176.5001 698.7768,-169.5001"/>
</g>
<!-- BrowserAnimationsModule -->
<g id="node4" class="node">
<title>BrowserAnimationsModule</title>
<polygon fill="#8dd3c7" stroke="#000000" points="1070.3019,-122 1067.3019,-126 1046.3019,-126 1043.3019,-122 897.6981,-122 897.6981,-86 1070.3019,-86 1070.3019,-122"/>
<text text-anchor="middle" x="984" y="-99.8" font-family="Times,serif" font-size="14.00" fill="#000000">BrowserAnimationsModule</text>
</g>
<!-- BrowserAnimationsModule&#45;&gt;AppModule -->
<g id="edge3" class="edge">
<title>BrowserAnimationsModule&#45;&gt;AppModule</title>
<path fill="none" stroke="#000000" d="M984,-122.2667C984,-140.5552 984,-166 984,-166 984,-166 698.6608,-166 698.6608,-166"/>
<polygon fill="#000000" stroke="#000000" points="698.6608,-162.5001 688.6608,-166 698.6608,-169.5001 698.6608,-162.5001"/>
</g>
<!-- RoutingModule -->
<g id="node5" class="node">
<title>RoutingModule</title>
<polygon fill="#8dd3c7" stroke="#000000" points="880.1681,-122 877.1681,-126 856.1681,-126 853.1681,-122 775.8319,-122 775.8319,-86 880.1681,-86 880.1681,-122"/>
<text text-anchor="middle" x="828" y="-99.8" font-family="Times,serif" font-size="14.00" fill="#000000">RoutingModule</text>
</g>
<!-- RoutingModule&#45;&gt;AppModule -->
<g id="edge4" class="edge">
<title>RoutingModule&#45;&gt;AppModule</title>
<path fill="none" stroke="#000000" d="M828,-122.0091C828,-138.0494 828,-159 828,-159 828,-159 698.98,-159 698.98,-159"/>
<polygon fill="#000000" stroke="#000000" points="698.98,-155.5001 688.98,-159 698.9799,-162.5001 698.98,-155.5001"/>
</g>
<!-- FormsModule -->
<g id="node6" class="node">
<title>FormsModule</title>
<polygon fill="#8dd3c7" stroke="#000000" points="757.8288,-122 754.8288,-126 733.8288,-126 730.8288,-122 662.1712,-122 662.1712,-86 757.8288,-86 757.8288,-122"/>
<text text-anchor="middle" x="710" y="-99.8" font-family="Times,serif" font-size="14.00" fill="#000000">FormsModule</text>
</g>
<!-- FormsModule&#45;&gt;AppModule -->
<g id="edge5" class="edge">
<title>FormsModule&#45;&gt;AppModule</title>
<path fill="none" stroke="#000000" d="M675.5821,-122.1061C675.5821,-122.1061 675.5821,-140.991 675.5821,-140.991"/>
<polygon fill="#000000" stroke="#000000" points="672.0821,-140.9909 675.5821,-150.991 679.0821,-140.991 672.0821,-140.9909"/>
</g>
<!-- HttpClientModule -->
<g id="node7" class="node">
<title>HttpClientModule</title>
<polygon fill="#8dd3c7" stroke="#000000" points="644.1611,-122 641.1611,-126 620.1611,-126 617.1611,-122 525.8389,-122 525.8389,-86 644.1611,-86 644.1611,-122"/>
<text text-anchor="middle" x="585" y="-99.8" font-family="Times,serif" font-size="14.00" fill="#000000">HttpClientModule</text>
</g>
<!-- HttpClientModule&#45;&gt;AppModule -->
<g id="edge6" class="edge">
<title>HttpClientModule&#45;&gt;AppModule</title>
<path fill="none" stroke="#000000" d="M624.7511,-122.1061C624.7511,-122.1061 624.7511,-140.991 624.7511,-140.991"/>
<polygon fill="#000000" stroke="#000000" points="621.2511,-140.9909 624.7511,-150.991 628.2511,-140.991 621.2511,-140.9909"/>
</g>
<!-- BoardModule -->
<g id="node8" class="node">
<title>BoardModule</title>
<polygon fill="#8dd3c7" stroke="#000000" points="507.7619,-122 504.7619,-126 483.7619,-126 480.7619,-122 414.2381,-122 414.2381,-86 507.7619,-86 507.7619,-122"/>
<text text-anchor="middle" x="461" y="-99.8" font-family="Times,serif" font-size="14.00" fill="#000000">BoardModule</text>
</g>
<!-- BoardModule&#45;&gt;AppModule -->
<g id="edge7" class="edge">
<title>BoardModule&#45;&gt;AppModule</title>
<path fill="none" stroke="#000000" d="M461,-122.0091C461,-138.0494 461,-159 461,-159 461,-159 595.258,-159 595.258,-159"/>
<polygon fill="#000000" stroke="#000000" points="595.258,-162.5001 605.258,-159 595.2579,-155.5001 595.258,-162.5001"/>
</g>
<!-- MenuModule -->
<g id="node9" class="node">
<title>MenuModule</title>
<polygon fill="#8dd3c7" stroke="#000000" points="396.2092,-122 393.2092,-126 372.2092,-126 369.2092,-122 303.7908,-122 303.7908,-86 396.2092,-86 396.2092,-122"/>
<text text-anchor="middle" x="350" y="-99.8" font-family="Times,serif" font-size="14.00" fill="#000000">MenuModule</text>
</g>
<!-- MenuModule&#45;&gt;AppModule -->
<g id="edge8" class="edge">
<title>MenuModule&#45;&gt;AppModule</title>
<path fill="none" stroke="#000000" d="M350,-122.2667C350,-140.5552 350,-166 350,-166 350,-166 595.0771,-166 595.0771,-166"/>
<polygon fill="#000000" stroke="#000000" points="595.0771,-169.5001 605.0771,-166 595.077,-162.5001 595.0771,-169.5001"/>
</g>
<!-- DetailModule -->
<g id="node10" class="node">
<title>DetailModule</title>
<polygon fill="#8dd3c7" stroke="#000000" points="285.7577,-122 282.7577,-126 261.7577,-126 258.7577,-122 192.2423,-122 192.2423,-86 285.7577,-86 285.7577,-122"/>
<text text-anchor="middle" x="239" y="-99.8" font-family="Times,serif" font-size="14.00" fill="#000000">DetailModule</text>
</g>
<!-- DetailModule&#45;&gt;AppModule -->
<g id="edge9" class="edge">
<title>DetailModule&#45;&gt;AppModule</title>
<path fill="none" stroke="#000000" d="M239,-122.1289C239,-142.5724 239,-173 239,-173 239,-173 595.2542,-173 595.2542,-173"/>
<polygon fill="#000000" stroke="#000000" points="595.2543,-176.5001 605.2542,-173 595.2542,-169.5001 595.2543,-176.5001"/>
</g>
<!-- HttpClientJsonpModule -->
<g id="node11" class="node">
<title>HttpClientJsonpModule</title>
<polygon fill="#8dd3c7" stroke="#000000" points="174.0505,-122 171.0505,-126 150.0505,-126 147.0505,-122 23.9495,-122 23.9495,-86 174.0505,-86 174.0505,-122"/>
<text text-anchor="middle" x="99" y="-99.8" font-family="Times,serif" font-size="14.00" fill="#000000">HttpClientJsonpModule</text>
</g>
<!-- HttpClientJsonpModule&#45;&gt;AppModule -->
<g id="edge10" class="edge">
<title>HttpClientJsonpModule&#45;&gt;AppModule</title>
<path fill="none" stroke="#000000" d="M99,-122.0109C99,-144.4852 99,-180 99,-180 99,-180 594.9093,-180 594.9093,-180"/>
<polygon fill="#000000" stroke="#000000" points="594.9093,-183.5001 604.9093,-180 594.9093,-176.5001 594.9093,-183.5001"/>
</g>
</g>
</svg>
