<?xml version="1.0" encoding="UTF-8" standalone="no"?>
<!DOCTYPE svg PUBLIC "-//W3C//DTD SVG 1.1//EN"
 "http://www.w3.org/Graphics/SVG/1.1/DTD/svg11.dtd">
<!-- Generated by graphviz version 2.40.1 (20161225.0304)
 -->
<!-- Title: dependencies Pages: 1 -->
<svg width="892pt" height="284pt"
 viewBox="0.00 0.00 892.00 284.00" xmlns="http://www.w3.org/2000/svg" xmlns:xlink="http://www.w3.org/1999/xlink">
<g id="graph0" class="graph" transform="scale(1 1) rotate(0) translate(4 280)">
<title>dependencies</title>
<polygon fill="#ffffff" stroke="transparent" points="-4,4 -4,-280 888,-280 888,4 -4,4"/>
<text text-anchor="start" x="421.0091" y="-42.4" font-family="sans-serif" font-weight="bold" font-size="14.00" fill="#000000">Legend</text>
<polygon fill="#ffffb3" stroke="transparent" points="208,-10 208,-30 228,-30 228,-10 208,-10"/>
<text text-anchor="start" x="231.629" y="-15.4" font-family="sans-serif" font-size="14.00" fill="#000000"> &#160;Declarations</text>
<polygon fill="#8dd3c7" stroke="transparent" points="321,-10 321,-30 341,-30 341,-10 321,-10"/>
<text text-anchor="start" x="344.7251" y="-15.4" font-family="sans-serif" font-size="14.00" fill="#000000"> &#160;Module</text>
<polygon fill="#80b1d3" stroke="transparent" points="407,-10 407,-30 427,-30 427,-10 407,-10"/>
<text text-anchor="start" x="430.7812" y="-15.4" font-family="sans-serif" font-size="14.00" fill="#000000"> &#160;Bootstrap</text>
<polygon fill="#fdb462" stroke="transparent" points="504,-10 504,-30 524,-30 524,-10 504,-10"/>
<text text-anchor="start" x="527.6732" y="-15.4" font-family="sans-serif" font-size="14.00" fill="#000000"> &#160;Providers</text>
<polygon fill="#fb8072" stroke="transparent" points="600,-10 600,-30 620,-30 620,-10 600,-10"/>
<text text-anchor="start" x="623.7258" y="-15.4" font-family="sans-serif" font-size="14.00" fill="#000000"> &#160;Exports</text>
<g id="clust1" class="cluster">
<title>cluster_GadgetSharedModule</title>
<polygon fill="none" stroke="#000000" stroke-dasharray="1,5" points="8,-70 8,-268 876,-268 876,-70 8,-70"/>
</g>
<g id="clust2" class="cluster">
<title>cluster_GadgetSharedModule_declarations</title>
<polygon fill="none" stroke="#000000" points="152,-78 152,-130 868,-130 868,-78 152,-78"/>
</g>
<g id="clust7" class="cluster">
<title>cluster_GadgetSharedModule_imports</title>
<polygon fill="none" stroke="#000000" points="16,-78 16,-130 144,-130 144,-78 16,-78"/>
</g>
<g id="clust8" class="cluster">
<title>cluster_GadgetSharedModule_exports</title>
<polygon fill="none" stroke="#000000" points="77,-208 77,-260 807,-260 807,-208 77,-208"/>
</g>
<!-- GadgetHeaderComponent -->
<g id="node1" class="node">
<title>GadgetHeaderComponent</title>
<polygon fill="#ffffb3" stroke="#000000" points="860.1699,-122 697.8301,-122 697.8301,-86 860.1699,-86 860.1699,-122"/>
<text text-anchor="middle" x="779" y="-99.8" font-family="Times,serif" font-size="14.00" fill="#000000">GadgetHeaderComponent</text>
</g>
<!-- GadgetSharedModule -->
<g id="node5" class="node">
<title>GadgetSharedModule</title>
<polygon fill="#8dd3c7" stroke="#000000" points="481.3487,-187 478.3487,-191 457.3487,-191 454.3487,-187 342.6513,-187 342.6513,-151 481.3487,-151 481.3487,-187"/>
<text text-anchor="middle" x="412" y="-164.8" font-family="Times,serif" font-size="14.00" fill="#000000">GadgetSharedModule</text>
</g>
<!-- GadgetHeaderComponent&#45;&gt;GadgetSharedModule -->
<g id="edge1" class="edge">
<title>GadgetHeaderComponent&#45;&gt;GadgetSharedModule</title>
<path fill="none" stroke="#000000" d="M748.375,-122.1061C748.375,-141.3391 748.375,-169 748.375,-169 748.375,-169 491.6971,-169 491.6971,-169"/>
<polygon fill="#000000" stroke="#000000" points="491.6972,-165.5001 481.6971,-169 491.6971,-172.5001 491.6972,-165.5001"/>
</g>
<!-- GadgetOperationComponent -->
<g id="node2" class="node">
<title>GadgetOperationComponent</title>
<polygon fill="#ffffb3" stroke="#000000" points="679.7366,-122 502.2634,-122 502.2634,-86 679.7366,-86 679.7366,-122"/>
<text text-anchor="middle" x="591" y="-99.8" font-family="Times,serif" font-size="14.00" fill="#000000">GadgetOperationComponent</text>
</g>
<!-- GadgetOperationComponent&#45;&gt;GadgetSharedModule -->
<g id="edge2" class="edge">
<title>GadgetOperationComponent&#45;&gt;GadgetSharedModule</title>
<path fill="none" stroke="#000000" d="M558.875,-122.027C558.875,-138.3976 558.875,-160 558.875,-160 558.875,-160 491.5664,-160 491.5664,-160"/>
<polygon fill="#000000" stroke="#000000" points="491.5664,-156.5001 481.5664,-160 491.5664,-163.5001 491.5664,-156.5001"/>
</g>
<!-- HelpModalComponent -->
<g id="node3" class="node">
<title>HelpModalComponent</title>
<polygon fill="#ffffb3" stroke="#000000" points="484.594,-122 339.406,-122 339.406,-86 484.594,-86 484.594,-122"/>
<text text-anchor="middle" x="412" y="-99.8" font-family="Times,serif" font-size="14.00" fill="#000000">HelpModalComponent</text>
</g>
<!-- HelpModalComponent&#45;&gt;GadgetSharedModule -->
<g id="edge3" class="edge">
<title>HelpModalComponent&#45;&gt;GadgetSharedModule</title>
<path fill="none" stroke="#000000" d="M412,-122.1061C412,-122.1061 412,-140.991 412,-140.991"/>
<polygon fill="#000000" stroke="#000000" points="408.5001,-140.9909 412,-150.991 415.5001,-140.991 408.5001,-140.9909"/>
</g>
<!-- VisDrillDownComponent -->
<g id="node4" class="node">
<title>VisDrillDownComponent</title>
<polygon fill="#ffffb3" stroke="#000000" points="321.927,-122 160.073,-122 160.073,-86 321.927,-86 321.927,-122"/>
<text text-anchor="middle" x="241" y="-99.8" font-family="Times,serif" font-size="14.00" fill="#000000">VisDrillDownComponent</text>
</g>
<!-- VisDrillDownComponent&#45;&gt;GadgetSharedModule -->
<g id="edge4" class="edge">
<title>VisDrillDownComponent&#45;&gt;GadgetSharedModule</title>
<path fill="none" stroke="#000000" d="M294.7081,-122.027C294.7081,-138.3976 294.7081,-160 294.7081,-160 294.7081,-160 332.4152,-160 332.4152,-160"/>
<polygon fill="#000000" stroke="#000000" points="332.4152,-163.5001 342.4152,-160 332.4152,-156.5001 332.4152,-163.5001"/>
</g>
<!-- GadgetHeaderComponent  -->
<g id="node7" class="node">
<title>GadgetHeaderComponent </title>
<polygon fill="#fb8072" stroke="#000000" points="798.6701,-252 633.3299,-252 633.3299,-216 798.6701,-216 798.6701,-252"/>
<text text-anchor="middle" x="716" y="-229.8" font-family="Times,serif" font-size="14.00" fill="#000000">GadgetHeaderComponent </text>
</g>
<!-- GadgetSharedModule&#45;&gt;GadgetHeaderComponent  -->
<g id="edge6" class="edge">
<title>GadgetSharedModule&#45;&gt;GadgetHeaderComponent </title>
<path fill="none" stroke="#000000" stroke-dasharray="5,2" d="M481.4146,-178C553.7044,-178 656.5167,-178 656.5167,-178 656.5167,-178 656.5167,-205.973 656.5167,-205.973"/>
<polygon fill="#000000" stroke="#000000" points="653.0167,-205.973 656.5167,-215.973 660.0167,-205.973 653.0167,-205.973"/>
</g>
<!-- GadgetOperationComponent  -->
<g id="node8" class="node">
<title>GadgetOperationComponent </title>
<polygon fill="#fb8072" stroke="#000000" points="615.7366,-252 434.2634,-252 434.2634,-216 615.7366,-216 615.7366,-252"/>
<text text-anchor="middle" x="525" y="-229.8" font-family="Times,serif" font-size="14.00" fill="#000000">GadgetOperationComponent </text>
</g>
<!-- GadgetSharedModule&#45;&gt;GadgetOperationComponent  -->
<g id="edge7" class="edge">
<title>GadgetSharedModule&#45;&gt;GadgetOperationComponent </title>
<path fill="none" stroke="#000000" stroke-dasharray="5,2" d="M457.9031,-187.1061C457.9031,-187.1061 457.9031,-205.991 457.9031,-205.991"/>
<polygon fill="#000000" stroke="#000000" points="454.4031,-205.9909 457.9031,-215.991 461.4031,-205.991 454.4031,-205.9909"/>
</g>
<!-- HelpModalComponent  -->
<g id="node9" class="node">
<title>HelpModalComponent </title>
<polygon fill="#fb8072" stroke="#000000" points="416.0946,-252 267.9054,-252 267.9054,-216 416.0946,-216 416.0946,-252"/>
<text text-anchor="middle" x="342" y="-229.8" font-family="Times,serif" font-size="14.00" fill="#000000">HelpModalComponent </text>
</g>
<!-- GadgetSharedModule&#45;&gt;HelpModalComponent  -->
<g id="edge8" class="edge">
<title>GadgetSharedModule&#45;&gt;HelpModalComponent </title>
<path fill="none" stroke="#000000" stroke-dasharray="5,2" d="M379.4364,-187.1061C379.4364,-187.1061 379.4364,-205.991 379.4364,-205.991"/>
<polygon fill="#000000" stroke="#000000" points="375.9364,-205.9909 379.4364,-215.991 382.9364,-205.991 375.9364,-205.9909"/>
</g>
<!-- VisDrillDownComponent  -->
<g id="node10" class="node">
<title>VisDrillDownComponent </title>
<polygon fill="#fb8072" stroke="#000000" points="249.4264,-252 84.5736,-252 84.5736,-216 249.4264,-216 249.4264,-252"/>
<text text-anchor="middle" x="167" y="-229.8" font-family="Times,serif" font-size="14.00" fill="#000000">VisDrillDownComponent </text>
</g>
<!-- GadgetSharedModule&#45;&gt;VisDrillDownComponent  -->
<g id="edge9" class="edge">
<title>GadgetSharedModule&#45;&gt;VisDrillDownComponent </title>
<path fill="none" stroke="#000000" stroke-dasharray="5,2" d="M342.4542,-178C282.2822,-178 204.875,-178 204.875,-178 204.875,-178 204.875,-205.973 204.875,-205.973"/>
<polygon fill="#000000" stroke="#000000" points="201.3751,-205.973 204.875,-215.973 208.3751,-205.973 201.3751,-205.973"/>
</g>
<!-- CommonModule -->
<g id="node6" class="node">
<title>CommonModule</title>
<polygon fill="#8dd3c7" stroke="#000000" points="135.6681,-122 132.6681,-126 111.6681,-126 108.6681,-122 24.3319,-122 24.3319,-86 135.6681,-86 135.6681,-122"/>
<text text-anchor="middle" x="80" y="-99.8" font-family="Times,serif" font-size="14.00" fill="#000000">CommonModule</text>
</g>
<!-- CommonModule&#45;&gt;GadgetSharedModule -->
<g id="edge5" class="edge">
<title>CommonModule&#45;&gt;GadgetSharedModule</title>
<path fill="none" stroke="#000000" d="M110.1853,-122.1061C110.1853,-141.3391 110.1853,-169 110.1853,-169 110.1853,-169 332.3786,-169 332.3786,-169"/>
<polygon fill="#000000" stroke="#000000" points="332.3787,-172.5001 342.3786,-169 332.3786,-165.5001 332.3787,-172.5001"/>
</g>
</g>
</svg>
