<?xml version="1.0" encoding="UTF-8" standalone="no"?>
<!DOCTYPE svg PUBLIC "-//W3C//DTD SVG 1.1//EN"
 "http://www.w3.org/Graphics/SVG/1.1/DTD/svg11.dtd">
<!-- Generated by graphviz version 2.40.1 (20161225.0304)
 -->
<!-- Title: dependencies Pages: 1 -->
<svg width="5477pt" height="284pt"
 viewBox="0.00 0.00 5477.00 284.00" xmlns="http://www.w3.org/2000/svg" xmlns:xlink="http://www.w3.org/1999/xlink">
<g id="graph0" class="graph" transform="scale(1 1) rotate(0) translate(4 280)">
<title>dependencies</title>
<polygon fill="#ffffff" stroke="transparent" points="-4,4 -4,-280 5473,-280 5473,4 -4,4"/>
<text text-anchor="start" x="2713.5091" y="-42.4" font-family="sans-serif" font-weight="bold" font-size="14.00" fill="#000000">Legend</text>
<polygon fill="#ffffb3" stroke="transparent" points="2500.5,-10 2500.5,-30 2520.5,-30 2520.5,-10 2500.5,-10"/>
<text text-anchor="start" x="2524.129" y="-15.4" font-family="sans-serif" font-size="14.00" fill="#000000"> &#160;Declarations</text>
<polygon fill="#8dd3c7" stroke="transparent" points="2613.5,-10 2613.5,-30 2633.5,-30 2633.5,-10 2613.5,-10"/>
<text text-anchor="start" x="2637.2251" y="-15.4" font-family="sans-serif" font-size="14.00" fill="#000000"> &#160;Module</text>
<polygon fill="#80b1d3" stroke="transparent" points="2699.5,-10 2699.5,-30 2719.5,-30 2719.5,-10 2699.5,-10"/>
<text text-anchor="start" x="2723.2812" y="-15.4" font-family="sans-serif" font-size="14.00" fill="#000000"> &#160;Bootstrap</text>
<polygon fill="#fdb462" stroke="transparent" points="2796.5,-10 2796.5,-30 2816.5,-30 2816.5,-10 2796.5,-10"/>
<text text-anchor="start" x="2820.1732" y="-15.4" font-family="sans-serif" font-size="14.00" fill="#000000"> &#160;Providers</text>
<polygon fill="#fb8072" stroke="transparent" points="2892.5,-10 2892.5,-30 2912.5,-30 2912.5,-10 2892.5,-10"/>
<text text-anchor="start" x="2916.2258" y="-15.4" font-family="sans-serif" font-size="14.00" fill="#000000"> &#160;Exports</text>
<g id="clust1" class="cluster">
<title>cluster_GadgetModule</title>
<polygon fill="none" stroke="#000000" stroke-dasharray="1,5" points="8,-70 8,-268 5461,-268 5461,-70 8,-70"/>
</g>
<g id="clust2" class="cluster">
<title>cluster_GadgetModule_declarations</title>
<polygon fill="none" stroke="#000000" points="2748,-78 2748,-130 5453,-130 5453,-78 2748,-78"/>
</g>
<g id="clust17" class="cluster">
<title>cluster_GadgetModule_imports</title>
<polygon fill="none" stroke="#000000" points="890,-78 890,-130 2740,-130 2740,-78 890,-78"/>
</g>
<g id="clust18" class="cluster">
<title>cluster_GadgetModule_exports</title>
<polygon fill="none" stroke="#000000" points="926,-208 926,-260 3681,-260 3681,-208 926,-208"/>
</g>
<g id="clust20" class="cluster">
<title>cluster_GadgetModule_providers</title>
<polygon fill="none" stroke="#000000" points="16,-78 16,-130 882,-130 882,-78 16,-78"/>
</g>
<!-- CPUGadgetComponent -->
<g id="node1" class="node">
<title>CPUGadgetComponent</title>
<polygon fill="#ffffb3" stroke="#000000" points="5445.4846,-122 5296.5154,-122 5296.5154,-86 5445.4846,-86 5445.4846,-122"/>
<text text-anchor="middle" x="5371" y="-99.8" font-family="Times,serif" font-size="14.00" fill="#000000">CPUGadgetComponent</text>
</g>
<!-- GadgetModule -->
<g id="node15" class="node">
<title>GadgetModule</title>
<polygon fill="#8dd3c7" stroke="#000000" points="2503.9762,-187 2500.9762,-191 2479.9762,-191 2476.9762,-187 2404.0238,-187 2404.0238,-151 2503.9762,-151 2503.9762,-187"/>
<text text-anchor="middle" x="2454" y="-164.8" font-family="Times,serif" font-size="14.00" fill="#000000">GadgetModule</text>
</g>
<!-- CPUGadgetComponent&#45;&gt;GadgetModule -->
<g id="edge1" class="edge">
<title>CPUGadgetComponent&#45;&gt;GadgetModule</title>
<path fill="none" stroke="#000000" d="M5371,-122.2843C5371,-143.3211 5371,-175 5371,-175 5371,-175 2514.0163,-175 2514.0163,-175"/>
<polygon fill="#000000" stroke="#000000" points="2514.0163,-171.5001 2504.0163,-175 2514.0162,-178.5001 2514.0163,-171.5001"/>
</g>
<!-- CPUMGadgetComponent -->
<g id="node2" class="node">
<title>CPUMGadgetComponent</title>
<polygon fill="#ffffb3" stroke="#000000" points="5278.9298,-122 5117.0702,-122 5117.0702,-86 5278.9298,-86 5278.9298,-122"/>
<text text-anchor="middle" x="5198" y="-99.8" font-family="Times,serif" font-size="14.00" fill="#000000">CPUMGadgetComponent</text>
</g>
<!-- CPUMGadgetComponent&#45;&gt;GadgetModule -->
<g id="edge2" class="edge">
<title>CPUMGadgetComponent&#45;&gt;GadgetModule</title>
<path fill="none" stroke="#000000" d="M5198,-122.0267C5198,-142.7672 5198,-174 5198,-174 5198,-174 2514.2662,-174 2514.2662,-174"/>
<polygon fill="#000000" stroke="#000000" points="2514.2662,-170.5001 2504.2662,-174 2514.2661,-177.5001 2514.2662,-170.5001"/>
</g>
<!-- DiskGadgetComponent -->
<g id="node3" class="node">
<title>DiskGadgetComponent</title>
<polygon fill="#ffffb3" stroke="#000000" points="5099.2007,-122 4950.7993,-122 4950.7993,-86 5099.2007,-86 5099.2007,-122"/>
<text text-anchor="middle" x="5025" y="-99.8" font-family="Times,serif" font-size="14.00" fill="#000000">DiskGadgetComponent</text>
</g>
<!-- DiskGadgetComponent&#45;&gt;GadgetModule -->
<g id="edge3" class="edge">
<title>DiskGadgetComponent&#45;&gt;GadgetModule</title>
<path fill="none" stroke="#000000" d="M5025,-122.2228C5025,-142.3652 5025,-172 5025,-172 5025,-172 2514.2039,-172 2514.2039,-172"/>
<polygon fill="#000000" stroke="#000000" points="2514.2039,-168.5001 2504.2039,-172 2514.2039,-175.5001 2514.2039,-168.5001"/>
</g>
<!-- MemoryGadgetComponent -->
<g id="node4" class="node">
<title>MemoryGadgetComponent</title>
<polygon fill="#ffffb3" stroke="#000000" points="4932.9692,-122 4763.0308,-122 4763.0308,-86 4932.9692,-86 4932.9692,-122"/>
<text text-anchor="middle" x="4848" y="-99.8" font-family="Times,serif" font-size="14.00" fill="#000000">MemoryGadgetComponent</text>
</g>
<!-- MemoryGadgetComponent&#45;&gt;GadgetModule -->
<g id="edge4" class="edge">
<title>MemoryGadgetComponent&#45;&gt;GadgetModule</title>
<path fill="none" stroke="#000000" d="M4848,-122.308C4848,-142.1455 4848,-171 4848,-171 4848,-171 2514.0021,-171 2514.0021,-171"/>
<polygon fill="#000000" stroke="#000000" points="2514.0021,-167.5001 2504.0021,-171 2514.0021,-174.5001 2514.0021,-167.5001"/>
</g>
<!-- EdgeServiceListGadgetComponent -->
<g id="node5" class="node">
<title>EdgeServiceListGadgetComponent</title>
<polygon fill="#ffffb3" stroke="#000000" points="4745.2822,-122 4530.7178,-122 4530.7178,-86 4745.2822,-86 4745.2822,-122"/>
<text text-anchor="middle" x="4638" y="-99.8" font-family="Times,serif" font-size="14.00" fill="#000000">EdgeServiceListGadgetComponent</text>
</g>
<!-- EdgeServiceListGadgetComponent&#45;&gt;GadgetModule -->
<g id="edge5" class="edge">
<title>EdgeServiceListGadgetComponent&#45;&gt;GadgetModule</title>
<path fill="none" stroke="#000000" d="M4638,-122.1061C4638,-141.3391 4638,-169 4638,-169 4638,-169 2513.9813,-169 2513.9813,-169"/>
<polygon fill="#000000" stroke="#000000" points="2513.9813,-165.5001 2503.9813,-169 2513.9813,-172.5001 2513.9813,-165.5001"/>
</g>
<!-- StatisticGadgetComponent -->
<g id="node6" class="node">
<title>StatisticGadgetComponent</title>
<polygon fill="#ffffb3" stroke="#000000" points="4512.3683,-122 4345.6317,-122 4345.6317,-86 4512.3683,-86 4512.3683,-122"/>
<text text-anchor="middle" x="4429" y="-99.8" font-family="Times,serif" font-size="14.00" fill="#000000">StatisticGadgetComponent</text>
</g>
<!-- StatisticGadgetComponent&#45;&gt;GadgetModule -->
<g id="edge6" class="edge">
<title>StatisticGadgetComponent&#45;&gt;GadgetModule</title>
<path fill="none" stroke="#000000" d="M4456.8114,-122.1686C4456.8114,-141.0898 4456.8114,-168 4456.8114,-168 4456.8114,-168 2514.0077,-168 2514.0077,-168"/>
<polygon fill="#000000" stroke="#000000" points="2514.0077,-164.5001 2504.0077,-168 2514.0076,-171.5001 2514.0077,-164.5001"/>
</g>
<!-- StatisticGadgetComponent&#45;&gt;GadgetModule -->
<g id="edge11" class="edge">
<title>StatisticGadgetComponent&#45;&gt;GadgetModule</title>
<path fill="none" stroke="#000000" d="M4401.1886,-122.2667C4401.1886,-140.5552 4401.1886,-166 4401.1886,-166 4401.1886,-166 2514.0898,-166 2514.0898,-166"/>
<polygon fill="#000000" stroke="#000000" points="2514.0898,-162.5001 2504.0898,-166 2514.0898,-169.5001 2514.0898,-162.5001"/>
</g>
<!-- TrendGadgetComponent -->
<g id="node7" class="node">
<title>TrendGadgetComponent</title>
<polygon fill="#ffffb3" stroke="#000000" points="4327.6867,-122 4172.3133,-122 4172.3133,-86 4327.6867,-86 4327.6867,-122"/>
<text text-anchor="middle" x="4250" y="-99.8" font-family="Times,serif" font-size="14.00" fill="#000000">TrendGadgetComponent</text>
</g>
<!-- TrendGadgetComponent&#45;&gt;GadgetModule -->
<g id="edge7" class="edge">
<title>TrendGadgetComponent&#45;&gt;GadgetModule</title>
<path fill="none" stroke="#000000" d="M4250,-122.302C4250,-140.2699 4250,-165 4250,-165 4250,-165 2514.3828,-165 2514.3828,-165"/>
<polygon fill="#000000" stroke="#000000" points="2514.3828,-161.5001 2504.3828,-165 2514.3827,-168.5001 2514.3828,-161.5001"/>
</g>
<!-- TrendLineGadgetComponent -->
<g id="node8" class="node">
<title>TrendLineGadgetComponent</title>
<polygon fill="#ffffb3" stroke="#000000" points="4154.3445,-122 3973.6555,-122 3973.6555,-86 4154.3445,-86 4154.3445,-122"/>
<text text-anchor="middle" x="4064" y="-99.8" font-family="Times,serif" font-size="14.00" fill="#000000">TrendLineGadgetComponent</text>
</g>
<!-- TrendLineGadgetComponent&#45;&gt;GadgetModule -->
<g id="edge8" class="edge">
<title>TrendLineGadgetComponent&#45;&gt;GadgetModule</title>
<path fill="none" stroke="#000000" d="M4064,-122.0225C4064,-139.3734 4064,-163 4064,-163 4064,-163 2514.3955,-163 2514.3955,-163"/>
<polygon fill="#000000" stroke="#000000" points="2514.3955,-159.5001 2504.3955,-163 2514.3954,-166.5001 2514.3955,-159.5001"/>
</g>
<!-- NewsGadgetComponent -->
<g id="node9" class="node">
<title>NewsGadgetComponent</title>
<polygon fill="#ffffb3" stroke="#000000" points="3955.6316,-122 3802.3684,-122 3802.3684,-86 3955.6316,-86 3955.6316,-122"/>
<text text-anchor="middle" x="3879" y="-99.8" font-family="Times,serif" font-size="14.00" fill="#000000">NewsGadgetComponent</text>
</g>
<!-- NewsGadgetComponent&#45;&gt;GadgetModule -->
<g id="edge9" class="edge">
<title>NewsGadgetComponent&#45;&gt;GadgetModule</title>
<path fill="none" stroke="#000000" d="M3879,-122.0336C3879,-139.0597 3879,-162 3879,-162 3879,-162 2514.2979,-162 2514.2979,-162"/>
<polygon fill="#000000" stroke="#000000" points="2514.298,-158.5001 2504.2979,-162 2514.2979,-165.5001 2514.298,-158.5001"/>
</g>
<!-- JobAnalysisGadgetComponent -->
<g id="node10" class="node">
<title>JobAnalysisGadgetComponent</title>
<polygon fill="#ffffb3" stroke="#000000" points="3784.1951,-122 3593.8049,-122 3593.8049,-86 3784.1951,-86 3784.1951,-122"/>
<text text-anchor="middle" x="3689" y="-99.8" font-family="Times,serif" font-size="14.00" fill="#000000">JobAnalysisGadgetComponent</text>
</g>
<!-- JobAnalysisGadgetComponent&#45;&gt;GadgetModule -->
<g id="edge10" class="edge">
<title>JobAnalysisGadgetComponent&#45;&gt;GadgetModule</title>
<path fill="none" stroke="#000000" d="M3633.5724,-122.027C3633.5724,-138.3976 3633.5724,-160 3633.5724,-160 3633.5724,-160 2514.3074,-160 2514.3074,-160"/>
<polygon fill="#000000" stroke="#000000" points="2514.3074,-156.5001 2504.3074,-160 2514.3074,-163.5001 2514.3074,-156.5001"/>
</g>
<!-- PropertyListGadgetComponent -->
<g id="node11" class="node">
<title>PropertyListGadgetComponent</title>
<polygon fill="#ffffb3" stroke="#000000" points="3575.7464,-122 3384.2536,-122 3384.2536,-86 3575.7464,-86 3575.7464,-122"/>
<text text-anchor="middle" x="3480" y="-99.8" font-family="Times,serif" font-size="14.00" fill="#000000">PropertyListGadgetComponent</text>
</g>
<!-- PropertyListGadgetComponent&#45;&gt;GadgetModule -->
<g id="edge12" class="edge">
<title>PropertyListGadgetComponent&#45;&gt;GadgetModule</title>
<path fill="none" stroke="#000000" d="M3443.2958,-122.0091C3443.2958,-138.0494 3443.2958,-159 3443.2958,-159 3443.2958,-159 2514.0778,-159 2514.0778,-159"/>
<polygon fill="#000000" stroke="#000000" points="2514.0779,-155.5001 2504.0778,-159 2514.0778,-162.5001 2514.0779,-155.5001"/>
</g>
<!-- ServiceListGadgetComponent -->
<g id="node12" class="node">
<title>ServiceListGadgetComponent</title>
<polygon fill="#ffffb3" stroke="#000000" points="3365.5154,-122 3180.4846,-122 3180.4846,-86 3365.5154,-86 3365.5154,-122"/>
<text text-anchor="middle" x="3273" y="-99.8" font-family="Times,serif" font-size="14.00" fill="#000000">ServiceListGadgetComponent</text>
</g>
<!-- ServiceListGadgetComponent&#45;&gt;GadgetModule -->
<g id="edge13" class="edge">
<title>ServiceListGadgetComponent&#45;&gt;GadgetModule</title>
<path fill="none" stroke="#000000" d="M3250.0465,-122.2396C3250.0465,-137.5706 3250.0465,-157 3250.0465,-157 3250.0465,-157 2514.0978,-157 2514.0978,-157"/>
<polygon fill="#000000" stroke="#000000" points="2514.0979,-153.5001 2504.0978,-157 2514.0978,-160.5001 2514.0979,-153.5001"/>
</g>
<!-- ResponseTimeGadgetComponent -->
<g id="node13" class="node">
<title>ResponseTimeGadgetComponent</title>
<polygon fill="#ffffb3" stroke="#000000" points="3162.4622,-122 2957.5378,-122 2957.5378,-86 3162.4622,-86 3162.4622,-122"/>
<text text-anchor="middle" x="3060" y="-99.8" font-family="Times,serif" font-size="14.00" fill="#000000">ResponseTimeGadgetComponent</text>
</g>
<!-- ResponseTimeGadgetComponent&#45;&gt;GadgetModule -->
<g id="edge14" class="edge">
<title>ResponseTimeGadgetComponent&#45;&gt;GadgetModule</title>
<path fill="none" stroke="#000000" d="M2967.0782,-122.1871C2967.0782,-137.1824 2967.0782,-156 2967.0782,-156 2967.0782,-156 2514.1303,-156 2514.1303,-156"/>
<polygon fill="#000000" stroke="#000000" points="2514.1303,-152.5001 2504.1303,-156 2514.1303,-159.5001 2514.1303,-152.5001"/>
</g>
<!-- StorageObjectListComponent -->
<g id="node14" class="node">
<title>StorageObjectListComponent</title>
<polygon fill="#ffffb3" stroke="#000000" points="2939.6909,-122 2756.3091,-122 2756.3091,-86 2939.6909,-86 2939.6909,-122"/>
<text text-anchor="middle" x="2848" y="-99.8" font-family="Times,serif" font-size="14.00" fill="#000000">StorageObjectListComponent</text>
</g>
<!-- StorageObjectListComponent&#45;&gt;GadgetModule -->
<g id="edge15" class="edge">
<title>StorageObjectListComponent&#45;&gt;GadgetModule</title>
<path fill="none" stroke="#000000" d="M2848,-122.0511C2848,-136.373 2848,-154 2848,-154 2848,-154 2514.3006,-154 2514.3006,-154"/>
<polygon fill="#000000" stroke="#000000" points="2514.3006,-150.5001 2504.3006,-154 2514.3005,-157.5001 2514.3006,-150.5001"/>
</g>
<!-- CPUGadgetComponent  -->
<g id="node29" class="node">
<title>CPUGadgetComponent </title>
<polygon fill="#fb8072" stroke="#000000" points="3673.4854,-252 3520.5146,-252 3520.5146,-216 3673.4854,-216 3673.4854,-252"/>
<text text-anchor="middle" x="3597" y="-229.8" font-family="Times,serif" font-size="14.00" fill="#000000">CPUGadgetComponent </text>
</g>
<!-- GadgetModule&#45;&gt;CPUGadgetComponent  -->
<g id="edge29" class="edge">
<title>GadgetModule&#45;&gt;CPUGadgetComponent </title>
<path fill="none" stroke="#000000" stroke-dasharray="5,2" d="M2504.2246,-177C2718.8748,-177 3548.3154,-177 3548.3154,-177 3548.3154,-177 3548.3154,-205.9648 3548.3154,-205.9648"/>
<polygon fill="#000000" stroke="#000000" points="3544.8155,-205.9648 3548.3154,-215.9648 3551.8155,-205.9649 3544.8155,-205.9648"/>
</g>
<!-- CPUMGadgetComponent  -->
<g id="node30" class="node">
<title>CPUMGadgetComponent </title>
<polygon fill="#fb8072" stroke="#000000" points="3502.4292,-252 3337.5708,-252 3337.5708,-216 3502.4292,-216 3502.4292,-252"/>
<text text-anchor="middle" x="3420" y="-229.8" font-family="Times,serif" font-size="14.00" fill="#000000">CPUMGadgetComponent </text>
</g>
<!-- GadgetModule&#45;&gt;CPUMGadgetComponent  -->
<g id="edge30" class="edge">
<title>GadgetModule&#45;&gt;CPUMGadgetComponent </title>
<path fill="none" stroke="#000000" stroke-dasharray="5,2" d="M2504.1848,-178C2693.224,-178 3351.6464,-178 3351.6464,-178 3351.6464,-178 3351.6464,-205.973 3351.6464,-205.973"/>
<polygon fill="#000000" stroke="#000000" points="3348.1465,-205.973 3351.6464,-215.973 3355.1465,-205.973 3348.1465,-205.973"/>
</g>
<!-- DiskGadgetComponent  -->
<g id="node31" class="node">
<title>DiskGadgetComponent </title>
<polygon fill="#fb8072" stroke="#000000" points="3319.7009,-252 3168.2991,-252 3168.2991,-216 3319.7009,-216 3319.7009,-252"/>
<text text-anchor="middle" x="3244" y="-229.8" font-family="Times,serif" font-size="14.00" fill="#000000">DiskGadgetComponent </text>
</g>
<!-- GadgetModule&#45;&gt;DiskGadgetComponent  -->
<g id="edge31" class="edge">
<title>GadgetModule&#45;&gt;DiskGadgetComponent </title>
<path fill="none" stroke="#000000" stroke-dasharray="5,2" d="M2504.071,-180C2667.3954,-180 3174.1961,-180 3174.1961,-180 3174.1961,-180 3174.1961,-205.7181 3174.1961,-205.7181"/>
<polygon fill="#000000" stroke="#000000" points="3170.6962,-205.718 3174.1961,-215.7181 3177.6962,-205.7181 3170.6962,-205.718"/>
</g>
<!-- MemoryGadgetComponent  -->
<g id="node32" class="node">
<title>MemoryGadgetComponent </title>
<polygon fill="#fb8072" stroke="#000000" points="3149.9698,-252 2976.0302,-252 2976.0302,-216 3149.9698,-216 3149.9698,-252"/>
<text text-anchor="middle" x="3063" y="-229.8" font-family="Times,serif" font-size="14.00" fill="#000000">MemoryGadgetComponent </text>
</g>
<!-- GadgetModule&#45;&gt;MemoryGadgetComponent  -->
<g id="edge32" class="edge">
<title>GadgetModule&#45;&gt;MemoryGadgetComponent </title>
<path fill="none" stroke="#000000" stroke-dasharray="5,2" d="M2504.0958,-181C2649.7741,-181 3063,-181 3063,-181 3063,-181 3063,-205.7604 3063,-205.7604"/>
<polygon fill="#000000" stroke="#000000" points="3059.5001,-205.7604 3063,-215.7604 3066.5001,-205.7604 3059.5001,-205.7604"/>
</g>
<!-- EdgeServiceListGadgetComponent  -->
<g id="node33" class="node">
<title>EdgeServiceListGadgetComponent </title>
<polygon fill="#fb8072" stroke="#000000" points="2957.7821,-252 2740.2179,-252 2740.2179,-216 2957.7821,-216 2957.7821,-252"/>
<text text-anchor="middle" x="2849" y="-229.8" font-family="Times,serif" font-size="14.00" fill="#000000">EdgeServiceListGadgetComponent </text>
</g>
<!-- GadgetModule&#45;&gt;EdgeServiceListGadgetComponent  -->
<g id="edge33" class="edge">
<title>GadgetModule&#45;&gt;EdgeServiceListGadgetComponent </title>
<path fill="none" stroke="#000000" stroke-dasharray="5,2" d="M2504.2502,-183C2588.2934,-183 2748.2568,-183 2748.2568,-183 2748.2568,-183 2748.2568,-205.8757 2748.2568,-205.8757"/>
<polygon fill="#000000" stroke="#000000" points="2744.7569,-205.8757 2748.2568,-215.8757 2751.7569,-205.8757 2744.7569,-205.8757"/>
</g>
<!-- StatisticGadgetComponent  -->
<g id="node34" class="node">
<title>StatisticGadgetComponent </title>
<polygon fill="#fb8072" stroke="#000000" points="2722.3686,-252 2551.6314,-252 2551.6314,-216 2722.3686,-216 2722.3686,-252"/>
<text text-anchor="middle" x="2637" y="-229.8" font-family="Times,serif" font-size="14.00" fill="#000000">StatisticGadgetComponent </text>
</g>
<!-- GadgetModule&#45;&gt;StatisticGadgetComponent  -->
<g id="edge34" class="edge">
<title>GadgetModule&#45;&gt;StatisticGadgetComponent </title>
<path fill="none" stroke="#000000" stroke-dasharray="5,2" d="M2504.1105,-184C2541.2879,-184 2585.5548,-184 2585.5548,-184 2585.5548,-184 2585.5548,-205.9489 2585.5548,-205.9489"/>
<polygon fill="#000000" stroke="#000000" points="2582.0549,-205.9488 2585.5548,-215.9489 2589.0549,-205.9489 2582.0549,-205.9488"/>
</g>
<!-- GadgetModule&#45;&gt;StatisticGadgetComponent  -->
<g id="edge39" class="edge">
<title>GadgetModule&#45;&gt;StatisticGadgetComponent </title>
<path fill="none" stroke="#000000" stroke-dasharray="5,2" d="M2504.3027,-186C2535.1172,-186 2568.6854,-186 2568.6854,-186 2568.6854,-186 2568.6854,-205.8533 2568.6854,-205.8533"/>
<polygon fill="#000000" stroke="#000000" points="2565.1855,-205.8532 2568.6854,-215.8533 2572.1855,-205.8533 2565.1855,-205.8532"/>
</g>
<!-- TrendGadgetComponent  -->
<g id="node35" class="node">
<title>TrendGadgetComponent </title>
<polygon fill="#fb8072" stroke="#000000" points="2533.1869,-252 2374.8131,-252 2374.8131,-216 2533.1869,-216 2533.1869,-252"/>
<text text-anchor="middle" x="2454" y="-229.8" font-family="Times,serif" font-size="14.00" fill="#000000">TrendGadgetComponent </text>
</g>
<!-- GadgetModule&#45;&gt;TrendGadgetComponent  -->
<g id="edge35" class="edge">
<title>GadgetModule&#45;&gt;TrendGadgetComponent </title>
<path fill="none" stroke="#000000" stroke-dasharray="5,2" d="M2454,-187.1061C2454,-187.1061 2454,-205.991 2454,-205.991"/>
<polygon fill="#000000" stroke="#000000" points="2450.5001,-205.9909 2454,-215.991 2457.5001,-205.991 2450.5001,-205.9909"/>
</g>
<!-- TrendLineGadgetComponent  -->
<g id="node36" class="node">
<title>TrendLineGadgetComponent </title>
<polygon fill="#fb8072" stroke="#000000" points="2356.3447,-252 2171.6553,-252 2171.6553,-216 2356.3447,-216 2356.3447,-252"/>
<text text-anchor="middle" x="2264" y="-229.8" font-family="Times,serif" font-size="14.00" fill="#000000">TrendLineGadgetComponent </text>
</g>
<!-- GadgetModule&#45;&gt;TrendLineGadgetComponent  -->
<g id="edge36" class="edge">
<title>GadgetModule&#45;&gt;TrendLineGadgetComponent </title>
<path fill="none" stroke="#000000" stroke-dasharray="5,2" d="M2404.0036,-186C2369.9724,-186 2331.0796,-186 2331.0796,-186 2331.0796,-186 2331.0796,-205.8533 2331.0796,-205.8533"/>
<polygon fill="#000000" stroke="#000000" points="2327.5797,-205.8532 2331.0796,-215.8533 2334.5797,-205.8533 2327.5797,-205.8532"/>
</g>
<!-- NewsGadgetComponent  -->
<g id="node37" class="node">
<title>NewsGadgetComponent </title>
<polygon fill="#fb8072" stroke="#000000" points="2153.6313,-252 1996.3687,-252 1996.3687,-216 2153.6313,-216 2153.6313,-252"/>
<text text-anchor="middle" x="2075" y="-229.8" font-family="Times,serif" font-size="14.00" fill="#000000">NewsGadgetComponent </text>
</g>
<!-- GadgetModule&#45;&gt;NewsGadgetComponent  -->
<g id="edge37" class="edge">
<title>GadgetModule&#45;&gt;NewsGadgetComponent </title>
<path fill="none" stroke="#000000" stroke-dasharray="5,2" d="M2403.7977,-184C2317.4483,-184 2149.9827,-184 2149.9827,-184 2149.9827,-184 2149.9827,-205.9489 2149.9827,-205.9489"/>
<polygon fill="#000000" stroke="#000000" points="2146.4827,-205.9488 2149.9827,-215.9489 2153.4827,-205.9489 2146.4827,-205.9488"/>
</g>
<!-- JobAnalysisGadgetComponent  -->
<g id="node38" class="node">
<title>JobAnalysisGadgetComponent </title>
<polygon fill="#fb8072" stroke="#000000" points="1978.6952,-252 1785.3048,-252 1785.3048,-216 1978.6952,-216 1978.6952,-252"/>
<text text-anchor="middle" x="1882" y="-229.8" font-family="Times,serif" font-size="14.00" fill="#000000">JobAnalysisGadgetComponent </text>
</g>
<!-- GadgetModule&#45;&gt;JobAnalysisGadgetComponent  -->
<g id="edge38" class="edge">
<title>GadgetModule&#45;&gt;JobAnalysisGadgetComponent </title>
<path fill="none" stroke="#000000" stroke-dasharray="5,2" d="M2403.9871,-183C2267.0171,-183 1895.9661,-183 1895.9661,-183 1895.9661,-183 1895.9661,-205.8757 1895.9661,-205.8757"/>
<polygon fill="#000000" stroke="#000000" points="1892.4662,-205.8757 1895.9661,-215.8757 1899.4662,-205.8757 1892.4662,-205.8757"/>
</g>
<!-- PropertyListGadgetComponent  -->
<g id="node39" class="node">
<title>PropertyListGadgetComponent </title>
<polygon fill="#fb8072" stroke="#000000" points="1767.7464,-252 1572.2536,-252 1572.2536,-216 1767.7464,-216 1767.7464,-252"/>
<text text-anchor="middle" x="1670" y="-229.8" font-family="Times,serif" font-size="14.00" fill="#000000">PropertyListGadgetComponent </text>
</g>
<!-- GadgetModule&#45;&gt;PropertyListGadgetComponent  -->
<g id="edge40" class="edge">
<title>GadgetModule&#45;&gt;PropertyListGadgetComponent </title>
<path fill="none" stroke="#000000" stroke-dasharray="5,2" d="M2403.9868,-181C2242.0928,-181 1742.7572,-181 1742.7572,-181 1742.7572,-181 1742.7572,-205.7604 1742.7572,-205.7604"/>
<polygon fill="#000000" stroke="#000000" points="1739.2573,-205.7604 1742.7572,-215.7604 1746.2573,-205.7604 1739.2573,-205.7604"/>
</g>
<!-- ServiceListGadgetComponent  -->
<g id="node40" class="node">
<title>ServiceListGadgetComponent </title>
<polygon fill="#fb8072" stroke="#000000" points="1554.5148,-252 1365.4852,-252 1365.4852,-216 1554.5148,-216 1554.5148,-252"/>
<text text-anchor="middle" x="1460" y="-229.8" font-family="Times,serif" font-size="14.00" fill="#000000">ServiceListGadgetComponent </text>
</g>
<!-- GadgetModule&#45;&gt;ServiceListGadgetComponent  -->
<g id="edge41" class="edge">
<title>GadgetModule&#45;&gt;ServiceListGadgetComponent </title>
<path fill="none" stroke="#000000" stroke-dasharray="5,2" d="M2403.7922,-180C2206.4784,-180 1495.0374,-180 1495.0374,-180 1495.0374,-180 1495.0374,-205.7181 1495.0374,-205.7181"/>
<polygon fill="#000000" stroke="#000000" points="1491.5374,-205.718 1495.0374,-215.7181 1498.5374,-205.7181 1491.5374,-205.718"/>
</g>
<!-- ResponseTimeGadgetComponent  -->
<g id="node41" class="node">
<title>ResponseTimeGadgetComponent </title>
<polygon fill="#fb8072" stroke="#000000" points="1347.4627,-252 1138.5373,-252 1138.5373,-216 1347.4627,-216 1347.4627,-252"/>
<text text-anchor="middle" x="1243" y="-229.8" font-family="Times,serif" font-size="14.00" fill="#000000">ResponseTimeGadgetComponent </text>
</g>
<!-- GadgetModule&#45;&gt;ResponseTimeGadgetComponent  -->
<g id="edge42" class="edge">
<title>GadgetModule&#45;&gt;ResponseTimeGadgetComponent </title>
<path fill="none" stroke="#000000" stroke-dasharray="5,2" d="M2403.7402,-178C2184.9801,-178 1326.7029,-178 1326.7029,-178 1326.7029,-178 1326.7029,-205.973 1326.7029,-205.973"/>
<polygon fill="#000000" stroke="#000000" points="1323.2029,-205.973 1326.7029,-215.973 1330.2029,-205.973 1323.2029,-205.973"/>
</g>
<!-- StorageObjectListComponent  -->
<g id="node42" class="node">
<title>StorageObjectListComponent </title>
<polygon fill="#fb8072" stroke="#000000" points="1120.1911,-252 933.8089,-252 933.8089,-216 1120.1911,-216 1120.1911,-252"/>
<text text-anchor="middle" x="1027" y="-229.8" font-family="Times,serif" font-size="14.00" fill="#000000">StorageObjectListComponent </text>
</g>
<!-- GadgetModule&#45;&gt;StorageObjectListComponent  -->
<g id="edge43" class="edge">
<title>GadgetModule&#45;&gt;StorageObjectListComponent </title>
<path fill="none" stroke="#000000" stroke-dasharray="5,2" d="M2403.8363,-177C2154.0194,-177 1056.112,-177 1056.112,-177 1056.112,-177 1056.112,-205.9648 1056.112,-205.9648"/>
<polygon fill="#000000" stroke="#000000" points="1052.6121,-205.9648 1056.112,-215.9648 1059.6121,-205.9649 1052.6121,-205.9648"/>
</g>
<!-- CommonModule -->
<g id="node16" class="node">
<title>CommonModule</title>
<polygon fill="#8dd3c7" stroke="#000000" points="2731.6681,-122 2728.6681,-126 2707.6681,-126 2704.6681,-122 2620.3319,-122 2620.3319,-86 2731.6681,-86 2731.6681,-122"/>
<text text-anchor="middle" x="2676" y="-99.8" font-family="Times,serif" font-size="14.00" fill="#000000">CommonModule</text>
</g>
<!-- CommonModule&#45;&gt;GadgetModule -->
<g id="edge16" class="edge">
<title>CommonModule&#45;&gt;GadgetModule</title>
<path fill="none" stroke="#000000" d="M2671.1752,-122.2458C2671.1752,-136.1772 2671.1752,-153 2671.1752,-153 2671.1752,-153 2514.0971,-153 2514.0971,-153"/>
<polygon fill="#000000" stroke="#000000" points="2514.0971,-149.5001 2504.0971,-153 2514.097,-156.5001 2514.0971,-149.5001"/>
</g>
<!-- GadgetSharedModule -->
<g id="node17" class="node">
<title>GadgetSharedModule</title>
<polygon fill="#8dd3c7" stroke="#000000" points="2602.3487,-122 2599.3487,-126 2578.3487,-126 2575.3487,-122 2463.6513,-122 2463.6513,-86 2602.3487,-86 2602.3487,-122"/>
<text text-anchor="middle" x="2533" y="-99.8" font-family="Times,serif" font-size="14.00" fill="#000000">GadgetSharedModule</text>
</g>
<!-- GadgetSharedModule&#45;&gt;GadgetModule -->
<g id="edge17" class="edge">
<title>GadgetSharedModule&#45;&gt;GadgetModule</title>
<path fill="none" stroke="#000000" d="M2483.7819,-122.1061C2483.7819,-122.1061 2483.7819,-140.991 2483.7819,-140.991"/>
<polygon fill="#000000" stroke="#000000" points="2480.282,-140.9909 2483.7819,-150.991 2487.282,-140.991 2480.282,-140.9909"/>
</g>
<!-- DndModule.forRoot() -->
<g id="node18" class="node">
<title>DndModule.forRoot()</title>
<polygon fill="#8dd3c7" stroke="#000000" points="2446.026,-122 2443.026,-126 2422.026,-126 2419.026,-122 2305.974,-122 2305.974,-86 2446.026,-86 2446.026,-122"/>
<text text-anchor="middle" x="2376" y="-99.8" font-family="Times,serif" font-size="14.00" fill="#000000">DndModule.forRoot()</text>
</g>
<!-- DndModule.forRoot()&#45;&gt;GadgetModule -->
<g id="edge18" class="edge">
<title>DndModule.forRoot()&#45;&gt;GadgetModule</title>
<path fill="none" stroke="#000000" d="M2425.0125,-122.1061C2425.0125,-122.1061 2425.0125,-140.991 2425.0125,-140.991"/>
<polygon fill="#000000" stroke="#000000" points="2421.5125,-140.9909 2425.0125,-150.991 2428.5125,-140.991 2421.5125,-140.9909"/>
</g>
<!-- DynamicFormModule -->
<g id="node19" class="node">
<title>DynamicFormModule</title>
<polygon fill="#8dd3c7" stroke="#000000" points="2287.7007,-122 2284.7007,-126 2263.7007,-126 2260.7007,-122 2146.2993,-122 2146.2993,-86 2287.7007,-86 2287.7007,-122"/>
<text text-anchor="middle" x="2217" y="-99.8" font-family="Times,serif" font-size="14.00" fill="#000000">DynamicFormModule</text>
</g>
<!-- DynamicFormModule&#45;&gt;GadgetModule -->
<g id="edge19" class="edge">
<title>DynamicFormModule&#45;&gt;GadgetModule</title>
<path fill="none" stroke="#000000" d="M2229.7141,-122.2458C2229.7141,-136.1772 2229.7141,-153 2229.7141,-153 2229.7141,-153 2393.945,-153 2393.945,-153"/>
<polygon fill="#000000" stroke="#000000" points="2393.9451,-156.5001 2403.945,-153 2393.945,-149.5001 2393.9451,-156.5001"/>
</g>
<!-- ErrorHandlerModule -->
<g id="node20" class="node">
<title>ErrorHandlerModule</title>
<polygon fill="#8dd3c7" stroke="#000000" points="2128.1713,-122 2125.1713,-126 2104.1713,-126 2101.1713,-122 1993.8287,-122 1993.8287,-86 2128.1713,-86 2128.1713,-122"/>
<text text-anchor="middle" x="2061" y="-99.8" font-family="Times,serif" font-size="14.00" fill="#000000">ErrorHandlerModule</text>
</g>
<!-- ErrorHandlerModule&#45;&gt;GadgetModule -->
<g id="edge20" class="edge">
<title>ErrorHandlerModule&#45;&gt;GadgetModule</title>
<path fill="none" stroke="#000000" d="M2062.26,-122.0511C2062.26,-136.373 2062.26,-154 2062.26,-154 2062.26,-154 2393.988,-154 2393.988,-154"/>
<polygon fill="#000000" stroke="#000000" points="2393.988,-157.5001 2403.988,-154 2393.9879,-150.5001 2393.988,-157.5001"/>
</g>
<!-- NgxChartsModule -->
<g id="node21" class="node">
<title>NgxChartsModule</title>
<polygon fill="#8dd3c7" stroke="#000000" points="1976.2036,-122 1973.2036,-126 1952.2036,-126 1949.2036,-122 1855.7964,-122 1855.7964,-86 1976.2036,-86 1976.2036,-122"/>
<text text-anchor="middle" x="1916" y="-99.8" font-family="Times,serif" font-size="14.00" fill="#000000">NgxChartsModule</text>
</g>
<!-- NgxChartsModule&#45;&gt;GadgetModule -->
<g id="edge21" class="edge">
<title>NgxChartsModule&#45;&gt;GadgetModule</title>
<path fill="none" stroke="#000000" d="M1936.0339,-122.1871C1936.0339,-137.1824 1936.0339,-156 1936.0339,-156 1936.0339,-156 2393.8646,-156 2393.8646,-156"/>
<polygon fill="#000000" stroke="#000000" points="2393.8646,-159.5001 2403.8646,-156 2393.8646,-152.5001 2393.8646,-159.5001"/>
</g>
<!-- MatButtonModule -->
<g id="node22" class="node">
<title>MatButtonModule</title>
<polygon fill="#8dd3c7" stroke="#000000" points="1838.2176,-122 1835.2176,-126 1814.2176,-126 1811.2176,-122 1717.7824,-122 1717.7824,-86 1838.2176,-86 1838.2176,-122"/>
<text text-anchor="middle" x="1778" y="-99.8" font-family="Times,serif" font-size="14.00" fill="#000000">MatButtonModule</text>
</g>
<!-- MatButtonModule&#45;&gt;GadgetModule -->
<g id="edge22" class="edge">
<title>MatButtonModule&#45;&gt;GadgetModule</title>
<path fill="none" stroke="#000000" d="M1811.6306,-122.2396C1811.6306,-137.5706 1811.6306,-157 1811.6306,-157 1811.6306,-157 2393.8619,-157 2393.8619,-157"/>
<polygon fill="#000000" stroke="#000000" points="2393.8619,-160.5001 2403.8619,-157 2393.8619,-153.5001 2393.8619,-160.5001"/>
</g>
<!-- MatIconModule -->
<g id="node23" class="node">
<title>MatIconModule</title>
<polygon fill="#8dd3c7" stroke="#000000" points="1699.4748,-122 1696.4748,-126 1675.4748,-126 1672.4748,-122 1592.5252,-122 1592.5252,-86 1699.4748,-86 1699.4748,-122"/>
<text text-anchor="middle" x="1646" y="-99.8" font-family="Times,serif" font-size="14.00" fill="#000000">MatIconModule</text>
</g>
<!-- MatIconModule&#45;&gt;GadgetModule -->
<g id="edge23" class="edge">
<title>MatIconModule&#45;&gt;GadgetModule</title>
<path fill="none" stroke="#000000" d="M1646,-122.0091C1646,-138.0494 1646,-159 1646,-159 1646,-159 2393.7613,-159 2393.7613,-159"/>
<polygon fill="#000000" stroke="#000000" points="2393.7613,-162.5001 2403.7613,-159 2393.7612,-155.5001 2393.7613,-162.5001"/>
</g>
<!-- MatCheckboxModule -->
<g id="node24" class="node">
<title>MatCheckboxModule</title>
<polygon fill="#8dd3c7" stroke="#000000" points="1574.3655,-122 1571.3655,-126 1550.3655,-126 1547.3655,-122 1435.6345,-122 1435.6345,-86 1574.3655,-86 1574.3655,-122"/>
<text text-anchor="middle" x="1505" y="-99.8" font-family="Times,serif" font-size="14.00" fill="#000000">MatCheckboxModule</text>
</g>
<!-- MatCheckboxModule&#45;&gt;GadgetModule -->
<g id="edge24" class="edge">
<title>MatCheckboxModule&#45;&gt;GadgetModule</title>
<path fill="none" stroke="#000000" d="M1563.4421,-122.027C1563.4421,-138.3976 1563.4421,-160 1563.4421,-160 1563.4421,-160 2393.8903,-160 2393.8903,-160"/>
<polygon fill="#000000" stroke="#000000" points="2393.8903,-163.5001 2403.8903,-160 2393.8902,-156.5001 2393.8903,-163.5001"/>
</g>
<!-- MatInputModule -->
<g id="node25" class="node">
<title>MatInputModule</title>
<polygon fill="#8dd3c7" stroke="#000000" points="1417.6513,-122 1414.6513,-126 1393.6513,-126 1390.6513,-122 1306.3487,-122 1306.3487,-86 1417.6513,-86 1417.6513,-122"/>
<text text-anchor="middle" x="1362" y="-99.8" font-family="Times,serif" font-size="14.00" fill="#000000">MatInputModule</text>
</g>
<!-- MatInputModule&#45;&gt;GadgetModule -->
<g id="edge25" class="edge">
<title>MatInputModule&#45;&gt;GadgetModule</title>
<path fill="none" stroke="#000000" d="M1391.659,-122.0336C1391.659,-139.0597 1391.659,-162 1391.659,-162 1391.659,-162 2393.8314,-162 2393.8314,-162"/>
<polygon fill="#000000" stroke="#000000" points="2393.8315,-165.5001 2403.8314,-162 2393.8314,-158.5001 2393.8315,-165.5001"/>
</g>
<!-- MatProgressBarModule -->
<g id="node26" class="node">
<title>MatProgressBarModule</title>
<polygon fill="#8dd3c7" stroke="#000000" points="1288.0198,-122 1285.0198,-126 1264.0198,-126 1261.0198,-122 1137.9802,-122 1137.9802,-86 1288.0198,-86 1288.0198,-122"/>
<text text-anchor="middle" x="1213" y="-99.8" font-family="Times,serif" font-size="14.00" fill="#000000">MatProgressBarModule</text>
</g>
<!-- MatProgressBarModule&#45;&gt;GadgetModule -->
<g id="edge26" class="edge">
<title>MatProgressBarModule&#45;&gt;GadgetModule</title>
<path fill="none" stroke="#000000" d="M1213.5142,-122.0225C1213.5142,-139.3734 1213.5142,-163 1213.5142,-163 1213.5142,-163 2393.8351,-163 2393.8351,-163"/>
<polygon fill="#000000" stroke="#000000" points="2393.8351,-166.5001 2403.8351,-163 2393.8351,-159.5001 2393.8351,-166.5001"/>
</g>
<!-- FormsModule -->
<g id="node27" class="node">
<title>FormsModule</title>
<polygon fill="#8dd3c7" stroke="#000000" points="1119.8288,-122 1116.8288,-126 1095.8288,-126 1092.8288,-122 1024.1712,-122 1024.1712,-86 1119.8288,-86 1119.8288,-122"/>
<text text-anchor="middle" x="1072" y="-99.8" font-family="Times,serif" font-size="14.00" fill="#000000">FormsModule</text>
</g>
<!-- FormsModule&#45;&gt;GadgetModule -->
<g id="edge27" class="edge">
<title>FormsModule&#45;&gt;GadgetModule</title>
<path fill="none" stroke="#000000" d="M1087.888,-122.302C1087.888,-140.2699 1087.888,-165 1087.888,-165 1087.888,-165 2393.7592,-165 2393.7592,-165"/>
<polygon fill="#000000" stroke="#000000" points="2393.7592,-168.5001 2403.7592,-165 2393.7592,-161.5001 2393.7592,-168.5001"/>
</g>
<!-- DataListModule -->
<g id="node28" class="node">
<title>DataListModule</title>
<polygon fill="#8dd3c7" stroke="#000000" points="1005.7549,-122 1002.7549,-126 981.7549,-126 978.7549,-122 898.2451,-122 898.2451,-86 1005.7549,-86 1005.7549,-122"/>
<text text-anchor="middle" x="952" y="-99.8" font-family="Times,serif" font-size="14.00" fill="#000000">DataListModule</text>
</g>
<!-- DataListModule&#45;&gt;GadgetModule -->
<g id="edge28" class="edge">
<title>DataListModule&#45;&gt;GadgetModule</title>
<path fill="none" stroke="#000000" d="M969.766,-122.2667C969.766,-140.5552 969.766,-166 969.766,-166 969.766,-166 2393.7664,-166 2393.7664,-166"/>
<polygon fill="#000000" stroke="#000000" points="2393.7664,-169.5001 2403.7664,-166 2393.7664,-162.5001 2393.7664,-169.5001"/>
</g>
<!-- TrendService -->
<g id="node43" class="node">
<title>TrendService</title>
<ellipse fill="#fdb462" stroke="#000000" cx="811" cy="-104" rx="63.0996" ry="18"/>
<text text-anchor="middle" x="811" y="-99.8" font-family="Times,serif" font-size="14.00" fill="#000000">TrendService</text>
</g>
<!-- TrendService&#45;&gt;GadgetModule -->
<g id="edge44" class="edge">
<title>TrendService&#45;&gt;GadgetModule</title>
<path fill="none" stroke="#000000" d="M811,-122.1686C811,-141.0898 811,-168 811,-168 811,-168 2393.9312,-168 2393.9312,-168"/>
<polygon fill="#000000" stroke="#000000" points="2393.9312,-171.5001 2403.9312,-168 2393.9311,-164.5001 2393.9312,-171.5001"/>
</g>
<!-- DiskService -->
<g id="node44" class="node">
<title>DiskService</title>
<ellipse fill="#fdb462" stroke="#000000" cx="672" cy="-104" rx="58.4628" ry="18"/>
<text text-anchor="middle" x="672" y="-99.8" font-family="Times,serif" font-size="14.00" fill="#000000">DiskService</text>
</g>
<!-- DiskService&#45;&gt;GadgetModule -->
<g id="edge45" class="edge">
<title>DiskService&#45;&gt;GadgetModule</title>
<path fill="none" stroke="#000000" d="M672,-122.1061C672,-141.3391 672,-169 672,-169 672,-169 2394.01,-169 2394.01,-169"/>
<polygon fill="#000000" stroke="#000000" points="2394.01,-172.5001 2404.01,-169 2394.01,-165.5001 2394.01,-172.5001"/>
</g>
<!-- StatisticService -->
<g id="node45" class="node">
<title>StatisticService</title>
<ellipse fill="#fdb462" stroke="#000000" cx="525" cy="-104" rx="71.2152" ry="18"/>
<text text-anchor="middle" x="525" y="-99.8" font-family="Times,serif" font-size="14.00" fill="#000000">StatisticService</text>
</g>
<!-- StatisticService&#45;&gt;GadgetModule -->
<g id="edge46" class="edge">
<title>StatisticService&#45;&gt;GadgetModule</title>
<path fill="none" stroke="#000000" d="M525,-122.308C525,-142.1455 525,-171 525,-171 525,-171 2393.8879,-171 2393.8879,-171"/>
<polygon fill="#000000" stroke="#000000" points="2393.8879,-174.5001 2403.8879,-171 2393.8879,-167.5001 2393.8879,-174.5001"/>
</g>
<!-- EdgeService -->
<g id="node46" class="node">
<title>EdgeService</title>
<ellipse fill="#fdb462" stroke="#000000" cx="376" cy="-104" rx="59.6704" ry="18"/>
<text text-anchor="middle" x="376" y="-99.8" font-family="Times,serif" font-size="14.00" fill="#000000">EdgeService</text>
</g>
<!-- EdgeService&#45;&gt;GadgetModule -->
<g id="edge47" class="edge">
<title>EdgeService&#45;&gt;GadgetModule</title>
<path fill="none" stroke="#000000" d="M376,-122.2228C376,-142.3652 376,-172 376,-172 376,-172 2393.9189,-172 2393.9189,-172"/>
<polygon fill="#000000" stroke="#000000" points="2393.919,-175.5001 2403.9189,-172 2393.9189,-168.5001 2393.919,-175.5001"/>
</g>
<!-- CPUService -->
<g id="node47" class="node">
<title>CPUService</title>
<ellipse fill="#fdb462" stroke="#000000" cx="239" cy="-104" rx="58.5444" ry="18"/>
<text text-anchor="middle" x="239" y="-99.8" font-family="Times,serif" font-size="14.00" fill="#000000">CPUService</text>
</g>
<!-- CPUService&#45;&gt;GadgetModule -->
<g id="edge48" class="edge">
<title>CPUService&#45;&gt;GadgetModule</title>
<path fill="none" stroke="#000000" d="M239,-122.0267C239,-142.7672 239,-174 239,-174 239,-174 2393.8399,-174 2393.8399,-174"/>
<polygon fill="#000000" stroke="#000000" points="2393.8399,-177.5001 2403.8399,-174 2393.8399,-170.5001 2393.8399,-177.5001"/>
</g>
<!-- StorageService -->
<g id="node48" class="node">
<title>StorageService</title>
<ellipse fill="#fdb462" stroke="#000000" cx="93" cy="-104" rx="69.4781" ry="18"/>
<text text-anchor="middle" x="93" y="-99.8" font-family="Times,serif" font-size="14.00" fill="#000000">StorageService</text>
</g>
<!-- StorageService&#45;&gt;GadgetModule -->
<g id="edge49" class="edge">
<title>StorageService&#45;&gt;GadgetModule</title>
<path fill="none" stroke="#000000" d="M93,-122.2843C93,-143.3211 93,-175 93,-175 93,-175 2393.869,-175 2393.869,-175"/>
<polygon fill="#000000" stroke="#000000" points="2393.869,-178.5001 2403.869,-175 2393.869,-171.5001 2393.869,-178.5001"/>
</g>
</g>
</svg>
