<?xml version="1.0" encoding="UTF-8" standalone="no"?>
<!DOCTYPE svg PUBLIC "-//W3C//DTD SVG 1.1//EN"
 "http://www.w3.org/Graphics/SVG/1.1/DTD/svg11.dtd">
<!-- Generated by graphviz version 2.40.1 (20161225.0304)
 -->
<!-- Title: dependencies Pages: 1 -->
<svg width="4091pt" height="284pt"
 viewBox="0.00 0.00 4091.00 284.00" xmlns="http://www.w3.org/2000/svg" xmlns:xlink="http://www.w3.org/1999/xlink">
<g id="graph0" class="graph" transform="scale(1 1) rotate(0) translate(4 280)">
<title>dependencies</title>
<polygon fill="#ffffff" stroke="transparent" points="-4,4 -4,-280 4087,-280 4087,4 -4,4"/>
<text text-anchor="start" x="2020.5091" y="-42.4" font-family="sans-serif" font-weight="bold" font-size="14.00" fill="#000000">Legend</text>
<polygon fill="#ffffb3" stroke="transparent" points="1807.5,-10 1807.5,-30 1827.5,-30 1827.5,-10 1807.5,-10"/>
<text text-anchor="start" x="1831.129" y="-15.4" font-family="sans-serif" font-size="14.00" fill="#000000"> &#160;Declarations</text>
<polygon fill="#8dd3c7" stroke="transparent" points="1920.5,-10 1920.5,-30 1940.5,-30 1940.5,-10 1920.5,-10"/>
<text text-anchor="start" x="1944.2251" y="-15.4" font-family="sans-serif" font-size="14.00" fill="#000000"> &#160;Module</text>
<polygon fill="#80b1d3" stroke="transparent" points="2006.5,-10 2006.5,-30 2026.5,-30 2026.5,-10 2006.5,-10"/>
<text text-anchor="start" x="2030.2812" y="-15.4" font-family="sans-serif" font-size="14.00" fill="#000000"> &#160;Bootstrap</text>
<polygon fill="#fdb462" stroke="transparent" points="2103.5,-10 2103.5,-30 2123.5,-30 2123.5,-10 2103.5,-10"/>
<text text-anchor="start" x="2127.1732" y="-15.4" font-family="sans-serif" font-size="14.00" fill="#000000"> &#160;Providers</text>
<polygon fill="#fb8072" stroke="transparent" points="2199.5,-10 2199.5,-30 2219.5,-30 2219.5,-10 2199.5,-10"/>
<text text-anchor="start" x="2223.2258" y="-15.4" font-family="sans-serif" font-size="14.00" fill="#000000"> &#160;Exports</text>
<g id="clust1" class="cluster">
<title>cluster_GadgetModule</title>
<polygon fill="none" stroke="#000000" stroke-dasharray="1,5" points="8,-70 8,-268 4075,-268 4075,-70 8,-70"/>
</g>
<g id="clust2" class="cluster">
<title>cluster_GadgetModule_declarations</title>
<polygon fill="none" stroke="#000000" points="1786,-78 1786,-130 4067,-130 4067,-78 1786,-78"/>
</g>
<g id="clust15" class="cluster">
<title>cluster_GadgetModule_imports</title>
<polygon fill="none" stroke="#000000" points="886,-78 886,-130 1778,-130 1778,-78 886,-78"/>
</g>
<g id="clust16" class="cluster">
<title>cluster_GadgetModule_exports</title>
<polygon fill="none" stroke="#000000" points="607,-208 607,-260 2931,-260 2931,-208 607,-208"/>
</g>
<g id="clust18" class="cluster">
<title>cluster_GadgetModule_providers</title>
<polygon fill="none" stroke="#000000" points="16,-78 16,-130 878,-130 878,-78 16,-78"/>
</g>
<!-- CPUGadgetComponent -->
<g id="node1" class="node">
<title>CPUGadgetComponent</title>
<polygon fill="#ffffb3" stroke="#000000" points="4059.4846,-122 3910.5154,-122 3910.5154,-86 4059.4846,-86 4059.4846,-122"/>
<text text-anchor="middle" x="3985" y="-99.8" font-family="Times,serif" font-size="14.00" fill="#000000">CPUGadgetComponent</text>
</g>
<!-- GadgetModule -->
<g id="node13" class="node">
<title>GadgetModule</title>
<polygon fill="#8dd3c7" stroke="#000000" points="1936.9762,-187 1933.9762,-191 1912.9762,-191 1909.9762,-187 1837.0238,-187 1837.0238,-151 1936.9762,-151 1936.9762,-187"/>
<text text-anchor="middle" x="1887" y="-164.8" font-family="Times,serif" font-size="14.00" fill="#000000">GadgetModule</text>
</g>
<!-- CPUGadgetComponent&#45;&gt;GadgetModule -->
<g id="edge1" class="edge">
<title>CPUGadgetComponent&#45;&gt;GadgetModule</title>
<path fill="none" stroke="#000000" d="M3985,-122.2843C3985,-143.3211 3985,-175 3985,-175 3985,-175 1947.0482,-175 1947.0482,-175"/>
<polygon fill="#000000" stroke="#000000" points="1947.0482,-171.5001 1937.0482,-175 1947.0481,-178.5001 1947.0482,-171.5001"/>
</g>
<!-- CPUMGadgetComponent -->
<g id="node2" class="node">
<title>CPUMGadgetComponent</title>
<polygon fill="#ffffb3" stroke="#000000" points="3892.9298,-122 3731.0702,-122 3731.0702,-86 3892.9298,-86 3892.9298,-122"/>
<text text-anchor="middle" x="3812" y="-99.8" font-family="Times,serif" font-size="14.00" fill="#000000">CPUMGadgetComponent</text>
</g>
<!-- CPUMGadgetComponent&#45;&gt;GadgetModule -->
<g id="edge2" class="edge">
<title>CPUMGadgetComponent&#45;&gt;GadgetModule</title>
<path fill="none" stroke="#000000" d="M3812,-122.1289C3812,-142.5724 3812,-173 3812,-173 3812,-173 1947.0082,-173 1947.0082,-173"/>
<polygon fill="#000000" stroke="#000000" points="1947.0082,-169.5001 1937.0082,-173 1947.0082,-176.5001 1947.0082,-169.5001"/>
</g>
<!-- DiskGadgetComponent -->
<g id="node3" class="node">
<title>DiskGadgetComponent</title>
<polygon fill="#ffffb3" stroke="#000000" points="3713.2007,-122 3564.7993,-122 3564.7993,-86 3713.2007,-86 3713.2007,-122"/>
<text text-anchor="middle" x="3639" y="-99.8" font-family="Times,serif" font-size="14.00" fill="#000000">DiskGadgetComponent</text>
</g>
<!-- DiskGadgetComponent&#45;&gt;GadgetModule -->
<g id="edge3" class="edge">
<title>DiskGadgetComponent&#45;&gt;GadgetModule</title>
<path fill="none" stroke="#000000" d="M3639,-122.308C3639,-142.1455 3639,-171 3639,-171 3639,-171 1947.0771,-171 1947.0771,-171"/>
<polygon fill="#000000" stroke="#000000" points="1947.0772,-167.5001 1937.0771,-171 1947.0771,-174.5001 1947.0772,-167.5001"/>
</g>
<!-- MemoryGadgetComponent -->
<g id="node4" class="node">
<title>MemoryGadgetComponent</title>
<polygon fill="#ffffb3" stroke="#000000" points="3546.9692,-122 3377.0308,-122 3377.0308,-86 3546.9692,-86 3546.9692,-122"/>
<text text-anchor="middle" x="3462" y="-99.8" font-family="Times,serif" font-size="14.00" fill="#000000">MemoryGadgetComponent</text>
</g>
<!-- MemoryGadgetComponent&#45;&gt;GadgetModule -->
<g id="edge4" class="edge">
<title>MemoryGadgetComponent&#45;&gt;GadgetModule</title>
<path fill="none" stroke="#000000" d="M3462,-122.1061C3462,-141.3391 3462,-169 3462,-169 3462,-169 1947.1777,-169 1947.1777,-169"/>
<polygon fill="#000000" stroke="#000000" points="1947.1777,-165.5001 1937.1777,-169 1947.1777,-172.5001 1947.1777,-165.5001"/>
</g>
<!-- EdgeServiceListGadgetComponent -->
<g id="node5" class="node">
<title>EdgeServiceListGadgetComponent</title>
<polygon fill="#ffffb3" stroke="#000000" points="3359.2822,-122 3144.7178,-122 3144.7178,-86 3359.2822,-86 3359.2822,-122"/>
<text text-anchor="middle" x="3252" y="-99.8" font-family="Times,serif" font-size="14.00" fill="#000000">EdgeServiceListGadgetComponent</text>
</g>
<!-- EdgeServiceListGadgetComponent&#45;&gt;GadgetModule -->
<g id="edge5" class="edge">
<title>EdgeServiceListGadgetComponent&#45;&gt;GadgetModule</title>
<path fill="none" stroke="#000000" d="M3252,-122.2222C3252,-140.8285 3252,-167 3252,-167 3252,-167 1947.1999,-167 1947.1999,-167"/>
<polygon fill="#000000" stroke="#000000" points="1947.2,-163.5001 1937.1999,-167 1947.1999,-170.5001 1947.2,-163.5001"/>
</g>
<!-- StatisticGadgetComponent -->
<g id="node6" class="node">
<title>StatisticGadgetComponent</title>
<polygon fill="#ffffb3" stroke="#000000" points="3126.3683,-122 2959.6317,-122 2959.6317,-86 3126.3683,-86 3126.3683,-122"/>
<text text-anchor="middle" x="3043" y="-99.8" font-family="Times,serif" font-size="14.00" fill="#000000">StatisticGadgetComponent</text>
</g>
<!-- StatisticGadgetComponent&#45;&gt;GadgetModule -->
<g id="edge6" class="edge">
<title>StatisticGadgetComponent&#45;&gt;GadgetModule</title>
<path fill="none" stroke="#000000" d="M3070.8114,-122.302C3070.8114,-140.2699 3070.8114,-165 3070.8114,-165 3070.8114,-165 1947.1108,-165 1947.1108,-165"/>
<polygon fill="#000000" stroke="#000000" points="1947.1108,-161.5001 1937.1108,-165 1947.1107,-168.5001 1947.1108,-161.5001"/>
</g>
<!-- StatisticGadgetComponent&#45;&gt;GadgetModule -->
<g id="edge11" class="edge">
<title>StatisticGadgetComponent&#45;&gt;GadgetModule</title>
<path fill="none" stroke="#000000" d="M3015.1886,-122.0225C3015.1886,-139.3734 3015.1886,-163 3015.1886,-163 3015.1886,-163 1947.2995,-163 1947.2995,-163"/>
<polygon fill="#000000" stroke="#000000" points="1947.2995,-159.5001 1937.2995,-163 1947.2995,-166.5001 1947.2995,-159.5001"/>
</g>
<!-- TrendGadgetComponent -->
<g id="node7" class="node">
<title>TrendGadgetComponent</title>
<polygon fill="#ffffb3" stroke="#000000" points="2941.6867,-122 2786.3133,-122 2786.3133,-86 2941.6867,-86 2941.6867,-122"/>
<text text-anchor="middle" x="2864" y="-99.8" font-family="Times,serif" font-size="14.00" fill="#000000">TrendGadgetComponent</text>
</g>
<!-- TrendGadgetComponent&#45;&gt;GadgetModule -->
<g id="edge7" class="edge">
<title>TrendGadgetComponent&#45;&gt;GadgetModule</title>
<path fill="none" stroke="#000000" d="M2854.8245,-122.0352C2854.8245,-138.7344 2854.8245,-161 2854.8245,-161 2854.8245,-161 1946.9965,-161 1946.9965,-161"/>
<polygon fill="#000000" stroke="#000000" points="1946.9965,-157.5001 1936.9965,-161 1946.9964,-164.5001 1946.9965,-157.5001"/>
</g>
<!-- TrendLineGadgetComponent -->
<g id="node8" class="node">
<title>TrendLineGadgetComponent</title>
<polygon fill="#ffffb3" stroke="#000000" points="2768.3445,-122 2587.6555,-122 2587.6555,-86 2768.3445,-86 2768.3445,-122"/>
<text text-anchor="middle" x="2678" y="-99.8" font-family="Times,serif" font-size="14.00" fill="#000000">TrendLineGadgetComponent</text>
</g>
<!-- TrendLineGadgetComponent&#45;&gt;GadgetModule -->
<g id="edge8" class="edge">
<title>TrendLineGadgetComponent&#45;&gt;GadgetModule</title>
<path fill="none" stroke="#000000" d="M2642.5401,-122.0091C2642.5401,-138.0494 2642.5401,-159 2642.5401,-159 2642.5401,-159 1947.1582,-159 1947.1582,-159"/>
<polygon fill="#000000" stroke="#000000" points="1947.1583,-155.5001 1937.1582,-159 1947.1582,-162.5001 1947.1583,-155.5001"/>
</g>
<!-- NewsGadgetComponent -->
<g id="node9" class="node">
<title>NewsGadgetComponent</title>
<polygon fill="#ffffb3" stroke="#000000" points="2569.6316,-122 2416.3684,-122 2416.3684,-86 2569.6316,-86 2569.6316,-122"/>
<text text-anchor="middle" x="2493" y="-99.8" font-family="Times,serif" font-size="14.00" fill="#000000">NewsGadgetComponent</text>
</g>
<!-- NewsGadgetComponent&#45;&gt;GadgetModule -->
<g id="edge9" class="edge">
<title>NewsGadgetComponent&#45;&gt;GadgetModule</title>
<path fill="none" stroke="#000000" d="M2519.2603,-122.2396C2519.2603,-137.5706 2519.2603,-157 2519.2603,-157 2519.2603,-157 1947.1409,-157 1947.1409,-157"/>
<polygon fill="#000000" stroke="#000000" points="1947.1409,-153.5001 1937.1409,-157 1947.1409,-160.5001 1947.1409,-153.5001"/>
</g>
<!-- JobAnalysisGadgetComponent -->
<g id="node10" class="node">
<title>JobAnalysisGadgetComponent</title>
<polygon fill="#ffffb3" stroke="#000000" points="2398.1951,-122 2207.8049,-122 2207.8049,-86 2398.1951,-86 2398.1951,-122"/>
<text text-anchor="middle" x="2303" y="-99.8" font-family="Times,serif" font-size="14.00" fill="#000000">JobAnalysisGadgetComponent</text>
</g>
<!-- JobAnalysisGadgetComponent&#45;&gt;GadgetModule -->
<g id="edge10" class="edge">
<title>JobAnalysisGadgetComponent&#45;&gt;GadgetModule</title>
<path fill="none" stroke="#000000" d="M2217.084,-122.1243C2217.084,-136.7832 2217.084,-155 2217.084,-155 2217.084,-155 1947.1326,-155 1947.1326,-155"/>
<polygon fill="#000000" stroke="#000000" points="1947.1327,-151.5001 1937.1326,-155 1947.1326,-158.5001 1947.1327,-151.5001"/>
</g>
<!-- PropertyListGadgetComponent -->
<g id="node11" class="node">
<title>PropertyListGadgetComponent</title>
<polygon fill="#ffffb3" stroke="#000000" points="2189.7464,-122 1998.2536,-122 1998.2536,-86 2189.7464,-86 2189.7464,-122"/>
<text text-anchor="middle" x="2094" y="-99.8" font-family="Times,serif" font-size="14.00" fill="#000000">PropertyListGadgetComponent</text>
</g>
<!-- PropertyListGadgetComponent&#45;&gt;GadgetModule -->
<g id="edge12" class="edge">
<title>PropertyListGadgetComponent&#45;&gt;GadgetModule</title>
<path fill="none" stroke="#000000" d="M2094,-122.2458C2094,-136.1772 2094,-153 2094,-153 2094,-153 1947.1089,-153 1947.1089,-153"/>
<polygon fill="#000000" stroke="#000000" points="1947.109,-149.5001 1937.1089,-153 1947.1089,-156.5001 1947.109,-149.5001"/>
</g>
<!-- ServiceListGadgetComponent -->
<g id="node12" class="node">
<title>ServiceListGadgetComponent</title>
<polygon fill="#ffffb3" stroke="#000000" points="1979.5154,-122 1794.4846,-122 1794.4846,-86 1979.5154,-86 1979.5154,-122"/>
<text text-anchor="middle" x="1887" y="-99.8" font-family="Times,serif" font-size="14.00" fill="#000000">ServiceListGadgetComponent</text>
</g>
<!-- ServiceListGadgetComponent&#45;&gt;GadgetModule -->
<g id="edge13" class="edge">
<title>ServiceListGadgetComponent&#45;&gt;GadgetModule</title>
<path fill="none" stroke="#000000" d="M1887,-122.1061C1887,-122.1061 1887,-140.991 1887,-140.991"/>
<polygon fill="#000000" stroke="#000000" points="1883.5001,-140.9909 1887,-150.991 1890.5001,-140.991 1883.5001,-140.9909"/>
</g>
<!-- CPUGadgetComponent  -->
<g id="node20" class="node">
<title>CPUGadgetComponent </title>
<polygon fill="#fb8072" stroke="#000000" points="2923.4854,-252 2770.5146,-252 2770.5146,-216 2923.4854,-216 2923.4854,-252"/>
<text text-anchor="middle" x="2847" y="-229.8" font-family="Times,serif" font-size="14.00" fill="#000000">CPUGadgetComponent </text>
</g>
<!-- GadgetModule&#45;&gt;CPUGadgetComponent  -->
<g id="edge20" class="edge">
<title>GadgetModule&#45;&gt;CPUGadgetComponent </title>
<path fill="none" stroke="#000000" stroke-dasharray="5,2" d="M1937.1674,-177C2125.3534,-177 2778.5822,-177 2778.5822,-177 2778.5822,-177 2778.5822,-205.9648 2778.5822,-205.9648"/>
<polygon fill="#000000" stroke="#000000" points="2775.0823,-205.9648 2778.5822,-215.9648 2782.0823,-205.9649 2775.0823,-205.9648"/>
</g>
<!-- CPUMGadgetComponent  -->
<g id="node21" class="node">
<title>CPUMGadgetComponent </title>
<polygon fill="#fb8072" stroke="#000000" points="2752.4292,-252 2587.5708,-252 2587.5708,-216 2752.4292,-216 2752.4292,-252"/>
<text text-anchor="middle" x="2670" y="-229.8" font-family="Times,serif" font-size="14.00" fill="#000000">CPUMGadgetComponent </text>
</g>
<!-- GadgetModule&#45;&gt;CPUMGadgetComponent  -->
<g id="edge21" class="edge">
<title>GadgetModule&#45;&gt;CPUMGadgetComponent </title>
<path fill="none" stroke="#000000" stroke-dasharray="5,2" d="M1937.0889,-179C2113.7967,-179 2697.5023,-179 2697.5023,-179 2697.5023,-179 2697.5023,-205.9909 2697.5023,-205.9909"/>
<polygon fill="#000000" stroke="#000000" points="2694.0024,-205.9909 2697.5023,-215.9909 2701.0024,-205.991 2694.0024,-205.9909"/>
</g>
<!-- DiskGadgetComponent  -->
<g id="node22" class="node">
<title>DiskGadgetComponent </title>
<polygon fill="#fb8072" stroke="#000000" points="2569.7009,-252 2418.2991,-252 2418.2991,-216 2569.7009,-216 2569.7009,-252"/>
<text text-anchor="middle" x="2494" y="-229.8" font-family="Times,serif" font-size="14.00" fill="#000000">DiskGadgetComponent </text>
</g>
<!-- GadgetModule&#45;&gt;DiskGadgetComponent  -->
<g id="edge22" class="edge">
<title>GadgetModule&#45;&gt;DiskGadgetComponent </title>
<path fill="none" stroke="#000000" stroke-dasharray="5,2" d="M1937.0993,-181C2078.1998,-181 2468.705,-181 2468.705,-181 2468.705,-181 2468.705,-205.7604 2468.705,-205.7604"/>
<polygon fill="#000000" stroke="#000000" points="2465.2051,-205.7604 2468.705,-215.7604 2472.2051,-205.7604 2465.2051,-205.7604"/>
</g>
<!-- MemoryGadgetComponent  -->
<g id="node23" class="node">
<title>MemoryGadgetComponent </title>
<polygon fill="#fb8072" stroke="#000000" points="2399.9698,-252 2226.0302,-252 2226.0302,-216 2399.9698,-216 2399.9698,-252"/>
<text text-anchor="middle" x="2313" y="-229.8" font-family="Times,serif" font-size="14.00" fill="#000000">MemoryGadgetComponent </text>
</g>
<!-- GadgetModule&#45;&gt;MemoryGadgetComponent  -->
<g id="edge23" class="edge">
<title>GadgetModule&#45;&gt;MemoryGadgetComponent </title>
<path fill="none" stroke="#000000" stroke-dasharray="5,2" d="M1937.024,-183C2049.4173,-183 2312.1815,-183 2312.1815,-183 2312.1815,-183 2312.1815,-205.8757 2312.1815,-205.8757"/>
<polygon fill="#000000" stroke="#000000" points="2308.6815,-205.8757 2312.1815,-215.8757 2315.6815,-205.8757 2308.6815,-205.8757"/>
</g>
<!-- EdgeServiceListGadgetComponent  -->
<g id="node24" class="node">
<title>EdgeServiceListGadgetComponent </title>
<polygon fill="#fb8072" stroke="#000000" points="2207.7821,-252 1990.2179,-252 1990.2179,-216 2207.7821,-216 2207.7821,-252"/>
<text text-anchor="middle" x="2099" y="-229.8" font-family="Times,serif" font-size="14.00" fill="#000000">EdgeServiceListGadgetComponent </text>
</g>
<!-- GadgetModule&#45;&gt;EdgeServiceListGadgetComponent  -->
<g id="edge24" class="edge">
<title>GadgetModule&#45;&gt;EdgeServiceListGadgetComponent </title>
<path fill="none" stroke="#000000" stroke-dasharray="5,2" d="M1937.1091,-185C1964.9877,-185 1994.118,-185 1994.118,-185 1994.118,-185 1994.118,-205.7542 1994.118,-205.7542"/>
<polygon fill="#000000" stroke="#000000" points="1990.618,-205.7542 1994.118,-215.7542 1997.618,-205.7542 1990.618,-205.7542"/>
</g>
<!-- StatisticGadgetComponent  -->
<g id="node25" class="node">
<title>StatisticGadgetComponent </title>
<polygon fill="#fb8072" stroke="#000000" points="1972.3686,-252 1801.6314,-252 1801.6314,-216 1972.3686,-216 1972.3686,-252"/>
<text text-anchor="middle" x="1887" y="-229.8" font-family="Times,serif" font-size="14.00" fill="#000000">StatisticGadgetComponent </text>
</g>
<!-- GadgetModule&#45;&gt;StatisticGadgetComponent  -->
<g id="edge25" class="edge">
<title>GadgetModule&#45;&gt;StatisticGadgetComponent </title>
<path fill="none" stroke="#000000" stroke-dasharray="5,2" d="M1870.3373,-187.1061C1870.3373,-187.1061 1870.3373,-205.991 1870.3373,-205.991"/>
<polygon fill="#000000" stroke="#000000" points="1866.8374,-205.9909 1870.3373,-215.991 1873.8374,-205.991 1866.8374,-205.9909"/>
</g>
<!-- GadgetModule&#45;&gt;StatisticGadgetComponent  -->
<g id="edge30" class="edge">
<title>GadgetModule&#45;&gt;StatisticGadgetComponent </title>
<path fill="none" stroke="#000000" stroke-dasharray="5,2" d="M1903.6627,-187.1061C1903.6627,-187.1061 1903.6627,-205.991 1903.6627,-205.991"/>
<polygon fill="#000000" stroke="#000000" points="1900.1628,-205.9909 1903.6627,-215.991 1907.1628,-205.991 1900.1628,-205.9909"/>
</g>
<!-- TrendGadgetComponent  -->
<g id="node26" class="node">
<title>TrendGadgetComponent </title>
<polygon fill="#fb8072" stroke="#000000" points="1783.1869,-252 1624.8131,-252 1624.8131,-216 1783.1869,-216 1783.1869,-252"/>
<text text-anchor="middle" x="1704" y="-229.8" font-family="Times,serif" font-size="14.00" fill="#000000">TrendGadgetComponent </text>
</g>
<!-- GadgetModule&#45;&gt;TrendGadgetComponent  -->
<g id="edge26" class="edge">
<title>GadgetModule&#45;&gt;TrendGadgetComponent </title>
<path fill="none" stroke="#000000" stroke-dasharray="5,2" d="M1836.9631,-186C1807.7496,-186 1776.5886,-186 1776.5886,-186 1776.5886,-186 1776.5886,-205.8533 1776.5886,-205.8533"/>
<polygon fill="#000000" stroke="#000000" points="1773.0886,-205.8532 1776.5886,-215.8533 1780.0886,-205.8533 1773.0886,-205.8532"/>
</g>
<!-- TrendLineGadgetComponent  -->
<g id="node27" class="node">
<title>TrendLineGadgetComponent </title>
<polygon fill="#fb8072" stroke="#000000" points="1606.3447,-252 1421.6553,-252 1421.6553,-216 1606.3447,-216 1606.3447,-252"/>
<text text-anchor="middle" x="1514" y="-229.8" font-family="Times,serif" font-size="14.00" fill="#000000">TrendLineGadgetComponent </text>
</g>
<!-- GadgetModule&#45;&gt;TrendLineGadgetComponent  -->
<g id="edge27" class="edge">
<title>GadgetModule&#45;&gt;TrendLineGadgetComponent </title>
<path fill="none" stroke="#000000" stroke-dasharray="5,2" d="M1836.767,-184C1743.7052,-184 1553.874,-184 1553.874,-184 1553.874,-184 1553.874,-205.9489 1553.874,-205.9489"/>
<polygon fill="#000000" stroke="#000000" points="1550.374,-205.9488 1553.874,-215.9489 1557.374,-205.9489 1550.374,-205.9488"/>
</g>
<!-- NewsGadgetComponent  -->
<g id="node28" class="node">
<title>NewsGadgetComponent </title>
<polygon fill="#fb8072" stroke="#000000" points="1403.6313,-252 1246.3687,-252 1246.3687,-216 1403.6313,-216 1403.6313,-252"/>
<text text-anchor="middle" x="1325" y="-229.8" font-family="Times,serif" font-size="14.00" fill="#000000">NewsGadgetComponent </text>
</g>
<!-- GadgetModule&#45;&gt;NewsGadgetComponent  -->
<g id="edge28" class="edge">
<title>GadgetModule&#45;&gt;NewsGadgetComponent </title>
<path fill="none" stroke="#000000" stroke-dasharray="5,2" d="M1836.8555,-182C1707.7151,-182 1373.7763,-182 1373.7763,-182 1373.7763,-182 1373.7763,-205.8129 1373.7763,-205.8129"/>
<polygon fill="#000000" stroke="#000000" points="1370.2764,-205.8129 1373.7763,-215.8129 1377.2764,-205.813 1370.2764,-205.8129"/>
</g>
<!-- JobAnalysisGadgetComponent  -->
<g id="node29" class="node">
<title>JobAnalysisGadgetComponent </title>
<polygon fill="#fb8072" stroke="#000000" points="1228.6952,-252 1035.3048,-252 1035.3048,-216 1228.6952,-216 1228.6952,-252"/>
<text text-anchor="middle" x="1132" y="-229.8" font-family="Times,serif" font-size="14.00" fill="#000000">JobAnalysisGadgetComponent </text>
</g>
<!-- GadgetModule&#45;&gt;JobAnalysisGadgetComponent  -->
<g id="edge29" class="edge">
<title>GadgetModule&#45;&gt;JobAnalysisGadgetComponent </title>
<path fill="none" stroke="#000000" stroke-dasharray="5,2" d="M1836.9703,-180C1679.8458,-180 1206.6236,-180 1206.6236,-180 1206.6236,-180 1206.6236,-205.7181 1206.6236,-205.7181"/>
<polygon fill="#000000" stroke="#000000" points="1203.1237,-205.718 1206.6236,-215.7181 1210.1237,-205.7181 1203.1237,-205.718"/>
</g>
<!-- PropertyListGadgetComponent  -->
<g id="node30" class="node">
<title>PropertyListGadgetComponent </title>
<polygon fill="#fb8072" stroke="#000000" points="1017.7464,-252 822.2536,-252 822.2536,-216 1017.7464,-216 1017.7464,-252"/>
<text text-anchor="middle" x="920" y="-229.8" font-family="Times,serif" font-size="14.00" fill="#000000">PropertyListGadgetComponent </text>
</g>
<!-- GadgetModule&#45;&gt;PropertyListGadgetComponent  -->
<g id="edge31" class="edge">
<title>GadgetModule&#45;&gt;PropertyListGadgetComponent </title>
<path fill="none" stroke="#000000" stroke-dasharray="5,2" d="M1836.7686,-178C1640.2073,-178 933.9661,-178 933.9661,-178 933.9661,-178 933.9661,-205.973 933.9661,-205.973"/>
<polygon fill="#000000" stroke="#000000" points="930.4662,-205.973 933.9661,-215.973 937.4662,-205.973 930.4662,-205.973"/>
</g>
<!-- ServiceListGadgetComponent  -->
<g id="node31" class="node">
<title>ServiceListGadgetComponent </title>
<polygon fill="#fb8072" stroke="#000000" points="804.5148,-252 615.4852,-252 615.4852,-216 804.5148,-216 804.5148,-252"/>
<text text-anchor="middle" x="710" y="-229.8" font-family="Times,serif" font-size="14.00" fill="#000000">ServiceListGadgetComponent </text>
</g>
<!-- GadgetModule&#45;&gt;ServiceListGadgetComponent  -->
<g id="edge32" class="edge">
<title>GadgetModule&#45;&gt;ServiceListGadgetComponent </title>
<path fill="none" stroke="#000000" stroke-dasharray="5,2" d="M1836.6605,-176C1619.5513,-176 774.2288,-176 774.2288,-176 774.2288,-176 774.2288,-205.9664 774.2288,-205.9664"/>
<polygon fill="#000000" stroke="#000000" points="770.7289,-205.9663 774.2288,-215.9664 777.7289,-205.9664 770.7289,-205.9663"/>
</g>
<!-- CommonModule -->
<g id="node14" class="node">
<title>CommonModule</title>
<polygon fill="#8dd3c7" stroke="#000000" points="1769.6681,-122 1766.6681,-126 1745.6681,-126 1742.6681,-122 1658.3319,-122 1658.3319,-86 1769.6681,-86 1769.6681,-122"/>
<text text-anchor="middle" x="1714" y="-99.8" font-family="Times,serif" font-size="14.00" fill="#000000">CommonModule</text>
</g>
<!-- CommonModule&#45;&gt;GadgetModule -->
<g id="edge14" class="edge">
<title>CommonModule&#45;&gt;GadgetModule</title>
<path fill="none" stroke="#000000" d="M1714,-122.2458C1714,-136.1772 1714,-153 1714,-153 1714,-153 1826.9612,-153 1826.9612,-153"/>
<polygon fill="#000000" stroke="#000000" points="1826.9613,-156.5001 1836.9612,-153 1826.9612,-149.5001 1826.9613,-156.5001"/>
</g>
<!-- GadgetSharedModule -->
<g id="node15" class="node">
<title>GadgetSharedModule</title>
<polygon fill="#8dd3c7" stroke="#000000" points="1640.3487,-122 1637.3487,-126 1616.3487,-126 1613.3487,-122 1501.6513,-122 1501.6513,-86 1640.3487,-86 1640.3487,-122"/>
<text text-anchor="middle" x="1571" y="-99.8" font-family="Times,serif" font-size="14.00" fill="#000000">GadgetSharedModule</text>
</g>
<!-- GadgetSharedModule&#45;&gt;GadgetModule -->
<g id="edge15" class="edge">
<title>GadgetSharedModule&#45;&gt;GadgetModule</title>
<path fill="none" stroke="#000000" d="M1632.5405,-122.1243C1632.5405,-136.7832 1632.5405,-155 1632.5405,-155 1632.5405,-155 1826.727,-155 1826.727,-155"/>
<polygon fill="#000000" stroke="#000000" points="1826.727,-158.5001 1836.727,-155 1826.727,-151.5001 1826.727,-158.5001"/>
</g>
<!-- DndModule.forRoot() -->
<g id="node16" class="node">
<title>DndModule.forRoot()</title>
<polygon fill="#8dd3c7" stroke="#000000" points="1484.026,-122 1481.026,-126 1460.026,-126 1457.026,-122 1343.974,-122 1343.974,-86 1484.026,-86 1484.026,-122"/>
<text text-anchor="middle" x="1414" y="-99.8" font-family="Times,serif" font-size="14.00" fill="#000000">DndModule.forRoot()</text>
</g>
<!-- DndModule.forRoot()&#45;&gt;GadgetModule -->
<g id="edge16" class="edge">
<title>DndModule.forRoot()&#45;&gt;GadgetModule</title>
<path fill="none" stroke="#000000" d="M1452.9204,-122.2396C1452.9204,-137.5706 1452.9204,-157 1452.9204,-157 1452.9204,-157 1826.7815,-157 1826.7815,-157"/>
<polygon fill="#000000" stroke="#000000" points="1826.7815,-160.5001 1836.7815,-157 1826.7815,-153.5001 1826.7815,-160.5001"/>
</g>
<!-- DynamicFormModule -->
<g id="node17" class="node">
<title>DynamicFormModule</title>
<polygon fill="#8dd3c7" stroke="#000000" points="1325.7007,-122 1322.7007,-126 1301.7007,-126 1298.7007,-122 1184.2993,-122 1184.2993,-86 1325.7007,-86 1325.7007,-122"/>
<text text-anchor="middle" x="1255" y="-99.8" font-family="Times,serif" font-size="14.00" fill="#000000">DynamicFormModule</text>
</g>
<!-- DynamicFormModule&#45;&gt;GadgetModule -->
<g id="edge17" class="edge">
<title>DynamicFormModule&#45;&gt;GadgetModule</title>
<path fill="none" stroke="#000000" d="M1286.0174,-122.0091C1286.0174,-138.0494 1286.0174,-159 1286.0174,-159 1286.0174,-159 1826.7942,-159 1826.7942,-159"/>
<polygon fill="#000000" stroke="#000000" points="1826.7943,-162.5001 1836.7942,-159 1826.7942,-155.5001 1826.7943,-162.5001"/>
</g>
<!-- ErrorHandlerModule -->
<g id="node18" class="node">
<title>ErrorHandlerModule</title>
<polygon fill="#8dd3c7" stroke="#000000" points="1166.1713,-122 1163.1713,-126 1142.1713,-126 1139.1713,-122 1031.8287,-122 1031.8287,-86 1166.1713,-86 1166.1713,-122"/>
<text text-anchor="middle" x="1099" y="-99.8" font-family="Times,serif" font-size="14.00" fill="#000000">ErrorHandlerModule</text>
</g>
<!-- ErrorHandlerModule&#45;&gt;GadgetModule -->
<g id="edge18" class="edge">
<title>ErrorHandlerModule&#45;&gt;GadgetModule</title>
<path fill="none" stroke="#000000" d="M1100.619,-122.0352C1100.619,-138.7344 1100.619,-161 1100.619,-161 1100.619,-161 1826.9123,-161 1826.9123,-161"/>
<polygon fill="#000000" stroke="#000000" points="1826.9123,-164.5001 1836.9123,-161 1826.9123,-157.5001 1826.9123,-164.5001"/>
</g>
<!-- NgxChartsModule -->
<g id="node19" class="node">
<title>NgxChartsModule</title>
<polygon fill="#8dd3c7" stroke="#000000" points="1014.2036,-122 1011.2036,-126 990.2036,-126 987.2036,-122 893.7964,-122 893.7964,-86 1014.2036,-86 1014.2036,-122"/>
<text text-anchor="middle" x="954" y="-99.8" font-family="Times,serif" font-size="14.00" fill="#000000">NgxChartsModule</text>
</g>
<!-- NgxChartsModule&#45;&gt;GadgetModule -->
<g id="edge19" class="edge">
<title>NgxChartsModule&#45;&gt;GadgetModule</title>
<path fill="none" stroke="#000000" d="M974.0339,-122.0225C974.0339,-139.3734 974.0339,-163 974.0339,-163 974.0339,-163 1826.941,-163 1826.941,-163"/>
<polygon fill="#000000" stroke="#000000" points="1826.9411,-166.5001 1836.941,-163 1826.941,-159.5001 1826.9411,-166.5001"/>
</g>
<!-- TrendService -->
<g id="node32" class="node">
<title>TrendService</title>
<ellipse fill="#fdb462" stroke="#000000" cx="807" cy="-104" rx="63.0996" ry="18"/>
<text text-anchor="middle" x="807" y="-99.8" font-family="Times,serif" font-size="14.00" fill="#000000">TrendService</text>
</g>
<!-- TrendService&#45;&gt;GadgetModule -->
<g id="edge33" class="edge">
<title>TrendService&#45;&gt;GadgetModule</title>
<path fill="none" stroke="#000000" d="M846.2133,-118.1479C846.2133,-136.168 846.2133,-165 846.2133,-165 846.2133,-165 1826.8007,-165 1826.8007,-165"/>
<polygon fill="#000000" stroke="#000000" points="1826.8007,-168.5001 1836.8007,-165 1826.8007,-161.5001 1826.8007,-168.5001"/>
</g>
<!-- DiskService -->
<g id="node33" class="node">
<title>DiskService</title>
<ellipse fill="#fdb462" stroke="#000000" cx="668" cy="-104" rx="58.4628" ry="18"/>
<text text-anchor="middle" x="668" y="-99.8" font-family="Times,serif" font-size="14.00" fill="#000000">DiskService</text>
</g>
<!-- DiskService&#45;&gt;GadgetModule -->
<g id="edge34" class="edge">
<title>DiskService&#45;&gt;GadgetModule</title>
<path fill="none" stroke="#000000" d="M670.8618,-122.2222C670.8618,-140.8285 670.8618,-167 670.8618,-167 670.8618,-167 1826.6762,-167 1826.6762,-167"/>
<polygon fill="#000000" stroke="#000000" points="1826.6762,-170.5001 1836.6762,-167 1826.6761,-163.5001 1826.6762,-170.5001"/>
</g>
<!-- StatisticService -->
<g id="node34" class="node">
<title>StatisticService</title>
<ellipse fill="#fdb462" stroke="#000000" cx="521" cy="-104" rx="71.2152" ry="18"/>
<text text-anchor="middle" x="521" y="-99.8" font-family="Times,serif" font-size="14.00" fill="#000000">StatisticService</text>
</g>
<!-- StatisticService&#45;&gt;GadgetModule -->
<g id="edge35" class="edge">
<title>StatisticService&#45;&gt;GadgetModule</title>
<path fill="none" stroke="#000000" d="M521,-122.1061C521,-141.3391 521,-169 521,-169 521,-169 1826.7633,-169 1826.7633,-169"/>
<polygon fill="#000000" stroke="#000000" points="1826.7633,-172.5001 1836.7633,-169 1826.7633,-165.5001 1826.7633,-172.5001"/>
</g>
<!-- EdgeService -->
<g id="node35" class="node">
<title>EdgeService</title>
<ellipse fill="#fdb462" stroke="#000000" cx="372" cy="-104" rx="59.6704" ry="18"/>
<text text-anchor="middle" x="372" y="-99.8" font-family="Times,serif" font-size="14.00" fill="#000000">EdgeService</text>
</g>
<!-- EdgeService&#45;&gt;GadgetModule -->
<g id="edge36" class="edge">
<title>EdgeService&#45;&gt;GadgetModule</title>
<path fill="none" stroke="#000000" d="M372,-122.0348C372,-141.5762 372,-170 372,-170 372,-170 1826.5932,-170 1826.5932,-170"/>
<polygon fill="#000000" stroke="#000000" points="1826.5933,-173.5001 1836.5932,-170 1826.5932,-166.5001 1826.5933,-173.5001"/>
</g>
<!-- CPUMService -->
<g id="node36" class="node">
<title>CPUMService</title>
<ellipse fill="#fdb462" stroke="#000000" cx="227" cy="-104" rx="67.2119" ry="18"/>
<text text-anchor="middle" x="227" y="-99.8" font-family="Times,serif" font-size="14.00" fill="#000000">CPUMService</text>
</g>
<!-- CPUMService&#45;&gt;GadgetModule -->
<g id="edge37" class="edge">
<title>CPUMService&#45;&gt;GadgetModule</title>
<path fill="none" stroke="#000000" d="M227,-122.2228C227,-142.3652 227,-172 227,-172 227,-172 1826.8672,-172 1826.8672,-172"/>
<polygon fill="#000000" stroke="#000000" points="1826.8673,-175.5001 1836.8672,-172 1826.8672,-168.5001 1826.8673,-175.5001"/>
</g>
<!-- CPUService -->
<g id="node37" class="node">
<title>CPUService</title>
<ellipse fill="#fdb462" stroke="#000000" cx="83" cy="-104" rx="58.5444" ry="18"/>
<text text-anchor="middle" x="83" y="-99.8" font-family="Times,serif" font-size="14.00" fill="#000000">CPUService</text>
</g>
<!-- CPUService&#45;&gt;GadgetModule -->
<g id="edge38" class="edge">
<title>CPUService&#45;&gt;GadgetModule</title>
<path fill="none" stroke="#000000" d="M83,-122.0267C83,-142.7672 83,-174 83,-174 83,-174 1826.8679,-174 1826.8679,-174"/>
<polygon fill="#000000" stroke="#000000" points="1826.8679,-177.5001 1836.8679,-174 1826.8678,-170.5001 1826.8679,-177.5001"/>
</g>
</g>
</svg>
