<?xml version="1.0" encoding="UTF-8" standalone="no"?>
<!DOCTYPE svg PUBLIC "-//W3C//DTD SVG 1.1//EN"
 "http://www.w3.org/Graphics/SVG/1.1/DTD/svg11.dtd">
<!-- Generated by graphviz version 2.40.1 (20161225.0304)
 -->
<!-- Title: dependencies Pages: 1 -->
<svg width="6575pt" height="284pt"
 viewBox="0.00 0.00 6575.00 284.00" xmlns="http://www.w3.org/2000/svg" xmlns:xlink="http://www.w3.org/1999/xlink">
<g id="graph0" class="graph" transform="scale(1 1) rotate(0) translate(4 280)">
<title>dependencies</title>
<polygon fill="#ffffff" stroke="transparent" points="-4,4 -4,-280 6571,-280 6571,4 -4,4"/>
<text text-anchor="start" x="3262.5091" y="-42.4" font-family="sans-serif" font-weight="bold" font-size="14.00" fill="#000000">Legend</text>
<polygon fill="#ffffb3" stroke="transparent" points="3049.5,-10 3049.5,-30 3069.5,-30 3069.5,-10 3049.5,-10"/>
<text text-anchor="start" x="3073.129" y="-15.4" font-family="sans-serif" font-size="14.00" fill="#000000"> &#160;Declarations</text>
<polygon fill="#8dd3c7" stroke="transparent" points="3162.5,-10 3162.5,-30 3182.5,-30 3182.5,-10 3162.5,-10"/>
<text text-anchor="start" x="3186.2251" y="-15.4" font-family="sans-serif" font-size="14.00" fill="#000000"> &#160;Module</text>
<polygon fill="#80b1d3" stroke="transparent" points="3248.5,-10 3248.5,-30 3268.5,-30 3268.5,-10 3248.5,-10"/>
<text text-anchor="start" x="3272.2812" y="-15.4" font-family="sans-serif" font-size="14.00" fill="#000000"> &#160;Bootstrap</text>
<polygon fill="#fdb462" stroke="transparent" points="3345.5,-10 3345.5,-30 3365.5,-30 3365.5,-10 3345.5,-10"/>
<text text-anchor="start" x="3369.1732" y="-15.4" font-family="sans-serif" font-size="14.00" fill="#000000"> &#160;Providers</text>
<polygon fill="#fb8072" stroke="transparent" points="3441.5,-10 3441.5,-30 3461.5,-30 3461.5,-10 3441.5,-10"/>
<text text-anchor="start" x="3465.2258" y="-15.4" font-family="sans-serif" font-size="14.00" fill="#000000"> &#160;Exports</text>
<g id="clust1" class="cluster">
<title>cluster_GadgetModule</title>
<polygon fill="none" stroke="#000000" stroke-dasharray="1,5" points="8,-70 8,-268 6559,-268 6559,-70 8,-70"/>
</g>
<g id="clust2" class="cluster">
<title>cluster_GadgetModule_declarations</title>
<polygon fill="none" stroke="#000000" points="3512,-78 3512,-130 6551,-130 6551,-78 3512,-78"/>
</g>
<g id="clust19" class="cluster">
<title>cluster_GadgetModule_imports</title>
<polygon fill="none" stroke="#000000" points="1215,-78 1215,-130 3504,-130 3504,-78 1215,-78"/>
</g>
<g id="clust20" class="cluster">
<title>cluster_GadgetModule_exports</title>
<polygon fill="none" stroke="#000000" points="1370,-208 1370,-260 4303,-260 4303,-208 1370,-208"/>
</g>
<g id="clust22" class="cluster">
<title>cluster_GadgetModule_providers</title>
<polygon fill="none" stroke="#000000" points="16,-78 16,-130 1207,-130 1207,-78 16,-78"/>
</g>
<!-- CPUGadgetComponent -->
<g id="node1" class="node">
<title>CPUGadgetComponent</title>
<polygon fill="#ffffb3" stroke="#000000" points="6543.4846,-122 6394.5154,-122 6394.5154,-86 6543.4846,-86 6543.4846,-122"/>
<text text-anchor="middle" x="6469" y="-99.8" font-family="Times,serif" font-size="14.00" fill="#000000">CPUGadgetComponent</text>
</g>
<!-- GadgetModule -->
<g id="node17" class="node">
<title>GadgetModule</title>
<polygon fill="#8dd3c7" stroke="#000000" points="3030.9762,-187 3027.9762,-191 3006.9762,-191 3003.9762,-187 2931.0238,-187 2931.0238,-151 3030.9762,-151 3030.9762,-187"/>
<text text-anchor="middle" x="2981" y="-164.8" font-family="Times,serif" font-size="14.00" fill="#000000">GadgetModule</text>
</g>
<!-- CPUGadgetComponent&#45;&gt;GadgetModule -->
<g id="edge1" class="edge">
<title>CPUGadgetComponent&#45;&gt;GadgetModule</title>
<path fill="none" stroke="#000000" d="M6469,-122.0449C6469,-143.6623 6469,-177 6469,-177 6469,-177 3040.9776,-177 3040.9776,-177"/>
<polygon fill="#000000" stroke="#000000" points="3040.9776,-173.5001 3030.9776,-177 3040.9776,-180.5001 3040.9776,-173.5001"/>
</g>
<!-- CPUMGadgetComponent -->
<g id="node2" class="node">
<title>CPUMGadgetComponent</title>
<polygon fill="#ffffb3" stroke="#000000" points="6376.9298,-122 6215.0702,-122 6215.0702,-86 6376.9298,-86 6376.9298,-122"/>
<text text-anchor="middle" x="6296" y="-99.8" font-family="Times,serif" font-size="14.00" fill="#000000">CPUMGadgetComponent</text>
</g>
<!-- CPUMGadgetComponent&#45;&gt;GadgetModule -->
<g id="edge2" class="edge">
<title>CPUMGadgetComponent&#45;&gt;GadgetModule</title>
<path fill="none" stroke="#000000" d="M6296,-122.1686C6296,-143.498 6296,-176 6296,-176 6296,-176 3041.087,-176 3041.087,-176"/>
<polygon fill="#000000" stroke="#000000" points="3041.087,-172.5001 3031.087,-176 3041.087,-179.5001 3041.087,-172.5001"/>
</g>
<!-- DiskGadgetComponent -->
<g id="node3" class="node">
<title>DiskGadgetComponent</title>
<polygon fill="#ffffb3" stroke="#000000" points="6197.2007,-122 6048.7993,-122 6048.7993,-86 6197.2007,-86 6197.2007,-122"/>
<text text-anchor="middle" x="6123" y="-99.8" font-family="Times,serif" font-size="14.00" fill="#000000">DiskGadgetComponent</text>
</g>
<!-- DiskGadgetComponent&#45;&gt;GadgetModule -->
<g id="edge3" class="edge">
<title>DiskGadgetComponent&#45;&gt;GadgetModule</title>
<path fill="none" stroke="#000000" d="M6123,-122.2843C6123,-143.3211 6123,-175 6123,-175 6123,-175 3040.9877,-175 3040.9877,-175"/>
<polygon fill="#000000" stroke="#000000" points="3040.9877,-171.5001 3030.9877,-175 3040.9877,-178.5001 3040.9877,-171.5001"/>
</g>
<!-- MemoryGadgetComponent -->
<g id="node4" class="node">
<title>MemoryGadgetComponent</title>
<polygon fill="#ffffb3" stroke="#000000" points="6030.9692,-122 5861.0308,-122 5861.0308,-86 6030.9692,-86 6030.9692,-122"/>
<text text-anchor="middle" x="5946" y="-99.8" font-family="Times,serif" font-size="14.00" fill="#000000">MemoryGadgetComponent</text>
</g>
<!-- MemoryGadgetComponent&#45;&gt;GadgetModule -->
<g id="edge4" class="edge">
<title>MemoryGadgetComponent&#45;&gt;GadgetModule</title>
<path fill="none" stroke="#000000" d="M5946,-122.1289C5946,-142.5724 5946,-173 5946,-173 5946,-173 3041.2191,-173 3041.2191,-173"/>
<polygon fill="#000000" stroke="#000000" points="3041.2191,-169.5001 3031.2191,-173 3041.219,-176.5001 3041.2191,-169.5001"/>
</g>
<!-- EdgeServiceListGadgetComponent -->
<g id="node5" class="node">
<title>EdgeServiceListGadgetComponent</title>
<polygon fill="#ffffb3" stroke="#000000" points="5843.2822,-122 5628.7178,-122 5628.7178,-86 5843.2822,-86 5843.2822,-122"/>
<text text-anchor="middle" x="5736" y="-99.8" font-family="Times,serif" font-size="14.00" fill="#000000">EdgeServiceListGadgetComponent</text>
</g>
<!-- EdgeServiceListGadgetComponent&#45;&gt;GadgetModule -->
<g id="edge5" class="edge">
<title>EdgeServiceListGadgetComponent&#45;&gt;GadgetModule</title>
<path fill="none" stroke="#000000" d="M5736,-122.2228C5736,-142.3652 5736,-172 5736,-172 5736,-172 3041.17,-172 3041.17,-172"/>
<polygon fill="#000000" stroke="#000000" points="3041.17,-168.5001 3031.17,-172 3041.1699,-175.5001 3041.17,-168.5001"/>
</g>
<!-- StatisticGadgetComponent -->
<g id="node6" class="node">
<title>StatisticGadgetComponent</title>
<polygon fill="#ffffb3" stroke="#000000" points="5610.3683,-122 5443.6317,-122 5443.6317,-86 5610.3683,-86 5610.3683,-122"/>
<text text-anchor="middle" x="5527" y="-99.8" font-family="Times,serif" font-size="14.00" fill="#000000">StatisticGadgetComponent</text>
</g>
<!-- StatisticGadgetComponent&#45;&gt;GadgetModule -->
<g id="edge6" class="edge">
<title>StatisticGadgetComponent&#45;&gt;GadgetModule</title>
<path fill="none" stroke="#000000" d="M5554.8114,-122.308C5554.8114,-142.1455 5554.8114,-171 5554.8114,-171 5554.8114,-171 3041.2588,-171 3041.2588,-171"/>
<polygon fill="#000000" stroke="#000000" points="3041.2588,-167.5001 3031.2588,-171 3041.2588,-174.5001 3041.2588,-167.5001"/>
</g>
<!-- StatisticGadgetComponent&#45;&gt;GadgetModule -->
<g id="edge11" class="edge">
<title>StatisticGadgetComponent&#45;&gt;GadgetModule</title>
<path fill="none" stroke="#000000" d="M5499.1886,-122.1061C5499.1886,-141.3391 5499.1886,-169 5499.1886,-169 5499.1886,-169 3041.0184,-169 3041.0184,-169"/>
<polygon fill="#000000" stroke="#000000" points="3041.0184,-165.5001 3031.0184,-169 3041.0183,-172.5001 3041.0184,-165.5001"/>
</g>
<!-- TrendGadgetComponent -->
<g id="node7" class="node">
<title>TrendGadgetComponent</title>
<polygon fill="#ffffb3" stroke="#000000" points="5425.6867,-122 5270.3133,-122 5270.3133,-86 5425.6867,-86 5425.6867,-122"/>
<text text-anchor="middle" x="5348" y="-99.8" font-family="Times,serif" font-size="14.00" fill="#000000">TrendGadgetComponent</text>
</g>
<!-- TrendGadgetComponent&#45;&gt;GadgetModule -->
<g id="edge7" class="edge">
<title>TrendGadgetComponent&#45;&gt;GadgetModule</title>
<path fill="none" stroke="#000000" d="M5348,-122.1686C5348,-141.0898 5348,-168 5348,-168 5348,-168 3040.9843,-168 3040.9843,-168"/>
<polygon fill="#000000" stroke="#000000" points="3040.9843,-164.5001 3030.9843,-168 3040.9843,-171.5001 3040.9843,-164.5001"/>
</g>
<!-- TrendLineGadgetComponent -->
<g id="node8" class="node">
<title>TrendLineGadgetComponent</title>
<polygon fill="#ffffb3" stroke="#000000" points="5252.3445,-122 5071.6555,-122 5071.6555,-86 5252.3445,-86 5252.3445,-122"/>
<text text-anchor="middle" x="5162" y="-99.8" font-family="Times,serif" font-size="14.00" fill="#000000">TrendLineGadgetComponent</text>
</g>
<!-- TrendLineGadgetComponent&#45;&gt;GadgetModule -->
<g id="edge8" class="edge">
<title>TrendLineGadgetComponent&#45;&gt;GadgetModule</title>
<path fill="none" stroke="#000000" d="M5162,-122.2222C5162,-140.8285 5162,-167 5162,-167 5162,-167 3041.1748,-167 3041.1748,-167"/>
<polygon fill="#000000" stroke="#000000" points="3041.1749,-163.5001 3031.1748,-167 3041.1748,-170.5001 3041.1749,-163.5001"/>
</g>
<!-- NewsGadgetComponent -->
<g id="node9" class="node">
<title>NewsGadgetComponent</title>
<polygon fill="#ffffb3" stroke="#000000" points="5053.6316,-122 4900.3684,-122 4900.3684,-86 5053.6316,-86 5053.6316,-122"/>
<text text-anchor="middle" x="4977" y="-99.8" font-family="Times,serif" font-size="14.00" fill="#000000">NewsGadgetComponent</text>
</g>
<!-- NewsGadgetComponent&#45;&gt;GadgetModule -->
<g id="edge9" class="edge">
<title>NewsGadgetComponent&#45;&gt;GadgetModule</title>
<path fill="none" stroke="#000000" d="M4977,-122.2667C4977,-140.5552 4977,-166 4977,-166 4977,-166 3041.0874,-166 3041.0874,-166"/>
<polygon fill="#000000" stroke="#000000" points="3041.0875,-162.5001 3031.0874,-166 3041.0874,-169.5001 3041.0875,-162.5001"/>
</g>
<!-- JobAnalysisGadgetComponent -->
<g id="node10" class="node">
<title>JobAnalysisGadgetComponent</title>
<polygon fill="#ffffb3" stroke="#000000" points="4882.1951,-122 4691.8049,-122 4691.8049,-86 4882.1951,-86 4882.1951,-122"/>
<text text-anchor="middle" x="4787" y="-99.8" font-family="Times,serif" font-size="14.00" fill="#000000">JobAnalysisGadgetComponent</text>
</g>
<!-- JobAnalysisGadgetComponent&#45;&gt;GadgetModule -->
<g id="edge10" class="edge">
<title>JobAnalysisGadgetComponent&#45;&gt;GadgetModule</title>
<path fill="none" stroke="#000000" d="M4787,-122.002C4787,-139.6754 4787,-164 4787,-164 4787,-164 3041.1877,-164 3041.1877,-164"/>
<polygon fill="#000000" stroke="#000000" points="3041.1877,-160.5001 3031.1877,-164 3041.1877,-167.5001 3041.1877,-160.5001"/>
</g>
<!-- PropertyListGadgetComponent -->
<g id="node11" class="node">
<title>PropertyListGadgetComponent</title>
<polygon fill="#ffffb3" stroke="#000000" points="4673.7464,-122 4482.2536,-122 4482.2536,-86 4673.7464,-86 4673.7464,-122"/>
<text text-anchor="middle" x="4578" y="-99.8" font-family="Times,serif" font-size="14.00" fill="#000000">PropertyListGadgetComponent</text>
</g>
<!-- PropertyListGadgetComponent&#45;&gt;GadgetModule -->
<g id="edge12" class="edge">
<title>PropertyListGadgetComponent&#45;&gt;GadgetModule</title>
<path fill="none" stroke="#000000" d="M4578,-122.0225C4578,-139.3734 4578,-163 4578,-163 4578,-163 3040.9886,-163 3040.9886,-163"/>
<polygon fill="#000000" stroke="#000000" points="3040.9886,-159.5001 3030.9886,-163 3040.9885,-166.5001 3040.9886,-159.5001"/>
</g>
<!-- ServiceListGadgetComponent -->
<g id="node12" class="node">
<title>ServiceListGadgetComponent</title>
<polygon fill="#ffffb3" stroke="#000000" points="4463.5154,-122 4278.4846,-122 4278.4846,-86 4463.5154,-86 4463.5154,-122"/>
<text text-anchor="middle" x="4371" y="-99.8" font-family="Times,serif" font-size="14.00" fill="#000000">ServiceListGadgetComponent</text>
</g>
<!-- ServiceListGadgetComponent&#45;&gt;GadgetModule -->
<g id="edge13" class="edge">
<title>ServiceListGadgetComponent&#45;&gt;GadgetModule</title>
<path fill="none" stroke="#000000" d="M4286.7425,-122.0336C4286.7425,-139.0597 4286.7425,-162 4286.7425,-162 4286.7425,-162 3040.9887,-162 3040.9887,-162"/>
<polygon fill="#000000" stroke="#000000" points="3040.9887,-158.5001 3030.9887,-162 3040.9886,-165.5001 3040.9887,-158.5001"/>
</g>
<!-- ResponseTimeGadgetComponent -->
<g id="node13" class="node">
<title>ResponseTimeGadgetComponent</title>
<polygon fill="#ffffb3" stroke="#000000" points="4260.4622,-122 4055.5378,-122 4055.5378,-86 4260.4622,-86 4260.4622,-122"/>
<text text-anchor="middle" x="4158" y="-99.8" font-family="Times,serif" font-size="14.00" fill="#000000">ResponseTimeGadgetComponent</text>
</g>
<!-- ResponseTimeGadgetComponent&#45;&gt;GadgetModule -->
<g id="edge14" class="edge">
<title>ResponseTimeGadgetComponent&#45;&gt;GadgetModule</title>
<path fill="none" stroke="#000000" d="M4089.9918,-122.027C4089.9918,-138.3976 4089.9918,-160 4089.9918,-160 4089.9918,-160 3041.1686,-160 3041.1686,-160"/>
<polygon fill="#000000" stroke="#000000" points="3041.1686,-156.5001 3031.1686,-160 3041.1685,-163.5001 3041.1686,-156.5001"/>
</g>
<!-- StorageObjectListComponent -->
<g id="node14" class="node">
<title>StorageObjectListComponent</title>
<polygon fill="#ffffb3" stroke="#000000" points="4037.6909,-122 3854.3091,-122 3854.3091,-86 4037.6909,-86 4037.6909,-122"/>
<text text-anchor="middle" x="3946" y="-99.8" font-family="Times,serif" font-size="14.00" fill="#000000">StorageObjectListComponent</text>
</g>
<!-- StorageObjectListComponent&#45;&gt;GadgetModule -->
<g id="edge15" class="edge">
<title>StorageObjectListComponent&#45;&gt;GadgetModule</title>
<path fill="none" stroke="#000000" d="M3898.1275,-122.0091C3898.1275,-138.0494 3898.1275,-159 3898.1275,-159 3898.1275,-159 3041.2871,-159 3041.2871,-159"/>
<polygon fill="#000000" stroke="#000000" points="3041.2872,-155.5001 3031.2871,-159 3041.2871,-162.5001 3041.2872,-155.5001"/>
</g>
<!-- DonutGadgetComponent -->
<g id="node15" class="node">
<title>DonutGadgetComponent</title>
<polygon fill="#ffffb3" stroke="#000000" points="3836.2562,-122 3679.7438,-122 3679.7438,-86 3836.2562,-86 3836.2562,-122"/>
<text text-anchor="middle" x="3758" y="-99.8" font-family="Times,serif" font-size="14.00" fill="#000000">DonutGadgetComponent</text>
</g>
<!-- DonutGadgetComponent&#45;&gt;GadgetModule -->
<g id="edge16" class="edge">
<title>DonutGadgetComponent&#45;&gt;GadgetModule</title>
<path fill="none" stroke="#000000" d="M3725.6783,-122.2819C3725.6783,-137.9478 3725.6783,-158 3725.6783,-158 3725.6783,-158 3041.0168,-158 3041.0168,-158"/>
<polygon fill="#000000" stroke="#000000" points="3041.0168,-154.5001 3031.0168,-158 3041.0167,-161.5001 3041.0168,-154.5001"/>
</g>
<!-- DrillDownComponent -->
<g id="node16" class="node">
<title>DrillDownComponent</title>
<polygon fill="#ffffb3" stroke="#000000" points="3661.9846,-122 3520.0154,-122 3520.0154,-86 3661.9846,-86 3661.9846,-122"/>
<text text-anchor="middle" x="3591" y="-99.8" font-family="Times,serif" font-size="14.00" fill="#000000">DrillDownComponent</text>
</g>
<!-- DrillDownComponent&#45;&gt;GadgetModule -->
<g id="edge17" class="edge">
<title>DrillDownComponent&#45;&gt;GadgetModule</title>
<path fill="none" stroke="#000000" d="M3549.9494,-122.2396C3549.9494,-137.5706 3549.9494,-157 3549.9494,-157 3549.9494,-157 3040.9918,-157 3040.9918,-157"/>
<polygon fill="#000000" stroke="#000000" points="3040.9918,-153.5001 3030.9918,-157 3040.9918,-160.5001 3040.9918,-153.5001"/>
</g>
<!-- CPUGadgetComponent  -->
<g id="node34" class="node">
<title>CPUGadgetComponent </title>
<polygon fill="#fb8072" stroke="#000000" points="4295.4854,-252 4142.5146,-252 4142.5146,-216 4295.4854,-216 4295.4854,-252"/>
<text text-anchor="middle" x="4219" y="-229.8" font-family="Times,serif" font-size="14.00" fill="#000000">CPUGadgetComponent </text>
</g>
<!-- GadgetModule&#45;&gt;CPUGadgetComponent  -->
<g id="edge34" class="edge">
<title>GadgetModule&#45;&gt;CPUGadgetComponent </title>
<path fill="none" stroke="#000000" stroke-dasharray="5,2" d="M3031.1254,-178C3260.8141,-178 4201.6194,-178 4201.6194,-178 4201.6194,-178 4201.6194,-205.973 4201.6194,-205.973"/>
<polygon fill="#000000" stroke="#000000" points="4198.1195,-205.973 4201.6194,-215.973 4205.1195,-205.973 4198.1195,-205.973"/>
</g>
<!-- CPUMGadgetComponent  -->
<g id="node35" class="node">
<title>CPUMGadgetComponent </title>
<polygon fill="#fb8072" stroke="#000000" points="4124.4292,-252 3959.5708,-252 3959.5708,-216 4124.4292,-216 4124.4292,-252"/>
<text text-anchor="middle" x="4042" y="-229.8" font-family="Times,serif" font-size="14.00" fill="#000000">CPUMGadgetComponent </text>
</g>
<!-- GadgetModule&#45;&gt;CPUMGadgetComponent  -->
<g id="edge35" class="edge">
<title>GadgetModule&#45;&gt;CPUMGadgetComponent </title>
<path fill="none" stroke="#000000" stroke-dasharray="5,2" d="M3031.1141,-180C3235.9248,-180 3998.5654,-180 3998.5654,-180 3998.5654,-180 3998.5654,-205.7181 3998.5654,-205.7181"/>
<polygon fill="#000000" stroke="#000000" points="3995.0655,-205.718 3998.5654,-215.7181 4002.0655,-205.7181 3995.0655,-205.718"/>
</g>
<!-- DiskGadgetComponent  -->
<g id="node36" class="node">
<title>DiskGadgetComponent </title>
<polygon fill="#fb8072" stroke="#000000" points="3941.7009,-252 3790.2991,-252 3790.2991,-216 3941.7009,-216 3941.7009,-252"/>
<text text-anchor="middle" x="3866" y="-229.8" font-family="Times,serif" font-size="14.00" fill="#000000">DiskGadgetComponent </text>
</g>
<!-- GadgetModule&#45;&gt;DiskGadgetComponent  -->
<g id="edge36" class="edge">
<title>GadgetModule&#45;&gt;DiskGadgetComponent </title>
<path fill="none" stroke="#000000" stroke-dasharray="5,2" d="M3031.1876,-181C3211.1239,-181 3813.2639,-181 3813.2639,-181 3813.2639,-181 3813.2639,-205.7604 3813.2639,-205.7604"/>
<polygon fill="#000000" stroke="#000000" points="3809.7639,-205.7604 3813.2639,-215.7604 3816.7639,-205.7604 3809.7639,-205.7604"/>
</g>
<!-- MemoryGadgetComponent  -->
<g id="node37" class="node">
<title>MemoryGadgetComponent </title>
<polygon fill="#fb8072" stroke="#000000" points="3771.9698,-252 3598.0302,-252 3598.0302,-216 3771.9698,-216 3771.9698,-252"/>
<text text-anchor="middle" x="3685" y="-229.8" font-family="Times,serif" font-size="14.00" fill="#000000">MemoryGadgetComponent </text>
</g>
<!-- GadgetModule&#45;&gt;MemoryGadgetComponent  -->
<g id="edge37" class="edge">
<title>GadgetModule&#45;&gt;MemoryGadgetComponent </title>
<path fill="none" stroke="#000000" stroke-dasharray="5,2" d="M3031.1267,-182C3183.3858,-182 3630.1289,-182 3630.1289,-182 3630.1289,-182 3630.1289,-205.8129 3630.1289,-205.8129"/>
<polygon fill="#000000" stroke="#000000" points="3626.6289,-205.8129 3630.1289,-215.8129 3633.6289,-205.813 3626.6289,-205.8129"/>
</g>
<!-- EdgeServiceListGadgetComponent  -->
<g id="node38" class="node">
<title>EdgeServiceListGadgetComponent </title>
<polygon fill="#fb8072" stroke="#000000" points="3579.7821,-252 3362.2179,-252 3362.2179,-216 3579.7821,-216 3579.7821,-252"/>
<text text-anchor="middle" x="3471" y="-229.8" font-family="Times,serif" font-size="14.00" fill="#000000">EdgeServiceListGadgetComponent </text>
</g>
<!-- GadgetModule&#45;&gt;EdgeServiceListGadgetComponent  -->
<g id="edge38" class="edge">
<title>GadgetModule&#45;&gt;EdgeServiceListGadgetComponent </title>
<path fill="none" stroke="#000000" stroke-dasharray="5,2" d="M3031.3383,-184C3137.6354,-184 3375.2953,-184 3375.2953,-184 3375.2953,-184 3375.2953,-205.9489 3375.2953,-205.9489"/>
<polygon fill="#000000" stroke="#000000" points="3371.7953,-205.9488 3375.2953,-215.9489 3378.7953,-205.9489 3371.7953,-205.9488"/>
</g>
<!-- StatisticGadgetComponent  -->
<g id="node39" class="node">
<title>StatisticGadgetComponent </title>
<polygon fill="#fb8072" stroke="#000000" points="3344.3686,-252 3173.6314,-252 3173.6314,-216 3344.3686,-216 3344.3686,-252"/>
<text text-anchor="middle" x="3259" y="-229.8" font-family="Times,serif" font-size="14.00" fill="#000000">StatisticGadgetComponent </text>
</g>
<!-- GadgetModule&#45;&gt;StatisticGadgetComponent  -->
<g id="edge39" class="edge">
<title>GadgetModule&#45;&gt;StatisticGadgetComponent </title>
<path fill="none" stroke="#000000" stroke-dasharray="5,2" d="M3031.0445,-185C3095.1143,-185 3197.9473,-185 3197.9473,-185 3197.9473,-185 3197.9473,-205.7542 3197.9473,-205.7542"/>
<polygon fill="#000000" stroke="#000000" points="3194.4474,-205.7542 3197.9473,-215.7542 3201.4474,-205.7542 3194.4474,-205.7542"/>
</g>
<!-- GadgetModule&#45;&gt;StatisticGadgetComponent  -->
<g id="edge44" class="edge">
<title>GadgetModule&#45;&gt;StatisticGadgetComponent </title>
<path fill="none" stroke="#000000" stroke-dasharray="5,2" d="M3031.1197,-186C3091.7746,-186 3185.8816,-186 3185.8816,-186 3185.8816,-186 3185.8816,-205.8533 3185.8816,-205.8533"/>
<polygon fill="#000000" stroke="#000000" points="3182.3817,-205.8532 3185.8816,-215.8533 3189.3817,-205.8533 3182.3817,-205.8532"/>
</g>
<!-- TrendGadgetComponent  -->
<g id="node40" class="node">
<title>TrendGadgetComponent </title>
<polygon fill="#fb8072" stroke="#000000" points="3155.1869,-252 2996.8131,-252 2996.8131,-216 3155.1869,-216 3155.1869,-252"/>
<text text-anchor="middle" x="3076" y="-229.8" font-family="Times,serif" font-size="14.00" fill="#000000">TrendGadgetComponent </text>
</g>
<!-- GadgetModule&#45;&gt;TrendGadgetComponent  -->
<g id="edge40" class="edge">
<title>GadgetModule&#45;&gt;TrendGadgetComponent </title>
<path fill="none" stroke="#000000" stroke-dasharray="5,2" d="M3013.8224,-187.1061C3013.8224,-187.1061 3013.8224,-205.991 3013.8224,-205.991"/>
<polygon fill="#000000" stroke="#000000" points="3010.3225,-205.9909 3013.8224,-215.991 3017.3225,-205.991 3010.3225,-205.9909"/>
</g>
<!-- TrendLineGadgetComponent  -->
<g id="node41" class="node">
<title>TrendLineGadgetComponent </title>
<polygon fill="#fb8072" stroke="#000000" points="2978.3447,-252 2793.6553,-252 2793.6553,-216 2978.3447,-216 2978.3447,-252"/>
<text text-anchor="middle" x="2886" y="-229.8" font-family="Times,serif" font-size="14.00" fill="#000000">TrendLineGadgetComponent </text>
</g>
<!-- GadgetModule&#45;&gt;TrendLineGadgetComponent  -->
<g id="edge41" class="edge">
<title>GadgetModule&#45;&gt;TrendLineGadgetComponent </title>
<path fill="none" stroke="#000000" stroke-dasharray="5,2" d="M2954.5921,-187.1061C2954.5921,-187.1061 2954.5921,-205.991 2954.5921,-205.991"/>
<polygon fill="#000000" stroke="#000000" points="2951.0921,-205.9909 2954.5921,-215.991 2958.0921,-205.991 2951.0921,-205.9909"/>
</g>
<!-- NewsGadgetComponent  -->
<g id="node42" class="node">
<title>NewsGadgetComponent </title>
<polygon fill="#fb8072" stroke="#000000" points="2775.6313,-252 2618.3687,-252 2618.3687,-216 2775.6313,-216 2775.6313,-252"/>
<text text-anchor="middle" x="2697" y="-229.8" font-family="Times,serif" font-size="14.00" fill="#000000">NewsGadgetComponent </text>
</g>
<!-- GadgetModule&#45;&gt;NewsGadgetComponent  -->
<g id="edge42" class="edge">
<title>GadgetModule&#45;&gt;NewsGadgetComponent </title>
<path fill="none" stroke="#000000" stroke-dasharray="5,2" d="M2930.7655,-186C2867.4367,-186 2766.74,-186 2766.74,-186 2766.74,-186 2766.74,-205.8533 2766.74,-205.8533"/>
<polygon fill="#000000" stroke="#000000" points="2763.2401,-205.8532 2766.74,-215.8533 2770.2401,-205.8533 2763.2401,-205.8532"/>
</g>
<!-- JobAnalysisGadgetComponent  -->
<g id="node43" class="node">
<title>JobAnalysisGadgetComponent </title>
<polygon fill="#fb8072" stroke="#000000" points="2600.6952,-252 2407.3048,-252 2407.3048,-216 2600.6952,-216 2600.6952,-252"/>
<text text-anchor="middle" x="2504" y="-229.8" font-family="Times,serif" font-size="14.00" fill="#000000">JobAnalysisGadgetComponent </text>
</g>
<!-- GadgetModule&#45;&gt;JobAnalysisGadgetComponent  -->
<g id="edge43" class="edge">
<title>GadgetModule&#45;&gt;JobAnalysisGadgetComponent </title>
<path fill="none" stroke="#000000" stroke-dasharray="5,2" d="M2930.9555,-185C2811.8744,-185 2521.5434,-185 2521.5434,-185 2521.5434,-185 2521.5434,-205.7542 2521.5434,-205.7542"/>
<polygon fill="#000000" stroke="#000000" points="2518.0435,-205.7542 2521.5434,-215.7542 2525.0435,-205.7542 2518.0435,-205.7542"/>
</g>
<!-- PropertyListGadgetComponent  -->
<g id="node44" class="node">
<title>PropertyListGadgetComponent </title>
<polygon fill="#fb8072" stroke="#000000" points="2389.7464,-252 2194.2536,-252 2194.2536,-216 2389.7464,-216 2389.7464,-252"/>
<text text-anchor="middle" x="2292" y="-229.8" font-family="Times,serif" font-size="14.00" fill="#000000">PropertyListGadgetComponent </text>
</g>
<!-- GadgetModule&#45;&gt;PropertyListGadgetComponent  -->
<g id="edge45" class="edge">
<title>GadgetModule&#45;&gt;PropertyListGadgetComponent </title>
<path fill="none" stroke="#000000" stroke-dasharray="5,2" d="M2930.992,-184C2785.5692,-184 2373.0679,-184 2373.0679,-184 2373.0679,-184 2373.0679,-205.9489 2373.0679,-205.9489"/>
<polygon fill="#000000" stroke="#000000" points="2369.5679,-205.9488 2373.0679,-215.9489 2376.5679,-205.9489 2369.5679,-205.9488"/>
</g>
<!-- ServiceListGadgetComponent  -->
<g id="node45" class="node">
<title>ServiceListGadgetComponent </title>
<polygon fill="#fb8072" stroke="#000000" points="2176.5148,-252 1987.4852,-252 1987.4852,-216 2176.5148,-216 2176.5148,-252"/>
<text text-anchor="middle" x="2082" y="-229.8" font-family="Times,serif" font-size="14.00" fill="#000000">ServiceListGadgetComponent </text>
</g>
<!-- GadgetModule&#45;&gt;ServiceListGadgetComponent  -->
<g id="edge46" class="edge">
<title>GadgetModule&#45;&gt;ServiceListGadgetComponent </title>
<path fill="none" stroke="#000000" stroke-dasharray="5,2" d="M2930.7916,-182C2744.7844,-182 2105.6189,-182 2105.6189,-182 2105.6189,-182 2105.6189,-205.8129 2105.6189,-205.8129"/>
<polygon fill="#000000" stroke="#000000" points="2102.119,-205.8129 2105.6189,-215.8129 2109.119,-205.813 2102.119,-205.8129"/>
</g>
<!-- ResponseTimeGadgetComponent  -->
<g id="node46" class="node">
<title>ResponseTimeGadgetComponent </title>
<polygon fill="#fb8072" stroke="#000000" points="1969.4627,-252 1760.5373,-252 1760.5373,-216 1969.4627,-216 1969.4627,-252"/>
<text text-anchor="middle" x="1865" y="-229.8" font-family="Times,serif" font-size="14.00" fill="#000000">ResponseTimeGadgetComponent </text>
</g>
<!-- GadgetModule&#45;&gt;ResponseTimeGadgetComponent  -->
<g id="edge47" class="edge">
<title>GadgetModule&#45;&gt;ResponseTimeGadgetComponent </title>
<path fill="none" stroke="#000000" stroke-dasharray="5,2" d="M2930.9249,-181C2722.6129,-181 1935.4858,-181 1935.4858,-181 1935.4858,-181 1935.4858,-205.7604 1935.4858,-205.7604"/>
<polygon fill="#000000" stroke="#000000" points="1931.9859,-205.7604 1935.4858,-215.7604 1938.9859,-205.7604 1931.9859,-205.7604"/>
</g>
<!-- StorageObjectListComponent  -->
<g id="node47" class="node">
<title>StorageObjectListComponent </title>
<polygon fill="#fb8072" stroke="#000000" points="1742.1911,-252 1555.8089,-252 1555.8089,-216 1742.1911,-216 1742.1911,-252"/>
<text text-anchor="middle" x="1649" y="-229.8" font-family="Times,serif" font-size="14.00" fill="#000000">StorageObjectListComponent </text>
</g>
<!-- GadgetModule&#45;&gt;StorageObjectListComponent  -->
<g id="edge48" class="edge">
<title>GadgetModule&#45;&gt;StorageObjectListComponent </title>
<path fill="none" stroke="#000000" stroke-dasharray="5,2" d="M2930.9399,-180C2698.2362,-180 1733.5048,-180 1733.5048,-180 1733.5048,-180 1733.5048,-205.7181 1733.5048,-205.7181"/>
<polygon fill="#000000" stroke="#000000" points="1730.0048,-205.718 1733.5048,-215.7181 1737.0048,-205.7181 1730.0048,-205.718"/>
</g>
<!-- DonutGadgetComponent  -->
<g id="node48" class="node">
<title>DonutGadgetComponent </title>
<polygon fill="#fb8072" stroke="#000000" points="1538.2562,-252 1377.7438,-252 1377.7438,-216 1538.2562,-216 1538.2562,-252"/>
<text text-anchor="middle" x="1458" y="-229.8" font-family="Times,serif" font-size="14.00" fill="#000000">DonutGadgetComponent </text>
</g>
<!-- GadgetModule&#45;&gt;DonutGadgetComponent  -->
<g id="edge49" class="edge">
<title>GadgetModule&#45;&gt;DonutGadgetComponent </title>
<path fill="none" stroke="#000000" stroke-dasharray="5,2" d="M2930.6179,-178C2674.5655,-178 1529.5973,-178 1529.5973,-178 1529.5973,-178 1529.5973,-205.973 1529.5973,-205.973"/>
<polygon fill="#000000" stroke="#000000" points="1526.0974,-205.973 1529.5973,-215.973 1533.0974,-205.973 1526.0974,-205.973"/>
</g>
<!-- CommonModule -->
<g id="node18" class="node">
<title>CommonModule</title>
<polygon fill="#8dd3c7" stroke="#000000" points="3495.6681,-122 3492.6681,-126 3471.6681,-126 3468.6681,-122 3384.3319,-122 3384.3319,-86 3495.6681,-86 3495.6681,-122"/>
<text text-anchor="middle" x="3440" y="-99.8" font-family="Times,serif" font-size="14.00" fill="#000000">CommonModule</text>
</g>
<!-- CommonModule&#45;&gt;GadgetModule -->
<g id="edge18" class="edge">
<title>CommonModule&#45;&gt;GadgetModule</title>
<path fill="none" stroke="#000000" d="M3440,-122.1243C3440,-136.7832 3440,-155 3440,-155 3440,-155 3040.9948,-155 3040.9948,-155"/>
<polygon fill="#000000" stroke="#000000" points="3040.9948,-151.5001 3030.9948,-155 3040.9948,-158.5001 3040.9948,-151.5001"/>
</g>
<!-- GadgetSharedModule -->
<g id="node19" class="node">
<title>GadgetSharedModule</title>
<polygon fill="#8dd3c7" stroke="#000000" points="3366.3487,-122 3363.3487,-126 3342.3487,-126 3339.3487,-122 3227.6513,-122 3227.6513,-86 3366.3487,-86 3366.3487,-122"/>
<text text-anchor="middle" x="3297" y="-99.8" font-family="Times,serif" font-size="14.00" fill="#000000">GadgetSharedModule</text>
</g>
<!-- GadgetSharedModule&#45;&gt;GadgetModule -->
<g id="edge19" class="edge">
<title>GadgetSharedModule&#45;&gt;GadgetModule</title>
<path fill="none" stroke="#000000" d="M3285.8799,-122.0511C3285.8799,-136.373 3285.8799,-154 3285.8799,-154 3285.8799,-154 3041.0033,-154 3041.0033,-154"/>
<polygon fill="#000000" stroke="#000000" points="3041.0034,-150.5001 3031.0033,-154 3041.0033,-157.5001 3041.0034,-150.5001"/>
</g>
<!-- DndModule.forRoot() -->
<g id="node20" class="node">
<title>DndModule.forRoot()</title>
<polygon fill="#8dd3c7" stroke="#000000" points="3210.026,-122 3207.026,-126 3186.026,-126 3183.026,-122 3069.974,-122 3069.974,-86 3210.026,-86 3210.026,-122"/>
<text text-anchor="middle" x="3140" y="-99.8" font-family="Times,serif" font-size="14.00" fill="#000000">DndModule.forRoot()</text>
</g>
<!-- DndModule.forRoot()&#45;&gt;GadgetModule -->
<g id="edge20" class="edge">
<title>DndModule.forRoot()&#45;&gt;GadgetModule</title>
<path fill="none" stroke="#000000" d="M3112.6651,-122.2458C3112.6651,-136.1772 3112.6651,-153 3112.6651,-153 3112.6651,-153 3041.1525,-153 3041.1525,-153"/>
<polygon fill="#000000" stroke="#000000" points="3041.1526,-149.5001 3031.1525,-153 3041.1525,-156.5001 3041.1526,-149.5001"/>
</g>
<!-- DynamicFormModule -->
<g id="node21" class="node">
<title>DynamicFormModule</title>
<polygon fill="#8dd3c7" stroke="#000000" points="3051.7007,-122 3048.7007,-126 3027.7007,-126 3024.7007,-122 2910.2993,-122 2910.2993,-86 3051.7007,-86 3051.7007,-122"/>
<text text-anchor="middle" x="2981" y="-99.8" font-family="Times,serif" font-size="14.00" fill="#000000">DynamicFormModule</text>
</g>
<!-- DynamicFormModule&#45;&gt;GadgetModule -->
<g id="edge21" class="edge">
<title>DynamicFormModule&#45;&gt;GadgetModule</title>
<path fill="none" stroke="#000000" d="M2981,-122.1061C2981,-122.1061 2981,-140.991 2981,-140.991"/>
<polygon fill="#000000" stroke="#000000" points="2977.5001,-140.9909 2981,-150.991 2984.5001,-140.991 2977.5001,-140.9909"/>
</g>
<!-- ErrorHandlerModule -->
<g id="node22" class="node">
<title>ErrorHandlerModule</title>
<polygon fill="#8dd3c7" stroke="#000000" points="2892.1713,-122 2889.1713,-126 2868.1713,-126 2865.1713,-122 2757.8287,-122 2757.8287,-86 2892.1713,-86 2892.1713,-122"/>
<text text-anchor="middle" x="2825" y="-99.8" font-family="Times,serif" font-size="14.00" fill="#000000">ErrorHandlerModule</text>
</g>
<!-- ErrorHandlerModule&#45;&gt;GadgetModule -->
<g id="edge22" class="edge">
<title>ErrorHandlerModule&#45;&gt;GadgetModule</title>
<path fill="none" stroke="#000000" d="M2842.9567,-122.2458C2842.9567,-136.1772 2842.9567,-153 2842.9567,-153 2842.9567,-153 2920.7727,-153 2920.7727,-153"/>
<polygon fill="#000000" stroke="#000000" points="2920.7727,-156.5001 2930.7727,-153 2920.7727,-149.5001 2920.7727,-156.5001"/>
</g>
<!-- NgxChartsModule -->
<g id="node23" class="node">
<title>NgxChartsModule</title>
<polygon fill="#8dd3c7" stroke="#000000" points="2740.2036,-122 2737.2036,-126 2716.2036,-126 2713.2036,-122 2619.7964,-122 2619.7964,-86 2740.2036,-86 2740.2036,-122"/>
<text text-anchor="middle" x="2680" y="-99.8" font-family="Times,serif" font-size="14.00" fill="#000000">NgxChartsModule</text>
</g>
<!-- NgxChartsModule&#45;&gt;GadgetModule -->
<g id="edge23" class="edge">
<title>NgxChartsModule&#45;&gt;GadgetModule</title>
<path fill="none" stroke="#000000" d="M2680,-122.0511C2680,-136.373 2680,-154 2680,-154 2680,-154 2920.9581,-154 2920.9581,-154"/>
<polygon fill="#000000" stroke="#000000" points="2920.9581,-157.5001 2930.9581,-154 2920.9581,-150.5001 2920.9581,-157.5001"/>
</g>
<!-- MatButtonModule -->
<g id="node24" class="node">
<title>MatButtonModule</title>
<polygon fill="#8dd3c7" stroke="#000000" points="2602.2176,-122 2599.2176,-126 2578.2176,-126 2575.2176,-122 2481.7824,-122 2481.7824,-86 2602.2176,-86 2602.2176,-122"/>
<text text-anchor="middle" x="2542" y="-99.8" font-family="Times,serif" font-size="14.00" fill="#000000">MatButtonModule</text>
</g>
<!-- MatButtonModule&#45;&gt;GadgetModule -->
<g id="edge24" class="edge">
<title>MatButtonModule&#45;&gt;GadgetModule</title>
<path fill="none" stroke="#000000" d="M2561.1954,-122.1243C2561.1954,-136.7832 2561.1954,-155 2561.1954,-155 2561.1954,-155 2920.7787,-155 2920.7787,-155"/>
<polygon fill="#000000" stroke="#000000" points="2920.7788,-158.5001 2930.7787,-155 2920.7787,-151.5001 2920.7788,-158.5001"/>
</g>
<!-- MatIconModule -->
<g id="node25" class="node">
<title>MatIconModule</title>
<polygon fill="#8dd3c7" stroke="#000000" points="2463.4748,-122 2460.4748,-126 2439.4748,-126 2436.4748,-122 2356.5252,-122 2356.5252,-86 2463.4748,-86 2463.4748,-122"/>
<text text-anchor="middle" x="2410" y="-99.8" font-family="Times,serif" font-size="14.00" fill="#000000">MatIconModule</text>
</g>
<!-- MatIconModule&#45;&gt;GadgetModule -->
<g id="edge25" class="edge">
<title>MatIconModule&#45;&gt;GadgetModule</title>
<path fill="none" stroke="#000000" d="M2435.32,-122.2396C2435.32,-137.5706 2435.32,-157 2435.32,-157 2435.32,-157 2920.6418,-157 2920.6418,-157"/>
<polygon fill="#000000" stroke="#000000" points="2920.6419,-160.5001 2930.6418,-157 2920.6418,-153.5001 2920.6419,-160.5001"/>
</g>
<!-- MatCheckboxModule -->
<g id="node26" class="node">
<title>MatCheckboxModule</title>
<polygon fill="#8dd3c7" stroke="#000000" points="2338.3655,-122 2335.3655,-126 2314.3655,-126 2311.3655,-122 2199.6345,-122 2199.6345,-86 2338.3655,-86 2338.3655,-122"/>
<text text-anchor="middle" x="2269" y="-99.8" font-family="Times,serif" font-size="14.00" fill="#000000">MatCheckboxModule</text>
</g>
<!-- MatCheckboxModule&#45;&gt;GadgetModule -->
<g id="edge26" class="edge">
<title>MatCheckboxModule&#45;&gt;GadgetModule</title>
<path fill="none" stroke="#000000" d="M2269,-122.2819C2269,-137.9478 2269,-158 2269,-158 2269,-158 2920.9335,-158 2920.9335,-158"/>
<polygon fill="#000000" stroke="#000000" points="2920.9336,-161.5001 2930.9335,-158 2920.9335,-154.5001 2920.9336,-161.5001"/>
</g>
<!-- MatInputModule -->
<g id="node27" class="node">
<title>MatInputModule</title>
<polygon fill="#8dd3c7" stroke="#000000" points="2181.6513,-122 2178.6513,-126 2157.6513,-126 2154.6513,-122 2070.3487,-122 2070.3487,-86 2181.6513,-86 2181.6513,-122"/>
<text text-anchor="middle" x="2126" y="-99.8" font-family="Times,serif" font-size="14.00" fill="#000000">MatInputModule</text>
</g>
<!-- MatInputModule&#45;&gt;GadgetModule -->
<g id="edge27" class="edge">
<title>MatInputModule&#45;&gt;GadgetModule</title>
<path fill="none" stroke="#000000" d="M2141.0631,-122.0091C2141.0631,-138.0494 2141.0631,-159 2141.0631,-159 2141.0631,-159 2920.9735,-159 2920.9735,-159"/>
<polygon fill="#000000" stroke="#000000" points="2920.9735,-162.5001 2930.9735,-159 2920.9735,-155.5001 2920.9735,-162.5001"/>
</g>
<!-- MatProgressBarModule -->
<g id="node28" class="node">
<title>MatProgressBarModule</title>
<polygon fill="#8dd3c7" stroke="#000000" points="2052.0198,-122 2049.0198,-126 2028.0198,-126 2025.0198,-122 1901.9802,-122 1901.9802,-86 2052.0198,-86 2052.0198,-122"/>
<text text-anchor="middle" x="1977" y="-99.8" font-family="Times,serif" font-size="14.00" fill="#000000">MatProgressBarModule</text>
</g>
<!-- MatProgressBarModule&#45;&gt;GadgetModule -->
<g id="edge28" class="edge">
<title>MatProgressBarModule&#45;&gt;GadgetModule</title>
<path fill="none" stroke="#000000" d="M2019.8761,-122.027C2019.8761,-138.3976 2019.8761,-160 2019.8761,-160 2019.8761,-160 2921.0149,-160 2921.0149,-160"/>
<polygon fill="#000000" stroke="#000000" points="2921.0149,-163.5001 2931.0149,-160 2921.0148,-156.5001 2921.0149,-163.5001"/>
</g>
<!-- MatExpansionModule -->
<g id="node29" class="node">
<title>MatExpansionModule</title>
<polygon fill="#8dd3c7" stroke="#000000" points="1883.7021,-122 1880.7021,-126 1859.7021,-126 1856.7021,-122 1742.2979,-122 1742.2979,-86 1883.7021,-86 1883.7021,-122"/>
<text text-anchor="middle" x="1813" y="-99.8" font-family="Times,serif" font-size="14.00" fill="#000000">MatExpansionModule</text>
</g>
<!-- MatExpansionModule&#45;&gt;GadgetModule -->
<g id="edge29" class="edge">
<title>MatExpansionModule&#45;&gt;GadgetModule</title>
<path fill="none" stroke="#000000" d="M1822.185,-122.0336C1822.185,-139.0597 1822.185,-162 1822.185,-162 1822.185,-162 2920.8352,-162 2920.8352,-162"/>
<polygon fill="#000000" stroke="#000000" points="2920.8353,-165.5001 2930.8352,-162 2920.8352,-158.5001 2920.8353,-165.5001"/>
</g>
<!-- FormsModule -->
<g id="node30" class="node">
<title>FormsModule</title>
<polygon fill="#8dd3c7" stroke="#000000" points="1724.8288,-122 1721.8288,-126 1700.8288,-126 1697.8288,-122 1629.1712,-122 1629.1712,-86 1724.8288,-86 1724.8288,-122"/>
<text text-anchor="middle" x="1677" y="-99.8" font-family="Times,serif" font-size="14.00" fill="#000000">FormsModule</text>
</g>
<!-- FormsModule&#45;&gt;GadgetModule -->
<g id="edge30" class="edge">
<title>FormsModule&#45;&gt;GadgetModule</title>
<path fill="none" stroke="#000000" d="M1677,-122.0225C1677,-139.3734 1677,-163 1677,-163 1677,-163 2920.6807,-163 2920.6807,-163"/>
<polygon fill="#000000" stroke="#000000" points="2920.6807,-166.5001 2930.6807,-163 2920.6806,-159.5001 2920.6807,-166.5001"/>
</g>
<!-- FacetModule -->
<g id="node31" class="node">
<title>FacetModule</title>
<polygon fill="#8dd3c7" stroke="#000000" points="1610.8669,-122 1607.8669,-126 1586.8669,-126 1583.8669,-122 1521.1331,-122 1521.1331,-86 1610.8669,-86 1610.8669,-122"/>
<text text-anchor="middle" x="1566" y="-99.8" font-family="Times,serif" font-size="14.00" fill="#000000">FacetModule</text>
</g>
<!-- FacetModule&#45;&gt;GadgetModule -->
<g id="edge31" class="edge">
<title>FacetModule&#45;&gt;GadgetModule</title>
<path fill="none" stroke="#000000" d="M1583.294,-122.002C1583.294,-139.6754 1583.294,-164 1583.294,-164 1583.294,-164 2920.8428,-164 2920.8428,-164"/>
<polygon fill="#000000" stroke="#000000" points="2920.8428,-167.5001 2930.8428,-164 2920.8428,-160.5001 2920.8428,-167.5001"/>
</g>
<!-- TypeAheadInputModule -->
<g id="node32" class="node">
<title>TypeAheadInputModule</title>
<polygon fill="#8dd3c7" stroke="#000000" points="1503.4045,-122 1500.4045,-126 1479.4045,-126 1476.4045,-122 1348.5955,-122 1348.5955,-86 1503.4045,-86 1503.4045,-122"/>
<text text-anchor="middle" x="1426" y="-99.8" font-family="Times,serif" font-size="14.00" fill="#000000">TypeAheadInputModule</text>
</g>
<!-- TypeAheadInputModule&#45;&gt;GadgetModule -->
<g id="edge32" class="edge">
<title>TypeAheadInputModule&#45;&gt;GadgetModule</title>
<path fill="none" stroke="#000000" d="M1440.537,-122.2667C1440.537,-140.5552 1440.537,-166 1440.537,-166 1440.537,-166 2920.6218,-166 2920.6218,-166"/>
<polygon fill="#000000" stroke="#000000" points="2920.6219,-169.5001 2930.6218,-166 2920.6218,-162.5001 2920.6219,-169.5001"/>
</g>
<!-- DataListModule -->
<g id="node33" class="node">
<title>DataListModule</title>
<polygon fill="#8dd3c7" stroke="#000000" points="1330.7549,-122 1327.7549,-126 1306.7549,-126 1303.7549,-122 1223.2451,-122 1223.2451,-86 1330.7549,-86 1330.7549,-122"/>
<text text-anchor="middle" x="1277" y="-99.8" font-family="Times,serif" font-size="14.00" fill="#000000">DataListModule</text>
</g>
<!-- DataListModule&#45;&gt;GadgetModule -->
<g id="edge33" class="edge">
<title>DataListModule&#45;&gt;GadgetModule</title>
<path fill="none" stroke="#000000" d="M1277,-122.2222C1277,-140.8285 1277,-167 1277,-167 1277,-167 2920.9253,-167 2920.9253,-167"/>
<polygon fill="#000000" stroke="#000000" points="2920.9254,-170.5001 2930.9253,-167 2920.9253,-163.5001 2920.9254,-170.5001"/>
</g>
<!-- TrendService -->
<g id="node49" class="node">
<title>TrendService</title>
<ellipse fill="#fdb462" stroke="#000000" cx="1136" cy="-104" rx="63.0996" ry="18"/>
<text text-anchor="middle" x="1136" y="-99.8" font-family="Times,serif" font-size="14.00" fill="#000000">TrendService</text>
</g>
<!-- TrendService&#45;&gt;GadgetModule -->
<g id="edge50" class="edge">
<title>TrendService&#45;&gt;GadgetModule</title>
<path fill="none" stroke="#000000" d="M1136,-122.1686C1136,-141.0898 1136,-168 1136,-168 1136,-168 2920.6938,-168 2920.6938,-168"/>
<polygon fill="#000000" stroke="#000000" points="2920.6939,-171.5001 2930.6938,-168 2920.6938,-164.5001 2920.6939,-171.5001"/>
</g>
<!-- DiskService -->
<g id="node50" class="node">
<title>DiskService</title>
<ellipse fill="#fdb462" stroke="#000000" cx="997" cy="-104" rx="58.4628" ry="18"/>
<text text-anchor="middle" x="997" y="-99.8" font-family="Times,serif" font-size="14.00" fill="#000000">DiskService</text>
</g>
<!-- DiskService&#45;&gt;GadgetModule -->
<g id="edge51" class="edge">
<title>DiskService&#45;&gt;GadgetModule</title>
<path fill="none" stroke="#000000" d="M997,-122.1061C997,-141.3391 997,-169 997,-169 997,-169 2920.9648,-169 2920.9648,-169"/>
<polygon fill="#000000" stroke="#000000" points="2920.9648,-172.5001 2930.9648,-169 2920.9647,-165.5001 2920.9648,-172.5001"/>
</g>
<!-- StatisticService -->
<g id="node51" class="node">
<title>StatisticService</title>
<ellipse fill="#fdb462" stroke="#000000" cx="850" cy="-104" rx="71.2152" ry="18"/>
<text text-anchor="middle" x="850" y="-99.8" font-family="Times,serif" font-size="14.00" fill="#000000">StatisticService</text>
</g>
<!-- StatisticService&#45;&gt;GadgetModule -->
<g id="edge52" class="edge">
<title>StatisticService&#45;&gt;GadgetModule</title>
<path fill="none" stroke="#000000" d="M850,-122.308C850,-142.1455 850,-171 850,-171 850,-171 2920.9444,-171 2920.9444,-171"/>
<polygon fill="#000000" stroke="#000000" points="2920.9444,-174.5001 2930.9444,-171 2920.9444,-167.5001 2920.9444,-174.5001"/>
</g>
<!-- EdgeService -->
<g id="node52" class="node">
<title>EdgeService</title>
<ellipse fill="#fdb462" stroke="#000000" cx="701" cy="-104" rx="59.6704" ry="18"/>
<text text-anchor="middle" x="701" y="-99.8" font-family="Times,serif" font-size="14.00" fill="#000000">EdgeService</text>
</g>
<!-- EdgeService&#45;&gt;GadgetModule -->
<g id="edge53" class="edge">
<title>EdgeService&#45;&gt;GadgetModule</title>
<path fill="none" stroke="#000000" d="M701,-122.2228C701,-142.3652 701,-172 701,-172 701,-172 2920.9905,-172 2920.9905,-172"/>
<polygon fill="#000000" stroke="#000000" points="2920.9905,-175.5001 2930.9905,-172 2920.9905,-168.5001 2920.9905,-175.5001"/>
</g>
<!-- CPUService -->
<g id="node53" class="node">
<title>CPUService</title>
<ellipse fill="#fdb462" stroke="#000000" cx="564" cy="-104" rx="58.5444" ry="18"/>
<text text-anchor="middle" x="564" y="-99.8" font-family="Times,serif" font-size="14.00" fill="#000000">CPUService</text>
</g>
<!-- CPUService&#45;&gt;GadgetModule -->
<g id="edge54" class="edge">
<title>CPUService&#45;&gt;GadgetModule</title>
<path fill="none" stroke="#000000" d="M564,-122.1289C564,-142.5724 564,-173 564,-173 564,-173 2920.7953,-173 2920.7953,-173"/>
<polygon fill="#000000" stroke="#000000" points="2920.7953,-176.5001 2930.7953,-173 2920.7952,-169.5001 2920.7953,-176.5001"/>
</g>
<!-- StorageService -->
<g id="node54" class="node">
<title>StorageService</title>
<ellipse fill="#fdb462" stroke="#000000" cx="418" cy="-104" rx="69.4781" ry="18"/>
<text text-anchor="middle" x="418" y="-99.8" font-family="Times,serif" font-size="14.00" fill="#000000">StorageService</text>
</g>
<!-- StorageService&#45;&gt;GadgetModule -->
<g id="edge55" class="edge">
<title>StorageService&#45;&gt;GadgetModule</title>
<path fill="none" stroke="#000000" d="M418,-122.2843C418,-143.3211 418,-175 418,-175 418,-175 2920.9523,-175 2920.9523,-175"/>
<polygon fill="#000000" stroke="#000000" points="2920.9523,-178.5001 2930.9523,-175 2920.9523,-171.5001 2920.9523,-178.5001"/>
</g>
<!-- DonutService -->
<g id="node55" class="node">
<title>DonutService</title>
<ellipse fill="#fdb462" stroke="#000000" cx="266" cy="-104" rx="64.2649" ry="18"/>
<text text-anchor="middle" x="266" y="-99.8" font-family="Times,serif" font-size="14.00" fill="#000000">DonutService</text>
</g>
<!-- DonutService&#45;&gt;GadgetModule -->
<g id="edge56" class="edge">
<title>DonutService&#45;&gt;GadgetModule</title>
<path fill="none" stroke="#000000" d="M266,-122.1686C266,-143.498 266,-176 266,-176 266,-176 2920.9709,-176 2920.9709,-176"/>
<polygon fill="#000000" stroke="#000000" points="2920.9709,-179.5001 2930.9709,-176 2920.9708,-172.5001 2920.9709,-179.5001"/>
</g>
<!-- APITokenService -->
<g id="node56" class="node">
<title>APITokenService</title>
<ellipse fill="#fdb462" stroke="#000000" cx="104" cy="-104" rx="80.4364" ry="18"/>
<text text-anchor="middle" x="104" y="-99.8" font-family="Times,serif" font-size="14.00" fill="#000000">APITokenService</text>
</g>
<!-- APITokenService&#45;&gt;GadgetModule -->
<g id="edge57" class="edge">
<title>APITokenService&#45;&gt;GadgetModule</title>
<path fill="none" stroke="#000000" d="M104,-122.0449C104,-143.6623 104,-177 104,-177 104,-177 2920.7603,-177 2920.7603,-177"/>
<polygon fill="#000000" stroke="#000000" points="2920.7604,-180.5001 2930.7603,-177 2920.7603,-173.5001 2920.7604,-180.5001"/>
</g>
</g>
</svg>
