<?xml version="1.0" encoding="UTF-8" standalone="no"?>
<!DOCTYPE svg PUBLIC "-//W3C//DTD SVG 1.1//EN"
 "http://www.w3.org/Graphics/SVG/1.1/DTD/svg11.dtd">
<!-- Generated by graphviz version 2.40.1 (20161225.0304)
 -->
<!-- Title: dependencies Pages: 1 -->
<svg width="3939pt" height="284pt"
 viewBox="0.00 0.00 3939.00 284.00" xmlns="http://www.w3.org/2000/svg" xmlns:xlink="http://www.w3.org/1999/xlink">
<g id="graph0" class="graph" transform="scale(1 1) rotate(0) translate(4 280)">
<title>dependencies</title>
<polygon fill="#ffffff" stroke="transparent" points="-4,4 -4,-280 3935,-280 3935,4 -4,4"/>
<text text-anchor="start" x="1944.5091" y="-42.4" font-family="sans-serif" font-weight="bold" font-size="14.00" fill="#000000">Legend</text>
<polygon fill="#ffffb3" stroke="transparent" points="1731.5,-10 1731.5,-30 1751.5,-30 1751.5,-10 1731.5,-10"/>
<text text-anchor="start" x="1755.129" y="-15.4" font-family="sans-serif" font-size="14.00" fill="#000000"> &#160;Declarations</text>
<polygon fill="#8dd3c7" stroke="transparent" points="1844.5,-10 1844.5,-30 1864.5,-30 1864.5,-10 1844.5,-10"/>
<text text-anchor="start" x="1868.2251" y="-15.4" font-family="sans-serif" font-size="14.00" fill="#000000"> &#160;Module</text>
<polygon fill="#80b1d3" stroke="transparent" points="1930.5,-10 1930.5,-30 1950.5,-30 1950.5,-10 1930.5,-10"/>
<text text-anchor="start" x="1954.2812" y="-15.4" font-family="sans-serif" font-size="14.00" fill="#000000"> &#160;Bootstrap</text>
<polygon fill="#fdb462" stroke="transparent" points="2027.5,-10 2027.5,-30 2047.5,-30 2047.5,-10 2027.5,-10"/>
<text text-anchor="start" x="2051.1732" y="-15.4" font-family="sans-serif" font-size="14.00" fill="#000000"> &#160;Providers</text>
<polygon fill="#fb8072" stroke="transparent" points="2123.5,-10 2123.5,-30 2143.5,-30 2143.5,-10 2123.5,-10"/>
<text text-anchor="start" x="2147.2258" y="-15.4" font-family="sans-serif" font-size="14.00" fill="#000000"> &#160;Exports</text>
<g id="clust1" class="cluster">
<title>cluster_GadgetModule</title>
<polygon fill="none" stroke="#000000" stroke-dasharray="1,5" points="8,-70 8,-268 3923,-268 3923,-70 8,-70"/>
</g>
<g id="clust2" class="cluster">
<title>cluster_GadgetModule_declarations</title>
<polygon fill="none" stroke="#000000" points="1634,-78 1634,-130 3915,-130 3915,-78 1634,-78"/>
</g>
<g id="clust15" class="cluster">
<title>cluster_GadgetModule_imports</title>
<polygon fill="none" stroke="#000000" points="734,-78 734,-130 1626,-130 1626,-78 734,-78"/>
</g>
<g id="clust16" class="cluster">
<title>cluster_GadgetModule_exports</title>
<polygon fill="none" stroke="#000000" points="558,-208 558,-260 2882,-260 2882,-208 558,-208"/>
</g>
<g id="clust18" class="cluster">
<title>cluster_GadgetModule_providers</title>
<polygon fill="none" stroke="#000000" points="16,-78 16,-130 726,-130 726,-78 16,-78"/>
</g>
<!-- CPUGadgetComponent -->
<g id="node1" class="node">
<title>CPUGadgetComponent</title>
<polygon fill="#ffffb3" stroke="#000000" points="3907.4846,-122 3758.5154,-122 3758.5154,-86 3907.4846,-86 3907.4846,-122"/>
<text text-anchor="middle" x="3833" y="-99.8" font-family="Times,serif" font-size="14.00" fill="#000000">CPUGadgetComponent</text>
</g>
<!-- GadgetModule -->
<g id="node13" class="node">
<title>GadgetModule</title>
<polygon fill="#8dd3c7" stroke="#000000" points="1887.9762,-187 1884.9762,-191 1863.9762,-191 1860.9762,-187 1788.0238,-187 1788.0238,-151 1887.9762,-151 1887.9762,-187"/>
<text text-anchor="middle" x="1838" y="-164.8" font-family="Times,serif" font-size="14.00" fill="#000000">GadgetModule</text>
</g>
<!-- CPUGadgetComponent&#45;&gt;GadgetModule -->
<g id="edge1" class="edge">
<title>CPUGadgetComponent&#45;&gt;GadgetModule</title>
<path fill="none" stroke="#000000" d="M3833,-122.2843C3833,-143.3211 3833,-175 3833,-175 3833,-175 1898.0623,-175 1898.0623,-175"/>
<polygon fill="#000000" stroke="#000000" points="1898.0624,-171.5001 1888.0623,-175 1898.0623,-178.5001 1898.0624,-171.5001"/>
</g>
<!-- CPUMGadgetComponent -->
<g id="node2" class="node">
<title>CPUMGadgetComponent</title>
<polygon fill="#ffffb3" stroke="#000000" points="3740.9298,-122 3579.0702,-122 3579.0702,-86 3740.9298,-86 3740.9298,-122"/>
<text text-anchor="middle" x="3660" y="-99.8" font-family="Times,serif" font-size="14.00" fill="#000000">CPUMGadgetComponent</text>
</g>
<!-- CPUMGadgetComponent&#45;&gt;GadgetModule -->
<g id="edge2" class="edge">
<title>CPUMGadgetComponent&#45;&gt;GadgetModule</title>
<path fill="none" stroke="#000000" d="M3660,-122.1289C3660,-142.5724 3660,-173 3660,-173 3660,-173 1898.1546,-173 1898.1546,-173"/>
<polygon fill="#000000" stroke="#000000" points="1898.1547,-169.5001 1888.1546,-173 1898.1546,-176.5001 1898.1547,-169.5001"/>
</g>
<!-- DiskGadgetComponent -->
<g id="node3" class="node">
<title>DiskGadgetComponent</title>
<polygon fill="#ffffb3" stroke="#000000" points="3561.2007,-122 3412.7993,-122 3412.7993,-86 3561.2007,-86 3561.2007,-122"/>
<text text-anchor="middle" x="3487" y="-99.8" font-family="Times,serif" font-size="14.00" fill="#000000">DiskGadgetComponent</text>
</g>
<!-- DiskGadgetComponent&#45;&gt;GadgetModule -->
<g id="edge3" class="edge">
<title>DiskGadgetComponent&#45;&gt;GadgetModule</title>
<path fill="none" stroke="#000000" d="M3487,-122.308C3487,-142.1455 3487,-171 3487,-171 3487,-171 1898.2517,-171 1898.2517,-171"/>
<polygon fill="#000000" stroke="#000000" points="1898.2517,-167.5001 1888.2517,-171 1898.2516,-174.5001 1898.2517,-167.5001"/>
</g>
<!-- MemoryGadgetComponent -->
<g id="node4" class="node">
<title>MemoryGadgetComponent</title>
<polygon fill="#ffffb3" stroke="#000000" points="3394.9692,-122 3225.0308,-122 3225.0308,-86 3394.9692,-86 3394.9692,-122"/>
<text text-anchor="middle" x="3310" y="-99.8" font-family="Times,serif" font-size="14.00" fill="#000000">MemoryGadgetComponent</text>
</g>
<!-- MemoryGadgetComponent&#45;&gt;GadgetModule -->
<g id="edge4" class="edge">
<title>MemoryGadgetComponent&#45;&gt;GadgetModule</title>
<path fill="none" stroke="#000000" d="M3310,-122.1686C3310,-141.0898 3310,-168 3310,-168 3310,-168 1898.2437,-168 1898.2437,-168"/>
<polygon fill="#000000" stroke="#000000" points="1898.2438,-164.5001 1888.2437,-168 1898.2437,-171.5001 1898.2438,-164.5001"/>
</g>
<!-- EdgeServiceListGadgetComponent -->
<g id="node5" class="node">
<title>EdgeServiceListGadgetComponent</title>
<polygon fill="#ffffb3" stroke="#000000" points="3207.2822,-122 2992.7178,-122 2992.7178,-86 3207.2822,-86 3207.2822,-122"/>
<text text-anchor="middle" x="3100" y="-99.8" font-family="Times,serif" font-size="14.00" fill="#000000">EdgeServiceListGadgetComponent</text>
</g>
<!-- EdgeServiceListGadgetComponent&#45;&gt;GadgetModule -->
<g id="edge5" class="edge">
<title>EdgeServiceListGadgetComponent&#45;&gt;GadgetModule</title>
<path fill="none" stroke="#000000" d="M3100,-122.2667C3100,-140.5552 3100,-166 3100,-166 3100,-166 1898.2507,-166 1898.2507,-166"/>
<polygon fill="#000000" stroke="#000000" points="1898.2507,-162.5001 1888.2507,-166 1898.2506,-169.5001 1898.2507,-162.5001"/>
</g>
<!-- StatisticGadgetComponent -->
<g id="node6" class="node">
<title>StatisticGadgetComponent</title>
<polygon fill="#ffffb3" stroke="#000000" points="2974.3683,-122 2807.6317,-122 2807.6317,-86 2974.3683,-86 2974.3683,-122"/>
<text text-anchor="middle" x="2891" y="-99.8" font-family="Times,serif" font-size="14.00" fill="#000000">StatisticGadgetComponent</text>
</g>
<!-- StatisticGadgetComponent&#45;&gt;GadgetModule -->
<g id="edge6" class="edge">
<title>StatisticGadgetComponent&#45;&gt;GadgetModule</title>
<path fill="none" stroke="#000000" d="M2852.0168,-122.002C2852.0168,-139.6754 2852.0168,-164 2852.0168,-164 2852.0168,-164 1898.2853,-164 1898.2853,-164"/>
<polygon fill="#000000" stroke="#000000" points="1898.2853,-160.5001 1888.2853,-164 1898.2852,-167.5001 1898.2853,-160.5001"/>
</g>
<!-- StatisticGadgetComponent&#45;&gt;GadgetModule -->
<g id="edge11" class="edge">
<title>StatisticGadgetComponent&#45;&gt;GadgetModule</title>
<path fill="none" stroke="#000000" d="M2829.7914,-122.0336C2829.7914,-139.0597 2829.7914,-162 2829.7914,-162 2829.7914,-162 1898.2042,-162 1898.2042,-162"/>
<polygon fill="#000000" stroke="#000000" points="1898.2042,-158.5001 1888.2042,-162 1898.2041,-165.5001 1898.2042,-158.5001"/>
</g>
<!-- TrendGadgetComponent -->
<g id="node7" class="node">
<title>TrendGadgetComponent</title>
<polygon fill="#ffffb3" stroke="#000000" points="2789.6867,-122 2634.3133,-122 2634.3133,-86 2789.6867,-86 2789.6867,-122"/>
<text text-anchor="middle" x="2712" y="-99.8" font-family="Times,serif" font-size="14.00" fill="#000000">TrendGadgetComponent</text>
</g>
<!-- TrendGadgetComponent&#45;&gt;GadgetModule -->
<g id="edge7" class="edge">
<title>TrendGadgetComponent&#45;&gt;GadgetModule</title>
<path fill="none" stroke="#000000" d="M2668.9357,-122.027C2668.9357,-138.3976 2668.9357,-160 2668.9357,-160 2668.9357,-160 1898.1075,-160 1898.1075,-160"/>
<polygon fill="#000000" stroke="#000000" points="1898.1075,-156.5001 1888.1075,-160 1898.1074,-163.5001 1898.1075,-156.5001"/>
</g>
<!-- TrendLineGadgetComponent -->
<g id="node8" class="node">
<title>TrendLineGadgetComponent</title>
<polygon fill="#ffffb3" stroke="#000000" points="2616.3445,-122 2435.6555,-122 2435.6555,-86 2616.3445,-86 2616.3445,-122"/>
<text text-anchor="middle" x="2526" y="-99.8" font-family="Times,serif" font-size="14.00" fill="#000000">TrendLineGadgetComponent</text>
</g>
<!-- TrendLineGadgetComponent&#45;&gt;GadgetModule -->
<g id="edge8" class="edge">
<title>TrendLineGadgetComponent&#45;&gt;GadgetModule</title>
<path fill="none" stroke="#000000" d="M2478.2141,-122.2819C2478.2141,-137.9478 2478.2141,-158 2478.2141,-158 2478.2141,-158 1898.2365,-158 1898.2365,-158"/>
<polygon fill="#000000" stroke="#000000" points="1898.2366,-154.5001 1888.2365,-158 1898.2365,-161.5001 1898.2366,-154.5001"/>
</g>
<!-- NewsGadgetComponent -->
<g id="node9" class="node">
<title>NewsGadgetComponent</title>
<polygon fill="#ffffb3" stroke="#000000" points="2417.6316,-122 2264.3684,-122 2264.3684,-86 2417.6316,-86 2417.6316,-122"/>
<text text-anchor="middle" x="2341" y="-99.8" font-family="Times,serif" font-size="14.00" fill="#000000">NewsGadgetComponent</text>
</g>
<!-- NewsGadgetComponent&#45;&gt;GadgetModule -->
<g id="edge9" class="edge">
<title>NewsGadgetComponent&#45;&gt;GadgetModule</title>
<path fill="none" stroke="#000000" d="M2307.4595,-122.1871C2307.4595,-137.1824 2307.4595,-156 2307.4595,-156 2307.4595,-156 1898.2404,-156 1898.2404,-156"/>
<polygon fill="#000000" stroke="#000000" points="1898.2404,-152.5001 1888.2404,-156 1898.2404,-159.5001 1898.2404,-152.5001"/>
</g>
<!-- JobAnalysisGadgetComponent -->
<g id="node10" class="node">
<title>JobAnalysisGadgetComponent</title>
<polygon fill="#ffffb3" stroke="#000000" points="2246.1951,-122 2055.8049,-122 2055.8049,-86 2246.1951,-86 2246.1951,-122"/>
<text text-anchor="middle" x="2151" y="-99.8" font-family="Times,serif" font-size="14.00" fill="#000000">JobAnalysisGadgetComponent</text>
</g>
<!-- JobAnalysisGadgetComponent&#45;&gt;GadgetModule -->
<g id="edge10" class="edge">
<title>JobAnalysisGadgetComponent&#45;&gt;GadgetModule</title>
<path fill="none" stroke="#000000" d="M2107.3968,-122.0511C2107.3968,-136.373 2107.3968,-154 2107.3968,-154 2107.3968,-154 1898.0401,-154 1898.0401,-154"/>
<polygon fill="#000000" stroke="#000000" points="1898.0401,-150.5001 1888.0401,-154 1898.0401,-157.5001 1898.0401,-150.5001"/>
</g>
<!-- PropertyListGadgetComponent -->
<g id="node11" class="node">
<title>PropertyListGadgetComponent</title>
<polygon fill="#ffffb3" stroke="#000000" points="2037.7464,-122 1846.2536,-122 1846.2536,-86 2037.7464,-86 2037.7464,-122"/>
<text text-anchor="middle" x="1942" y="-99.8" font-family="Times,serif" font-size="14.00" fill="#000000">PropertyListGadgetComponent</text>
</g>
<!-- PropertyListGadgetComponent&#45;&gt;GadgetModule -->
<g id="edge12" class="edge">
<title>PropertyListGadgetComponent&#45;&gt;GadgetModule</title>
<path fill="none" stroke="#000000" d="M1867.0575,-122.1061C1867.0575,-122.1061 1867.0575,-140.991 1867.0575,-140.991"/>
<polygon fill="#000000" stroke="#000000" points="1863.5576,-140.9909 1867.0575,-150.991 1870.5576,-140.991 1863.5576,-140.9909"/>
</g>
<!-- ServiceListGadgetComponent -->
<g id="node12" class="node">
<title>ServiceListGadgetComponent</title>
<polygon fill="#ffffb3" stroke="#000000" points="1827.5154,-122 1642.4846,-122 1642.4846,-86 1827.5154,-86 1827.5154,-122"/>
<text text-anchor="middle" x="1735" y="-99.8" font-family="Times,serif" font-size="14.00" fill="#000000">ServiceListGadgetComponent</text>
</g>
<!-- ServiceListGadgetComponent&#45;&gt;GadgetModule -->
<g id="edge13" class="edge">
<title>ServiceListGadgetComponent&#45;&gt;GadgetModule</title>
<path fill="none" stroke="#000000" d="M1807.8847,-122.1061C1807.8847,-122.1061 1807.8847,-140.991 1807.8847,-140.991"/>
<polygon fill="#000000" stroke="#000000" points="1804.3847,-140.9909 1807.8847,-150.991 1811.3847,-140.991 1804.3847,-140.9909"/>
</g>
<!-- CPUGadgetComponent  -->
<g id="node20" class="node">
<title>CPUGadgetComponent </title>
<polygon fill="#fb8072" stroke="#000000" points="2874.4854,-252 2721.5146,-252 2721.5146,-216 2874.4854,-216 2874.4854,-252"/>
<text text-anchor="middle" x="2798" y="-229.8" font-family="Times,serif" font-size="14.00" fill="#000000">CPUGadgetComponent </text>
</g>
<!-- GadgetModule&#45;&gt;CPUGadgetComponent  -->
<g id="edge20" class="edge">
<title>GadgetModule&#45;&gt;CPUGadgetComponent </title>
<path fill="none" stroke="#000000" stroke-dasharray="5,2" d="M1887.9899,-177C2079.4883,-177 2755.6755,-177 2755.6755,-177 2755.6755,-177 2755.6755,-205.9648 2755.6755,-205.9648"/>
<polygon fill="#000000" stroke="#000000" points="2752.1756,-205.9648 2755.6755,-215.9648 2759.1756,-205.9649 2752.1756,-205.9648"/>
</g>
<!-- CPUMGadgetComponent  -->
<g id="node21" class="node">
<title>CPUMGadgetComponent </title>
<polygon fill="#fb8072" stroke="#000000" points="2703.4292,-252 2538.5708,-252 2538.5708,-216 2703.4292,-216 2703.4292,-252"/>
<text text-anchor="middle" x="2621" y="-229.8" font-family="Times,serif" font-size="14.00" fill="#000000">CPUMGadgetComponent </text>
</g>
<!-- GadgetModule&#45;&gt;CPUMGadgetComponent  -->
<g id="edge21" class="edge">
<title>GadgetModule&#45;&gt;CPUMGadgetComponent </title>
<path fill="none" stroke="#000000" stroke-dasharray="5,2" d="M1888.246,-179C2054.683,-179 2577.4788,-179 2577.4788,-179 2577.4788,-179 2577.4788,-205.9909 2577.4788,-205.9909"/>
<polygon fill="#000000" stroke="#000000" points="2573.9789,-205.9909 2577.4788,-215.9909 2580.9789,-205.991 2573.9789,-205.9909"/>
</g>
<!-- DiskGadgetComponent  -->
<g id="node22" class="node">
<title>DiskGadgetComponent </title>
<polygon fill="#fb8072" stroke="#000000" points="2520.7009,-252 2369.2991,-252 2369.2991,-216 2520.7009,-216 2520.7009,-252"/>
<text text-anchor="middle" x="2445" y="-229.8" font-family="Times,serif" font-size="14.00" fill="#000000">DiskGadgetComponent </text>
</g>
<!-- GadgetModule&#45;&gt;DiskGadgetComponent  -->
<g id="edge22" class="edge">
<title>GadgetModule&#45;&gt;DiskGadgetComponent </title>
<path fill="none" stroke="#000000" stroke-dasharray="5,2" d="M1888.2751,-181C2025.0122,-181 2393.4827,-181 2393.4827,-181 2393.4827,-181 2393.4827,-205.7604 2393.4827,-205.7604"/>
<polygon fill="#000000" stroke="#000000" points="2389.9827,-205.7604 2393.4827,-215.7604 2396.9827,-205.7604 2389.9827,-205.7604"/>
</g>
<!-- MemoryGadgetComponent  -->
<g id="node23" class="node">
<title>MemoryGadgetComponent </title>
<polygon fill="#fb8072" stroke="#000000" points="2350.9698,-252 2177.0302,-252 2177.0302,-216 2350.9698,-216 2350.9698,-252"/>
<text text-anchor="middle" x="2264" y="-229.8" font-family="Times,serif" font-size="14.00" fill="#000000">MemoryGadgetComponent </text>
</g>
<!-- GadgetModule&#45;&gt;MemoryGadgetComponent  -->
<g id="edge23" class="edge">
<title>GadgetModule&#45;&gt;MemoryGadgetComponent </title>
<path fill="none" stroke="#000000" stroke-dasharray="5,2" d="M1888.0086,-183C1989.8334,-183 2211.6815,-183 2211.6815,-183 2211.6815,-183 2211.6815,-205.8757 2211.6815,-205.8757"/>
<polygon fill="#000000" stroke="#000000" points="2208.1815,-205.8757 2211.6815,-215.8757 2215.1815,-205.8757 2208.1815,-205.8757"/>
</g>
<!-- EdgeServiceListGadgetComponent  -->
<g id="node24" class="node">
<title>EdgeServiceListGadgetComponent </title>
<polygon fill="#fb8072" stroke="#000000" points="2158.7821,-252 1941.2179,-252 1941.2179,-216 2158.7821,-216 2158.7821,-252"/>
<text text-anchor="middle" x="2050" y="-229.8" font-family="Times,serif" font-size="14.00" fill="#000000">EdgeServiceListGadgetComponent </text>
</g>
<!-- GadgetModule&#45;&gt;EdgeServiceListGadgetComponent  -->
<g id="edge24" class="edge">
<title>GadgetModule&#45;&gt;EdgeServiceListGadgetComponent </title>
<path fill="none" stroke="#000000" stroke-dasharray="5,2" d="M1888.0237,-185C1932.1497,-185 1989.4911,-185 1989.4911,-185 1989.4911,-185 1989.4911,-205.7542 1989.4911,-205.7542"/>
<polygon fill="#000000" stroke="#000000" points="1985.9911,-205.7542 1989.4911,-215.7542 1992.9911,-205.7542 1985.9911,-205.7542"/>
</g>
<!-- StatisticGadgetComponent  -->
<g id="node25" class="node">
<title>StatisticGadgetComponent </title>
<polygon fill="#fb8072" stroke="#000000" points="1923.3686,-252 1752.6314,-252 1752.6314,-216 1923.3686,-216 1923.3686,-252"/>
<text text-anchor="middle" x="1838" y="-229.8" font-family="Times,serif" font-size="14.00" fill="#000000">StatisticGadgetComponent </text>
</g>
<!-- GadgetModule&#45;&gt;StatisticGadgetComponent  -->
<g id="edge25" class="edge">
<title>GadgetModule&#45;&gt;StatisticGadgetComponent </title>
<path fill="none" stroke="#000000" stroke-dasharray="5,2" d="M1854.6627,-187.1061C1854.6627,-187.1061 1854.6627,-205.991 1854.6627,-205.991"/>
<polygon fill="#000000" stroke="#000000" points="1851.1628,-205.9909 1854.6627,-215.991 1858.1628,-205.991 1851.1628,-205.9909"/>
</g>
<!-- GadgetModule&#45;&gt;StatisticGadgetComponent  -->
<g id="edge30" class="edge">
<title>GadgetModule&#45;&gt;StatisticGadgetComponent </title>
<path fill="none" stroke="#000000" stroke-dasharray="5,2" d="M1821.3373,-187.1061C1821.3373,-187.1061 1821.3373,-205.991 1821.3373,-205.991"/>
<polygon fill="#000000" stroke="#000000" points="1817.8374,-205.9909 1821.3373,-215.991 1824.8374,-205.991 1817.8374,-205.9909"/>
</g>
<!-- TrendGadgetComponent  -->
<g id="node26" class="node">
<title>TrendGadgetComponent </title>
<polygon fill="#fb8072" stroke="#000000" points="1734.1869,-252 1575.8131,-252 1575.8131,-216 1734.1869,-216 1734.1869,-252"/>
<text text-anchor="middle" x="1655" y="-229.8" font-family="Times,serif" font-size="14.00" fill="#000000">TrendGadgetComponent </text>
</g>
<!-- GadgetModule&#45;&gt;TrendGadgetComponent  -->
<g id="edge26" class="edge">
<title>GadgetModule&#45;&gt;TrendGadgetComponent </title>
<path fill="none" stroke="#000000" stroke-dasharray="5,2" d="M1787.7333,-185C1744.2418,-185 1688.293,-185 1688.293,-185 1688.293,-185 1688.293,-205.7542 1688.293,-205.7542"/>
<polygon fill="#000000" stroke="#000000" points="1684.793,-205.7542 1688.293,-215.7542 1691.793,-205.7542 1684.793,-205.7542"/>
</g>
<!-- TrendLineGadgetComponent  -->
<g id="node27" class="node">
<title>TrendLineGadgetComponent </title>
<polygon fill="#fb8072" stroke="#000000" points="1557.3447,-252 1372.6553,-252 1372.6553,-216 1557.3447,-216 1557.3447,-252"/>
<text text-anchor="middle" x="1465" y="-229.8" font-family="Times,serif" font-size="14.00" fill="#000000">TrendLineGadgetComponent </text>
</g>
<!-- GadgetModule&#45;&gt;TrendLineGadgetComponent  -->
<g id="edge27" class="edge">
<title>GadgetModule&#45;&gt;TrendLineGadgetComponent </title>
<path fill="none" stroke="#000000" stroke-dasharray="5,2" d="M1787.7587,-183C1700.8535,-183 1531.6692,-183 1531.6692,-183 1531.6692,-183 1531.6692,-205.8757 1531.6692,-205.8757"/>
<polygon fill="#000000" stroke="#000000" points="1528.1693,-205.8757 1531.6692,-215.8757 1535.1693,-205.8757 1528.1693,-205.8757"/>
</g>
<!-- NewsGadgetComponent  -->
<g id="node28" class="node">
<title>NewsGadgetComponent </title>
<polygon fill="#fb8072" stroke="#000000" points="1354.6313,-252 1197.3687,-252 1197.3687,-216 1354.6313,-216 1354.6313,-252"/>
<text text-anchor="middle" x="1276" y="-229.8" font-family="Times,serif" font-size="14.00" fill="#000000">NewsGadgetComponent </text>
</g>
<!-- GadgetModule&#45;&gt;NewsGadgetComponent  -->
<g id="edge28" class="edge">
<title>GadgetModule&#45;&gt;NewsGadgetComponent </title>
<path fill="none" stroke="#000000" stroke-dasharray="5,2" d="M1787.5891,-181C1661.185,-181 1340.7944,-181 1340.7944,-181 1340.7944,-181 1340.7944,-205.7604 1340.7944,-205.7604"/>
<polygon fill="#000000" stroke="#000000" points="1337.2944,-205.7604 1340.7944,-215.7604 1344.2944,-205.7604 1337.2944,-205.7604"/>
</g>
<!-- JobAnalysisGadgetComponent  -->
<g id="node29" class="node">
<title>JobAnalysisGadgetComponent </title>
<polygon fill="#fb8072" stroke="#000000" points="1179.6952,-252 986.3048,-252 986.3048,-216 1179.6952,-216 1179.6952,-252"/>
<text text-anchor="middle" x="1083" y="-229.8" font-family="Times,serif" font-size="14.00" fill="#000000">JobAnalysisGadgetComponent </text>
</g>
<!-- GadgetModule&#45;&gt;JobAnalysisGadgetComponent  -->
<g id="edge29" class="edge">
<title>GadgetModule&#45;&gt;JobAnalysisGadgetComponent </title>
<path fill="none" stroke="#000000" stroke-dasharray="5,2" d="M1787.9372,-179C1618.8524,-179 1079.4666,-179 1079.4666,-179 1079.4666,-179 1079.4666,-205.9909 1079.4666,-205.9909"/>
<polygon fill="#000000" stroke="#000000" points="1075.9667,-205.9909 1079.4666,-215.9909 1082.9667,-205.991 1075.9667,-205.9909"/>
</g>
<!-- PropertyListGadgetComponent  -->
<g id="node30" class="node">
<title>PropertyListGadgetComponent </title>
<polygon fill="#fb8072" stroke="#000000" points="968.7464,-252 773.2536,-252 773.2536,-216 968.7464,-216 968.7464,-252"/>
<text text-anchor="middle" x="871" y="-229.8" font-family="Times,serif" font-size="14.00" fill="#000000">PropertyListGadgetComponent </text>
</g>
<!-- GadgetModule&#45;&gt;PropertyListGadgetComponent  -->
<g id="edge31" class="edge">
<title>GadgetModule&#45;&gt;PropertyListGadgetComponent </title>
<path fill="none" stroke="#000000" stroke-dasharray="5,2" d="M1787.8991,-177C1596.7839,-177 924.2688,-177 924.2688,-177 924.2688,-177 924.2688,-205.9648 924.2688,-205.9648"/>
<polygon fill="#000000" stroke="#000000" points="920.7688,-205.9648 924.2688,-215.9648 927.7688,-205.9649 920.7688,-205.9648"/>
</g>
<!-- ServiceListGadgetComponent  -->
<g id="node31" class="node">
<title>ServiceListGadgetComponent </title>
<polygon fill="#fb8072" stroke="#000000" points="755.5148,-252 566.4852,-252 566.4852,-216 755.5148,-216 755.5148,-252"/>
<text text-anchor="middle" x="661" y="-229.8" font-family="Times,serif" font-size="14.00" fill="#000000">ServiceListGadgetComponent </text>
</g>
<!-- GadgetModule&#45;&gt;ServiceListGadgetComponent  -->
<g id="edge32" class="edge">
<title>GadgetModule&#45;&gt;ServiceListGadgetComponent </title>
<path fill="none" stroke="#000000" stroke-dasharray="5,2" d="M1788.0057,-175C1574.3399,-175 748.7029,-175 748.7029,-175 748.7029,-175 748.7029,-205.9775 748.7029,-205.9775"/>
<polygon fill="#000000" stroke="#000000" points="745.2029,-205.9774 748.7029,-215.9775 752.2029,-205.9775 745.2029,-205.9774"/>
</g>
<!-- CommonModule -->
<g id="node14" class="node">
<title>CommonModule</title>
<polygon fill="#8dd3c7" stroke="#000000" points="1617.6681,-122 1614.6681,-126 1593.6681,-126 1590.6681,-122 1506.3319,-122 1506.3319,-86 1617.6681,-86 1617.6681,-122"/>
<text text-anchor="middle" x="1562" y="-99.8" font-family="Times,serif" font-size="14.00" fill="#000000">CommonModule</text>
</g>
<!-- CommonModule&#45;&gt;GadgetModule -->
<g id="edge14" class="edge">
<title>CommonModule&#45;&gt;GadgetModule</title>
<path fill="none" stroke="#000000" d="M1596.7453,-122.2458C1596.7453,-136.1772 1596.7453,-153 1596.7453,-153 1596.7453,-153 1778.0119,-153 1778.0119,-153"/>
<polygon fill="#000000" stroke="#000000" points="1778.0119,-156.5001 1788.0119,-153 1778.0118,-149.5001 1778.0119,-156.5001"/>
</g>
<!-- GadgetSharedModule -->
<g id="node15" class="node">
<title>GadgetSharedModule</title>
<polygon fill="#8dd3c7" stroke="#000000" points="1488.3487,-122 1485.3487,-126 1464.3487,-126 1461.3487,-122 1349.6513,-122 1349.6513,-86 1488.3487,-86 1488.3487,-122"/>
<text text-anchor="middle" x="1419" y="-99.8" font-family="Times,serif" font-size="14.00" fill="#000000">GadgetSharedModule</text>
</g>
<!-- GadgetSharedModule&#45;&gt;GadgetModule -->
<g id="edge15" class="edge">
<title>GadgetSharedModule&#45;&gt;GadgetModule</title>
<path fill="none" stroke="#000000" d="M1430.626,-122.1243C1430.626,-136.7832 1430.626,-155 1430.626,-155 1430.626,-155 1777.6394,-155 1777.6394,-155"/>
<polygon fill="#000000" stroke="#000000" points="1777.6394,-158.5001 1787.6394,-155 1777.6393,-151.5001 1777.6394,-158.5001"/>
</g>
<!-- DndModule.forRoot() -->
<g id="node16" class="node">
<title>DndModule.forRoot()</title>
<polygon fill="#8dd3c7" stroke="#000000" points="1332.026,-122 1329.026,-126 1308.026,-126 1305.026,-122 1191.974,-122 1191.974,-86 1332.026,-86 1332.026,-122"/>
<text text-anchor="middle" x="1262" y="-99.8" font-family="Times,serif" font-size="14.00" fill="#000000">DndModule.forRoot()</text>
</g>
<!-- DndModule.forRoot()&#45;&gt;GadgetModule -->
<g id="edge16" class="edge">
<title>DndModule.forRoot()&#45;&gt;GadgetModule</title>
<path fill="none" stroke="#000000" d="M1264.7237,-122.2396C1264.7237,-137.5706 1264.7237,-157 1264.7237,-157 1264.7237,-157 1777.8784,-157 1777.8784,-157"/>
<polygon fill="#000000" stroke="#000000" points="1777.8785,-160.5001 1787.8784,-157 1777.8784,-153.5001 1777.8785,-160.5001"/>
</g>
<!-- DynamicFormModule -->
<g id="node17" class="node">
<title>DynamicFormModule</title>
<polygon fill="#8dd3c7" stroke="#000000" points="1173.7007,-122 1170.7007,-126 1149.7007,-126 1146.7007,-122 1032.2993,-122 1032.2993,-86 1173.7007,-86 1173.7007,-122"/>
<text text-anchor="middle" x="1103" y="-99.8" font-family="Times,serif" font-size="14.00" fill="#000000">DynamicFormModule</text>
</g>
<!-- DynamicFormModule&#45;&gt;GadgetModule -->
<g id="edge17" class="edge">
<title>DynamicFormModule&#45;&gt;GadgetModule</title>
<path fill="none" stroke="#000000" d="M1126.5334,-122.0091C1126.5334,-138.0494 1126.5334,-159 1126.5334,-159 1126.5334,-159 1777.9711,-159 1777.9711,-159"/>
<polygon fill="#000000" stroke="#000000" points="1777.9711,-162.5001 1787.9711,-159 1777.971,-155.5001 1777.9711,-162.5001"/>
</g>
<!-- ErrorHandlerModule -->
<g id="node18" class="node">
<title>ErrorHandlerModule</title>
<polygon fill="#8dd3c7" stroke="#000000" points="1014.1713,-122 1011.1713,-126 990.1713,-126 987.1713,-122 879.8287,-122 879.8287,-86 1014.1713,-86 1014.1713,-122"/>
<text text-anchor="middle" x="947" y="-99.8" font-family="Times,serif" font-size="14.00" fill="#000000">ErrorHandlerModule</text>
</g>
<!-- ErrorHandlerModule&#45;&gt;GadgetModule -->
<g id="edge18" class="edge">
<title>ErrorHandlerModule&#45;&gt;GadgetModule</title>
<path fill="none" stroke="#000000" d="M1000.1191,-122.0352C1000.1191,-138.7344 1000.1191,-161 1000.1191,-161 1000.1191,-161 1777.7853,-161 1777.7853,-161"/>
<polygon fill="#000000" stroke="#000000" points="1777.7853,-164.5001 1787.7853,-161 1777.7852,-157.5001 1777.7853,-164.5001"/>
</g>
<!-- NgxChartsModule -->
<g id="node19" class="node">
<title>NgxChartsModule</title>
<polygon fill="#8dd3c7" stroke="#000000" points="862.2036,-122 859.2036,-126 838.2036,-126 835.2036,-122 741.7964,-122 741.7964,-86 862.2036,-86 862.2036,-122"/>
<text text-anchor="middle" x="802" y="-99.8" font-family="Times,serif" font-size="14.00" fill="#000000">NgxChartsModule</text>
</g>
<!-- NgxChartsModule&#45;&gt;GadgetModule -->
<g id="edge19" class="edge">
<title>NgxChartsModule&#45;&gt;GadgetModule</title>
<path fill="none" stroke="#000000" d="M817.7393,-122.0225C817.7393,-139.3734 817.7393,-163 817.7393,-163 817.7393,-163 1777.7531,-163 1777.7531,-163"/>
<polygon fill="#000000" stroke="#000000" points="1777.7531,-166.5001 1787.7531,-163 1777.7531,-159.5001 1777.7531,-166.5001"/>
</g>
<!-- TrendService -->
<g id="node32" class="node">
<title>TrendService</title>
<ellipse fill="#fdb462" stroke="#000000" cx="655" cy="-104" rx="63.0996" ry="18"/>
<text text-anchor="middle" x="655" y="-99.8" font-family="Times,serif" font-size="14.00" fill="#000000">TrendService</text>
</g>
<!-- TrendService&#45;&gt;GadgetModule -->
<g id="edge33" class="edge">
<title>TrendService&#45;&gt;GadgetModule</title>
<path fill="none" stroke="#000000" d="M655,-122.302C655,-140.2699 655,-165 655,-165 655,-165 1777.9236,-165 1777.9236,-165"/>
<polygon fill="#000000" stroke="#000000" points="1777.9236,-168.5001 1787.9236,-165 1777.9235,-161.5001 1777.9236,-168.5001"/>
</g>
<!-- DiskService -->
<g id="node33" class="node">
<title>DiskService</title>
<ellipse fill="#fdb462" stroke="#000000" cx="516" cy="-104" rx="58.4628" ry="18"/>
<text text-anchor="middle" x="516" y="-99.8" font-family="Times,serif" font-size="14.00" fill="#000000">DiskService</text>
</g>
<!-- DiskService&#45;&gt;GadgetModule -->
<g id="edge34" class="edge">
<title>DiskService&#45;&gt;GadgetModule</title>
<path fill="none" stroke="#000000" d="M570.3618,-110.7421C570.3618,-126.9944 570.3618,-167 570.3618,-167 570.3618,-167 1777.9166,-167 1777.9166,-167"/>
<polygon fill="#000000" stroke="#000000" points="1777.9167,-170.5001 1787.9166,-167 1777.9166,-163.5001 1777.9167,-170.5001"/>
</g>
<!-- StatisticService -->
<g id="node34" class="node">
<title>StatisticService</title>
<ellipse fill="#fdb462" stroke="#000000" cx="369" cy="-104" rx="71.2152" ry="18"/>
<text text-anchor="middle" x="369" y="-99.8" font-family="Times,serif" font-size="14.00" fill="#000000">StatisticService</text>
</g>
<!-- StatisticService&#45;&gt;GadgetModule -->
<g id="edge35" class="edge">
<title>StatisticService&#45;&gt;GadgetModule</title>
<path fill="none" stroke="#000000" d="M369,-122.1061C369,-141.3391 369,-169 369,-169 369,-169 1777.8587,-169 1777.8587,-169"/>
<polygon fill="#000000" stroke="#000000" points="1777.8587,-172.5001 1787.8587,-169 1777.8586,-165.5001 1777.8587,-172.5001"/>
</g>
<!-- EdgeService -->
<g id="node35" class="node">
<title>EdgeService</title>
<ellipse fill="#fdb462" stroke="#000000" cx="220" cy="-104" rx="59.6704" ry="18"/>
<text text-anchor="middle" x="220" y="-99.8" font-family="Times,serif" font-size="14.00" fill="#000000">EdgeService</text>
</g>
<!-- EdgeService&#45;&gt;GadgetModule -->
<g id="edge36" class="edge">
<title>EdgeService&#45;&gt;GadgetModule</title>
<path fill="none" stroke="#000000" d="M220,-122.308C220,-142.1455 220,-171 220,-171 220,-171 1777.8022,-171 1777.8022,-171"/>
<polygon fill="#000000" stroke="#000000" points="1777.8023,-174.5001 1787.8022,-171 1777.8022,-167.5001 1777.8023,-174.5001"/>
</g>
<!-- CPUService -->
<g id="node36" class="node">
<title>CPUService</title>
<ellipse fill="#fdb462" stroke="#000000" cx="83" cy="-104" rx="58.5444" ry="18"/>
<text text-anchor="middle" x="83" y="-99.8" font-family="Times,serif" font-size="14.00" fill="#000000">CPUService</text>
</g>
<!-- CPUService&#45;&gt;GadgetModule -->
<g id="edge37" class="edge">
<title>CPUService&#45;&gt;GadgetModule</title>
<path fill="none" stroke="#000000" d="M83,-122.1289C83,-142.5724 83,-173 83,-173 83,-173 1777.8371,-173 1777.8371,-173"/>
<polygon fill="#000000" stroke="#000000" points="1777.8371,-176.5001 1787.8371,-173 1777.8371,-169.5001 1777.8371,-176.5001"/>
</g>
</g>
</svg>
