<?xml version="1.0" encoding="UTF-8" standalone="no"?>
<!DOCTYPE svg PUBLIC "-//W3C//DTD SVG 1.1//EN"
 "http://www.w3.org/Graphics/SVG/1.1/DTD/svg11.dtd">
<!-- Generated by graphviz version 2.40.1 (20161225.0304)
 -->
<!-- Title: dependencies Pages: 1 -->
<svg width="2743pt" height="284pt"
 viewBox="0.00 0.00 2743.00 284.00" xmlns="http://www.w3.org/2000/svg" xmlns:xlink="http://www.w3.org/1999/xlink">
<g id="graph0" class="graph" transform="scale(1 1) rotate(0) translate(4 280)">
<title>dependencies</title>
<polygon fill="#ffffff" stroke="transparent" points="-4,4 -4,-280 2739,-280 2739,4 -4,4"/>
<text text-anchor="start" x="1346.5091" y="-42.4" font-family="sans-serif" font-weight="bold" font-size="14.00" fill="#000000">Legend</text>
<polygon fill="#ffffb3" stroke="transparent" points="1133.5,-10 1133.5,-30 1153.5,-30 1153.5,-10 1133.5,-10"/>
<text text-anchor="start" x="1157.129" y="-15.4" font-family="sans-serif" font-size="14.00" fill="#000000"> &#160;Declarations</text>
<polygon fill="#8dd3c7" stroke="transparent" points="1246.5,-10 1246.5,-30 1266.5,-30 1266.5,-10 1246.5,-10"/>
<text text-anchor="start" x="1270.2251" y="-15.4" font-family="sans-serif" font-size="14.00" fill="#000000"> &#160;Module</text>
<polygon fill="#80b1d3" stroke="transparent" points="1332.5,-10 1332.5,-30 1352.5,-30 1352.5,-10 1332.5,-10"/>
<text text-anchor="start" x="1356.2812" y="-15.4" font-family="sans-serif" font-size="14.00" fill="#000000"> &#160;Bootstrap</text>
<polygon fill="#fdb462" stroke="transparent" points="1429.5,-10 1429.5,-30 1449.5,-30 1449.5,-10 1429.5,-10"/>
<text text-anchor="start" x="1453.1732" y="-15.4" font-family="sans-serif" font-size="14.00" fill="#000000"> &#160;Providers</text>
<polygon fill="#fb8072" stroke="transparent" points="1525.5,-10 1525.5,-30 1545.5,-30 1545.5,-10 1525.5,-10"/>
<text text-anchor="start" x="1549.2258" y="-15.4" font-family="sans-serif" font-size="14.00" fill="#000000"> &#160;Exports</text>
<g id="clust1" class="cluster">
<title>cluster_GridModule</title>
<polygon fill="none" stroke="#000000" stroke-dasharray="1,5" points="8,-70 8,-268 2727,-268 2727,-70 8,-70"/>
</g>
<g id="clust2" class="cluster">
<title>cluster_GridModule_declarations</title>
<polygon fill="none" stroke="#000000" points="2474,-78 2474,-130 2719,-130 2719,-78 2474,-78"/>
</g>
<g id="clust5" class="cluster">
<title>cluster_GridModule_imports</title>
<polygon fill="none" stroke="#000000" points="2360,-78 2360,-130 2466,-130 2466,-78 2360,-78"/>
</g>
<g id="clust6" class="cluster">
<title>cluster_GridModule_exports</title>
<polygon fill="none" stroke="#000000" points="1344,-208 1344,-260 1470,-260 1470,-208 1344,-208"/>
</g>
<g id="clust8" class="cluster">
<title>cluster_GridModule_providers</title>
<polygon fill="none" stroke="#000000" points="16,-78 16,-130 2352,-130 2352,-78 16,-78"/>
</g>
<!-- CellComponent -->
<g id="node1" class="node">
<title>CellComponent</title>
<polygon fill="#ffffb3" stroke="#000000" points="2711.1653,-122 2606.8347,-122 2606.8347,-86 2711.1653,-86 2711.1653,-122"/>
<text text-anchor="middle" x="2659" y="-99.8" font-family="Times,serif" font-size="14.00" fill="#000000">CellComponent</text>
</g>
<!-- GridModule -->
<g id="node3" class="node">
<title>GridModule</title>
<polygon fill="#8dd3c7" stroke="#000000" points="1449.7079,-187 1446.7079,-191 1425.7079,-191 1422.7079,-187 1364.2921,-187 1364.2921,-151 1449.7079,-151 1449.7079,-187"/>
<text text-anchor="middle" x="1407" y="-164.8" font-family="Times,serif" font-size="14.00" fill="#000000">GridModule</text>
</g>
<!-- CellComponent&#45;&gt;GridModule -->
<g id="edge1" class="edge">
<title>CellComponent&#45;&gt;GridModule</title>
<path fill="none" stroke="#000000" d="M2659,-122.3228C2659,-145.6602 2659,-183 2659,-183 2659,-183 1459.7345,-183 1459.7345,-183"/>
<polygon fill="#000000" stroke="#000000" points="1459.7345,-179.5001 1449.7345,-183 1459.7344,-186.5001 1459.7345,-179.5001"/>
</g>
<!-- GridComponent -->
<g id="node2" class="node">
<title>GridComponent</title>
<polygon fill="#ffffb3" stroke="#000000" points="2588.4902,-122 2481.5098,-122 2481.5098,-86 2588.4902,-86 2588.4902,-122"/>
<text text-anchor="middle" x="2535" y="-99.8" font-family="Times,serif" font-size="14.00" fill="#000000">GridComponent</text>
</g>
<!-- GridComponent&#45;&gt;GridModule -->
<g id="edge2" class="edge">
<title>GridComponent&#45;&gt;GridModule</title>
<path fill="none" stroke="#000000" d="M2535,-122.1554C2535,-144.3519 2535,-179 2535,-179 2535,-179 1459.8415,-179 1459.8415,-179"/>
<polygon fill="#000000" stroke="#000000" points="1459.8416,-175.5001 1449.8415,-179 1459.8415,-182.5001 1459.8416,-175.5001"/>
</g>
<!-- GridComponent  -->
<g id="node5" class="node">
<title>GridComponent </title>
<polygon fill="#fb8072" stroke="#000000" points="1462.4913,-252 1351.5087,-252 1351.5087,-216 1462.4913,-216 1462.4913,-252"/>
<text text-anchor="middle" x="1407" y="-229.8" font-family="Times,serif" font-size="14.00" fill="#000000">GridComponent </text>
</g>
<!-- GridModule&#45;&gt;GridComponent  -->
<g id="edge4" class="edge">
<title>GridModule&#45;&gt;GridComponent </title>
<path fill="none" stroke="#000000" stroke-dasharray="5,2" d="M1407,-187.1061C1407,-187.1061 1407,-205.991 1407,-205.991"/>
<polygon fill="#000000" stroke="#000000" points="1403.5001,-205.9909 1407,-215.991 1410.5001,-205.991 1403.5001,-205.9909"/>
</g>
<!-- ToastModule -->
<g id="node4" class="node">
<title>ToastModule</title>
<polygon fill="#8dd3c7" stroke="#000000" points="2458.1529,-122 2455.1529,-126 2434.1529,-126 2431.1529,-122 2367.8471,-122 2367.8471,-86 2458.1529,-86 2458.1529,-122"/>
<text text-anchor="middle" x="2413" y="-99.8" font-family="Times,serif" font-size="14.00" fill="#000000">ToastModule</text>
</g>
<!-- ToastModule&#45;&gt;GridModule -->
<g id="edge3" class="edge">
<title>ToastModule&#45;&gt;GridModule</title>
<path fill="none" stroke="#000000" d="M2413,-122.2843C2413,-143.3211 2413,-175 2413,-175 2413,-175 1459.9047,-175 1459.9047,-175"/>
<polygon fill="#000000" stroke="#000000" points="1459.9048,-171.5001 1449.9047,-175 1459.9047,-178.5001 1459.9048,-171.5001"/>
</g>
<!-- AddGadgetService -->
<g id="node6" class="node">
<title>AddGadgetService</title>
<ellipse fill="#fdb462" stroke="#000000" cx="2259" cy="-104" rx="84.5112" ry="18"/>
<text text-anchor="middle" x="2259" y="-99.8" font-family="Times,serif" font-size="14.00" fill="#000000">AddGadgetService</text>
</g>
<!-- AddGadgetService&#45;&gt;GridModule -->
<g id="edge5" class="edge">
<title>AddGadgetService&#45;&gt;GridModule</title>
<path fill="none" stroke="#000000" d="M2259,-122.308C2259,-142.1455 2259,-171 2259,-171 2259,-171 1459.8347,-171 1459.8347,-171"/>
<polygon fill="#000000" stroke="#000000" points="1459.8347,-167.5001 1449.8347,-171 1459.8347,-174.5001 1459.8347,-167.5001"/>
</g>
<!-- BarChartService -->
<g id="node7" class="node">
<title>BarChartService</title>
<ellipse fill="#fdb462" stroke="#000000" cx="2081" cy="-104" rx="75.2751" ry="18"/>
<text text-anchor="middle" x="2081" y="-99.8" font-family="Times,serif" font-size="14.00" fill="#000000">BarChartService</text>
</g>
<!-- BarChartService&#45;&gt;GridModule -->
<g id="edge6" class="edge">
<title>BarChartService&#45;&gt;GridModule</title>
<path fill="none" stroke="#000000" d="M2081,-122.2222C2081,-140.8285 2081,-167 2081,-167 2081,-167 1459.673,-167 1459.673,-167"/>
<polygon fill="#000000" stroke="#000000" points="1459.6731,-163.5001 1449.673,-167 1459.673,-170.5001 1459.6731,-163.5001"/>
</g>
<!-- BubbleService -->
<g id="node8" class="node">
<title>BubbleService</title>
<ellipse fill="#fdb462" stroke="#000000" cx="1920" cy="-104" rx="67.776" ry="18"/>
<text text-anchor="middle" x="1920" y="-99.8" font-family="Times,serif" font-size="14.00" fill="#000000">BubbleService</text>
</g>
<!-- BubbleService&#45;&gt;GridModule -->
<g id="edge7" class="edge">
<title>BubbleService&#45;&gt;GridModule</title>
<path fill="none" stroke="#000000" d="M1920,-122.0225C1920,-139.3734 1920,-163 1920,-163 1920,-163 1459.8557,-163 1459.8557,-163"/>
<polygon fill="#000000" stroke="#000000" points="1459.8558,-159.5001 1449.8557,-163 1459.8557,-166.5001 1459.8558,-159.5001"/>
</g>
<!-- CPUService -->
<g id="node9" class="node">
<title>CPUService</title>
<ellipse fill="#fdb462" stroke="#000000" cx="1775" cy="-104" rx="58.5444" ry="18"/>
<text text-anchor="middle" x="1775" y="-99.8" font-family="Times,serif" font-size="14.00" fill="#000000">CPUService</text>
</g>
<!-- CPUService&#45;&gt;GridModule -->
<g id="edge8" class="edge">
<title>CPUService&#45;&gt;GridModule</title>
<path fill="none" stroke="#000000" d="M1775,-122.0091C1775,-138.0494 1775,-159 1775,-159 1775,-159 1459.9345,-159 1459.9345,-159"/>
<polygon fill="#000000" stroke="#000000" points="1459.9345,-155.5001 1449.9345,-159 1459.9345,-162.5001 1459.9345,-155.5001"/>
</g>
<!-- ConfigurationService -->
<g id="node10" class="node">
<title>ConfigurationService</title>
<ellipse fill="#fdb462" stroke="#000000" cx="1604" cy="-104" rx="94.3408" ry="18"/>
<text text-anchor="middle" x="1604" y="-99.8" font-family="Times,serif" font-size="14.00" fill="#000000">ConfigurationService</text>
</g>
<!-- ConfigurationService&#45;&gt;GridModule -->
<g id="edge9" class="edge">
<title>ConfigurationService&#45;&gt;GridModule</title>
<path fill="none" stroke="#000000" d="M1604,-122.1243C1604,-136.7832 1604,-155 1604,-155 1604,-155 1459.7461,-155 1459.7461,-155"/>
<polygon fill="#000000" stroke="#000000" points="1459.7461,-151.5001 1449.7461,-155 1459.746,-158.5001 1459.7461,-151.5001"/>
</g>
<!-- ConnectionService -->
<g id="node11" class="node">
<title>ConnectionService</title>
<ellipse fill="#fdb462" stroke="#000000" cx="1407" cy="-104" rx="84.5305" ry="18"/>
<text text-anchor="middle" x="1407" y="-99.8" font-family="Times,serif" font-size="14.00" fill="#000000">ConnectionService</text>
</g>
<!-- ConnectionService&#45;&gt;GridModule -->
<g id="edge10" class="edge">
<title>ConnectionService&#45;&gt;GridModule</title>
<path fill="none" stroke="#000000" d="M1407,-122.1061C1407,-122.1061 1407,-140.991 1407,-140.991"/>
<polygon fill="#000000" stroke="#000000" points="1403.5001,-140.9909 1407,-150.991 1410.5001,-140.991 1403.5001,-140.9909"/>
</g>
<!-- DonutService -->
<g id="node12" class="node">
<title>DonutService</title>
<ellipse fill="#fdb462" stroke="#000000" cx="1240" cy="-104" rx="64.2649" ry="18"/>
<text text-anchor="middle" x="1240" y="-99.8" font-family="Times,serif" font-size="14.00" fill="#000000">DonutService</text>
</g>
<!-- DonutService&#45;&gt;GridModule -->
<g id="edge11" class="edge">
<title>DonutService&#45;&gt;GridModule</title>
<path fill="none" stroke="#000000" d="M1240,-122.1243C1240,-136.7832 1240,-155 1240,-155 1240,-155 1353.9934,-155 1353.9934,-155"/>
<polygon fill="#000000" stroke="#000000" points="1353.9934,-158.5001 1363.9934,-155 1353.9933,-151.5001 1353.9934,-158.5001"/>
</g>
<!-- EdgeService -->
<g id="node13" class="node">
<title>EdgeService</title>
<ellipse fill="#fdb462" stroke="#000000" cx="1098" cy="-104" rx="59.6704" ry="18"/>
<text text-anchor="middle" x="1098" y="-99.8" font-family="Times,serif" font-size="14.00" fill="#000000">EdgeService</text>
</g>
<!-- EdgeService&#45;&gt;GridModule -->
<g id="edge12" class="edge">
<title>EdgeService&#45;&gt;GridModule</title>
<path fill="none" stroke="#000000" d="M1098,-122.0091C1098,-138.0494 1098,-159 1098,-159 1098,-159 1354.3593,-159 1354.3593,-159"/>
<polygon fill="#000000" stroke="#000000" points="1354.3593,-162.5001 1364.3593,-159 1354.3593,-155.5001 1354.3593,-162.5001"/>
</g>
<!-- GadgetInstanceService -->
<g id="node14" class="node">
<title>GadgetInstanceService</title>
<ellipse fill="#fdb462" stroke="#000000" cx="920" cy="-104" rx="100.0969" ry="18"/>
<text text-anchor="middle" x="920" y="-99.8" font-family="Times,serif" font-size="14.00" fill="#000000">GadgetInstanceService</text>
</g>
<!-- GadgetInstanceService&#45;&gt;GridModule -->
<g id="edge13" class="edge">
<title>GadgetInstanceService&#45;&gt;GridModule</title>
<path fill="none" stroke="#000000" d="M920,-122.0225C920,-139.3734 920,-163 920,-163 920,-163 1354.2088,-163 1354.2088,-163"/>
<polygon fill="#000000" stroke="#000000" points="1354.2089,-166.5001 1364.2088,-163 1354.2088,-159.5001 1354.2089,-166.5001"/>
</g>
<!-- JobAnalysisService -->
<g id="node15" class="node">
<title>JobAnalysisService</title>
<ellipse fill="#fdb462" stroke="#000000" cx="715" cy="-104" rx="87.3963" ry="18"/>
<text text-anchor="middle" x="715" y="-99.8" font-family="Times,serif" font-size="14.00" fill="#000000">JobAnalysisService</text>
</g>
<!-- JobAnalysisService&#45;&gt;GridModule -->
<g id="edge14" class="edge">
<title>JobAnalysisService&#45;&gt;GridModule</title>
<path fill="none" stroke="#000000" d="M715,-122.2222C715,-140.8285 715,-167 715,-167 715,-167 1354.2345,-167 1354.2345,-167"/>
<polygon fill="#000000" stroke="#000000" points="1354.2346,-170.5001 1364.2345,-167 1354.2345,-163.5001 1354.2346,-170.5001"/>
</g>
<!-- NewsService -->
<g id="node16" class="node">
<title>NewsService</title>
<ellipse fill="#fdb462" stroke="#000000" cx="548" cy="-104" rx="61.9538" ry="18"/>
<text text-anchor="middle" x="548" y="-99.8" font-family="Times,serif" font-size="14.00" fill="#000000">NewsService</text>
</g>
<!-- NewsService&#45;&gt;GridModule -->
<g id="edge15" class="edge">
<title>NewsService&#45;&gt;GridModule</title>
<path fill="none" stroke="#000000" d="M548,-122.308C548,-142.1455 548,-171 548,-171 548,-171 1354.1082,-171 1354.1082,-171"/>
<polygon fill="#000000" stroke="#000000" points="1354.1082,-174.5001 1364.1082,-171 1354.1081,-167.5001 1354.1082,-174.5001"/>
</g>
<!-- TodoService -->
<g id="node17" class="node">
<title>TodoService</title>
<ellipse fill="#fdb462" stroke="#000000" cx="408" cy="-104" rx="60.2537" ry="18"/>
<text text-anchor="middle" x="408" y="-99.8" font-family="Times,serif" font-size="14.00" fill="#000000">TodoService</text>
</g>
<!-- TodoService&#45;&gt;GridModule -->
<g id="edge16" class="edge">
<title>TodoService&#45;&gt;GridModule</title>
<path fill="none" stroke="#000000" d="M408,-122.2843C408,-143.3211 408,-175 408,-175 408,-175 1354.3938,-175 1354.3938,-175"/>
<polygon fill="#000000" stroke="#000000" points="1354.3938,-178.5001 1364.3938,-175 1354.3938,-171.5001 1354.3938,-178.5001"/>
</g>
<!-- TrendLineService -->
<g id="node18" class="node">
<title>TrendLineService</title>
<ellipse fill="#fdb462" stroke="#000000" cx="249" cy="-104" rx="80.9969" ry="18"/>
<text text-anchor="middle" x="249" y="-99.8" font-family="Times,serif" font-size="14.00" fill="#000000">TrendLineService</text>
</g>
<!-- TrendLineService&#45;&gt;GridModule -->
<g id="edge17" class="edge">
<title>TrendLineService&#45;&gt;GridModule</title>
<path fill="none" stroke="#000000" d="M249,-122.1554C249,-144.3519 249,-179 249,-179 249,-179 1354.0663,-179 1354.0663,-179"/>
<polygon fill="#000000" stroke="#000000" points="1354.0663,-182.5001 1364.0663,-179 1354.0663,-175.5001 1354.0663,-182.5001"/>
</g>
<!-- TrendService -->
<g id="node19" class="node">
<title>TrendService</title>
<ellipse fill="#fdb462" stroke="#000000" cx="87" cy="-104" rx="63.0996" ry="18"/>
<text text-anchor="middle" x="87" y="-99.8" font-family="Times,serif" font-size="14.00" fill="#000000">TrendService</text>
</g>
<!-- TrendService&#45;&gt;GridModule -->
<g id="edge18" class="edge">
<title>TrendService&#45;&gt;GridModule</title>
<path fill="none" stroke="#000000" d="M87,-122.3228C87,-145.6602 87,-183 87,-183 87,-183 1354.2047,-183 1354.2047,-183"/>
<polygon fill="#000000" stroke="#000000" points="1354.2048,-186.5001 1364.2047,-183 1354.2047,-179.5001 1354.2048,-186.5001"/>
</g>
</g>
</svg>
