<?xml version="1.0" encoding="UTF-8" standalone="no"?>
<!DOCTYPE svg PUBLIC "-//W3C//DTD SVG 1.1//EN"
 "http://www.w3.org/Graphics/SVG/1.1/DTD/svg11.dtd">
<!-- Generated by graphviz version 2.40.1 (20161225.0304)
 -->
<!-- Title: dependencies Pages: 1 -->
<svg width="3061pt" height="284pt"
 viewBox="0.00 0.00 3061.00 284.00" xmlns="http://www.w3.org/2000/svg" xmlns:xlink="http://www.w3.org/1999/xlink">
<g id="graph0" class="graph" transform="scale(1 1) rotate(0) translate(4 280)">
<title>dependencies</title>
<polygon fill="#ffffff" stroke="transparent" points="-4,4 -4,-280 3057,-280 3057,4 -4,4"/>
<text text-anchor="start" x="1505.5091" y="-42.4" font-family="sans-serif" font-weight="bold" font-size="14.00" fill="#000000">Legend</text>
<polygon fill="#ffffb3" stroke="transparent" points="1292.5,-10 1292.5,-30 1312.5,-30 1312.5,-10 1292.5,-10"/>
<text text-anchor="start" x="1316.129" y="-15.4" font-family="sans-serif" font-size="14.00" fill="#000000"> &#160;Declarations</text>
<polygon fill="#8dd3c7" stroke="transparent" points="1405.5,-10 1405.5,-30 1425.5,-30 1425.5,-10 1405.5,-10"/>
<text text-anchor="start" x="1429.2251" y="-15.4" font-family="sans-serif" font-size="14.00" fill="#000000"> &#160;Module</text>
<polygon fill="#80b1d3" stroke="transparent" points="1491.5,-10 1491.5,-30 1511.5,-30 1511.5,-10 1491.5,-10"/>
<text text-anchor="start" x="1515.2812" y="-15.4" font-family="sans-serif" font-size="14.00" fill="#000000"> &#160;Bootstrap</text>
<polygon fill="#fdb462" stroke="transparent" points="1588.5,-10 1588.5,-30 1608.5,-30 1608.5,-10 1588.5,-10"/>
<text text-anchor="start" x="1612.1732" y="-15.4" font-family="sans-serif" font-size="14.00" fill="#000000"> &#160;Providers</text>
<polygon fill="#fb8072" stroke="transparent" points="1684.5,-10 1684.5,-30 1704.5,-30 1704.5,-10 1684.5,-10"/>
<text text-anchor="start" x="1708.2258" y="-15.4" font-family="sans-serif" font-size="14.00" fill="#000000"> &#160;Exports</text>
<g id="clust1" class="cluster">
<title>cluster_GridModule</title>
<polygon fill="none" stroke="#000000" stroke-dasharray="1,5" points="8,-70 8,-268 3045,-268 3045,-70 8,-70"/>
</g>
<g id="clust2" class="cluster">
<title>cluster_GridModule_declarations</title>
<polygon fill="none" stroke="#000000" points="2792,-78 2792,-130 3037,-130 3037,-78 2792,-78"/>
</g>
<g id="clust5" class="cluster">
<title>cluster_GridModule_imports</title>
<polygon fill="none" stroke="#000000" points="2037,-78 2037,-130 2784,-130 2784,-78 2037,-78"/>
</g>
<g id="clust6" class="cluster">
<title>cluster_GridModule_exports</title>
<polygon fill="none" stroke="#000000" points="1547,-208 1547,-260 1673,-260 1673,-208 1547,-208"/>
</g>
<g id="clust8" class="cluster">
<title>cluster_GridModule_providers</title>
<polygon fill="none" stroke="#000000" points="16,-78 16,-130 2029,-130 2029,-78 16,-78"/>
</g>
<!-- GridComponent -->
<g id="node1" class="node">
<title>GridComponent</title>
<polygon fill="#ffffb3" stroke="#000000" points="3029.4902,-122 2922.5098,-122 2922.5098,-86 3029.4902,-86 3029.4902,-122"/>
<text text-anchor="middle" x="2976" y="-99.8" font-family="Times,serif" font-size="14.00" fill="#000000">GridComponent</text>
</g>
<!-- GridModule -->
<g id="node3" class="node">
<title>GridModule</title>
<polygon fill="#8dd3c7" stroke="#000000" points="1652.7079,-187 1649.7079,-191 1628.7079,-191 1625.7079,-187 1567.2921,-187 1567.2921,-151 1652.7079,-151 1652.7079,-187"/>
<text text-anchor="middle" x="1610" y="-164.8" font-family="Times,serif" font-size="14.00" fill="#000000">GridModule</text>
</g>
<!-- GridComponent&#45;&gt;GridModule -->
<g id="edge1" class="edge">
<title>GridComponent&#45;&gt;GridModule</title>
<path fill="none" stroke="#000000" d="M2976,-122.1532C2976,-145.7566 2976,-184 2976,-184 2976,-184 1662.7579,-184 1662.7579,-184"/>
<polygon fill="#000000" stroke="#000000" points="1662.7579,-180.5001 1652.7579,-184 1662.7579,-187.5001 1662.7579,-180.5001"/>
</g>
<!-- CellComponent -->
<g id="node2" class="node">
<title>CellComponent</title>
<polygon fill="#ffffb3" stroke="#000000" points="2904.1653,-122 2799.8347,-122 2799.8347,-86 2904.1653,-86 2904.1653,-122"/>
<text text-anchor="middle" x="2852" y="-99.8" font-family="Times,serif" font-size="14.00" fill="#000000">CellComponent</text>
</g>
<!-- CellComponent&#45;&gt;GridModule -->
<g id="edge2" class="edge">
<title>CellComponent&#45;&gt;GridModule</title>
<path fill="none" stroke="#000000" d="M2852,-122.0109C2852,-144.4852 2852,-180 2852,-180 2852,-180 1662.7525,-180 1662.7525,-180"/>
<polygon fill="#000000" stroke="#000000" points="1662.7525,-176.5001 1652.7525,-180 1662.7524,-183.5001 1662.7525,-176.5001"/>
</g>
<!-- GridComponent  -->
<g id="node10" class="node">
<title>GridComponent </title>
<polygon fill="#fb8072" stroke="#000000" points="1665.4913,-252 1554.5087,-252 1554.5087,-216 1665.4913,-216 1665.4913,-252"/>
<text text-anchor="middle" x="1610" y="-229.8" font-family="Times,serif" font-size="14.00" fill="#000000">GridComponent </text>
</g>
<!-- GridModule&#45;&gt;GridComponent  -->
<g id="edge9" class="edge">
<title>GridModule&#45;&gt;GridComponent </title>
<path fill="none" stroke="#000000" stroke-dasharray="5,2" d="M1610,-187.1061C1610,-187.1061 1610,-205.991 1610,-205.991"/>
<polygon fill="#000000" stroke="#000000" points="1606.5001,-205.9909 1610,-215.991 1613.5001,-205.991 1606.5001,-205.9909"/>
</g>
<!-- CommonModule -->
<g id="node4" class="node">
<title>CommonModule</title>
<polygon fill="#8dd3c7" stroke="#000000" points="2775.6681,-122 2772.6681,-126 2751.6681,-126 2748.6681,-122 2664.3319,-122 2664.3319,-86 2775.6681,-86 2775.6681,-122"/>
<text text-anchor="middle" x="2720" y="-99.8" font-family="Times,serif" font-size="14.00" fill="#000000">CommonModule</text>
</g>
<!-- CommonModule&#45;&gt;GridModule -->
<g id="edge3" class="edge">
<title>CommonModule&#45;&gt;GridModule</title>
<path fill="none" stroke="#000000" d="M2720,-122.0449C2720,-143.6623 2720,-177 2720,-177 2720,-177 1662.8332,-177 1662.8332,-177"/>
<polygon fill="#000000" stroke="#000000" points="1662.8332,-173.5001 1652.8332,-177 1662.8331,-180.5001 1662.8332,-173.5001"/>
</g>
<!-- FormsModule -->
<g id="node5" class="node">
<title>FormsModule</title>
<polygon fill="#8dd3c7" stroke="#000000" points="2646.8288,-122 2643.8288,-126 2622.8288,-126 2619.8288,-122 2551.1712,-122 2551.1712,-86 2646.8288,-86 2646.8288,-122"/>
<text text-anchor="middle" x="2599" y="-99.8" font-family="Times,serif" font-size="14.00" fill="#000000">FormsModule</text>
</g>
<!-- FormsModule&#45;&gt;GridModule -->
<g id="edge4" class="edge">
<title>FormsModule&#45;&gt;GridModule</title>
<path fill="none" stroke="#000000" d="M2599,-122.1289C2599,-142.5724 2599,-173 2599,-173 2599,-173 1662.8135,-173 1662.8135,-173"/>
<polygon fill="#000000" stroke="#000000" points="1662.8136,-169.5001 1652.8135,-173 1662.8135,-176.5001 1662.8136,-169.5001"/>
</g>
<!-- HttpModule -->
<g id="node6" class="node">
<title>HttpModule</title>
<polygon fill="#8dd3c7" stroke="#000000" points="2533.4387,-122 2530.4387,-126 2509.4387,-126 2506.4387,-122 2448.5613,-122 2448.5613,-86 2533.4387,-86 2533.4387,-122"/>
<text text-anchor="middle" x="2491" y="-99.8" font-family="Times,serif" font-size="14.00" fill="#000000">HttpModule</text>
</g>
<!-- HttpModule&#45;&gt;GridModule -->
<g id="edge5" class="edge">
<title>HttpModule&#45;&gt;GridModule</title>
<path fill="none" stroke="#000000" d="M2491,-122.1061C2491,-141.3391 2491,-169 2491,-169 2491,-169 1662.7902,-169 1662.7902,-169"/>
<polygon fill="#000000" stroke="#000000" points="1662.7902,-165.5001 1652.7902,-169 1662.7902,-172.5001 1662.7902,-165.5001"/>
</g>
<!-- ToastModule -->
<g id="node7" class="node">
<title>ToastModule</title>
<polygon fill="#8dd3c7" stroke="#000000" points="2430.1529,-122 2427.1529,-126 2406.1529,-126 2403.1529,-122 2339.8471,-122 2339.8471,-86 2430.1529,-86 2430.1529,-122"/>
<text text-anchor="middle" x="2385" y="-99.8" font-family="Times,serif" font-size="14.00" fill="#000000">ToastModule</text>
</g>
<!-- ToastModule&#45;&gt;GridModule -->
<g id="edge6" class="edge">
<title>ToastModule&#45;&gt;GridModule</title>
<path fill="none" stroke="#000000" d="M2385,-122.2667C2385,-140.5552 2385,-166 2385,-166 2385,-166 1662.7713,-166 1662.7713,-166"/>
<polygon fill="#000000" stroke="#000000" points="1662.7713,-162.5001 1652.7713,-166 1662.7713,-169.5001 1662.7713,-162.5001"/>
</g>
<!-- HttpClientModule -->
<g id="node8" class="node">
<title>HttpClientModule</title>
<polygon fill="#8dd3c7" stroke="#000000" points="2321.1611,-122 2318.1611,-126 2297.1611,-126 2294.1611,-122 2202.8389,-122 2202.8389,-86 2321.1611,-86 2321.1611,-122"/>
<text text-anchor="middle" x="2262" y="-99.8" font-family="Times,serif" font-size="14.00" fill="#000000">HttpClientModule</text>
</g>
<!-- HttpClientModule&#45;&gt;GridModule -->
<g id="edge7" class="edge">
<title>HttpClientModule&#45;&gt;GridModule</title>
<path fill="none" stroke="#000000" d="M2262,-122.0336C2262,-139.0597 2262,-162 2262,-162 2262,-162 1662.7795,-162 1662.7795,-162"/>
<polygon fill="#000000" stroke="#000000" points="1662.7796,-158.5001 1652.7795,-162 1662.7795,-165.5001 1662.7796,-158.5001"/>
</g>
<!-- DndModule.forRoot() -->
<g id="node9" class="node">
<title>DndModule.forRoot()</title>
<polygon fill="#8dd3c7" stroke="#000000" points="2185.026,-122 2182.026,-126 2161.026,-126 2158.026,-122 2044.974,-122 2044.974,-86 2185.026,-86 2185.026,-122"/>
<text text-anchor="middle" x="2115" y="-99.8" font-family="Times,serif" font-size="14.00" fill="#000000">DndModule.forRoot()</text>
</g>
<!-- DndModule.forRoot()&#45;&gt;GridModule -->
<g id="edge8" class="edge">
<title>DndModule.forRoot()&#45;&gt;GridModule</title>
<path fill="none" stroke="#000000" d="M2115,-122.0091C2115,-138.0494 2115,-159 2115,-159 2115,-159 1662.6208,-159 1662.6208,-159"/>
<polygon fill="#000000" stroke="#000000" points="1662.6208,-155.5001 1652.6208,-159 1662.6208,-162.5001 1662.6208,-155.5001"/>
</g>
<!-- GadgetInstanceService -->
<g id="node11" class="node">
<title>GadgetInstanceService</title>
<ellipse fill="#fdb462" stroke="#000000" cx="1921" cy="-104" rx="100.0969" ry="18"/>
<text text-anchor="middle" x="1921" y="-99.8" font-family="Times,serif" font-size="14.00" fill="#000000">GadgetInstanceService</text>
</g>
<!-- GadgetInstanceService&#45;&gt;GridModule -->
<g id="edge10" class="edge">
<title>GadgetInstanceService&#45;&gt;GridModule</title>
<path fill="none" stroke="#000000" d="M1921,-122.1243C1921,-136.7832 1921,-155 1921,-155 1921,-155 1662.9167,-155 1662.9167,-155"/>
<polygon fill="#000000" stroke="#000000" points="1662.9167,-151.5001 1652.9167,-155 1662.9167,-158.5001 1662.9167,-151.5001"/>
</g>
<!-- ConfigurationService -->
<g id="node12" class="node">
<title>ConfigurationService</title>
<ellipse fill="#fdb462" stroke="#000000" cx="1709" cy="-104" rx="94.3408" ry="18"/>
<text text-anchor="middle" x="1709" y="-99.8" font-family="Times,serif" font-size="14.00" fill="#000000">ConfigurationService</text>
</g>
<!-- ConfigurationService&#45;&gt;GridModule -->
<g id="edge11" class="edge">
<title>ConfigurationService&#45;&gt;GridModule</title>
<path fill="none" stroke="#000000" d="M1633.7168,-115.0264C1633.7168,-115.0264 1633.7168,-140.7791 1633.7168,-140.7791"/>
<polygon fill="#000000" stroke="#000000" points="1630.2169,-140.779 1633.7168,-150.7791 1637.2169,-140.7791 1630.2169,-140.779"/>
</g>
<!-- AddGadgetService -->
<g id="node13" class="node">
<title>AddGadgetService</title>
<ellipse fill="#fdb462" stroke="#000000" cx="1512" cy="-104" rx="84.5112" ry="18"/>
<text text-anchor="middle" x="1512" y="-99.8" font-family="Times,serif" font-size="14.00" fill="#000000">AddGadgetService</text>
</g>
<!-- AddGadgetService&#45;&gt;GridModule -->
<g id="edge12" class="edge">
<title>AddGadgetService&#45;&gt;GridModule</title>
<path fill="none" stroke="#000000" d="M1581.9509,-114.1563C1581.9509,-114.1563 1581.9509,-140.8074 1581.9509,-140.8074"/>
<polygon fill="#000000" stroke="#000000" points="1578.451,-140.8074 1581.9509,-150.8074 1585.451,-140.8075 1578.451,-140.8074"/>
</g>
<!-- NewsService -->
<g id="node14" class="node">
<title>NewsService</title>
<ellipse fill="#fdb462" stroke="#000000" cx="1348" cy="-104" rx="61.9538" ry="18"/>
<text text-anchor="middle" x="1348" y="-99.8" font-family="Times,serif" font-size="14.00" fill="#000000">NewsService</text>
</g>
<!-- NewsService&#45;&gt;GridModule -->
<g id="edge13" class="edge">
<title>NewsService&#45;&gt;GridModule</title>
<path fill="none" stroke="#000000" d="M1348,-122.1243C1348,-136.7832 1348,-155 1348,-155 1348,-155 1557.3221,-155 1557.3221,-155"/>
<polygon fill="#000000" stroke="#000000" points="1557.3221,-158.5001 1567.3221,-155 1557.322,-151.5001 1557.3221,-158.5001"/>
</g>
<!-- JobAnalysisService -->
<g id="node15" class="node">
<title>JobAnalysisService</title>
<ellipse fill="#fdb462" stroke="#000000" cx="1181" cy="-104" rx="87.3963" ry="18"/>
<text text-anchor="middle" x="1181" y="-99.8" font-family="Times,serif" font-size="14.00" fill="#000000">JobAnalysisService</text>
</g>
<!-- JobAnalysisService&#45;&gt;GridModule -->
<g id="edge14" class="edge">
<title>JobAnalysisService&#45;&gt;GridModule</title>
<path fill="none" stroke="#000000" d="M1181,-122.0091C1181,-138.0494 1181,-159 1181,-159 1181,-159 1557.2974,-159 1557.2974,-159"/>
<polygon fill="#000000" stroke="#000000" points="1557.2975,-162.5001 1567.2974,-159 1557.2974,-155.5001 1557.2975,-162.5001"/>
</g>
<!-- TrendLineService -->
<g id="node16" class="node">
<title>TrendLineService</title>
<ellipse fill="#fdb462" stroke="#000000" cx="995" cy="-104" rx="80.9969" ry="18"/>
<text text-anchor="middle" x="995" y="-99.8" font-family="Times,serif" font-size="14.00" fill="#000000">TrendLineService</text>
</g>
<!-- TrendLineService&#45;&gt;GridModule -->
<g id="edge15" class="edge">
<title>TrendLineService&#45;&gt;GridModule</title>
<path fill="none" stroke="#000000" d="M995,-122.0336C995,-139.0597 995,-162 995,-162 995,-162 1557.2427,-162 1557.2427,-162"/>
<polygon fill="#000000" stroke="#000000" points="1557.2427,-165.5001 1567.2427,-162 1557.2426,-158.5001 1557.2427,-165.5001"/>
</g>
<!-- TrendService -->
<g id="node17" class="node">
<title>TrendService</title>
<ellipse fill="#fdb462" stroke="#000000" cx="833" cy="-104" rx="63.0996" ry="18"/>
<text text-anchor="middle" x="833" y="-99.8" font-family="Times,serif" font-size="14.00" fill="#000000">TrendService</text>
</g>
<!-- TrendService&#45;&gt;GridModule -->
<g id="edge16" class="edge">
<title>TrendService&#45;&gt;GridModule</title>
<path fill="none" stroke="#000000" d="M833,-122.2667C833,-140.5552 833,-166 833,-166 833,-166 1557.1183,-166 1557.1183,-166"/>
<polygon fill="#000000" stroke="#000000" points="1557.1184,-169.5001 1567.1183,-166 1557.1183,-162.5001 1557.1184,-169.5001"/>
</g>
<!-- EdgeService -->
<g id="node18" class="node">
<title>EdgeService</title>
<ellipse fill="#fdb462" stroke="#000000" cx="692" cy="-104" rx="59.6704" ry="18"/>
<text text-anchor="middle" x="692" y="-99.8" font-family="Times,serif" font-size="14.00" fill="#000000">EdgeService</text>
</g>
<!-- EdgeService&#45;&gt;GridModule -->
<g id="edge17" class="edge">
<title>EdgeService&#45;&gt;GridModule</title>
<path fill="none" stroke="#000000" d="M692,-122.1061C692,-141.3391 692,-169 692,-169 692,-169 1557.2596,-169 1557.2596,-169"/>
<polygon fill="#000000" stroke="#000000" points="1557.2597,-172.5001 1567.2596,-169 1557.2596,-165.5001 1557.2597,-172.5001"/>
</g>
<!-- CPUService -->
<g id="node19" class="node">
<title>CPUService</title>
<ellipse fill="#fdb462" stroke="#000000" cx="555" cy="-104" rx="58.5444" ry="18"/>
<text text-anchor="middle" x="555" y="-99.8" font-family="Times,serif" font-size="14.00" fill="#000000">CPUService</text>
</g>
<!-- CPUService&#45;&gt;GridModule -->
<g id="edge18" class="edge">
<title>CPUService&#45;&gt;GridModule</title>
<path fill="none" stroke="#000000" d="M555,-122.1289C555,-142.5724 555,-173 555,-173 555,-173 1557.3361,-173 1557.3361,-173"/>
<polygon fill="#000000" stroke="#000000" points="1557.3361,-176.5001 1567.3361,-173 1557.3361,-169.5001 1557.3361,-176.5001"/>
</g>
<!-- DonutService -->
<g id="node20" class="node">
<title>DonutService</title>
<ellipse fill="#fdb462" stroke="#000000" cx="414" cy="-104" rx="64.2649" ry="18"/>
<text text-anchor="middle" x="414" y="-99.8" font-family="Times,serif" font-size="14.00" fill="#000000">DonutService</text>
</g>
<!-- DonutService&#45;&gt;GridModule -->
<g id="edge19" class="edge">
<title>DonutService&#45;&gt;GridModule</title>
<path fill="none" stroke="#000000" d="M414,-122.0449C414,-143.6623 414,-177 414,-177 414,-177 1557.0811,-177 1557.0811,-177"/>
<polygon fill="#000000" stroke="#000000" points="1557.0811,-180.5001 1567.0811,-177 1557.0811,-173.5001 1557.0811,-180.5001"/>
</g>
<!-- ConnectionService -->
<g id="node21" class="node">
<title>ConnectionService</title>
<ellipse fill="#fdb462" stroke="#000000" cx="247" cy="-104" rx="84.5305" ry="18"/>
<text text-anchor="middle" x="247" y="-99.8" font-family="Times,serif" font-size="14.00" fill="#000000">ConnectionService</text>
</g>
<!-- ConnectionService&#45;&gt;GridModule -->
<g id="edge20" class="edge">
<title>ConnectionService&#45;&gt;GridModule</title>
<path fill="none" stroke="#000000" d="M247,-122.0109C247,-144.4852 247,-180 247,-180 247,-180 1557.336,-180 1557.336,-180"/>
<polygon fill="#000000" stroke="#000000" points="1557.336,-183.5001 1567.336,-180 1557.336,-176.5001 1557.336,-183.5001"/>
</g>
<!-- TodoService -->
<g id="node22" class="node">
<title>TodoService</title>
<ellipse fill="#fdb462" stroke="#000000" cx="84" cy="-104" rx="60.2537" ry="18"/>
<text text-anchor="middle" x="84" y="-99.8" font-family="Times,serif" font-size="14.00" fill="#000000">TodoService</text>
</g>
<!-- TodoService&#45;&gt;GridModule -->
<g id="edge21" class="edge">
<title>TodoService&#45;&gt;GridModule</title>
<path fill="none" stroke="#000000" d="M84,-122.1532C84,-145.7566 84,-184 84,-184 84,-184 1557.1915,-184 1557.1915,-184"/>
<polygon fill="#000000" stroke="#000000" points="1557.1915,-187.5001 1567.1915,-184 1557.1915,-180.5001 1557.1915,-187.5001"/>
</g>
</g>
</svg>
