<?xml version="1.0" encoding="UTF-8" standalone="no"?>
<!DOCTYPE svg PUBLIC "-//W3C//DTD SVG 1.1//EN"
 "http://www.w3.org/Graphics/SVG/1.1/DTD/svg11.dtd">
<!-- Generated by graphviz version 2.40.1 (20161225.0304)
 -->
<!-- Title: dependencies Pages: 1 -->
<svg width="554pt" height="284pt"
 viewBox="0.00 0.00 554.00 284.00" xmlns="http://www.w3.org/2000/svg" xmlns:xlink="http://www.w3.org/1999/xlink">
<g id="graph0" class="graph" transform="scale(1 1) rotate(0) translate(4 280)">
<title>dependencies</title>
<polygon fill="#ffffff" stroke="transparent" points="-4,4 -4,-280 550,-280 550,4 -4,4"/>
<text text-anchor="start" x="252.0091" y="-42.4" font-family="sans-serif" font-weight="bold" font-size="14.00" fill="#000000">Legend</text>
<polygon fill="#ffffb3" stroke="transparent" points="39,-10 39,-30 59,-30 59,-10 39,-10"/>
<text text-anchor="start" x="62.629" y="-15.4" font-family="sans-serif" font-size="14.00" fill="#000000"> &#160;Declarations</text>
<polygon fill="#8dd3c7" stroke="transparent" points="152,-10 152,-30 172,-30 172,-10 152,-10"/>
<text text-anchor="start" x="175.7251" y="-15.4" font-family="sans-serif" font-size="14.00" fill="#000000"> &#160;Module</text>
<polygon fill="#80b1d3" stroke="transparent" points="238,-10 238,-30 258,-30 258,-10 238,-10"/>
<text text-anchor="start" x="261.7812" y="-15.4" font-family="sans-serif" font-size="14.00" fill="#000000"> &#160;Bootstrap</text>
<polygon fill="#fdb462" stroke="transparent" points="335,-10 335,-30 355,-30 355,-10 335,-10"/>
<text text-anchor="start" x="358.6732" y="-15.4" font-family="sans-serif" font-size="14.00" fill="#000000"> &#160;Providers</text>
<polygon fill="#fb8072" stroke="transparent" points="431,-10 431,-30 451,-30 451,-10 431,-10"/>
<text text-anchor="start" x="454.7258" y="-15.4" font-family="sans-serif" font-size="14.00" fill="#000000"> &#160;Exports</text>
<g id="clust1" class="cluster">
<title>cluster_ToastModule</title>
<polygon fill="none" stroke="#000000" stroke-dasharray="1,5" points="8,-70 8,-268 538,-268 538,-70 8,-70"/>
</g>
<g id="clust2" class="cluster">
<title>cluster_ToastModule_declarations</title>
<polygon fill="none" stroke="#000000" points="298,-78 298,-130 530,-130 530,-78 298,-78"/>
</g>
<g id="clust5" class="cluster">
<title>cluster_ToastModule_imports</title>
<polygon fill="none" stroke="#000000" points="162,-78 162,-130 290,-130 290,-78 162,-78"/>
</g>
<g id="clust6" class="cluster">
<title>cluster_ToastModule_exports</title>
<polygon fill="none" stroke="#000000" points="221,-208 221,-260 353,-260 353,-208 221,-208"/>
</g>
<g id="clust8" class="cluster">
<title>cluster_ToastModule_providers</title>
<polygon fill="none" stroke="#000000" points="16,-78 16,-130 154,-130 154,-78 16,-78"/>
</g>
<!-- ToastComponent -->
<g id="node1" class="node">
<title>ToastComponent</title>
<polygon fill="#ffffb3" stroke="#000000" points="522.4356,-122 409.5644,-122 409.5644,-86 522.4356,-86 522.4356,-122"/>
<text text-anchor="middle" x="466" y="-99.8" font-family="Times,serif" font-size="14.00" fill="#000000">ToastComponent</text>
</g>
<!-- ToastModule -->
<g id="node3" class="node">
<title>ToastModule</title>
<polygon fill="#8dd3c7" stroke="#000000" points="332.1529,-187 329.1529,-191 308.1529,-191 305.1529,-187 241.8471,-187 241.8471,-151 332.1529,-151 332.1529,-187"/>
<text text-anchor="middle" x="287" y="-164.8" font-family="Times,serif" font-size="14.00" fill="#000000">ToastModule</text>
</g>
<!-- ToastComponent&#45;&gt;ToastModule -->
<g id="edge1" class="edge">
<title>ToastComponent&#45;&gt;ToastModule</title>
<path fill="none" stroke="#000000" d="M466,-122.1061C466,-141.3391 466,-169 466,-169 466,-169 342.1693,-169 342.1693,-169"/>
<polygon fill="#000000" stroke="#000000" points="342.1693,-165.5001 332.1693,-169 342.1692,-172.5001 342.1693,-165.5001"/>
</g>
<!-- ReversePipe -->
<g id="node2" class="node">
<title>ReversePipe</title>
<polygon fill="#ffffb3" stroke="#000000" points="391.9734,-122 306.0266,-122 306.0266,-86 391.9734,-86 391.9734,-122"/>
<text text-anchor="middle" x="349" y="-99.8" font-family="Times,serif" font-size="14.00" fill="#000000">ReversePipe</text>
</g>
<!-- ReversePipe&#45;&gt;ToastModule -->
<g id="edge2" class="edge">
<title>ReversePipe&#45;&gt;ToastModule</title>
<path fill="none" stroke="#000000" d="M319.1697,-122.1061C319.1697,-122.1061 319.1697,-140.991 319.1697,-140.991"/>
<polygon fill="#000000" stroke="#000000" points="315.6698,-140.9909 319.1697,-150.991 322.6698,-140.991 315.6698,-140.9909"/>
</g>
<!-- ToastComponent  -->
<g id="node5" class="node">
<title>ToastComponent </title>
<polygon fill="#fb8072" stroke="#000000" points="344.9348,-252 229.0652,-252 229.0652,-216 344.9348,-216 344.9348,-252"/>
<text text-anchor="middle" x="287" y="-229.8" font-family="Times,serif" font-size="14.00" fill="#000000">ToastComponent </text>
</g>
<!-- ToastModule&#45;&gt;ToastComponent  -->
<g id="edge4" class="edge">
<title>ToastModule&#45;&gt;ToastComponent </title>
<path fill="none" stroke="#000000" stroke-dasharray="5,2" d="M287,-187.1061C287,-187.1061 287,-205.991 287,-205.991"/>
<polygon fill="#000000" stroke="#000000" points="283.5001,-205.9909 287,-215.991 290.5001,-205.991 283.5001,-205.9909"/>
</g>
<!-- CommonModule -->
<g id="node4" class="node">
<title>CommonModule</title>
<polygon fill="#8dd3c7" stroke="#000000" points="281.6681,-122 278.6681,-126 257.6681,-126 254.6681,-122 170.3319,-122 170.3319,-86 281.6681,-86 281.6681,-122"/>
<text text-anchor="middle" x="226" y="-99.8" font-family="Times,serif" font-size="14.00" fill="#000000">CommonModule</text>
</g>
<!-- CommonModule&#45;&gt;ToastModule -->
<g id="edge3" class="edge">
<title>CommonModule&#45;&gt;ToastModule</title>
<path fill="none" stroke="#000000" d="M261.7539,-122.1061C261.7539,-122.1061 261.7539,-140.991 261.7539,-140.991"/>
<polygon fill="#000000" stroke="#000000" points="258.2539,-140.9909 261.7539,-150.991 265.2539,-140.991 258.2539,-140.9909"/>
</g>
<!-- ToastService -->
<g id="node6" class="node">
<title>ToastService</title>
<ellipse fill="#fdb462" stroke="#000000" cx="85" cy="-104" rx="61.3916" ry="18"/>
<text text-anchor="middle" x="85" y="-99.8" font-family="Times,serif" font-size="14.00" fill="#000000">ToastService</text>
</g>
<!-- ToastService&#45;&gt;ToastModule -->
<g id="edge5" class="edge">
<title>ToastService&#45;&gt;ToastModule</title>
<path fill="none" stroke="#000000" d="M85,-122.1061C85,-141.3391 85,-169 85,-169 85,-169 231.6673,-169 231.6673,-169"/>
<polygon fill="#000000" stroke="#000000" points="231.6673,-172.5001 241.6673,-169 231.6672,-165.5001 231.6673,-172.5001"/>
</g>
</g>
</svg>
