<?xml version="1.0" encoding="UTF-8" standalone="no"?>
<!DOCTYPE svg PUBLIC "-//W3C//DTD SVG 1.1//EN"
 "http://www.w3.org/Graphics/SVG/1.1/DTD/svg11.dtd">
<!-- Generated by graphviz version 2.40.1 (20161225.0304)
 -->
<!-- Title: dependencies Pages: 1 -->
<svg width="504pt" height="284pt"
 viewBox="0.00 0.00 504.00 284.00" xmlns="http://www.w3.org/2000/svg" xmlns:xlink="http://www.w3.org/1999/xlink">
<g id="graph0" class="graph" transform="scale(1 1) rotate(0) translate(4 280)">
<title>dependencies</title>
<polygon fill="#ffffff" stroke="transparent" points="-4,4 -4,-280 500,-280 500,4 -4,4"/>
<text text-anchor="start" x="227.0091" y="-42.4" font-family="sans-serif" font-weight="bold" font-size="14.00" fill="#000000">Legend</text>
<polygon fill="#ffffb3" stroke="transparent" points="14,-10 14,-30 34,-30 34,-10 14,-10"/>
<text text-anchor="start" x="37.629" y="-15.4" font-family="sans-serif" font-size="14.00" fill="#000000"> &#160;Declarations</text>
<polygon fill="#8dd3c7" stroke="transparent" points="127,-10 127,-30 147,-30 147,-10 127,-10"/>
<text text-anchor="start" x="150.7251" y="-15.4" font-family="sans-serif" font-size="14.00" fill="#000000"> &#160;Module</text>
<polygon fill="#80b1d3" stroke="transparent" points="213,-10 213,-30 233,-30 233,-10 213,-10"/>
<text text-anchor="start" x="236.7812" y="-15.4" font-family="sans-serif" font-size="14.00" fill="#000000"> &#160;Bootstrap</text>
<polygon fill="#fdb462" stroke="transparent" points="310,-10 310,-30 330,-30 330,-10 310,-10"/>
<text text-anchor="start" x="333.6732" y="-15.4" font-family="sans-serif" font-size="14.00" fill="#000000"> &#160;Providers</text>
<polygon fill="#fb8072" stroke="transparent" points="406,-10 406,-30 426,-30 426,-10 406,-10"/>
<text text-anchor="start" x="429.7258" y="-15.4" font-family="sans-serif" font-size="14.00" fill="#000000"> &#160;Exports</text>
<g id="clust1" class="cluster">
<title>cluster_ToastModule</title>
<polygon fill="none" stroke="#000000" stroke-dasharray="1,5" points="51,-70 51,-268 445,-268 445,-70 51,-70"/>
</g>
<g id="clust2" class="cluster">
<title>cluster_ToastModule_declarations</title>
<polygon fill="none" stroke="#000000" points="205,-78 205,-130 437,-130 437,-78 205,-78"/>
</g>
<g id="clust6" class="cluster">
<title>cluster_ToastModule_exports</title>
<polygon fill="none" stroke="#000000" points="203,-208 203,-260 335,-260 335,-208 203,-208"/>
</g>
<g id="clust8" class="cluster">
<title>cluster_ToastModule_providers</title>
<polygon fill="none" stroke="#000000" points="59,-78 59,-130 197,-130 197,-78 59,-78"/>
</g>
<!-- ReversePipe -->
<g id="node1" class="node">
<title>ReversePipe</title>
<polygon fill="#ffffb3" stroke="#000000" points="428.9734,-122 343.0266,-122 343.0266,-86 428.9734,-86 428.9734,-122"/>
<text text-anchor="middle" x="386" y="-99.8" font-family="Times,serif" font-size="14.00" fill="#000000">ReversePipe</text>
</g>
<!-- ToastModule -->
<g id="node3" class="node">
<title>ToastModule</title>
<polygon fill="#8dd3c7" stroke="#000000" points="314.1529,-187 311.1529,-191 290.1529,-191 287.1529,-187 223.8471,-187 223.8471,-151 314.1529,-151 314.1529,-187"/>
<text text-anchor="middle" x="269" y="-164.8" font-family="Times,serif" font-size="14.00" fill="#000000">ToastModule</text>
</g>
<!-- ReversePipe&#45;&gt;ToastModule -->
<g id="edge1" class="edge">
<title>ReversePipe&#45;&gt;ToastModule</title>
<path fill="none" stroke="#000000" d="M386,-122.1061C386,-141.3391 386,-169 386,-169 386,-169 324.2353,-169 324.2353,-169"/>
<polygon fill="#000000" stroke="#000000" points="324.2353,-165.5001 314.2353,-169 324.2352,-172.5001 324.2353,-165.5001"/>
</g>
<!-- ToastComponent -->
<g id="node2" class="node">
<title>ToastComponent</title>
<polygon fill="#ffffb3" stroke="#000000" points="325.4356,-122 212.5644,-122 212.5644,-86 325.4356,-86 325.4356,-122"/>
<text text-anchor="middle" x="269" y="-99.8" font-family="Times,serif" font-size="14.00" fill="#000000">ToastComponent</text>
</g>
<!-- ToastComponent&#45;&gt;ToastModule -->
<g id="edge2" class="edge">
<title>ToastComponent&#45;&gt;ToastModule</title>
<path fill="none" stroke="#000000" d="M269,-122.1061C269,-122.1061 269,-140.991 269,-140.991"/>
<polygon fill="#000000" stroke="#000000" points="265.5001,-140.9909 269,-150.991 272.5001,-140.991 265.5001,-140.9909"/>
</g>
<!-- ToastComponent  -->
<g id="node4" class="node">
<title>ToastComponent </title>
<polygon fill="#fb8072" stroke="#000000" points="326.9348,-252 211.0652,-252 211.0652,-216 326.9348,-216 326.9348,-252"/>
<text text-anchor="middle" x="269" y="-229.8" font-family="Times,serif" font-size="14.00" fill="#000000">ToastComponent </text>
</g>
<!-- ToastModule&#45;&gt;ToastComponent  -->
<g id="edge3" class="edge">
<title>ToastModule&#45;&gt;ToastComponent </title>
<path fill="none" stroke="#000000" stroke-dasharray="5,2" d="M269,-187.1061C269,-187.1061 269,-205.991 269,-205.991"/>
<polygon fill="#000000" stroke="#000000" points="265.5001,-205.9909 269,-215.991 272.5001,-205.991 265.5001,-205.9909"/>
</g>
<!-- ToastService -->
<g id="node5" class="node">
<title>ToastService</title>
<ellipse fill="#fdb462" stroke="#000000" cx="128" cy="-104" rx="61.3916" ry="18"/>
<text text-anchor="middle" x="128" y="-99.8" font-family="Times,serif" font-size="14.00" fill="#000000">ToastService</text>
</g>
<!-- ToastService&#45;&gt;ToastModule -->
<g id="edge4" class="edge">
<title>ToastService&#45;&gt;ToastModule</title>
<path fill="none" stroke="#000000" d="M128,-122.1061C128,-141.3391 128,-169 128,-169 128,-169 213.6106,-169 213.6106,-169"/>
<polygon fill="#000000" stroke="#000000" points="213.6106,-172.5001 223.6106,-169 213.6106,-165.5001 213.6106,-172.5001"/>
</g>
</g>
</svg>
