<?xml version="1.0" encoding="UTF-8" standalone="no"?>
<!DOCTYPE svg PUBLIC "-//W3C//DTD SVG 1.1//EN"
 "http://www.w3.org/Graphics/SVG/1.1/DTD/svg11.dtd">
<!-- Generated by graphviz version 2.40.1 (20161225.0304)
 -->
<!-- Title: dependencies Pages: 1 -->
<svg width="2626pt" height="284pt"
 viewBox="0.00 0.00 2626.00 284.00" xmlns="http://www.w3.org/2000/svg" xmlns:xlink="http://www.w3.org/1999/xlink">
<g id="graph0" class="graph" transform="scale(1 1) rotate(0) translate(4 280)">
<title>dependencies</title>
<polygon fill="#ffffff" stroke="transparent" points="-4,4 -4,-280 2622,-280 2622,4 -4,4"/>
<text text-anchor="start" x="1288.0091" y="-42.4" font-family="sans-serif" font-weight="bold" font-size="14.00" fill="#000000">Legend</text>
<polygon fill="#ffffb3" stroke="transparent" points="1075,-10 1075,-30 1095,-30 1095,-10 1075,-10"/>
<text text-anchor="start" x="1098.629" y="-15.4" font-family="sans-serif" font-size="14.00" fill="#000000"> &#160;Declarations</text>
<polygon fill="#8dd3c7" stroke="transparent" points="1188,-10 1188,-30 1208,-30 1208,-10 1188,-10"/>
<text text-anchor="start" x="1211.7251" y="-15.4" font-family="sans-serif" font-size="14.00" fill="#000000"> &#160;Module</text>
<polygon fill="#80b1d3" stroke="transparent" points="1274,-10 1274,-30 1294,-30 1294,-10 1274,-10"/>
<text text-anchor="start" x="1297.7812" y="-15.4" font-family="sans-serif" font-size="14.00" fill="#000000"> &#160;Bootstrap</text>
<polygon fill="#fdb462" stroke="transparent" points="1371,-10 1371,-30 1391,-30 1391,-10 1371,-10"/>
<text text-anchor="start" x="1394.6732" y="-15.4" font-family="sans-serif" font-size="14.00" fill="#000000"> &#160;Providers</text>
<polygon fill="#fb8072" stroke="transparent" points="1467,-10 1467,-30 1487,-30 1487,-10 1467,-10"/>
<text text-anchor="start" x="1490.7258" y="-15.4" font-family="sans-serif" font-size="14.00" fill="#000000"> &#160;Exports</text>
<g id="clust1" class="cluster">
<title>cluster_GridModule</title>
<polygon fill="none" stroke="#000000" stroke-dasharray="1,5" points="8,-70 8,-268 2610,-268 2610,-70 8,-70"/>
</g>
<g id="clust2" class="cluster">
<title>cluster_GridModule_declarations</title>
<polygon fill="none" stroke="#000000" points="2357,-78 2357,-130 2602,-130 2602,-78 2357,-78"/>
</g>
<g id="clust5" class="cluster">
<title>cluster_GridModule_imports</title>
<polygon fill="none" stroke="#000000" points="1711,-78 1711,-130 2349,-130 2349,-78 1711,-78"/>
</g>
<g id="clust6" class="cluster">
<title>cluster_GridModule_exports</title>
<polygon fill="none" stroke="#000000" points="1320,-208 1320,-260 1446,-260 1446,-208 1320,-208"/>
</g>
<g id="clust8" class="cluster">
<title>cluster_GridModule_providers</title>
<polygon fill="none" stroke="#000000" points="16,-78 16,-130 1703,-130 1703,-78 16,-78"/>
</g>
<!-- GridComponent -->
<g id="node1" class="node">
<title>GridComponent</title>
<polygon fill="#ffffb3" stroke="#000000" points="2594.4902,-122 2487.5098,-122 2487.5098,-86 2594.4902,-86 2594.4902,-122"/>
<text text-anchor="middle" x="2541" y="-99.8" font-family="Times,serif" font-size="14.00" fill="#000000">GridComponent</text>
</g>
<!-- GridModule -->
<g id="node3" class="node">
<title>GridModule</title>
<polygon fill="#8dd3c7" stroke="#000000" points="1425.7079,-187 1422.7079,-191 1401.7079,-191 1398.7079,-187 1340.2921,-187 1340.2921,-151 1425.7079,-151 1425.7079,-187"/>
<text text-anchor="middle" x="1383" y="-164.8" font-family="Times,serif" font-size="14.00" fill="#000000">GridModule</text>
</g>
<!-- GridComponent&#45;&gt;GridModule -->
<g id="edge1" class="edge">
<title>GridComponent&#45;&gt;GridModule</title>
<path fill="none" stroke="#000000" d="M2541,-122.3228C2541,-145.6602 2541,-183 2541,-183 2541,-183 1435.9337,-183 1435.9337,-183"/>
<polygon fill="#000000" stroke="#000000" points="1435.9337,-179.5001 1425.9337,-183 1435.9337,-186.5001 1435.9337,-179.5001"/>
</g>
<!-- CellComponent -->
<g id="node2" class="node">
<title>CellComponent</title>
<polygon fill="#ffffb3" stroke="#000000" points="2469.1653,-122 2364.8347,-122 2364.8347,-86 2469.1653,-86 2469.1653,-122"/>
<text text-anchor="middle" x="2417" y="-99.8" font-family="Times,serif" font-size="14.00" fill="#000000">CellComponent</text>
</g>
<!-- CellComponent&#45;&gt;GridModule -->
<g id="edge2" class="edge">
<title>CellComponent&#45;&gt;GridModule</title>
<path fill="none" stroke="#000000" d="M2417,-122.1554C2417,-144.3519 2417,-179 2417,-179 2417,-179 1435.7869,-179 1435.7869,-179"/>
<polygon fill="#000000" stroke="#000000" points="1435.787,-175.5001 1425.7869,-179 1435.7869,-182.5001 1435.787,-175.5001"/>
</g>
<!-- GridComponent  -->
<g id="node9" class="node">
<title>GridComponent </title>
<polygon fill="#fb8072" stroke="#000000" points="1438.4913,-252 1327.5087,-252 1327.5087,-216 1438.4913,-216 1438.4913,-252"/>
<text text-anchor="middle" x="1383" y="-229.8" font-family="Times,serif" font-size="14.00" fill="#000000">GridComponent </text>
</g>
<!-- GridModule&#45;&gt;GridComponent  -->
<g id="edge8" class="edge">
<title>GridModule&#45;&gt;GridComponent </title>
<path fill="none" stroke="#000000" stroke-dasharray="5,2" d="M1383,-187.1061C1383,-187.1061 1383,-205.991 1383,-205.991"/>
<polygon fill="#000000" stroke="#000000" points="1379.5001,-205.9909 1383,-215.991 1386.5001,-205.991 1379.5001,-205.9909"/>
</g>
<!-- CommonModule -->
<g id="node4" class="node">
<title>CommonModule</title>
<polygon fill="#8dd3c7" stroke="#000000" points="2340.6681,-122 2337.6681,-126 2316.6681,-126 2313.6681,-122 2229.3319,-122 2229.3319,-86 2340.6681,-86 2340.6681,-122"/>
<text text-anchor="middle" x="2285" y="-99.8" font-family="Times,serif" font-size="14.00" fill="#000000">CommonModule</text>
</g>
<!-- CommonModule&#45;&gt;GridModule -->
<g id="edge3" class="edge">
<title>CommonModule&#45;&gt;GridModule</title>
<path fill="none" stroke="#000000" d="M2285,-122.2843C2285,-143.3211 2285,-175 2285,-175 2285,-175 1435.8985,-175 1435.8985,-175"/>
<polygon fill="#000000" stroke="#000000" points="1435.8986,-171.5001 1425.8985,-175 1435.8985,-178.5001 1435.8986,-171.5001"/>
</g>
<!-- FormsModule -->
<g id="node5" class="node">
<title>FormsModule</title>
<polygon fill="#8dd3c7" stroke="#000000" points="2211.8288,-122 2208.8288,-126 2187.8288,-126 2184.8288,-122 2116.1712,-122 2116.1712,-86 2211.8288,-86 2211.8288,-122"/>
<text text-anchor="middle" x="2164" y="-99.8" font-family="Times,serif" font-size="14.00" fill="#000000">FormsModule</text>
</g>
<!-- FormsModule&#45;&gt;GridModule -->
<g id="edge4" class="edge">
<title>FormsModule&#45;&gt;GridModule</title>
<path fill="none" stroke="#000000" d="M2164,-122.308C2164,-142.1455 2164,-171 2164,-171 2164,-171 1435.8231,-171 1435.8231,-171"/>
<polygon fill="#000000" stroke="#000000" points="1435.8231,-167.5001 1425.8231,-171 1435.8231,-174.5001 1435.8231,-167.5001"/>
</g>
<!-- HttpClientModule -->
<g id="node6" class="node">
<title>HttpClientModule</title>
<polygon fill="#8dd3c7" stroke="#000000" points="2098.1611,-122 2095.1611,-126 2074.1611,-126 2071.1611,-122 1979.8389,-122 1979.8389,-86 2098.1611,-86 2098.1611,-122"/>
<text text-anchor="middle" x="2039" y="-99.8" font-family="Times,serif" font-size="14.00" fill="#000000">HttpClientModule</text>
</g>
<!-- HttpClientModule&#45;&gt;GridModule -->
<g id="edge5" class="edge">
<title>HttpClientModule&#45;&gt;GridModule</title>
<path fill="none" stroke="#000000" d="M2039,-122.2222C2039,-140.8285 2039,-167 2039,-167 2039,-167 1435.7889,-167 1435.7889,-167"/>
<polygon fill="#000000" stroke="#000000" points="1435.789,-163.5001 1425.7889,-167 1435.7889,-170.5001 1435.789,-163.5001"/>
</g>
<!-- HttpModule -->
<g id="node7" class="node">
<title>HttpModule</title>
<polygon fill="#8dd3c7" stroke="#000000" points="1961.4387,-122 1958.4387,-126 1937.4387,-126 1934.4387,-122 1876.5613,-122 1876.5613,-86 1961.4387,-86 1961.4387,-122"/>
<text text-anchor="middle" x="1919" y="-99.8" font-family="Times,serif" font-size="14.00" fill="#000000">HttpModule</text>
</g>
<!-- HttpModule&#45;&gt;GridModule -->
<g id="edge6" class="edge">
<title>HttpModule&#45;&gt;GridModule</title>
<path fill="none" stroke="#000000" d="M1919,-122.0225C1919,-139.3734 1919,-163 1919,-163 1919,-163 1435.9571,-163 1435.9571,-163"/>
<polygon fill="#000000" stroke="#000000" points="1435.9571,-159.5001 1425.9571,-163 1435.957,-166.5001 1435.9571,-159.5001"/>
</g>
<!-- DndModule.forRoot() -->
<g id="node8" class="node">
<title>DndModule.forRoot()</title>
<polygon fill="#8dd3c7" stroke="#000000" points="1859.026,-122 1856.026,-126 1835.026,-126 1832.026,-122 1718.974,-122 1718.974,-86 1859.026,-86 1859.026,-122"/>
<text text-anchor="middle" x="1789" y="-99.8" font-family="Times,serif" font-size="14.00" fill="#000000">DndModule.forRoot()</text>
</g>
<!-- DndModule.forRoot()&#45;&gt;GridModule -->
<g id="edge7" class="edge">
<title>DndModule.forRoot()&#45;&gt;GridModule</title>
<path fill="none" stroke="#000000" d="M1789,-122.0091C1789,-138.0494 1789,-159 1789,-159 1789,-159 1435.6818,-159 1435.6818,-159"/>
<polygon fill="#000000" stroke="#000000" points="1435.6818,-155.5001 1425.6818,-159 1435.6817,-162.5001 1435.6818,-155.5001"/>
</g>
<!-- GadgetInstanceService -->
<g id="node10" class="node">
<title>GadgetInstanceService</title>
<ellipse fill="#fdb462" stroke="#000000" cx="1595" cy="-104" rx="100.0969" ry="18"/>
<text text-anchor="middle" x="1595" y="-99.8" font-family="Times,serif" font-size="14.00" fill="#000000">GadgetInstanceService</text>
</g>
<!-- GadgetInstanceService&#45;&gt;GridModule -->
<g id="edge9" class="edge">
<title>GadgetInstanceService&#45;&gt;GridModule</title>
<path fill="none" stroke="#000000" d="M1595,-122.1243C1595,-136.7832 1595,-155 1595,-155 1595,-155 1435.6463,-155 1435.6463,-155"/>
<polygon fill="#000000" stroke="#000000" points="1435.6464,-151.5001 1425.6463,-155 1435.6463,-158.5001 1435.6464,-151.5001"/>
</g>
<!-- ConfigurationService -->
<g id="node11" class="node">
<title>ConfigurationService</title>
<ellipse fill="#fdb462" stroke="#000000" cx="1383" cy="-104" rx="94.3408" ry="18"/>
<text text-anchor="middle" x="1383" y="-99.8" font-family="Times,serif" font-size="14.00" fill="#000000">ConfigurationService</text>
</g>
<!-- ConfigurationService&#45;&gt;GridModule -->
<g id="edge10" class="edge">
<title>ConfigurationService&#45;&gt;GridModule</title>
<path fill="none" stroke="#000000" d="M1383,-122.1061C1383,-122.1061 1383,-140.991 1383,-140.991"/>
<polygon fill="#000000" stroke="#000000" points="1379.5001,-140.9909 1383,-150.991 1386.5001,-140.991 1379.5001,-140.9909"/>
</g>
<!-- AddGadgetService -->
<g id="node12" class="node">
<title>AddGadgetService</title>
<ellipse fill="#fdb462" stroke="#000000" cx="1186" cy="-104" rx="84.5112" ry="18"/>
<text text-anchor="middle" x="1186" y="-99.8" font-family="Times,serif" font-size="14.00" fill="#000000">AddGadgetService</text>
</g>
<!-- AddGadgetService&#45;&gt;GridModule -->
<g id="edge11" class="edge">
<title>AddGadgetService&#45;&gt;GridModule</title>
<path fill="none" stroke="#000000" d="M1186,-122.1243C1186,-136.7832 1186,-155 1186,-155 1186,-155 1330.2539,-155 1330.2539,-155"/>
<polygon fill="#000000" stroke="#000000" points="1330.254,-158.5001 1340.2539,-155 1330.2539,-151.5001 1330.254,-158.5001"/>
</g>
<!-- NewsService -->
<g id="node13" class="node">
<title>NewsService</title>
<ellipse fill="#fdb462" stroke="#000000" cx="1022" cy="-104" rx="61.9538" ry="18"/>
<text text-anchor="middle" x="1022" y="-99.8" font-family="Times,serif" font-size="14.00" fill="#000000">NewsService</text>
</g>
<!-- NewsService&#45;&gt;GridModule -->
<g id="edge12" class="edge">
<title>NewsService&#45;&gt;GridModule</title>
<path fill="none" stroke="#000000" d="M1022,-122.0091C1022,-138.0494 1022,-159 1022,-159 1022,-159 1330.1709,-159 1330.1709,-159"/>
<polygon fill="#000000" stroke="#000000" points="1330.171,-162.5001 1340.1709,-159 1330.1709,-155.5001 1330.171,-162.5001"/>
</g>
<!-- JobAnalysisService -->
<g id="node14" class="node">
<title>JobAnalysisService</title>
<ellipse fill="#fdb462" stroke="#000000" cx="855" cy="-104" rx="87.3963" ry="18"/>
<text text-anchor="middle" x="855" y="-99.8" font-family="Times,serif" font-size="14.00" fill="#000000">JobAnalysisService</text>
</g>
<!-- JobAnalysisService&#45;&gt;GridModule -->
<g id="edge13" class="edge">
<title>JobAnalysisService&#45;&gt;GridModule</title>
<path fill="none" stroke="#000000" d="M855,-122.0225C855,-139.3734 855,-163 855,-163 855,-163 1330.2388,-163 1330.2388,-163"/>
<polygon fill="#000000" stroke="#000000" points="1330.2388,-166.5001 1340.2388,-163 1330.2388,-159.5001 1330.2388,-166.5001"/>
</g>
<!-- TrendLineService -->
<g id="node15" class="node">
<title>TrendLineService</title>
<ellipse fill="#fdb462" stroke="#000000" cx="669" cy="-104" rx="80.9969" ry="18"/>
<text text-anchor="middle" x="669" y="-99.8" font-family="Times,serif" font-size="14.00" fill="#000000">TrendLineService</text>
</g>
<!-- TrendLineService&#45;&gt;GridModule -->
<g id="edge14" class="edge">
<title>TrendLineService&#45;&gt;GridModule</title>
<path fill="none" stroke="#000000" d="M669,-122.2222C669,-140.8285 669,-167 669,-167 669,-167 1330.2095,-167 1330.2095,-167"/>
<polygon fill="#000000" stroke="#000000" points="1330.2096,-170.5001 1340.2095,-167 1330.2095,-163.5001 1330.2096,-170.5001"/>
</g>
<!-- TrendService -->
<g id="node16" class="node">
<title>TrendService</title>
<ellipse fill="#fdb462" stroke="#000000" cx="507" cy="-104" rx="63.0996" ry="18"/>
<text text-anchor="middle" x="507" y="-99.8" font-family="Times,serif" font-size="14.00" fill="#000000">TrendService</text>
</g>
<!-- TrendService&#45;&gt;GridModule -->
<g id="edge15" class="edge">
<title>TrendService&#45;&gt;GridModule</title>
<path fill="none" stroke="#000000" d="M507,-122.308C507,-142.1455 507,-171 507,-171 507,-171 1330.1557,-171 1330.1557,-171"/>
<polygon fill="#000000" stroke="#000000" points="1330.1557,-174.5001 1340.1557,-171 1330.1557,-167.5001 1330.1557,-174.5001"/>
</g>
<!-- EdgeService -->
<g id="node17" class="node">
<title>EdgeService</title>
<ellipse fill="#fdb462" stroke="#000000" cx="366" cy="-104" rx="59.6704" ry="18"/>
<text text-anchor="middle" x="366" y="-99.8" font-family="Times,serif" font-size="14.00" fill="#000000">EdgeService</text>
</g>
<!-- EdgeService&#45;&gt;GridModule -->
<g id="edge16" class="edge">
<title>EdgeService&#45;&gt;GridModule</title>
<path fill="none" stroke="#000000" d="M366,-122.2843C366,-143.3211 366,-175 366,-175 366,-175 1330.2735,-175 1330.2735,-175"/>
<polygon fill="#000000" stroke="#000000" points="1330.2735,-178.5001 1340.2735,-175 1330.2735,-171.5001 1330.2735,-178.5001"/>
</g>
<!-- CPUService -->
<g id="node18" class="node">
<title>CPUService</title>
<ellipse fill="#fdb462" stroke="#000000" cx="229" cy="-104" rx="58.5444" ry="18"/>
<text text-anchor="middle" x="229" y="-99.8" font-family="Times,serif" font-size="14.00" fill="#000000">CPUService</text>
</g>
<!-- CPUService&#45;&gt;GridModule -->
<g id="edge17" class="edge">
<title>CPUService&#45;&gt;GridModule</title>
<path fill="none" stroke="#000000" d="M229,-122.1554C229,-144.3519 229,-179 229,-179 229,-179 1330.2146,-179 1330.2146,-179"/>
<polygon fill="#000000" stroke="#000000" points="1330.2146,-182.5001 1340.2146,-179 1330.2146,-175.5001 1330.2146,-182.5001"/>
</g>
<!-- DonutService -->
<g id="node19" class="node">
<title>DonutService</title>
<ellipse fill="#fdb462" stroke="#000000" cx="88" cy="-104" rx="64.2649" ry="18"/>
<text text-anchor="middle" x="88" y="-99.8" font-family="Times,serif" font-size="14.00" fill="#000000">DonutService</text>
</g>
<!-- DonutService&#45;&gt;GridModule -->
<g id="edge18" class="edge">
<title>DonutService&#45;&gt;GridModule</title>
<path fill="none" stroke="#000000" d="M88,-122.3228C88,-145.6602 88,-183 88,-183 88,-183 1330.2819,-183 1330.2819,-183"/>
<polygon fill="#000000" stroke="#000000" points="1330.2819,-186.5001 1340.2819,-183 1330.2818,-179.5001 1330.2819,-186.5001"/>
</g>
</g>
</svg>
