<?xml version="1.0" encoding="UTF-8" standalone="no"?>
<!DOCTYPE svg PUBLIC "-//W3C//DTD SVG 1.1//EN"
 "http://www.w3.org/Graphics/SVG/1.1/DTD/svg11.dtd">
<!-- Generated by graphviz version 2.40.1 (20161225.0304)
 -->
<!-- Title: dependencies Pages: 1 -->
<svg width="2480pt" height="284pt"
 viewBox="0.00 0.00 2480.00 284.00" xmlns="http://www.w3.org/2000/svg" xmlns:xlink="http://www.w3.org/1999/xlink">
<g id="graph0" class="graph" transform="scale(1 1) rotate(0) translate(4 280)">
<title>dependencies</title>
<polygon fill="#ffffff" stroke="transparent" points="-4,4 -4,-280 2476,-280 2476,4 -4,4"/>
<text text-anchor="start" x="1215.0091" y="-42.4" font-family="sans-serif" font-weight="bold" font-size="14.00" fill="#000000">Legend</text>
<polygon fill="#ffffb3" stroke="transparent" points="1002,-10 1002,-30 1022,-30 1022,-10 1002,-10"/>
<text text-anchor="start" x="1025.629" y="-15.4" font-family="sans-serif" font-size="14.00" fill="#000000"> &#160;Declarations</text>
<polygon fill="#8dd3c7" stroke="transparent" points="1115,-10 1115,-30 1135,-30 1135,-10 1115,-10"/>
<text text-anchor="start" x="1138.7251" y="-15.4" font-family="sans-serif" font-size="14.00" fill="#000000"> &#160;Module</text>
<polygon fill="#80b1d3" stroke="transparent" points="1201,-10 1201,-30 1221,-30 1221,-10 1201,-10"/>
<text text-anchor="start" x="1224.7812" y="-15.4" font-family="sans-serif" font-size="14.00" fill="#000000"> &#160;Bootstrap</text>
<polygon fill="#fdb462" stroke="transparent" points="1298,-10 1298,-30 1318,-30 1318,-10 1298,-10"/>
<text text-anchor="start" x="1321.6732" y="-15.4" font-family="sans-serif" font-size="14.00" fill="#000000"> &#160;Providers</text>
<polygon fill="#fb8072" stroke="transparent" points="1394,-10 1394,-30 1414,-30 1414,-10 1394,-10"/>
<text text-anchor="start" x="1417.7258" y="-15.4" font-family="sans-serif" font-size="14.00" fill="#000000"> &#160;Exports</text>
<g id="clust1" class="cluster">
<title>cluster_GridModule</title>
<polygon fill="none" stroke="#000000" stroke-dasharray="1,5" points="8,-70 8,-268 2464,-268 2464,-70 8,-70"/>
</g>
<g id="clust2" class="cluster">
<title>cluster_GridModule_declarations</title>
<polygon fill="none" stroke="#000000" points="2211,-78 2211,-130 2456,-130 2456,-78 2211,-78"/>
</g>
<g id="clust5" class="cluster">
<title>cluster_GridModule_imports</title>
<polygon fill="none" stroke="#000000" points="1565,-78 1565,-130 2203,-130 2203,-78 1565,-78"/>
</g>
<g id="clust6" class="cluster">
<title>cluster_GridModule_exports</title>
<polygon fill="none" stroke="#000000" points="1280,-208 1280,-260 1406,-260 1406,-208 1280,-208"/>
</g>
<g id="clust8" class="cluster">
<title>cluster_GridModule_providers</title>
<polygon fill="none" stroke="#000000" points="16,-78 16,-130 1557,-130 1557,-78 16,-78"/>
</g>
<!-- GridComponent -->
<g id="node1" class="node">
<title>GridComponent</title>
<polygon fill="#ffffb3" stroke="#000000" points="2448.4902,-122 2341.5098,-122 2341.5098,-86 2448.4902,-86 2448.4902,-122"/>
<text text-anchor="middle" x="2395" y="-99.8" font-family="Times,serif" font-size="14.00" fill="#000000">GridComponent</text>
</g>
<!-- GridModule -->
<g id="node3" class="node">
<title>GridModule</title>
<polygon fill="#8dd3c7" stroke="#000000" points="1385.7079,-187 1382.7079,-191 1361.7079,-191 1358.7079,-187 1300.2921,-187 1300.2921,-151 1385.7079,-151 1385.7079,-187"/>
<text text-anchor="middle" x="1343" y="-164.8" font-family="Times,serif" font-size="14.00" fill="#000000">GridModule</text>
</g>
<!-- GridComponent&#45;&gt;GridModule -->
<g id="edge1" class="edge">
<title>GridComponent&#45;&gt;GridModule</title>
<path fill="none" stroke="#000000" d="M2395,-122.3228C2395,-145.6602 2395,-183 2395,-183 2395,-183 1395.8712,-183 1395.8712,-183"/>
<polygon fill="#000000" stroke="#000000" points="1395.8712,-179.5001 1385.8712,-183 1395.8711,-186.5001 1395.8712,-179.5001"/>
</g>
<!-- CellComponent -->
<g id="node2" class="node">
<title>CellComponent</title>
<polygon fill="#ffffb3" stroke="#000000" points="2323.1653,-122 2218.8347,-122 2218.8347,-86 2323.1653,-86 2323.1653,-122"/>
<text text-anchor="middle" x="2271" y="-99.8" font-family="Times,serif" font-size="14.00" fill="#000000">CellComponent</text>
</g>
<!-- CellComponent&#45;&gt;GridModule -->
<g id="edge2" class="edge">
<title>CellComponent&#45;&gt;GridModule</title>
<path fill="none" stroke="#000000" d="M2271,-122.2921C2271,-144.2057 2271,-178 2271,-178 2271,-178 1395.8982,-178 1395.8982,-178"/>
<polygon fill="#000000" stroke="#000000" points="1395.8982,-174.5001 1385.8982,-178 1395.8982,-181.5001 1395.8982,-174.5001"/>
</g>
<!-- GridComponent  -->
<g id="node9" class="node">
<title>GridComponent </title>
<polygon fill="#fb8072" stroke="#000000" points="1398.4913,-252 1287.5087,-252 1287.5087,-216 1398.4913,-216 1398.4913,-252"/>
<text text-anchor="middle" x="1343" y="-229.8" font-family="Times,serif" font-size="14.00" fill="#000000">GridComponent </text>
</g>
<!-- GridModule&#45;&gt;GridComponent  -->
<g id="edge8" class="edge">
<title>GridModule&#45;&gt;GridComponent </title>
<path fill="none" stroke="#000000" stroke-dasharray="5,2" d="M1343,-187.1061C1343,-187.1061 1343,-205.991 1343,-205.991"/>
<polygon fill="#000000" stroke="#000000" points="1339.5001,-205.9909 1343,-215.991 1346.5001,-205.991 1339.5001,-205.9909"/>
</g>
<!-- CommonModule -->
<g id="node4" class="node">
<title>CommonModule</title>
<polygon fill="#8dd3c7" stroke="#000000" points="2194.6681,-122 2191.6681,-126 2170.6681,-126 2167.6681,-122 2083.3319,-122 2083.3319,-86 2194.6681,-86 2194.6681,-122"/>
<text text-anchor="middle" x="2139" y="-99.8" font-family="Times,serif" font-size="14.00" fill="#000000">CommonModule</text>
</g>
<!-- CommonModule&#45;&gt;GridModule -->
<g id="edge3" class="edge">
<title>CommonModule&#45;&gt;GridModule</title>
<path fill="none" stroke="#000000" d="M2139,-122.0267C2139,-142.7672 2139,-174 2139,-174 2139,-174 1395.7964,-174 1395.7964,-174"/>
<polygon fill="#000000" stroke="#000000" points="1395.7965,-170.5001 1385.7964,-174 1395.7964,-177.5001 1395.7965,-170.5001"/>
</g>
<!-- FormsModule -->
<g id="node5" class="node">
<title>FormsModule</title>
<polygon fill="#8dd3c7" stroke="#000000" points="2065.8288,-122 2062.8288,-126 2041.8288,-126 2038.8288,-122 1970.1712,-122 1970.1712,-86 2065.8288,-86 2065.8288,-122"/>
<text text-anchor="middle" x="2018" y="-99.8" font-family="Times,serif" font-size="14.00" fill="#000000">FormsModule</text>
</g>
<!-- FormsModule&#45;&gt;GridModule -->
<g id="edge4" class="edge">
<title>FormsModule&#45;&gt;GridModule</title>
<path fill="none" stroke="#000000" d="M2018,-122.1061C2018,-141.3391 2018,-169 2018,-169 2018,-169 1395.7364,-169 1395.7364,-169"/>
<polygon fill="#000000" stroke="#000000" points="1395.7364,-165.5001 1385.7364,-169 1395.7363,-172.5001 1395.7364,-165.5001"/>
</g>
<!-- HttpClientModule -->
<g id="node6" class="node">
<title>HttpClientModule</title>
<polygon fill="#8dd3c7" stroke="#000000" points="1952.1611,-122 1949.1611,-126 1928.1611,-126 1925.1611,-122 1833.8389,-122 1833.8389,-86 1952.1611,-86 1952.1611,-122"/>
<text text-anchor="middle" x="1893" y="-99.8" font-family="Times,serif" font-size="14.00" fill="#000000">HttpClientModule</text>
</g>
<!-- HttpClientModule&#45;&gt;GridModule -->
<g id="edge5" class="edge">
<title>HttpClientModule&#45;&gt;GridModule</title>
<path fill="none" stroke="#000000" d="M1893,-122.302C1893,-140.2699 1893,-165 1893,-165 1893,-165 1395.6999,-165 1395.6999,-165"/>
<polygon fill="#000000" stroke="#000000" points="1395.7,-161.5001 1385.6999,-165 1395.6999,-168.5001 1395.7,-161.5001"/>
</g>
<!-- HttpModule -->
<g id="node7" class="node">
<title>HttpModule</title>
<polygon fill="#8dd3c7" stroke="#000000" points="1815.4387,-122 1812.4387,-126 1791.4387,-126 1788.4387,-122 1730.5613,-122 1730.5613,-86 1815.4387,-86 1815.4387,-122"/>
<text text-anchor="middle" x="1773" y="-99.8" font-family="Times,serif" font-size="14.00" fill="#000000">HttpModule</text>
</g>
<!-- HttpModule&#45;&gt;GridModule -->
<g id="edge6" class="edge">
<title>HttpModule&#45;&gt;GridModule</title>
<path fill="none" stroke="#000000" d="M1773,-122.027C1773,-138.3976 1773,-160 1773,-160 1773,-160 1395.8021,-160 1395.8021,-160"/>
<polygon fill="#000000" stroke="#000000" points="1395.8021,-156.5001 1385.8021,-160 1395.8021,-163.5001 1395.8021,-156.5001"/>
</g>
<!-- DndModule.forRoot() -->
<g id="node8" class="node">
<title>DndModule.forRoot()</title>
<polygon fill="#8dd3c7" stroke="#000000" points="1713.026,-122 1710.026,-126 1689.026,-126 1686.026,-122 1572.974,-122 1572.974,-86 1713.026,-86 1713.026,-122"/>
<text text-anchor="middle" x="1643" y="-99.8" font-family="Times,serif" font-size="14.00" fill="#000000">DndModule.forRoot()</text>
</g>
<!-- DndModule.forRoot()&#45;&gt;GridModule -->
<g id="edge7" class="edge">
<title>DndModule.forRoot()&#45;&gt;GridModule</title>
<path fill="none" stroke="#000000" d="M1643,-122.1871C1643,-137.1824 1643,-156 1643,-156 1643,-156 1395.6641,-156 1395.6641,-156"/>
<polygon fill="#000000" stroke="#000000" points="1395.6641,-152.5001 1385.6641,-156 1395.6641,-159.5001 1395.6641,-152.5001"/>
</g>
<!-- GadgetInstanceService -->
<g id="node10" class="node">
<title>GadgetInstanceService</title>
<ellipse fill="#fdb462" stroke="#000000" cx="1449" cy="-104" rx="100.0969" ry="18"/>
<text text-anchor="middle" x="1449" y="-99.8" font-family="Times,serif" font-size="14.00" fill="#000000">GadgetInstanceService</text>
</g>
<!-- GadgetInstanceService&#45;&gt;GridModule -->
<g id="edge9" class="edge">
<title>GadgetInstanceService&#45;&gt;GridModule</title>
<path fill="none" stroke="#000000" d="M1367.2777,-114.4434C1367.2777,-114.4434 1367.2777,-140.9681 1367.2777,-140.9681"/>
<polygon fill="#000000" stroke="#000000" points="1363.7778,-140.968 1367.2777,-150.9681 1370.7778,-140.9681 1363.7778,-140.968"/>
</g>
<!-- ConfigurationService -->
<g id="node11" class="node">
<title>ConfigurationService</title>
<ellipse fill="#fdb462" stroke="#000000" cx="1237" cy="-104" rx="94.3408" ry="18"/>
<text text-anchor="middle" x="1237" y="-99.8" font-family="Times,serif" font-size="14.00" fill="#000000">ConfigurationService</text>
</g>
<!-- ConfigurationService&#45;&gt;GridModule -->
<g id="edge10" class="edge">
<title>ConfigurationService&#45;&gt;GridModule</title>
<path fill="none" stroke="#000000" d="M1315.7832,-113.8721C1315.7832,-113.8721 1315.7832,-140.9074 1315.7832,-140.9074"/>
<polygon fill="#000000" stroke="#000000" points="1312.2833,-140.9073 1315.7832,-150.9074 1319.2833,-140.9074 1312.2833,-140.9073"/>
</g>
<!-- AddGadgetService -->
<g id="node12" class="node">
<title>AddGadgetService</title>
<ellipse fill="#fdb462" stroke="#000000" cx="1040" cy="-104" rx="84.5112" ry="18"/>
<text text-anchor="middle" x="1040" y="-99.8" font-family="Times,serif" font-size="14.00" fill="#000000">AddGadgetService</text>
</g>
<!-- AddGadgetService&#45;&gt;GridModule -->
<g id="edge11" class="edge">
<title>AddGadgetService&#45;&gt;GridModule</title>
<path fill="none" stroke="#000000" d="M1040,-122.1871C1040,-137.1824 1040,-156 1040,-156 1040,-156 1290.2301,-156 1290.2301,-156"/>
<polygon fill="#000000" stroke="#000000" points="1290.2302,-159.5001 1300.2301,-156 1290.2301,-152.5001 1290.2302,-159.5001"/>
</g>
<!-- NewsService -->
<g id="node13" class="node">
<title>NewsService</title>
<ellipse fill="#fdb462" stroke="#000000" cx="876" cy="-104" rx="61.9538" ry="18"/>
<text text-anchor="middle" x="876" y="-99.8" font-family="Times,serif" font-size="14.00" fill="#000000">NewsService</text>
</g>
<!-- NewsService&#45;&gt;GridModule -->
<g id="edge12" class="edge">
<title>NewsService&#45;&gt;GridModule</title>
<path fill="none" stroke="#000000" d="M876,-122.027C876,-138.3976 876,-160 876,-160 876,-160 1290.3189,-160 1290.3189,-160"/>
<polygon fill="#000000" stroke="#000000" points="1290.3189,-163.5001 1300.3189,-160 1290.3188,-156.5001 1290.3189,-163.5001"/>
</g>
<!-- JobAnalysisService -->
<g id="node14" class="node">
<title>JobAnalysisService</title>
<ellipse fill="#fdb462" stroke="#000000" cx="709" cy="-104" rx="87.3963" ry="18"/>
<text text-anchor="middle" x="709" y="-99.8" font-family="Times,serif" font-size="14.00" fill="#000000">JobAnalysisService</text>
</g>
<!-- JobAnalysisService&#45;&gt;GridModule -->
<g id="edge13" class="edge">
<title>JobAnalysisService&#45;&gt;GridModule</title>
<path fill="none" stroke="#000000" d="M709,-122.302C709,-140.2699 709,-165 709,-165 709,-165 1289.921,-165 1289.921,-165"/>
<polygon fill="#000000" stroke="#000000" points="1289.9211,-168.5001 1299.921,-165 1289.921,-161.5001 1289.9211,-168.5001"/>
</g>
<!-- TrendLineService -->
<g id="node15" class="node">
<title>TrendLineService</title>
<ellipse fill="#fdb462" stroke="#000000" cx="523" cy="-104" rx="80.9969" ry="18"/>
<text text-anchor="middle" x="523" y="-99.8" font-family="Times,serif" font-size="14.00" fill="#000000">TrendLineService</text>
</g>
<!-- TrendLineService&#45;&gt;GridModule -->
<g id="edge14" class="edge">
<title>TrendLineService&#45;&gt;GridModule</title>
<path fill="none" stroke="#000000" d="M523,-122.1061C523,-141.3391 523,-169 523,-169 523,-169 1290.3543,-169 1290.3543,-169"/>
<polygon fill="#000000" stroke="#000000" points="1290.3543,-172.5001 1300.3543,-169 1290.3543,-165.5001 1290.3543,-172.5001"/>
</g>
<!-- TrendService -->
<g id="node16" class="node">
<title>TrendService</title>
<ellipse fill="#fdb462" stroke="#000000" cx="361" cy="-104" rx="63.0996" ry="18"/>
<text text-anchor="middle" x="361" y="-99.8" font-family="Times,serif" font-size="14.00" fill="#000000">TrendService</text>
</g>
<!-- TrendService&#45;&gt;GridModule -->
<g id="edge15" class="edge">
<title>TrendService&#45;&gt;GridModule</title>
<path fill="none" stroke="#000000" d="M361,-122.0267C361,-142.7672 361,-174 361,-174 361,-174 1290.1732,-174 1290.1732,-174"/>
<polygon fill="#000000" stroke="#000000" points="1290.1733,-177.5001 1300.1732,-174 1290.1732,-170.5001 1290.1733,-177.5001"/>
</g>
<!-- EdgeService -->
<g id="node17" class="node">
<title>EdgeService</title>
<ellipse fill="#fdb462" stroke="#000000" cx="220" cy="-104" rx="59.6704" ry="18"/>
<text text-anchor="middle" x="220" y="-99.8" font-family="Times,serif" font-size="14.00" fill="#000000">EdgeService</text>
</g>
<!-- EdgeService&#45;&gt;GridModule -->
<g id="edge16" class="edge">
<title>EdgeService&#45;&gt;GridModule</title>
<path fill="none" stroke="#000000" d="M220,-122.2921C220,-144.2057 220,-178 220,-178 220,-178 1290.3484,-178 1290.3484,-178"/>
<polygon fill="#000000" stroke="#000000" points="1290.3484,-181.5001 1300.3484,-178 1290.3483,-174.5001 1290.3484,-181.5001"/>
</g>
<!-- CPUService -->
<g id="node18" class="node">
<title>CPUService</title>
<ellipse fill="#fdb462" stroke="#000000" cx="83" cy="-104" rx="58.5444" ry="18"/>
<text text-anchor="middle" x="83" y="-99.8" font-family="Times,serif" font-size="14.00" fill="#000000">CPUService</text>
</g>
<!-- CPUService&#45;&gt;GridModule -->
<g id="edge17" class="edge">
<title>CPUService&#45;&gt;GridModule</title>
<path fill="none" stroke="#000000" d="M83,-122.3228C83,-145.6602 83,-183 83,-183 83,-183 1290.3556,-183 1290.3556,-183"/>
<polygon fill="#000000" stroke="#000000" points="1290.3556,-186.5001 1300.3556,-183 1290.3555,-179.5001 1290.3556,-186.5001"/>
</g>
</g>
</svg>
