<?xml version="1.0" encoding="UTF-8" standalone="no"?>
<!DOCTYPE svg PUBLIC "-//W3C//DTD SVG 1.1//EN"
 "http://www.w3.org/Graphics/SVG/1.1/DTD/svg11.dtd">
<!-- Generated by graphviz version 2.40.1 (20161225.0304)
 -->
<!-- Title: dependencies Pages: 1 -->
<svg width="2495pt" height="284pt"
 viewBox="0.00 0.00 2495.00 284.00" xmlns="http://www.w3.org/2000/svg" xmlns:xlink="http://www.w3.org/1999/xlink">
<g id="graph0" class="graph" transform="scale(1 1) rotate(0) translate(4 280)">
<title>dependencies</title>
<polygon fill="#ffffff" stroke="transparent" points="-4,4 -4,-280 2491,-280 2491,4 -4,4"/>
<text text-anchor="start" x="1222.5091" y="-42.4" font-family="sans-serif" font-weight="bold" font-size="14.00" fill="#000000">Legend</text>
<polygon fill="#ffffb3" stroke="transparent" points="1009.5,-10 1009.5,-30 1029.5,-30 1029.5,-10 1009.5,-10"/>
<text text-anchor="start" x="1033.129" y="-15.4" font-family="sans-serif" font-size="14.00" fill="#000000"> &#160;Declarations</text>
<polygon fill="#8dd3c7" stroke="transparent" points="1122.5,-10 1122.5,-30 1142.5,-30 1142.5,-10 1122.5,-10"/>
<text text-anchor="start" x="1146.2251" y="-15.4" font-family="sans-serif" font-size="14.00" fill="#000000"> &#160;Module</text>
<polygon fill="#80b1d3" stroke="transparent" points="1208.5,-10 1208.5,-30 1228.5,-30 1228.5,-10 1208.5,-10"/>
<text text-anchor="start" x="1232.2812" y="-15.4" font-family="sans-serif" font-size="14.00" fill="#000000"> &#160;Bootstrap</text>
<polygon fill="#fdb462" stroke="transparent" points="1305.5,-10 1305.5,-30 1325.5,-30 1325.5,-10 1305.5,-10"/>
<text text-anchor="start" x="1329.1732" y="-15.4" font-family="sans-serif" font-size="14.00" fill="#000000"> &#160;Providers</text>
<polygon fill="#fb8072" stroke="transparent" points="1401.5,-10 1401.5,-30 1421.5,-30 1421.5,-10 1401.5,-10"/>
<text text-anchor="start" x="1425.2258" y="-15.4" font-family="sans-serif" font-size="14.00" fill="#000000"> &#160;Exports</text>
<g id="clust1" class="cluster">
<title>cluster_GridModule</title>
<polygon fill="none" stroke="#000000" stroke-dasharray="1,5" points="8,-70 8,-268 2479,-268 2479,-70 8,-70"/>
</g>
<g id="clust2" class="cluster">
<title>cluster_GridModule_declarations</title>
<polygon fill="none" stroke="#000000" points="2226,-78 2226,-130 2471,-130 2471,-78 2226,-78"/>
</g>
<g id="clust5" class="cluster">
<title>cluster_GridModule_imports</title>
<polygon fill="none" stroke="#000000" points="1717,-78 1717,-130 2218,-130 2218,-78 1717,-78"/>
</g>
<g id="clust6" class="cluster">
<title>cluster_GridModule_exports</title>
<polygon fill="none" stroke="#000000" points="1227,-208 1227,-260 1353,-260 1353,-208 1227,-208"/>
</g>
<g id="clust8" class="cluster">
<title>cluster_GridModule_providers</title>
<polygon fill="none" stroke="#000000" points="16,-78 16,-130 1709,-130 1709,-78 16,-78"/>
</g>
<!-- GridComponent -->
<g id="node1" class="node">
<title>GridComponent</title>
<polygon fill="#ffffb3" stroke="#000000" points="2463.4902,-122 2356.5098,-122 2356.5098,-86 2463.4902,-86 2463.4902,-122"/>
<text text-anchor="middle" x="2410" y="-99.8" font-family="Times,serif" font-size="14.00" fill="#000000">GridComponent</text>
</g>
<!-- GridModule -->
<g id="node3" class="node">
<title>GridModule</title>
<polygon fill="#8dd3c7" stroke="#000000" points="1332.7079,-187 1329.7079,-191 1308.7079,-191 1305.7079,-187 1247.2921,-187 1247.2921,-151 1332.7079,-151 1332.7079,-187"/>
<text text-anchor="middle" x="1290" y="-164.8" font-family="Times,serif" font-size="14.00" fill="#000000">GridModule</text>
</g>
<!-- GridComponent&#45;&gt;GridModule -->
<g id="edge1" class="edge">
<title>GridComponent&#45;&gt;GridModule</title>
<path fill="none" stroke="#000000" d="M2410,-122.3228C2410,-145.6602 2410,-183 2410,-183 2410,-183 1342.8778,-183 1342.8778,-183"/>
<polygon fill="#000000" stroke="#000000" points="1342.8778,-179.5001 1332.8778,-183 1342.8777,-186.5001 1342.8778,-179.5001"/>
</g>
<!-- CellComponent -->
<g id="node2" class="node">
<title>CellComponent</title>
<polygon fill="#ffffb3" stroke="#000000" points="2338.1653,-122 2233.8347,-122 2233.8347,-86 2338.1653,-86 2338.1653,-122"/>
<text text-anchor="middle" x="2286" y="-99.8" font-family="Times,serif" font-size="14.00" fill="#000000">CellComponent</text>
</g>
<!-- CellComponent&#45;&gt;GridModule -->
<g id="edge2" class="edge">
<title>CellComponent&#45;&gt;GridModule</title>
<path fill="none" stroke="#000000" d="M2286,-122.2921C2286,-144.2057 2286,-178 2286,-178 2286,-178 1342.7969,-178 1342.7969,-178"/>
<polygon fill="#000000" stroke="#000000" points="1342.7969,-174.5001 1332.7969,-178 1342.7968,-181.5001 1342.7969,-174.5001"/>
</g>
<!-- GridComponent  -->
<g id="node8" class="node">
<title>GridComponent </title>
<polygon fill="#fb8072" stroke="#000000" points="1345.4913,-252 1234.5087,-252 1234.5087,-216 1345.4913,-216 1345.4913,-252"/>
<text text-anchor="middle" x="1290" y="-229.8" font-family="Times,serif" font-size="14.00" fill="#000000">GridComponent </text>
</g>
<!-- GridModule&#45;&gt;GridComponent  -->
<g id="edge7" class="edge">
<title>GridModule&#45;&gt;GridComponent </title>
<path fill="none" stroke="#000000" stroke-dasharray="5,2" d="M1290,-187.1061C1290,-187.1061 1290,-205.991 1290,-205.991"/>
<polygon fill="#000000" stroke="#000000" points="1286.5001,-205.9909 1290,-215.991 1293.5001,-205.991 1286.5001,-205.9909"/>
</g>
<!-- CommonModule -->
<g id="node4" class="node">
<title>CommonModule</title>
<polygon fill="#8dd3c7" stroke="#000000" points="2209.6681,-122 2206.6681,-126 2185.6681,-126 2182.6681,-122 2098.3319,-122 2098.3319,-86 2209.6681,-86 2209.6681,-122"/>
<text text-anchor="middle" x="2154" y="-99.8" font-family="Times,serif" font-size="14.00" fill="#000000">CommonModule</text>
</g>
<!-- CommonModule&#45;&gt;GridModule -->
<g id="edge3" class="edge">
<title>CommonModule&#45;&gt;GridModule</title>
<path fill="none" stroke="#000000" d="M2154,-122.0267C2154,-142.7672 2154,-174 2154,-174 2154,-174 1342.8459,-174 1342.8459,-174"/>
<polygon fill="#000000" stroke="#000000" points="1342.8459,-170.5001 1332.8459,-174 1342.8459,-177.5001 1342.8459,-170.5001"/>
</g>
<!-- FormsModule -->
<g id="node5" class="node">
<title>FormsModule</title>
<polygon fill="#8dd3c7" stroke="#000000" points="2080.8288,-122 2077.8288,-126 2056.8288,-126 2053.8288,-122 1985.1712,-122 1985.1712,-86 2080.8288,-86 2080.8288,-122"/>
<text text-anchor="middle" x="2033" y="-99.8" font-family="Times,serif" font-size="14.00" fill="#000000">FormsModule</text>
</g>
<!-- FormsModule&#45;&gt;GridModule -->
<g id="edge4" class="edge">
<title>FormsModule&#45;&gt;GridModule</title>
<path fill="none" stroke="#000000" d="M2033,-122.1061C2033,-141.3391 2033,-169 2033,-169 2033,-169 1342.6155,-169 1342.6155,-169"/>
<polygon fill="#000000" stroke="#000000" points="1342.6156,-165.5001 1332.6155,-169 1342.6155,-172.5001 1342.6156,-165.5001"/>
</g>
<!-- HttpModule -->
<g id="node6" class="node">
<title>HttpModule</title>
<polygon fill="#8dd3c7" stroke="#000000" points="1967.4387,-122 1964.4387,-126 1943.4387,-126 1940.4387,-122 1882.5613,-122 1882.5613,-86 1967.4387,-86 1967.4387,-122"/>
<text text-anchor="middle" x="1925" y="-99.8" font-family="Times,serif" font-size="14.00" fill="#000000">HttpModule</text>
</g>
<!-- HttpModule&#45;&gt;GridModule -->
<g id="edge5" class="edge">
<title>HttpModule&#45;&gt;GridModule</title>
<path fill="none" stroke="#000000" d="M1925,-122.302C1925,-140.2699 1925,-165 1925,-165 1925,-165 1342.6502,-165 1342.6502,-165"/>
<polygon fill="#000000" stroke="#000000" points="1342.6502,-161.5001 1332.6502,-165 1342.6501,-168.5001 1342.6502,-161.5001"/>
</g>
<!-- DndModule.forRoot() -->
<g id="node7" class="node">
<title>DndModule.forRoot()</title>
<polygon fill="#8dd3c7" stroke="#000000" points="1865.026,-122 1862.026,-126 1841.026,-126 1838.026,-122 1724.974,-122 1724.974,-86 1865.026,-86 1865.026,-122"/>
<text text-anchor="middle" x="1795" y="-99.8" font-family="Times,serif" font-size="14.00" fill="#000000">DndModule.forRoot()</text>
</g>
<!-- DndModule.forRoot()&#45;&gt;GridModule -->
<g id="edge6" class="edge">
<title>DndModule.forRoot()&#45;&gt;GridModule</title>
<path fill="none" stroke="#000000" d="M1795,-122.027C1795,-138.3976 1795,-160 1795,-160 1795,-160 1342.6208,-160 1342.6208,-160"/>
<polygon fill="#000000" stroke="#000000" points="1342.6208,-156.5001 1332.6208,-160 1342.6208,-163.5001 1342.6208,-156.5001"/>
</g>
<!-- GadgetInstanceService -->
<g id="node9" class="node">
<title>GadgetInstanceService</title>
<ellipse fill="#fdb462" stroke="#000000" cx="1601" cy="-104" rx="100.0969" ry="18"/>
<text text-anchor="middle" x="1601" y="-99.8" font-family="Times,serif" font-size="14.00" fill="#000000">GadgetInstanceService</text>
</g>
<!-- GadgetInstanceService&#45;&gt;GridModule -->
<g id="edge8" class="edge">
<title>GadgetInstanceService&#45;&gt;GridModule</title>
<path fill="none" stroke="#000000" d="M1601,-122.1871C1601,-137.1824 1601,-156 1601,-156 1601,-156 1342.9167,-156 1342.9167,-156"/>
<polygon fill="#000000" stroke="#000000" points="1342.9167,-152.5001 1332.9167,-156 1342.9167,-159.5001 1342.9167,-152.5001"/>
</g>
<!-- ConfigurationService -->
<g id="node10" class="node">
<title>ConfigurationService</title>
<ellipse fill="#fdb462" stroke="#000000" cx="1389" cy="-104" rx="94.3408" ry="18"/>
<text text-anchor="middle" x="1389" y="-99.8" font-family="Times,serif" font-size="14.00" fill="#000000">ConfigurationService</text>
</g>
<!-- ConfigurationService&#45;&gt;GridModule -->
<g id="edge9" class="edge">
<title>ConfigurationService&#45;&gt;GridModule</title>
<path fill="none" stroke="#000000" d="M1313.7168,-115.0264C1313.7168,-115.0264 1313.7168,-140.7791 1313.7168,-140.7791"/>
<polygon fill="#000000" stroke="#000000" points="1310.2169,-140.779 1313.7168,-150.7791 1317.2169,-140.7791 1310.2169,-140.779"/>
</g>
<!-- AddGadgetService -->
<g id="node11" class="node">
<title>AddGadgetService</title>
<ellipse fill="#fdb462" stroke="#000000" cx="1192" cy="-104" rx="84.5112" ry="18"/>
<text text-anchor="middle" x="1192" y="-99.8" font-family="Times,serif" font-size="14.00" fill="#000000">AddGadgetService</text>
</g>
<!-- AddGadgetService&#45;&gt;GridModule -->
<g id="edge10" class="edge">
<title>AddGadgetService&#45;&gt;GridModule</title>
<path fill="none" stroke="#000000" d="M1261.9509,-114.1563C1261.9509,-114.1563 1261.9509,-140.8074 1261.9509,-140.8074"/>
<polygon fill="#000000" stroke="#000000" points="1258.451,-140.8074 1261.9509,-150.8074 1265.451,-140.8075 1258.451,-140.8074"/>
</g>
<!-- NewsService -->
<g id="node12" class="node">
<title>NewsService</title>
<ellipse fill="#fdb462" stroke="#000000" cx="1028" cy="-104" rx="61.9538" ry="18"/>
<text text-anchor="middle" x="1028" y="-99.8" font-family="Times,serif" font-size="14.00" fill="#000000">NewsService</text>
</g>
<!-- NewsService&#45;&gt;GridModule -->
<g id="edge11" class="edge">
<title>NewsService&#45;&gt;GridModule</title>
<path fill="none" stroke="#000000" d="M1028,-122.1871C1028,-137.1824 1028,-156 1028,-156 1028,-156 1237.3221,-156 1237.3221,-156"/>
<polygon fill="#000000" stroke="#000000" points="1237.3221,-159.5001 1247.3221,-156 1237.322,-152.5001 1237.3221,-159.5001"/>
</g>
<!-- JobAnalysisService -->
<g id="node13" class="node">
<title>JobAnalysisService</title>
<ellipse fill="#fdb462" stroke="#000000" cx="861" cy="-104" rx="87.3963" ry="18"/>
<text text-anchor="middle" x="861" y="-99.8" font-family="Times,serif" font-size="14.00" fill="#000000">JobAnalysisService</text>
</g>
<!-- JobAnalysisService&#45;&gt;GridModule -->
<g id="edge12" class="edge">
<title>JobAnalysisService&#45;&gt;GridModule</title>
<path fill="none" stroke="#000000" d="M861,-122.027C861,-138.3976 861,-160 861,-160 861,-160 1237.2974,-160 1237.2974,-160"/>
<polygon fill="#000000" stroke="#000000" points="1237.2975,-163.5001 1247.2974,-160 1237.2974,-156.5001 1237.2975,-163.5001"/>
</g>
<!-- TrendLineService -->
<g id="node14" class="node">
<title>TrendLineService</title>
<ellipse fill="#fdb462" stroke="#000000" cx="675" cy="-104" rx="80.9969" ry="18"/>
<text text-anchor="middle" x="675" y="-99.8" font-family="Times,serif" font-size="14.00" fill="#000000">TrendLineService</text>
</g>
<!-- TrendLineService&#45;&gt;GridModule -->
<g id="edge13" class="edge">
<title>TrendLineService&#45;&gt;GridModule</title>
<path fill="none" stroke="#000000" d="M675,-122.302C675,-140.2699 675,-165 675,-165 675,-165 1237.2427,-165 1237.2427,-165"/>
<polygon fill="#000000" stroke="#000000" points="1237.2427,-168.5001 1247.2427,-165 1237.2426,-161.5001 1237.2427,-168.5001"/>
</g>
<!-- TrendService -->
<g id="node15" class="node">
<title>TrendService</title>
<ellipse fill="#fdb462" stroke="#000000" cx="513" cy="-104" rx="63.0996" ry="18"/>
<text text-anchor="middle" x="513" y="-99.8" font-family="Times,serif" font-size="14.00" fill="#000000">TrendService</text>
</g>
<!-- TrendService&#45;&gt;GridModule -->
<g id="edge14" class="edge">
<title>TrendService&#45;&gt;GridModule</title>
<path fill="none" stroke="#000000" d="M513,-122.1061C513,-141.3391 513,-169 513,-169 513,-169 1237.1183,-169 1237.1183,-169"/>
<polygon fill="#000000" stroke="#000000" points="1237.1184,-172.5001 1247.1183,-169 1237.1183,-165.5001 1237.1184,-172.5001"/>
</g>
<!-- EdgeService -->
<g id="node16" class="node">
<title>EdgeService</title>
<ellipse fill="#fdb462" stroke="#000000" cx="372" cy="-104" rx="59.6704" ry="18"/>
<text text-anchor="middle" x="372" y="-99.8" font-family="Times,serif" font-size="14.00" fill="#000000">EdgeService</text>
</g>
<!-- EdgeService&#45;&gt;GridModule -->
<g id="edge15" class="edge">
<title>EdgeService&#45;&gt;GridModule</title>
<path fill="none" stroke="#000000" d="M372,-122.0267C372,-142.7672 372,-174 372,-174 372,-174 1237.2596,-174 1237.2596,-174"/>
<polygon fill="#000000" stroke="#000000" points="1237.2597,-177.5001 1247.2596,-174 1237.2596,-170.5001 1237.2597,-177.5001"/>
</g>
<!-- CPUMService -->
<g id="node17" class="node">
<title>CPUMService</title>
<ellipse fill="#fdb462" stroke="#000000" cx="227" cy="-104" rx="67.2119" ry="18"/>
<text text-anchor="middle" x="227" y="-99.8" font-family="Times,serif" font-size="14.00" fill="#000000">CPUMService</text>
</g>
<!-- CPUMService&#45;&gt;GridModule -->
<g id="edge16" class="edge">
<title>CPUMService&#45;&gt;GridModule</title>
<path fill="none" stroke="#000000" d="M227,-122.2921C227,-144.2057 227,-178 227,-178 227,-178 1237.3434,-178 1237.3434,-178"/>
<polygon fill="#000000" stroke="#000000" points="1237.3435,-181.5001 1247.3434,-178 1237.3434,-174.5001 1237.3435,-181.5001"/>
</g>
<!-- CPUService -->
<g id="node18" class="node">
<title>CPUService</title>
<ellipse fill="#fdb462" stroke="#000000" cx="83" cy="-104" rx="58.5444" ry="18"/>
<text text-anchor="middle" x="83" y="-99.8" font-family="Times,serif" font-size="14.00" fill="#000000">CPUService</text>
</g>
<!-- CPUService&#45;&gt;GridModule -->
<g id="edge17" class="edge">
<title>CPUService&#45;&gt;GridModule</title>
<path fill="none" stroke="#000000" d="M83,-122.3228C83,-145.6602 83,-183 83,-183 83,-183 1237.0422,-183 1237.0422,-183"/>
<polygon fill="#000000" stroke="#000000" points="1237.0423,-186.5001 1247.0422,-183 1237.0422,-179.5001 1237.0423,-186.5001"/>
</g>
</g>
</svg>
