<?xml version="1.0" encoding="UTF-8" standalone="no"?>
<!DOCTYPE svg PUBLIC "-//W3C//DTD SVG 1.1//EN"
 "http://www.w3.org/Graphics/SVG/1.1/DTD/svg11.dtd">
<!-- Generated by graphviz version 2.40.1 (20161225.0304)
 -->
<!-- Title: dependencies Pages: 1 -->
<svg width="1519pt" height="284pt"
 viewBox="0.00 0.00 1519.00 284.00" xmlns="http://www.w3.org/2000/svg" xmlns:xlink="http://www.w3.org/1999/xlink">
<g id="graph0" class="graph" transform="scale(1 1) rotate(0) translate(4 280)">
<title>dependencies</title>
<polygon fill="#ffffff" stroke="transparent" points="-4,4 -4,-280 1515,-280 1515,4 -4,4"/>
<text text-anchor="start" x="734.5091" y="-42.4" font-family="sans-serif" font-weight="bold" font-size="14.00" fill="#000000">Legend</text>
<polygon fill="#ffffb3" stroke="transparent" points="521.5,-10 521.5,-30 541.5,-30 541.5,-10 521.5,-10"/>
<text text-anchor="start" x="545.129" y="-15.4" font-family="sans-serif" font-size="14.00" fill="#000000"> &#160;Declarations</text>
<polygon fill="#8dd3c7" stroke="transparent" points="634.5,-10 634.5,-30 654.5,-30 654.5,-10 634.5,-10"/>
<text text-anchor="start" x="658.2251" y="-15.4" font-family="sans-serif" font-size="14.00" fill="#000000"> &#160;Module</text>
<polygon fill="#80b1d3" stroke="transparent" points="720.5,-10 720.5,-30 740.5,-30 740.5,-10 720.5,-10"/>
<text text-anchor="start" x="744.2812" y="-15.4" font-family="sans-serif" font-size="14.00" fill="#000000"> &#160;Bootstrap</text>
<polygon fill="#fdb462" stroke="transparent" points="817.5,-10 817.5,-30 837.5,-30 837.5,-10 817.5,-10"/>
<text text-anchor="start" x="841.1732" y="-15.4" font-family="sans-serif" font-size="14.00" fill="#000000"> &#160;Providers</text>
<polygon fill="#fb8072" stroke="transparent" points="913.5,-10 913.5,-30 933.5,-30 933.5,-10 913.5,-10"/>
<text text-anchor="start" x="937.2258" y="-15.4" font-family="sans-serif" font-size="14.00" fill="#000000"> &#160;Exports</text>
<g id="clust1" class="cluster">
<title>cluster_FacetModule</title>
<polygon fill="none" stroke="#000000" stroke-dasharray="1,5" points="8,-70 8,-268 1503,-268 1503,-70 8,-70"/>
</g>
<g id="clust2" class="cluster">
<title>cluster_FacetModule_declarations</title>
<polygon fill="none" stroke="#000000" points="613,-78 613,-130 1495,-130 1495,-78 613,-78"/>
</g>
<g id="clust9" class="cluster">
<title>cluster_FacetModule_imports</title>
<polygon fill="none" stroke="#000000" points="210,-78 210,-130 605,-130 605,-78 210,-78"/>
</g>
<g id="clust10" class="cluster">
<title>cluster_FacetModule_exports</title>
<polygon fill="none" stroke="#000000" points="296,-208 296,-260 1200,-260 1200,-208 296,-208"/>
</g>
<g id="clust12" class="cluster">
<title>cluster_FacetModule_providers</title>
<polygon fill="none" stroke="#000000" points="16,-78 16,-130 202,-130 202,-78 16,-78"/>
</g>
<!-- FacetComponent -->
<g id="node1" class="node">
<title>FacetComponent</title>
<polygon fill="#ffffb3" stroke="#000000" points="1486.6499,-122 1375.3501,-122 1375.3501,-86 1486.6499,-86 1486.6499,-122"/>
<text text-anchor="middle" x="1431" y="-99.8" font-family="Times,serif" font-size="14.00" fill="#000000">FacetComponent</text>
</g>
<!-- FacetModule -->
<g id="node7" class="node">
<title>FacetModule</title>
<polygon fill="#8dd3c7" stroke="#000000" points="805.8669,-187 802.8669,-191 781.8669,-191 778.8669,-187 716.1331,-187 716.1331,-151 805.8669,-151 805.8669,-187"/>
<text text-anchor="middle" x="761" y="-164.8" font-family="Times,serif" font-size="14.00" fill="#000000">FacetModule</text>
</g>
<!-- FacetComponent&#45;&gt;FacetModule -->
<g id="edge1" class="edge">
<title>FacetComponent&#45;&gt;FacetModule</title>
<path fill="none" stroke="#000000" d="M1431,-122.2228C1431,-142.3652 1431,-172 1431,-172 1431,-172 816.001,-172 816.001,-172"/>
<polygon fill="#000000" stroke="#000000" points="816.001,-168.5001 806.001,-172 816.0009,-175.5001 816.001,-168.5001"/>
</g>
<!-- FilterListComponent -->
<g id="node2" class="node">
<title>FilterListComponent</title>
<polygon fill="#ffffb3" stroke="#000000" points="1356.9411,-122 1223.0589,-122 1223.0589,-86 1356.9411,-86 1356.9411,-122"/>
<text text-anchor="middle" x="1290" y="-99.8" font-family="Times,serif" font-size="14.00" fill="#000000">FilterListComponent</text>
</g>
<!-- FilterListComponent&#45;&gt;FacetModule -->
<g id="edge2" class="edge">
<title>FilterListComponent&#45;&gt;FacetModule</title>
<path fill="none" stroke="#000000" d="M1290,-122.2222C1290,-140.8285 1290,-167 1290,-167 1290,-167 816.1022,-167 816.1022,-167"/>
<polygon fill="#000000" stroke="#000000" points="816.1023,-163.5001 806.1022,-167 816.1022,-170.5001 816.1023,-163.5001"/>
</g>
<!-- FilterTagComponent -->
<g id="node3" class="node">
<title>FilterTagComponent</title>
<polygon fill="#ffffb3" stroke="#000000" points="1205.9299,-122 1072.0701,-122 1072.0701,-86 1205.9299,-86 1205.9299,-122"/>
<text text-anchor="middle" x="1139" y="-99.8" font-family="Times,serif" font-size="14.00" fill="#000000">FilterTagComponent</text>
</g>
<!-- FilterTagComponent&#45;&gt;FacetModule -->
<g id="edge3" class="edge">
<title>FilterTagComponent&#45;&gt;FacetModule</title>
<path fill="none" stroke="#000000" d="M1114.8084,-122.0336C1114.8084,-139.0597 1114.8084,-162 1114.8084,-162 1114.8084,-162 816.1695,-162 816.1695,-162"/>
<polygon fill="#000000" stroke="#000000" points="816.1695,-158.5001 806.1695,-162 816.1694,-165.5001 816.1695,-158.5001"/>
</g>
<!-- SearchComponent -->
<g id="node4" class="node">
<title>SearchComponent</title>
<polygon fill="#ffffb3" stroke="#000000" points="1054.9201,-122 935.0799,-122 935.0799,-86 1054.9201,-86 1054.9201,-122"/>
<text text-anchor="middle" x="995" y="-99.8" font-family="Times,serif" font-size="14.00" fill="#000000">SearchComponent</text>
</g>
<!-- SearchComponent&#45;&gt;FacetModule -->
<g id="edge4" class="edge">
<title>SearchComponent&#45;&gt;FacetModule</title>
<path fill="none" stroke="#000000" d="M995,-122.2396C995,-137.5706 995,-157 995,-157 995,-157 816.1176,-157 816.1176,-157"/>
<polygon fill="#000000" stroke="#000000" points="816.1176,-153.5001 806.1176,-157 816.1175,-160.5001 816.1176,-153.5001"/>
</g>
<!-- SearchResultComponent -->
<g id="node5" class="node">
<title>SearchResultComponent</title>
<polygon fill="#ffffb3" stroke="#000000" points="917.6965,-122 762.3035,-122 762.3035,-86 917.6965,-86 917.6965,-122"/>
<text text-anchor="middle" x="840" y="-99.8" font-family="Times,serif" font-size="14.00" fill="#000000">SearchResultComponent</text>
</g>
<!-- SearchResultComponent&#45;&gt;FacetModule -->
<g id="edge5" class="edge">
<title>SearchResultComponent&#45;&gt;FacetModule</title>
<path fill="none" stroke="#000000" d="M784.1676,-122.1061C784.1676,-122.1061 784.1676,-140.991 784.1676,-140.991"/>
<polygon fill="#000000" stroke="#000000" points="780.6677,-140.9909 784.1676,-150.991 787.6677,-140.991 780.6677,-140.9909"/>
</g>
<!-- CapitalizeFirstPipe -->
<g id="node6" class="node">
<title>CapitalizeFirstPipe</title>
<polygon fill="#ffffb3" stroke="#000000" points="744.8146,-122 621.1854,-122 621.1854,-86 744.8146,-86 744.8146,-122"/>
<text text-anchor="middle" x="683" y="-99.8" font-family="Times,serif" font-size="14.00" fill="#000000">CapitalizeFirstPipe</text>
</g>
<!-- CapitalizeFirstPipe&#45;&gt;FacetModule -->
<g id="edge6" class="edge">
<title>CapitalizeFirstPipe&#45;&gt;FacetModule</title>
<path fill="none" stroke="#000000" d="M730.3619,-122.1061C730.3619,-122.1061 730.3619,-140.991 730.3619,-140.991"/>
<polygon fill="#000000" stroke="#000000" points="726.8619,-140.9909 730.3619,-150.991 733.8619,-140.991 726.8619,-140.9909"/>
</g>
<!-- FacetComponent  -->
<g id="node11" class="node">
<title>FacetComponent </title>
<polygon fill="#fb8072" stroke="#000000" points="1191.6495,-252 1076.3505,-252 1076.3505,-216 1191.6495,-216 1191.6495,-252"/>
<text text-anchor="middle" x="1134" y="-229.8" font-family="Times,serif" font-size="14.00" fill="#000000">FacetComponent </text>
</g>
<!-- FacetModule&#45;&gt;FacetComponent  -->
<g id="edge10" class="edge">
<title>FacetModule&#45;&gt;FacetComponent </title>
<path fill="none" stroke="#000000" stroke-dasharray="5,2" d="M805.9894,-177C909.0054,-177 1153.1916,-177 1153.1916,-177 1153.1916,-177 1153.1916,-205.9648 1153.1916,-205.9648"/>
<polygon fill="#000000" stroke="#000000" points="1149.6917,-205.9648 1153.1916,-215.9648 1156.6917,-205.9649 1149.6917,-205.9648"/>
</g>
<!-- FilterListComponent  -->
<g id="node12" class="node">
<title>FilterListComponent </title>
<polygon fill="#fb8072" stroke="#000000" points="1058.4404,-252 921.5596,-252 921.5596,-216 1058.4404,-216 1058.4404,-252"/>
<text text-anchor="middle" x="990" y="-229.8" font-family="Times,serif" font-size="14.00" fill="#000000">FilterListComponent </text>
</g>
<!-- FacetModule&#45;&gt;FilterListComponent  -->
<g id="edge11" class="edge">
<title>FacetModule&#45;&gt;FilterListComponent </title>
<path fill="none" stroke="#000000" stroke-dasharray="5,2" d="M806.3036,-182C855.8828,-182 928.4101,-182 928.4101,-182 928.4101,-182 928.4101,-205.8129 928.4101,-205.8129"/>
<polygon fill="#000000" stroke="#000000" points="924.9101,-205.8129 928.4101,-215.8129 931.9101,-205.813 924.9101,-205.8129"/>
</g>
<!-- FilterTagComponent  -->
<g id="node13" class="node">
<title>FilterTagComponent </title>
<polygon fill="#fb8072" stroke="#000000" points="903.4292,-252 766.5708,-252 766.5708,-216 903.4292,-216 903.4292,-252"/>
<text text-anchor="middle" x="835" y="-229.8" font-family="Times,serif" font-size="14.00" fill="#000000">FilterTagComponent </text>
</g>
<!-- FacetModule&#45;&gt;FilterTagComponent  -->
<g id="edge12" class="edge">
<title>FacetModule&#45;&gt;FilterTagComponent </title>
<path fill="none" stroke="#000000" stroke-dasharray="5,2" d="M786.2344,-187.1061C786.2344,-187.1061 786.2344,-205.991 786.2344,-205.991"/>
<polygon fill="#000000" stroke="#000000" points="782.7345,-205.9909 786.2344,-215.991 789.7345,-205.991 782.7345,-205.9909"/>
</g>
<!-- SearchComponent  -->
<g id="node14" class="node">
<title>SearchComponent </title>
<polygon fill="#fb8072" stroke="#000000" points="748.4194,-252 625.5806,-252 625.5806,-216 748.4194,-216 748.4194,-252"/>
<text text-anchor="middle" x="687" y="-229.8" font-family="Times,serif" font-size="14.00" fill="#000000">SearchComponent </text>
</g>
<!-- FacetModule&#45;&gt;SearchComponent  -->
<g id="edge13" class="edge">
<title>FacetModule&#45;&gt;SearchComponent </title>
<path fill="none" stroke="#000000" stroke-dasharray="5,2" d="M732.2632,-187.1061C732.2632,-187.1061 732.2632,-205.991 732.2632,-205.991"/>
<polygon fill="#000000" stroke="#000000" points="728.7632,-205.9909 732.2632,-215.991 735.7632,-205.991 728.7632,-205.9909"/>
</g>
<!-- SearchResultComponent  -->
<g id="node15" class="node">
<title>SearchResultComponent </title>
<polygon fill="#fb8072" stroke="#000000" points="607.1967,-252 448.8033,-252 448.8033,-216 607.1967,-216 607.1967,-252"/>
<text text-anchor="middle" x="528" y="-229.8" font-family="Times,serif" font-size="14.00" fill="#000000">SearchResultComponent </text>
</g>
<!-- FacetModule&#45;&gt;SearchResultComponent  -->
<g id="edge14" class="edge">
<title>FacetModule&#45;&gt;SearchResultComponent </title>
<path fill="none" stroke="#000000" stroke-dasharray="5,2" d="M715.8881,-182C668.9077,-182 602.091,-182 602.091,-182 602.091,-182 602.091,-205.8129 602.091,-205.8129"/>
<polygon fill="#000000" stroke="#000000" points="598.5911,-205.8129 602.091,-215.8129 605.5911,-205.813 598.5911,-205.8129"/>
</g>
<!-- CapitalizeFirstPipe  -->
<g id="node16" class="node">
<title>CapitalizeFirstPipe </title>
<polygon fill="#fb8072" stroke="#000000" points="430.3143,-252 303.6857,-252 303.6857,-216 430.3143,-216 430.3143,-252"/>
<text text-anchor="middle" x="367" y="-229.8" font-family="Times,serif" font-size="14.00" fill="#000000">CapitalizeFirstPipe </text>
</g>
<!-- FacetModule&#45;&gt;CapitalizeFirstPipe  -->
<g id="edge15" class="edge">
<title>FacetModule&#45;&gt;CapitalizeFirstPipe </title>
<path fill="none" stroke="#000000" stroke-dasharray="5,2" d="M715.8169,-177C619.2282,-177 401.3715,-177 401.3715,-177 401.3715,-177 401.3715,-205.9648 401.3715,-205.9648"/>
<polygon fill="#000000" stroke="#000000" points="397.8716,-205.9648 401.3715,-215.9648 404.8716,-205.9649 397.8716,-205.9648"/>
</g>
<!-- CommonModule -->
<g id="node8" class="node">
<title>CommonModule</title>
<polygon fill="#8dd3c7" stroke="#000000" points="596.6681,-122 593.6681,-126 572.6681,-126 569.6681,-122 485.3319,-122 485.3319,-86 596.6681,-86 596.6681,-122"/>
<text text-anchor="middle" x="541" y="-99.8" font-family="Times,serif" font-size="14.00" fill="#000000">CommonModule</text>
</g>
<!-- CommonModule&#45;&gt;FacetModule -->
<g id="edge7" class="edge">
<title>CommonModule&#45;&gt;FacetModule</title>
<path fill="none" stroke="#000000" d="M541,-122.2396C541,-137.5706 541,-157 541,-157 541,-157 705.9488,-157 705.9488,-157"/>
<polygon fill="#000000" stroke="#000000" points="705.9489,-160.5001 715.9488,-157 705.9488,-153.5001 705.9489,-160.5001"/>
</g>
<!-- FormsModule -->
<g id="node9" class="node">
<title>FormsModule</title>
<polygon fill="#8dd3c7" stroke="#000000" points="467.8288,-122 464.8288,-126 443.8288,-126 440.8288,-122 372.1712,-122 372.1712,-86 467.8288,-86 467.8288,-122"/>
<text text-anchor="middle" x="420" y="-99.8" font-family="Times,serif" font-size="14.00" fill="#000000">FormsModule</text>
</g>
<!-- FormsModule&#45;&gt;FacetModule -->
<g id="edge8" class="edge">
<title>FormsModule&#45;&gt;FacetModule</title>
<path fill="none" stroke="#000000" d="M458.158,-122.0336C458.158,-139.0597 458.158,-162 458.158,-162 458.158,-162 705.9885,-162 705.9885,-162"/>
<polygon fill="#000000" stroke="#000000" points="705.9885,-165.5001 715.9885,-162 705.9885,-158.5001 705.9885,-165.5001"/>
</g>
<!-- MdCheckboxModule -->
<g id="node10" class="node">
<title>MdCheckboxModule</title>
<polygon fill="#8dd3c7" stroke="#000000" points="353.7604,-122 350.7604,-126 329.7604,-126 326.7604,-122 218.2396,-122 218.2396,-86 353.7604,-86 353.7604,-122"/>
<text text-anchor="middle" x="286" y="-99.8" font-family="Times,serif" font-size="14.00" fill="#000000">MdCheckboxModule</text>
</g>
<!-- MdCheckboxModule&#45;&gt;FacetModule -->
<g id="edge9" class="edge">
<title>MdCheckboxModule&#45;&gt;FacetModule</title>
<path fill="none" stroke="#000000" d="M328.7365,-122.2222C328.7365,-140.8285 328.7365,-167 328.7365,-167 328.7365,-167 705.9635,-167 705.9635,-167"/>
<polygon fill="#000000" stroke="#000000" points="705.9636,-170.5001 715.9635,-167 705.9635,-163.5001 705.9636,-170.5001"/>
</g>
<!-- AddGadgetService -->
<g id="node17" class="node">
<title>AddGadgetService</title>
<ellipse fill="#fdb462" stroke="#000000" cx="109" cy="-104" rx="84.5112" ry="18"/>
<text text-anchor="middle" x="109" y="-99.8" font-family="Times,serif" font-size="14.00" fill="#000000">AddGadgetService</text>
</g>
<!-- AddGadgetService&#45;&gt;FacetModule -->
<g id="edge16" class="edge">
<title>AddGadgetService&#45;&gt;FacetModule</title>
<path fill="none" stroke="#000000" d="M109,-122.2228C109,-142.3652 109,-172 109,-172 109,-172 705.9282,-172 705.9282,-172"/>
<polygon fill="#000000" stroke="#000000" points="705.9282,-175.5001 715.9282,-172 705.9281,-168.5001 705.9282,-175.5001"/>
</g>
</g>
</svg>
