<?xml version="1.0" encoding="UTF-8" standalone="no"?>
<!DOCTYPE svg PUBLIC "-//W3C//DTD SVG 1.1//EN"
 "http://www.w3.org/Graphics/SVG/1.1/DTD/svg11.dtd">
<!-- Generated by graphviz version 2.40.1 (20161225.0304)
 -->
<!-- Title: dependencies Pages: 1 -->
<svg width="604pt" height="284pt"
 viewBox="0.00 0.00 604.00 284.00" xmlns="http://www.w3.org/2000/svg" xmlns:xlink="http://www.w3.org/1999/xlink">
<g id="graph0" class="graph" transform="scale(1 1) rotate(0) translate(4 280)">
<title>dependencies</title>
<polygon fill="#ffffff" stroke="transparent" points="-4,4 -4,-280 600,-280 600,4 -4,4"/>
<text text-anchor="start" x="277.0091" y="-42.4" font-family="sans-serif" font-weight="bold" font-size="14.00" fill="#000000">Legend</text>
<polygon fill="#ffffb3" stroke="transparent" points="64,-10 64,-30 84,-30 84,-10 64,-10"/>
<text text-anchor="start" x="87.629" y="-15.4" font-family="sans-serif" font-size="14.00" fill="#000000"> &#160;Declarations</text>
<polygon fill="#8dd3c7" stroke="transparent" points="177,-10 177,-30 197,-30 197,-10 177,-10"/>
<text text-anchor="start" x="200.7251" y="-15.4" font-family="sans-serif" font-size="14.00" fill="#000000"> &#160;Module</text>
<polygon fill="#80b1d3" stroke="transparent" points="263,-10 263,-30 283,-30 283,-10 263,-10"/>
<text text-anchor="start" x="286.7812" y="-15.4" font-family="sans-serif" font-size="14.00" fill="#000000"> &#160;Bootstrap</text>
<polygon fill="#fdb462" stroke="transparent" points="360,-10 360,-30 380,-30 380,-10 360,-10"/>
<text text-anchor="start" x="383.6732" y="-15.4" font-family="sans-serif" font-size="14.00" fill="#000000"> &#160;Providers</text>
<polygon fill="#fb8072" stroke="transparent" points="456,-10 456,-30 476,-30 476,-10 456,-10"/>
<text text-anchor="start" x="479.7258" y="-15.4" font-family="sans-serif" font-size="14.00" fill="#000000"> &#160;Exports</text>
<g id="clust1" class="cluster">
<title>cluster_NotificationModule</title>
<polygon fill="none" stroke="#000000" stroke-dasharray="1,5" points="8,-70 8,-268 588,-268 588,-70 8,-70"/>
</g>
<g id="clust2" class="cluster">
<title>cluster_NotificationModule_declarations</title>
<polygon fill="none" stroke="#000000" points="214,-78 214,-130 580,-130 580,-78 214,-78"/>
</g>
<g id="clust6" class="cluster">
<title>cluster_NotificationModule_exports</title>
<polygon fill="none" stroke="#000000" points="230,-208 230,-260 398,-260 398,-208 230,-208"/>
</g>
<g id="clust8" class="cluster">
<title>cluster_NotificationModule_providers</title>
<polygon fill="none" stroke="#000000" points="16,-78 16,-130 206,-130 206,-78 16,-78"/>
</g>
<!-- NotificationComponent -->
<g id="node1" class="node">
<title>NotificationComponent</title>
<polygon fill="#ffffb3" stroke="#000000" points="572.4818,-122 423.5182,-122 423.5182,-86 572.4818,-86 572.4818,-122"/>
<text text-anchor="middle" x="498" y="-99.8" font-family="Times,serif" font-size="14.00" fill="#000000">NotificationComponent</text>
</g>
<!-- NotificationModule -->
<g id="node3" class="node">
<title>NotificationModule</title>
<polygon fill="#8dd3c7" stroke="#000000" points="377.6994,-187 374.6994,-191 353.6994,-191 350.6994,-187 250.3006,-187 250.3006,-151 377.6994,-151 377.6994,-187"/>
<text text-anchor="middle" x="314" y="-164.8" font-family="Times,serif" font-size="14.00" fill="#000000">NotificationModule</text>
</g>
<!-- NotificationComponent&#45;&gt;NotificationModule -->
<g id="edge1" class="edge">
<title>NotificationComponent&#45;&gt;NotificationModule</title>
<path fill="none" stroke="#000000" d="M498,-122.1061C498,-141.3391 498,-169 498,-169 498,-169 387.8379,-169 387.8379,-169"/>
<polygon fill="#000000" stroke="#000000" points="387.8379,-165.5001 377.8379,-169 387.8378,-172.5001 387.8379,-165.5001"/>
</g>
<!-- NotificationDetailComponent -->
<g id="node2" class="node">
<title>NotificationDetailComponent</title>
<polygon fill="#ffffb3" stroke="#000000" points="405.6895,-122 222.3105,-122 222.3105,-86 405.6895,-86 405.6895,-122"/>
<text text-anchor="middle" x="314" y="-99.8" font-family="Times,serif" font-size="14.00" fill="#000000">NotificationDetailComponent</text>
</g>
<!-- NotificationDetailComponent&#45;&gt;NotificationModule -->
<g id="edge2" class="edge">
<title>NotificationDetailComponent&#45;&gt;NotificationModule</title>
<path fill="none" stroke="#000000" d="M314,-122.1061C314,-122.1061 314,-140.991 314,-140.991"/>
<polygon fill="#000000" stroke="#000000" points="310.5001,-140.9909 314,-150.991 317.5001,-140.991 310.5001,-140.9909"/>
</g>
<!-- NotificationComponent  -->
<g id="node4" class="node">
<title>NotificationComponent </title>
<polygon fill="#fb8072" stroke="#000000" points="390.4826,-252 237.5174,-252 237.5174,-216 390.4826,-216 390.4826,-252"/>
<text text-anchor="middle" x="314" y="-229.8" font-family="Times,serif" font-size="14.00" fill="#000000">NotificationComponent </text>
</g>
<!-- NotificationModule&#45;&gt;NotificationComponent  -->
<g id="edge3" class="edge">
<title>NotificationModule&#45;&gt;NotificationComponent </title>
<path fill="none" stroke="#000000" stroke-dasharray="5,2" d="M314,-187.1061C314,-187.1061 314,-205.991 314,-205.991"/>
<polygon fill="#000000" stroke="#000000" points="310.5001,-205.9909 314,-215.991 317.5001,-205.991 310.5001,-205.9909"/>
</g>
<!-- NotificationService -->
<g id="node5" class="node">
<title>NotificationService</title>
<ellipse fill="#fdb462" stroke="#000000" cx="111" cy="-104" rx="86.8107" ry="18"/>
<text text-anchor="middle" x="111" y="-99.8" font-family="Times,serif" font-size="14.00" fill="#000000">NotificationService</text>
</g>
<!-- NotificationService&#45;&gt;NotificationModule -->
<g id="edge4" class="edge">
<title>NotificationService&#45;&gt;NotificationModule</title>
<path fill="none" stroke="#000000" d="M111,-122.1061C111,-141.3391 111,-169 111,-169 111,-169 240.3265,-169 240.3265,-169"/>
<polygon fill="#000000" stroke="#000000" points="240.3265,-172.5001 250.3265,-169 240.3265,-165.5001 240.3265,-172.5001"/>
</g>
</g>
</svg>
