<?xml version="1.0" encoding="UTF-8" standalone="no"?>
<!DOCTYPE svg PUBLIC "-//W3C//DTD SVG 1.1//EN"
 "http://www.w3.org/Graphics/SVG/1.1/DTD/svg11.dtd">
<!-- Generated by graphviz version 2.40.1 (20161225.0304)
 -->
<!-- Title: dependencies Pages: 1 -->
<svg width="740pt" height="284pt"
 viewBox="0.00 0.00 740.00 284.00" xmlns="http://www.w3.org/2000/svg" xmlns:xlink="http://www.w3.org/1999/xlink">
<g id="graph0" class="graph" transform="scale(1 1) rotate(0) translate(4 280)">
<title>dependencies</title>
<polygon fill="#ffffff" stroke="transparent" points="-4,4 -4,-280 736,-280 736,4 -4,4"/>
<text text-anchor="start" x="345.0091" y="-42.4" font-family="sans-serif" font-weight="bold" font-size="14.00" fill="#000000">Legend</text>
<polygon fill="#ffffb3" stroke="transparent" points="132,-10 132,-30 152,-30 152,-10 132,-10"/>
<text text-anchor="start" x="155.629" y="-15.4" font-family="sans-serif" font-size="14.00" fill="#000000"> &#160;Declarations</text>
<polygon fill="#8dd3c7" stroke="transparent" points="245,-10 245,-30 265,-30 265,-10 245,-10"/>
<text text-anchor="start" x="268.7251" y="-15.4" font-family="sans-serif" font-size="14.00" fill="#000000"> &#160;Module</text>
<polygon fill="#80b1d3" stroke="transparent" points="331,-10 331,-30 351,-30 351,-10 331,-10"/>
<text text-anchor="start" x="354.7812" y="-15.4" font-family="sans-serif" font-size="14.00" fill="#000000"> &#160;Bootstrap</text>
<polygon fill="#fdb462" stroke="transparent" points="428,-10 428,-30 448,-30 448,-10 428,-10"/>
<text text-anchor="start" x="451.6732" y="-15.4" font-family="sans-serif" font-size="14.00" fill="#000000"> &#160;Providers</text>
<polygon fill="#fb8072" stroke="transparent" points="524,-10 524,-30 544,-30 544,-10 524,-10"/>
<text text-anchor="start" x="547.7258" y="-15.4" font-family="sans-serif" font-size="14.00" fill="#000000"> &#160;Exports</text>
<g id="clust1" class="cluster">
<title>cluster_NotificationModule</title>
<polygon fill="none" stroke="#000000" stroke-dasharray="1,5" points="8,-70 8,-268 724,-268 724,-70 8,-70"/>
</g>
<g id="clust2" class="cluster">
<title>cluster_NotificationModule_declarations</title>
<polygon fill="none" stroke="#000000" points="350,-78 350,-130 716,-130 716,-78 350,-78"/>
</g>
<g id="clust5" class="cluster">
<title>cluster_NotificationModule_imports</title>
<polygon fill="none" stroke="#000000" points="214,-78 214,-130 342,-130 342,-78 214,-78"/>
</g>
<g id="clust6" class="cluster">
<title>cluster_NotificationModule_exports</title>
<polygon fill="none" stroke="#000000" points="280,-208 280,-260 448,-260 448,-208 280,-208"/>
</g>
<g id="clust8" class="cluster">
<title>cluster_NotificationModule_providers</title>
<polygon fill="none" stroke="#000000" points="16,-78 16,-130 206,-130 206,-78 16,-78"/>
</g>
<!-- NotificationComponent -->
<g id="node1" class="node">
<title>NotificationComponent</title>
<polygon fill="#ffffb3" stroke="#000000" points="708.4818,-122 559.5182,-122 559.5182,-86 708.4818,-86 708.4818,-122"/>
<text text-anchor="middle" x="634" y="-99.8" font-family="Times,serif" font-size="14.00" fill="#000000">NotificationComponent</text>
</g>
<!-- NotificationModule -->
<g id="node3" class="node">
<title>NotificationModule</title>
<polygon fill="#8dd3c7" stroke="#000000" points="427.6994,-187 424.6994,-191 403.6994,-191 400.6994,-187 300.3006,-187 300.3006,-151 427.6994,-151 427.6994,-187"/>
<text text-anchor="middle" x="364" y="-164.8" font-family="Times,serif" font-size="14.00" fill="#000000">NotificationModule</text>
</g>
<!-- NotificationComponent&#45;&gt;NotificationModule -->
<g id="edge1" class="edge">
<title>NotificationComponent&#45;&gt;NotificationModule</title>
<path fill="none" stroke="#000000" d="M634,-122.1061C634,-141.3391 634,-169 634,-169 634,-169 437.6443,-169 437.6443,-169"/>
<polygon fill="#000000" stroke="#000000" points="437.6444,-165.5001 427.6443,-169 437.6443,-172.5001 437.6444,-165.5001"/>
</g>
<!-- NotificationDetailComponent -->
<g id="node2" class="node">
<title>NotificationDetailComponent</title>
<polygon fill="#ffffb3" stroke="#000000" points="541.6895,-122 358.3105,-122 358.3105,-86 541.6895,-86 541.6895,-122"/>
<text text-anchor="middle" x="450" y="-99.8" font-family="Times,serif" font-size="14.00" fill="#000000">NotificationDetailComponent</text>
</g>
<!-- NotificationDetailComponent&#45;&gt;NotificationModule -->
<g id="edge2" class="edge">
<title>NotificationDetailComponent&#45;&gt;NotificationModule</title>
<path fill="none" stroke="#000000" d="M393.0025,-122.1061C393.0025,-122.1061 393.0025,-140.991 393.0025,-140.991"/>
<polygon fill="#000000" stroke="#000000" points="389.5025,-140.9909 393.0025,-150.991 396.5025,-140.991 389.5025,-140.9909"/>
</g>
<!-- NotificationComponent  -->
<g id="node5" class="node">
<title>NotificationComponent </title>
<polygon fill="#fb8072" stroke="#000000" points="440.4826,-252 287.5174,-252 287.5174,-216 440.4826,-216 440.4826,-252"/>
<text text-anchor="middle" x="364" y="-229.8" font-family="Times,serif" font-size="14.00" fill="#000000">NotificationComponent </text>
</g>
<!-- NotificationModule&#45;&gt;NotificationComponent  -->
<g id="edge4" class="edge">
<title>NotificationModule&#45;&gt;NotificationComponent </title>
<path fill="none" stroke="#000000" stroke-dasharray="5,2" d="M364,-187.1061C364,-187.1061 364,-205.991 364,-205.991"/>
<polygon fill="#000000" stroke="#000000" points="360.5001,-205.9909 364,-215.991 367.5001,-205.991 360.5001,-205.9909"/>
</g>
<!-- CommonModule -->
<g id="node4" class="node">
<title>CommonModule</title>
<polygon fill="#8dd3c7" stroke="#000000" points="333.6681,-122 330.6681,-126 309.6681,-126 306.6681,-122 222.3319,-122 222.3319,-86 333.6681,-86 333.6681,-122"/>
<text text-anchor="middle" x="278" y="-99.8" font-family="Times,serif" font-size="14.00" fill="#000000">CommonModule</text>
</g>
<!-- CommonModule&#45;&gt;NotificationModule -->
<g id="edge3" class="edge">
<title>CommonModule&#45;&gt;NotificationModule</title>
<path fill="none" stroke="#000000" d="M317.1171,-122.1061C317.1171,-122.1061 317.1171,-140.991 317.1171,-140.991"/>
<polygon fill="#000000" stroke="#000000" points="313.6172,-140.9909 317.1171,-150.991 320.6172,-140.991 313.6172,-140.9909"/>
</g>
<!-- NotificationService -->
<g id="node6" class="node">
<title>NotificationService</title>
<ellipse fill="#fdb462" stroke="#000000" cx="111" cy="-104" rx="86.8107" ry="18"/>
<text text-anchor="middle" x="111" y="-99.8" font-family="Times,serif" font-size="14.00" fill="#000000">NotificationService</text>
</g>
<!-- NotificationService&#45;&gt;NotificationModule -->
<g id="edge5" class="edge">
<title>NotificationService&#45;&gt;NotificationModule</title>
<path fill="none" stroke="#000000" d="M111,-122.1061C111,-141.3391 111,-169 111,-169 111,-169 290.1574,-169 290.1574,-169"/>
<polygon fill="#000000" stroke="#000000" points="290.1575,-172.5001 300.1574,-169 290.1574,-165.5001 290.1575,-172.5001"/>
</g>
</g>
</svg>
