<?xml version="1.0" encoding="UTF-8" standalone="no"?>
<!DOCTYPE svg PUBLIC "-//W3C//DTD SVG 1.1//EN"
 "http://www.w3.org/Graphics/SVG/1.1/DTD/svg11.dtd">
<!-- Generated by graphviz version 2.40.1 (20161225.0304)
 -->
<!-- Title: dependencies Pages: 1 -->
<svg width="932pt" height="284pt"
 viewBox="0.00 0.00 932.00 284.00" xmlns="http://www.w3.org/2000/svg" xmlns:xlink="http://www.w3.org/1999/xlink">
<g id="graph0" class="graph" transform="scale(1 1) rotate(0) translate(4 280)">
<title>dependencies</title>
<polygon fill="#ffffff" stroke="transparent" points="-4,4 -4,-280 928,-280 928,4 -4,4"/>
<text text-anchor="start" x="441.0091" y="-42.4" font-family="sans-serif" font-weight="bold" font-size="14.00" fill="#000000">Legend</text>
<polygon fill="#ffffb3" stroke="transparent" points="228,-10 228,-30 248,-30 248,-10 228,-10"/>
<text text-anchor="start" x="251.629" y="-15.4" font-family="sans-serif" font-size="14.00" fill="#000000"> &#160;Declarations</text>
<polygon fill="#8dd3c7" stroke="transparent" points="341,-10 341,-30 361,-30 361,-10 341,-10"/>
<text text-anchor="start" x="364.7251" y="-15.4" font-family="sans-serif" font-size="14.00" fill="#000000"> &#160;Module</text>
<polygon fill="#80b1d3" stroke="transparent" points="427,-10 427,-30 447,-30 447,-10 427,-10"/>
<text text-anchor="start" x="450.7812" y="-15.4" font-family="sans-serif" font-size="14.00" fill="#000000"> &#160;Bootstrap</text>
<polygon fill="#fdb462" stroke="transparent" points="524,-10 524,-30 544,-30 544,-10 524,-10"/>
<text text-anchor="start" x="547.6732" y="-15.4" font-family="sans-serif" font-size="14.00" fill="#000000"> &#160;Providers</text>
<polygon fill="#fb8072" stroke="transparent" points="620,-10 620,-30 640,-30 640,-10 620,-10"/>
<text text-anchor="start" x="643.7258" y="-15.4" font-family="sans-serif" font-size="14.00" fill="#000000"> &#160;Exports</text>
<g id="clust1" class="cluster">
<title>cluster_AddGadgetModule</title>
<polygon fill="none" stroke="#000000" stroke-dasharray="1,5" points="8,-70 8,-268 916,-268 916,-70 8,-70"/>
</g>
<g id="clust2" class="cluster">
<title>cluster_AddGadgetModule_declarations</title>
<polygon fill="none" stroke="#000000" points="746,-78 746,-130 908,-130 908,-78 746,-78"/>
</g>
<g id="clust4" class="cluster">
<title>cluster_AddGadgetModule_imports</title>
<polygon fill="none" stroke="#000000" points="210,-78 210,-130 738,-130 738,-78 210,-78"/>
</g>
<g id="clust5" class="cluster">
<title>cluster_AddGadgetModule_exports</title>
<polygon fill="none" stroke="#000000" points="397,-208 397,-260 563,-260 563,-208 397,-208"/>
</g>
<g id="clust7" class="cluster">
<title>cluster_AddGadgetModule_providers</title>
<polygon fill="none" stroke="#000000" points="16,-78 16,-130 202,-130 202,-78 16,-78"/>
</g>
<!-- AddGadgetComponent -->
<g id="node1" class="node">
<title>AddGadgetComponent</title>
<polygon fill="#ffffb3" stroke="#000000" points="899.8655,-122 754.1345,-122 754.1345,-86 899.8655,-86 899.8655,-122"/>
<text text-anchor="middle" x="827" y="-99.8" font-family="Times,serif" font-size="14.00" fill="#000000">AddGadgetComponent</text>
</g>
<!-- AddGadgetModule -->
<g id="node2" class="node">
<title>AddGadgetModule</title>
<polygon fill="#8dd3c7" stroke="#000000" points="542.0828,-187 539.0828,-191 518.0828,-191 515.0828,-187 417.9172,-187 417.9172,-151 542.0828,-151 542.0828,-187"/>
<text text-anchor="middle" x="480" y="-164.8" font-family="Times,serif" font-size="14.00" fill="#000000">AddGadgetModule</text>
</g>
<!-- AddGadgetComponent&#45;&gt;AddGadgetModule -->
<g id="edge1" class="edge">
<title>AddGadgetComponent&#45;&gt;AddGadgetModule</title>
<path fill="none" stroke="#000000" d="M827,-122.2843C827,-143.3211 827,-175 827,-175 827,-175 552.4374,-175 552.4374,-175"/>
<polygon fill="#000000" stroke="#000000" points="552.4374,-171.5001 542.4374,-175 552.4374,-178.5001 552.4374,-171.5001"/>
</g>
<!-- AddGadgetComponent  -->
<g id="node7" class="node">
<title>AddGadgetComponent </title>
<polygon fill="#fb8072" stroke="#000000" points="554.8658,-252 405.1342,-252 405.1342,-216 554.8658,-216 554.8658,-252"/>
<text text-anchor="middle" x="480" y="-229.8" font-family="Times,serif" font-size="14.00" fill="#000000">AddGadgetComponent </text>
</g>
<!-- AddGadgetModule&#45;&gt;AddGadgetComponent  -->
<g id="edge6" class="edge">
<title>AddGadgetModule&#45;&gt;AddGadgetComponent </title>
<path fill="none" stroke="#000000" stroke-dasharray="5,2" d="M480,-187.1061C480,-187.1061 480,-205.991 480,-205.991"/>
<polygon fill="#000000" stroke="#000000" points="476.5001,-205.9909 480,-215.991 483.5001,-205.991 476.5001,-205.9909"/>
</g>
<!-- CommonModule -->
<g id="node3" class="node">
<title>CommonModule</title>
<polygon fill="#8dd3c7" stroke="#000000" points="729.6681,-122 726.6681,-126 705.6681,-126 702.6681,-122 618.3319,-122 618.3319,-86 729.6681,-86 729.6681,-122"/>
<text text-anchor="middle" x="674" y="-99.8" font-family="Times,serif" font-size="14.00" fill="#000000">CommonModule</text>
</g>
<!-- CommonModule&#45;&gt;AddGadgetModule -->
<g id="edge2" class="edge">
<title>CommonModule&#45;&gt;AddGadgetModule</title>
<path fill="none" stroke="#000000" d="M674,-122.0225C674,-139.3734 674,-163 674,-163 674,-163 552.1833,-163 552.1833,-163"/>
<polygon fill="#000000" stroke="#000000" points="552.1833,-159.5001 542.1833,-163 552.1833,-166.5001 552.1833,-159.5001"/>
</g>
<!-- DataListModule -->
<g id="node4" class="node">
<title>DataListModule</title>
<polygon fill="#8dd3c7" stroke="#000000" points="599.7549,-122 596.7549,-126 575.7549,-126 572.7549,-122 492.2451,-122 492.2451,-86 599.7549,-86 599.7549,-122"/>
<text text-anchor="middle" x="546" y="-99.8" font-family="Times,serif" font-size="14.00" fill="#000000">DataListModule</text>
</g>
<!-- DataListModule&#45;&gt;AddGadgetModule -->
<g id="edge3" class="edge">
<title>DataListModule&#45;&gt;AddGadgetModule</title>
<path fill="none" stroke="#000000" d="M517.0821,-122.1061C517.0821,-122.1061 517.0821,-140.991 517.0821,-140.991"/>
<polygon fill="#000000" stroke="#000000" points="513.5821,-140.9909 517.0821,-150.991 520.5821,-140.991 513.5821,-140.9909"/>
</g>
<!-- HttpClientModule -->
<g id="node5" class="node">
<title>HttpClientModule</title>
<polygon fill="#8dd3c7" stroke="#000000" points="474.1611,-122 471.1611,-126 450.1611,-126 447.1611,-122 355.8389,-122 355.8389,-86 474.1611,-86 474.1611,-122"/>
<text text-anchor="middle" x="415" y="-99.8" font-family="Times,serif" font-size="14.00" fill="#000000">HttpClientModule</text>
</g>
<!-- HttpClientModule&#45;&gt;AddGadgetModule -->
<g id="edge4" class="edge">
<title>HttpClientModule&#45;&gt;AddGadgetModule</title>
<path fill="none" stroke="#000000" d="M446.1445,-122.1061C446.1445,-122.1061 446.1445,-140.991 446.1445,-140.991"/>
<polygon fill="#000000" stroke="#000000" points="442.6445,-140.9909 446.1445,-150.991 449.6445,-140.991 442.6445,-140.9909"/>
</g>
<!-- MatButtonModule -->
<g id="node6" class="node">
<title>MatButtonModule</title>
<polygon fill="#8dd3c7" stroke="#000000" points="338.2176,-122 335.2176,-126 314.2176,-126 311.2176,-122 217.7824,-122 217.7824,-86 338.2176,-86 338.2176,-122"/>
<text text-anchor="middle" x="278" y="-99.8" font-family="Times,serif" font-size="14.00" fill="#000000">MatButtonModule</text>
</g>
<!-- MatButtonModule&#45;&gt;AddGadgetModule -->
<g id="edge5" class="edge">
<title>MatButtonModule&#45;&gt;AddGadgetModule</title>
<path fill="none" stroke="#000000" d="M278,-122.0225C278,-139.3734 278,-163 278,-163 278,-163 407.7451,-163 407.7451,-163"/>
<polygon fill="#000000" stroke="#000000" points="407.7451,-166.5001 417.7451,-163 407.745,-159.5001 407.7451,-166.5001"/>
</g>
<!-- AddGadgetService -->
<g id="node8" class="node">
<title>AddGadgetService</title>
<ellipse fill="#fdb462" stroke="#000000" cx="109" cy="-104" rx="84.5112" ry="18"/>
<text text-anchor="middle" x="109" y="-99.8" font-family="Times,serif" font-size="14.00" fill="#000000">AddGadgetService</text>
</g>
<!-- AddGadgetService&#45;&gt;AddGadgetModule -->
<g id="edge7" class="edge">
<title>AddGadgetService&#45;&gt;AddGadgetModule</title>
<path fill="none" stroke="#000000" d="M109,-122.2843C109,-143.3211 109,-175 109,-175 109,-175 407.9029,-175 407.9029,-175"/>
<polygon fill="#000000" stroke="#000000" points="407.903,-178.5001 417.9029,-175 407.9029,-171.5001 407.903,-178.5001"/>
</g>
</g>
</svg>
