<?xml version="1.0" encoding="UTF-8" standalone="no"?>
<!DOCTYPE svg PUBLIC "-//W3C//DTD SVG 1.1//EN"
 "http://www.w3.org/Graphics/SVG/1.1/DTD/svg11.dtd">
<!-- Generated by graphviz version 2.40.1 (20161225.0304)
 -->
<!-- Title: dependencies Pages: 1 -->
<svg width="775pt" height="284pt"
 viewBox="0.00 0.00 775.00 284.00" xmlns="http://www.w3.org/2000/svg" xmlns:xlink="http://www.w3.org/1999/xlink">
<g id="graph0" class="graph" transform="scale(1 1) rotate(0) translate(4 280)">
<title>dependencies</title>
<polygon fill="#ffffff" stroke="transparent" points="-4,4 -4,-280 771,-280 771,4 -4,4"/>
<text text-anchor="start" x="362.5091" y="-42.4" font-family="sans-serif" font-weight="bold" font-size="14.00" fill="#000000">Legend</text>
<polygon fill="#ffffb3" stroke="transparent" points="149.5,-10 149.5,-30 169.5,-30 169.5,-10 149.5,-10"/>
<text text-anchor="start" x="173.129" y="-15.4" font-family="sans-serif" font-size="14.00" fill="#000000"> &#160;Declarations</text>
<polygon fill="#8dd3c7" stroke="transparent" points="262.5,-10 262.5,-30 282.5,-30 282.5,-10 262.5,-10"/>
<text text-anchor="start" x="286.2251" y="-15.4" font-family="sans-serif" font-size="14.00" fill="#000000"> &#160;Module</text>
<polygon fill="#80b1d3" stroke="transparent" points="348.5,-10 348.5,-30 368.5,-30 368.5,-10 348.5,-10"/>
<text text-anchor="start" x="372.2812" y="-15.4" font-family="sans-serif" font-size="14.00" fill="#000000"> &#160;Bootstrap</text>
<polygon fill="#fdb462" stroke="transparent" points="445.5,-10 445.5,-30 465.5,-30 465.5,-10 445.5,-10"/>
<text text-anchor="start" x="469.1732" y="-15.4" font-family="sans-serif" font-size="14.00" fill="#000000"> &#160;Providers</text>
<polygon fill="#fb8072" stroke="transparent" points="541.5,-10 541.5,-30 561.5,-30 561.5,-10 541.5,-10"/>
<text text-anchor="start" x="565.2258" y="-15.4" font-family="sans-serif" font-size="14.00" fill="#000000"> &#160;Exports</text>
<g id="clust1" class="cluster">
<title>cluster_AddGadgetModule</title>
<polygon fill="none" stroke="#000000" stroke-dasharray="1,5" points="8,-70 8,-268 759,-268 759,-70 8,-70"/>
</g>
<g id="clust2" class="cluster">
<title>cluster_AddGadgetModule_declarations</title>
<polygon fill="none" stroke="#000000" points="589,-78 589,-130 751,-130 751,-78 589,-78"/>
</g>
<g id="clust4" class="cluster">
<title>cluster_AddGadgetModule_imports</title>
<polygon fill="none" stroke="#000000" points="210,-78 210,-130 581,-130 581,-78 210,-78"/>
</g>
<g id="clust5" class="cluster">
<title>cluster_AddGadgetModule_exports</title>
<polygon fill="none" stroke="#000000" points="315,-208 315,-260 481,-260 481,-208 315,-208"/>
</g>
<g id="clust7" class="cluster">
<title>cluster_AddGadgetModule_providers</title>
<polygon fill="none" stroke="#000000" points="16,-78 16,-130 202,-130 202,-78 16,-78"/>
</g>
<!-- AddGadgetComponent -->
<g id="node1" class="node">
<title>AddGadgetComponent</title>
<polygon fill="#ffffb3" stroke="#000000" points="742.8655,-122 597.1345,-122 597.1345,-86 742.8655,-86 742.8655,-122"/>
<text text-anchor="middle" x="670" y="-99.8" font-family="Times,serif" font-size="14.00" fill="#000000">AddGadgetComponent</text>
</g>
<!-- AddGadgetModule -->
<g id="node2" class="node">
<title>AddGadgetModule</title>
<polygon fill="#8dd3c7" stroke="#000000" points="460.0828,-187 457.0828,-191 436.0828,-191 433.0828,-187 335.9172,-187 335.9172,-151 460.0828,-151 460.0828,-187"/>
<text text-anchor="middle" x="398" y="-164.8" font-family="Times,serif" font-size="14.00" fill="#000000">AddGadgetModule</text>
</g>
<!-- AddGadgetComponent&#45;&gt;AddGadgetModule -->
<g id="edge1" class="edge">
<title>AddGadgetComponent&#45;&gt;AddGadgetModule</title>
<path fill="none" stroke="#000000" d="M670,-122.2843C670,-143.3211 670,-175 670,-175 670,-175 470.0614,-175 470.0614,-175"/>
<polygon fill="#000000" stroke="#000000" points="470.0614,-171.5001 460.0614,-175 470.0613,-178.5001 470.0614,-171.5001"/>
</g>
<!-- AddGadgetComponent  -->
<g id="node6" class="node">
<title>AddGadgetComponent </title>
<polygon fill="#fb8072" stroke="#000000" points="472.8658,-252 323.1342,-252 323.1342,-216 472.8658,-216 472.8658,-252"/>
<text text-anchor="middle" x="398" y="-229.8" font-family="Times,serif" font-size="14.00" fill="#000000">AddGadgetComponent </text>
</g>
<!-- AddGadgetModule&#45;&gt;AddGadgetComponent  -->
<g id="edge5" class="edge">
<title>AddGadgetModule&#45;&gt;AddGadgetComponent </title>
<path fill="none" stroke="#000000" stroke-dasharray="5,2" d="M398,-187.1061C398,-187.1061 398,-205.991 398,-205.991"/>
<polygon fill="#000000" stroke="#000000" points="394.5001,-205.9909 398,-215.991 401.5001,-205.991 394.5001,-205.9909"/>
</g>
<!-- CommonModule -->
<g id="node3" class="node">
<title>CommonModule</title>
<polygon fill="#8dd3c7" stroke="#000000" points="572.6681,-122 569.6681,-126 548.6681,-126 545.6681,-122 461.3319,-122 461.3319,-86 572.6681,-86 572.6681,-122"/>
<text text-anchor="middle" x="517" y="-99.8" font-family="Times,serif" font-size="14.00" fill="#000000">CommonModule</text>
</g>
<!-- CommonModule&#45;&gt;AddGadgetModule -->
<g id="edge2" class="edge">
<title>CommonModule&#45;&gt;AddGadgetModule</title>
<path fill="none" stroke="#000000" d="M466.9245,-122.0225C466.9245,-139.3734 466.9245,-163 466.9245,-163 466.9245,-163 466.2384,-163 466.2384,-163"/>
<polygon fill="#000000" stroke="#000000" points="470.0638,-159.5002 460.0637,-163 470.0637,-166.5002 470.0638,-159.5002"/>
</g>
<!-- FacetModule -->
<g id="node4" class="node">
<title>FacetModule</title>
<polygon fill="#8dd3c7" stroke="#000000" points="442.8669,-122 439.8669,-126 418.8669,-126 415.8669,-122 353.1331,-122 353.1331,-86 442.8669,-86 442.8669,-122"/>
<text text-anchor="middle" x="398" y="-99.8" font-family="Times,serif" font-size="14.00" fill="#000000">FacetModule</text>
</g>
<!-- FacetModule&#45;&gt;AddGadgetModule -->
<g id="edge3" class="edge">
<title>FacetModule&#45;&gt;AddGadgetModule</title>
<path fill="none" stroke="#000000" d="M398,-122.1061C398,-122.1061 398,-140.991 398,-140.991"/>
<polygon fill="#000000" stroke="#000000" points="394.5001,-140.9909 398,-150.991 401.5001,-140.991 394.5001,-140.9909"/>
</g>
<!-- MdButtonModule -->
<g id="node5" class="node">
<title>MdButtonModule</title>
<polygon fill="#8dd3c7" stroke="#000000" points="335.6123,-122 332.6123,-126 311.6123,-126 308.6123,-122 218.3877,-122 218.3877,-86 335.6123,-86 335.6123,-122"/>
<text text-anchor="middle" x="277" y="-99.8" font-family="Times,serif" font-size="14.00" fill="#000000">MdButtonModule</text>
</g>
<!-- MdButtonModule&#45;&gt;AddGadgetModule -->
<g id="edge4" class="edge">
<title>MdButtonModule&#45;&gt;AddGadgetModule</title>
<path fill="none" stroke="#000000" d="M329.4367,-122.0225C329.4367,-139.3734 329.4367,-163 329.4367,-163 329.4367,-163 330.0694,-163 330.0694,-163"/>
<polygon fill="#000000" stroke="#000000" points="325.7641,-166.5002 335.7641,-163 325.764,-159.5002 325.7641,-166.5002"/>
</g>
<!-- AddGadgetService -->
<g id="node7" class="node">
<title>AddGadgetService</title>
<ellipse fill="#fdb462" stroke="#000000" cx="109" cy="-104" rx="84.5112" ry="18"/>
<text text-anchor="middle" x="109" y="-99.8" font-family="Times,serif" font-size="14.00" fill="#000000">AddGadgetService</text>
</g>
<!-- AddGadgetService&#45;&gt;AddGadgetModule -->
<g id="edge6" class="edge">
<title>AddGadgetService&#45;&gt;AddGadgetModule</title>
<path fill="none" stroke="#000000" d="M109,-122.2843C109,-143.3211 109,-175 109,-175 109,-175 325.6471,-175 325.6471,-175"/>
<polygon fill="#000000" stroke="#000000" points="325.6471,-178.5001 335.6471,-175 325.6471,-171.5001 325.6471,-178.5001"/>
</g>
</g>
</svg>
