<?xml version="1.0" encoding="UTF-8" standalone="no"?>
<!DOCTYPE svg PUBLIC "-//W3C//DTD SVG 1.1//EN"
 "http://www.w3.org/Graphics/SVG/1.1/DTD/svg11.dtd">
<!-- Generated by graphviz version 2.40.1 (20161225.0304)
 -->
<!-- Title: dependencies Pages: 1 -->
<svg width="577pt" height="284pt"
 viewBox="0.00 0.00 577.00 284.00" xmlns="http://www.w3.org/2000/svg" xmlns:xlink="http://www.w3.org/1999/xlink">
<g id="graph0" class="graph" transform="scale(1 1) rotate(0) translate(4 280)">
<title>dependencies</title>
<polygon fill="#ffffff" stroke="transparent" points="-4,4 -4,-280 573,-280 573,4 -4,4"/>
<text text-anchor="start" x="263.5091" y="-42.4" font-family="sans-serif" font-weight="bold" font-size="14.00" fill="#000000">Legend</text>
<polygon fill="#ffffb3" stroke="transparent" points="50.5,-10 50.5,-30 70.5,-30 70.5,-10 50.5,-10"/>
<text text-anchor="start" x="74.129" y="-15.4" font-family="sans-serif" font-size="14.00" fill="#000000"> &#160;Declarations</text>
<polygon fill="#8dd3c7" stroke="transparent" points="163.5,-10 163.5,-30 183.5,-30 183.5,-10 163.5,-10"/>
<text text-anchor="start" x="187.2251" y="-15.4" font-family="sans-serif" font-size="14.00" fill="#000000"> &#160;Module</text>
<polygon fill="#80b1d3" stroke="transparent" points="249.5,-10 249.5,-30 269.5,-30 269.5,-10 249.5,-10"/>
<text text-anchor="start" x="273.2812" y="-15.4" font-family="sans-serif" font-size="14.00" fill="#000000"> &#160;Bootstrap</text>
<polygon fill="#fdb462" stroke="transparent" points="346.5,-10 346.5,-30 366.5,-30 366.5,-10 346.5,-10"/>
<text text-anchor="start" x="370.1732" y="-15.4" font-family="sans-serif" font-size="14.00" fill="#000000"> &#160;Providers</text>
<polygon fill="#fb8072" stroke="transparent" points="442.5,-10 442.5,-30 462.5,-30 462.5,-10 442.5,-10"/>
<text text-anchor="start" x="466.2258" y="-15.4" font-family="sans-serif" font-size="14.00" fill="#000000"> &#160;Exports</text>
<g id="clust1" class="cluster">
<title>cluster_DetailModule</title>
<polygon fill="none" stroke="#000000" stroke-dasharray="1,5" points="8,-70 8,-268 561,-268 561,-70 8,-70"/>
</g>
<g id="clust2" class="cluster">
<title>cluster_DetailModule_declarations</title>
<polygon fill="none" stroke="#000000" points="421,-78 421,-130 553,-130 553,-78 421,-78"/>
</g>
<g id="clust4" class="cluster">
<title>cluster_DetailModule_imports</title>
<polygon fill="none" stroke="#000000" points="16,-78 16,-130 413,-130 413,-78 16,-78"/>
</g>
<g id="clust5" class="cluster">
<title>cluster_DetailModule_exports</title>
<polygon fill="none" stroke="#000000" points="220,-208 220,-260 356,-260 356,-208 220,-208"/>
</g>
<!-- DetailComponent -->
<g id="node1" class="node">
<title>DetailComponent</title>
<polygon fill="#ffffb3" stroke="#000000" points="544.5409,-122 429.4591,-122 429.4591,-86 544.5409,-86 544.5409,-122"/>
<text text-anchor="middle" x="487" y="-99.8" font-family="Times,serif" font-size="14.00" fill="#000000">DetailComponent</text>
</g>
<!-- DetailModule -->
<g id="node2" class="node">
<title>DetailModule</title>
<polygon fill="#8dd3c7" stroke="#000000" points="334.7577,-187 331.7577,-191 310.7577,-191 307.7577,-187 241.2423,-187 241.2423,-151 334.7577,-151 334.7577,-187"/>
<text text-anchor="middle" x="288" y="-164.8" font-family="Times,serif" font-size="14.00" fill="#000000">DetailModule</text>
</g>
<!-- DetailComponent&#45;&gt;DetailModule -->
<g id="edge1" class="edge">
<title>DetailComponent&#45;&gt;DetailModule</title>
<path fill="none" stroke="#000000" d="M487,-122.1061C487,-141.3391 487,-169 487,-169 487,-169 344.9082,-169 344.9082,-169"/>
<polygon fill="#000000" stroke="#000000" points="344.9083,-165.5001 334.9082,-169 344.9082,-172.5001 344.9083,-165.5001"/>
</g>
<!-- DetailComponent  -->
<g id="node6" class="node">
<title>DetailComponent </title>
<polygon fill="#fb8072" stroke="#000000" points="347.54,-252 228.46,-252 228.46,-216 347.54,-216 347.54,-252"/>
<text text-anchor="middle" x="288" y="-229.8" font-family="Times,serif" font-size="14.00" fill="#000000">DetailComponent </text>
</g>
<!-- DetailModule&#45;&gt;DetailComponent  -->
<g id="edge5" class="edge">
<title>DetailModule&#45;&gt;DetailComponent </title>
<path fill="none" stroke="#000000" stroke-dasharray="5,2" d="M288,-187.1061C288,-187.1061 288,-205.991 288,-205.991"/>
<polygon fill="#000000" stroke="#000000" points="284.5001,-205.9909 288,-215.991 291.5001,-205.991 284.5001,-205.9909"/>
</g>
<!-- CommonModule -->
<g id="node3" class="node">
<title>CommonModule</title>
<polygon fill="#8dd3c7" stroke="#000000" points="404.6681,-122 401.6681,-126 380.6681,-126 377.6681,-122 293.3319,-122 293.3319,-86 404.6681,-86 404.6681,-122"/>
<text text-anchor="middle" x="349" y="-99.8" font-family="Times,serif" font-size="14.00" fill="#000000">CommonModule</text>
</g>
<!-- CommonModule&#45;&gt;DetailModule -->
<g id="edge2" class="edge">
<title>CommonModule&#45;&gt;DetailModule</title>
<path fill="none" stroke="#000000" d="M314.0225,-122.1061C314.0225,-122.1061 314.0225,-140.991 314.0225,-140.991"/>
<polygon fill="#000000" stroke="#000000" points="310.5225,-140.9909 314.0225,-150.991 317.5225,-140.991 310.5225,-140.9909"/>
</g>
<!-- FormsModule -->
<g id="node4" class="node">
<title>FormsModule</title>
<polygon fill="#8dd3c7" stroke="#000000" points="275.8288,-122 272.8288,-126 251.8288,-126 248.8288,-122 180.1712,-122 180.1712,-86 275.8288,-86 275.8288,-122"/>
<text text-anchor="middle" x="228" y="-99.8" font-family="Times,serif" font-size="14.00" fill="#000000">FormsModule</text>
</g>
<!-- FormsModule&#45;&gt;DetailModule -->
<g id="edge3" class="edge">
<title>FormsModule&#45;&gt;DetailModule</title>
<path fill="none" stroke="#000000" d="M258.3927,-122.1061C258.3927,-122.1061 258.3927,-140.991 258.3927,-140.991"/>
<polygon fill="#000000" stroke="#000000" points="254.8928,-140.9909 258.3927,-150.991 261.8928,-140.991 254.8928,-140.9909"/>
</g>
<!-- MatCheckboxModule -->
<g id="node5" class="node">
<title>MatCheckboxModule</title>
<polygon fill="#8dd3c7" stroke="#000000" points="162.3655,-122 159.3655,-126 138.3655,-126 135.3655,-122 23.6345,-122 23.6345,-86 162.3655,-86 162.3655,-122"/>
<text text-anchor="middle" x="93" y="-99.8" font-family="Times,serif" font-size="14.00" fill="#000000">MatCheckboxModule</text>
</g>
<!-- MatCheckboxModule&#45;&gt;DetailModule -->
<g id="edge4" class="edge">
<title>MatCheckboxModule&#45;&gt;DetailModule</title>
<path fill="none" stroke="#000000" d="M93,-122.1061C93,-141.3391 93,-169 93,-169 93,-169 230.7959,-169 230.7959,-169"/>
<polygon fill="#000000" stroke="#000000" points="230.796,-172.5001 240.7959,-169 230.7959,-165.5001 230.796,-172.5001"/>
</g>
</g>
</svg>
