<?xml version="1.0" encoding="UTF-8" standalone="no"?>
<!DOCTYPE svg PUBLIC "-//W3C//DTD SVG 1.1//EN"
 "http://www.w3.org/Graphics/SVG/1.1/DTD/svg11.dtd">
<!-- Generated by graphviz version 2.40.1 (20161225.0304)
 -->
<!-- Title: dependencies Pages: 1 -->
<svg width="2369pt" height="284pt"
 viewBox="0.00 0.00 2369.00 284.00" xmlns="http://www.w3.org/2000/svg" xmlns:xlink="http://www.w3.org/1999/xlink">
<g id="graph0" class="graph" transform="scale(1 1) rotate(0) translate(4 280)">
<title>dependencies</title>
<polygon fill="#ffffff" stroke="transparent" points="-4,4 -4,-280 2365,-280 2365,4 -4,4"/>
<text text-anchor="start" x="1159.5091" y="-42.4" font-family="sans-serif" font-weight="bold" font-size="14.00" fill="#000000">Legend</text>
<polygon fill="#ffffb3" stroke="transparent" points="946.5,-10 946.5,-30 966.5,-30 966.5,-10 946.5,-10"/>
<text text-anchor="start" x="970.129" y="-15.4" font-family="sans-serif" font-size="14.00" fill="#000000"> &#160;Declarations</text>
<polygon fill="#8dd3c7" stroke="transparent" points="1059.5,-10 1059.5,-30 1079.5,-30 1079.5,-10 1059.5,-10"/>
<text text-anchor="start" x="1083.2251" y="-15.4" font-family="sans-serif" font-size="14.00" fill="#000000"> &#160;Module</text>
<polygon fill="#80b1d3" stroke="transparent" points="1145.5,-10 1145.5,-30 1165.5,-30 1165.5,-10 1145.5,-10"/>
<text text-anchor="start" x="1169.2812" y="-15.4" font-family="sans-serif" font-size="14.00" fill="#000000"> &#160;Bootstrap</text>
<polygon fill="#fdb462" stroke="transparent" points="1242.5,-10 1242.5,-30 1262.5,-30 1262.5,-10 1242.5,-10"/>
<text text-anchor="start" x="1266.1732" y="-15.4" font-family="sans-serif" font-size="14.00" fill="#000000"> &#160;Providers</text>
<polygon fill="#fb8072" stroke="transparent" points="1338.5,-10 1338.5,-30 1358.5,-30 1358.5,-10 1338.5,-10"/>
<text text-anchor="start" x="1362.2258" y="-15.4" font-family="sans-serif" font-size="14.00" fill="#000000"> &#160;Exports</text>
<g id="clust1" class="cluster">
<title>cluster_MenuModule</title>
<polygon fill="none" stroke="#000000" stroke-dasharray="1,5" points="8,-70 8,-268 2353,-268 2353,-70 8,-70"/>
</g>
<g id="clust2" class="cluster">
<title>cluster_MenuModule_declarations</title>
<polygon fill="none" stroke="#000000" points="2215,-78 2215,-130 2345,-130 2345,-78 2215,-78"/>
</g>
<g id="clust4" class="cluster">
<title>cluster_MenuModule_imports</title>
<polygon fill="none" stroke="#000000" points="1246,-78 1246,-130 2207,-130 2207,-78 1246,-78"/>
</g>
<g id="clust5" class="cluster">
<title>cluster_MenuModule_exports</title>
<polygon fill="none" stroke="#000000" points="1343,-208 1343,-260 1477,-260 1477,-208 1343,-208"/>
</g>
<g id="clust7" class="cluster">
<title>cluster_MenuModule_providers</title>
<polygon fill="none" stroke="#000000" points="16,-78 16,-130 1238,-130 1238,-78 16,-78"/>
</g>
<!-- MenuComponent -->
<g id="node1" class="node">
<title>MenuComponent</title>
<polygon fill="#ffffb3" stroke="#000000" points="2336.9916,-122 2223.0084,-122 2223.0084,-86 2336.9916,-86 2336.9916,-122"/>
<text text-anchor="middle" x="2280" y="-99.8" font-family="Times,serif" font-size="14.00" fill="#000000">MenuComponent</text>
</g>
<!-- MenuModule -->
<g id="node2" class="node">
<title>MenuModule</title>
<polygon fill="#8dd3c7" stroke="#000000" points="1456.2092,-187 1453.2092,-191 1432.2092,-191 1429.2092,-187 1363.7908,-187 1363.7908,-151 1456.2092,-151 1456.2092,-187"/>
<text text-anchor="middle" x="1410" y="-164.8" font-family="Times,serif" font-size="14.00" fill="#000000">MenuModule</text>
</g>
<!-- MenuComponent&#45;&gt;MenuModule -->
<g id="edge1" class="edge">
<title>MenuComponent&#45;&gt;MenuModule</title>
<path fill="none" stroke="#000000" d="M2280,-122.0908C2280,-145.1328 2280,-182 2280,-182 2280,-182 1466.1607,-182 1466.1607,-182"/>
<polygon fill="#000000" stroke="#000000" points="1466.1608,-178.5001 1456.1607,-182 1466.1607,-185.5001 1466.1608,-178.5001"/>
</g>
<!-- MenuComponent  -->
<g id="node10" class="node">
<title>MenuComponent </title>
<polygon fill="#fb8072" stroke="#000000" points="1468.9926,-252 1351.0074,-252 1351.0074,-216 1468.9926,-216 1468.9926,-252"/>
<text text-anchor="middle" x="1410" y="-229.8" font-family="Times,serif" font-size="14.00" fill="#000000">MenuComponent </text>
</g>
<!-- MenuModule&#45;&gt;MenuComponent  -->
<g id="edge9" class="edge">
<title>MenuModule&#45;&gt;MenuComponent </title>
<path fill="none" stroke="#000000" stroke-dasharray="5,2" d="M1410,-187.1061C1410,-187.1061 1410,-205.991 1410,-205.991"/>
<polygon fill="#000000" stroke="#000000" points="1406.5001,-205.9909 1410,-215.991 1413.5001,-205.991 1406.5001,-205.9909"/>
</g>
<!-- AboutModule -->
<g id="node3" class="node">
<title>AboutModule</title>
<polygon fill="#8dd3c7" stroke="#000000" points="2199.0481,-122 2196.0481,-126 2175.0481,-126 2172.0481,-122 2104.9519,-122 2104.9519,-86 2199.0481,-86 2199.0481,-122"/>
<text text-anchor="middle" x="2152" y="-99.8" font-family="Times,serif" font-size="14.00" fill="#000000">AboutModule</text>
</g>
<!-- AboutModule&#45;&gt;MenuModule -->
<g id="edge2" class="edge">
<title>AboutModule&#45;&gt;MenuModule</title>
<path fill="none" stroke="#000000" d="M2152,-122.0449C2152,-143.6623 2152,-177 2152,-177 2152,-177 1466.1351,-177 1466.1351,-177"/>
<polygon fill="#000000" stroke="#000000" points="1466.1351,-173.5001 1456.1351,-177 1466.135,-180.5001 1466.1351,-173.5001"/>
</g>
<!-- AddGadgetModule -->
<g id="node4" class="node">
<title>AddGadgetModule</title>
<polygon fill="#8dd3c7" stroke="#000000" points="2087.0828,-122 2084.0828,-126 2063.0828,-126 2060.0828,-122 1962.9172,-122 1962.9172,-86 2087.0828,-86 2087.0828,-122"/>
<text text-anchor="middle" x="2025" y="-99.8" font-family="Times,serif" font-size="14.00" fill="#000000">AddGadgetModule</text>
</g>
<!-- AddGadgetModule&#45;&gt;MenuModule -->
<g id="edge3" class="edge">
<title>AddGadgetModule&#45;&gt;MenuModule</title>
<path fill="none" stroke="#000000" d="M2025,-122.2228C2025,-142.3652 2025,-172 2025,-172 2025,-172 1466.225,-172 1466.225,-172"/>
<polygon fill="#000000" stroke="#000000" points="1466.225,-168.5001 1456.225,-172 1466.2249,-175.5001 1466.225,-168.5001"/>
</g>
<!-- ConfigurationModule -->
<g id="node5" class="node">
<title>ConfigurationModule</title>
<polygon fill="#8dd3c7" stroke="#000000" points="1945.094,-122 1942.094,-126 1921.094,-126 1918.094,-122 1806.906,-122 1806.906,-86 1945.094,-86 1945.094,-122"/>
<text text-anchor="middle" x="1876" y="-99.8" font-family="Times,serif" font-size="14.00" fill="#000000">ConfigurationModule</text>
</g>
<!-- ConfigurationModule&#45;&gt;MenuModule -->
<g id="edge4" class="edge">
<title>ConfigurationModule&#45;&gt;MenuModule</title>
<path fill="none" stroke="#000000" d="M1876,-122.2222C1876,-140.8285 1876,-167 1876,-167 1876,-167 1466.3855,-167 1466.3855,-167"/>
<polygon fill="#000000" stroke="#000000" points="1466.3856,-163.5001 1456.3855,-167 1466.3855,-170.5001 1466.3856,-163.5001"/>
</g>
<!-- GadgetModule -->
<g id="node6" class="node">
<title>GadgetModule</title>
<polygon fill="#8dd3c7" stroke="#000000" points="1788.9762,-122 1785.9762,-126 1764.9762,-126 1761.9762,-122 1689.0238,-122 1689.0238,-86 1788.9762,-86 1788.9762,-122"/>
<text text-anchor="middle" x="1739" y="-99.8" font-family="Times,serif" font-size="14.00" fill="#000000">GadgetModule</text>
</g>
<!-- GadgetModule&#45;&gt;MenuModule -->
<g id="edge5" class="edge">
<title>GadgetModule&#45;&gt;MenuModule</title>
<path fill="none" stroke="#000000" d="M1739,-122.0336C1739,-139.0597 1739,-162 1739,-162 1739,-162 1466.4399,-162 1466.4399,-162"/>
<polygon fill="#000000" stroke="#000000" points="1466.4399,-158.5001 1456.4399,-162 1466.4398,-165.5001 1466.4399,-158.5001"/>
</g>
<!-- LayoutModule -->
<g id="node7" class="node">
<title>LayoutModule</title>
<polygon fill="#8dd3c7" stroke="#000000" points="1670.7078,-122 1667.7078,-126 1646.7078,-126 1643.7078,-122 1571.2922,-122 1571.2922,-86 1670.7078,-86 1670.7078,-122"/>
<text text-anchor="middle" x="1621" y="-99.8" font-family="Times,serif" font-size="14.00" fill="#000000">LayoutModule</text>
</g>
<!-- LayoutModule&#45;&gt;MenuModule -->
<g id="edge6" class="edge">
<title>LayoutModule&#45;&gt;MenuModule</title>
<path fill="none" stroke="#000000" d="M1621,-122.2396C1621,-137.5706 1621,-157 1621,-157 1621,-157 1466.3048,-157 1466.3048,-157"/>
<polygon fill="#000000" stroke="#000000" points="1466.3049,-153.5001 1456.3048,-157 1466.3048,-160.5001 1466.3049,-153.5001"/>
</g>
<!-- NotificationModule -->
<g id="node8" class="node">
<title>NotificationModule</title>
<polygon fill="#8dd3c7" stroke="#000000" points="1553.6994,-122 1550.6994,-126 1529.6994,-126 1526.6994,-122 1426.3006,-122 1426.3006,-86 1553.6994,-86 1553.6994,-122"/>
<text text-anchor="middle" x="1490" y="-99.8" font-family="Times,serif" font-size="14.00" fill="#000000">NotificationModule</text>
</g>
<!-- NotificationModule&#45;&gt;MenuModule -->
<g id="edge7" class="edge">
<title>NotificationModule&#45;&gt;MenuModule</title>
<path fill="none" stroke="#000000" d="M1441.2525,-122.1061C1441.2525,-122.1061 1441.2525,-140.991 1441.2525,-140.991"/>
<polygon fill="#000000" stroke="#000000" points="1437.7525,-140.9909 1441.2525,-150.991 1444.7525,-140.991 1437.7525,-140.9909"/>
</g>
<!-- TypeAheadInputModule -->
<g id="node9" class="node">
<title>TypeAheadInputModule</title>
<polygon fill="#8dd3c7" stroke="#000000" points="1408.4045,-122 1405.4045,-126 1384.4045,-126 1381.4045,-122 1253.5955,-122 1253.5955,-86 1408.4045,-86 1408.4045,-122"/>
<text text-anchor="middle" x="1331" y="-99.8" font-family="Times,serif" font-size="14.00" fill="#000000">TypeAheadInputModule</text>
</g>
<!-- TypeAheadInputModule&#45;&gt;MenuModule -->
<g id="edge8" class="edge">
<title>TypeAheadInputModule&#45;&gt;MenuModule</title>
<path fill="none" stroke="#000000" d="M1386.0488,-122.1061C1386.0488,-122.1061 1386.0488,-140.991 1386.0488,-140.991"/>
<polygon fill="#000000" stroke="#000000" points="1382.5488,-140.9909 1386.0488,-150.991 1389.5488,-140.991 1382.5488,-140.9909"/>
</g>
<!-- ConfigurationService -->
<g id="node11" class="node">
<title>ConfigurationService</title>
<ellipse fill="#fdb462" stroke="#000000" cx="1136" cy="-104" rx="94.3408" ry="18"/>
<text text-anchor="middle" x="1136" y="-99.8" font-family="Times,serif" font-size="14.00" fill="#000000">ConfigurationService</text>
</g>
<!-- ConfigurationService&#45;&gt;MenuModule -->
<g id="edge10" class="edge">
<title>ConfigurationService&#45;&gt;MenuModule</title>
<path fill="none" stroke="#000000" d="M1136,-122.2396C1136,-137.5706 1136,-157 1136,-157 1136,-157 1353.8295,-157 1353.8295,-157"/>
<polygon fill="#000000" stroke="#000000" points="1353.8295,-160.5001 1363.8295,-157 1353.8294,-153.5001 1353.8295,-160.5001"/>
</g>
<!-- EndPointService -->
<g id="node12" class="node">
<title>EndPointService</title>
<ellipse fill="#fdb462" stroke="#000000" cx="948" cy="-104" rx="75.8817" ry="18"/>
<text text-anchor="middle" x="948" y="-99.8" font-family="Times,serif" font-size="14.00" fill="#000000">EndPointService</text>
</g>
<!-- EndPointService&#45;&gt;MenuModule -->
<g id="edge11" class="edge">
<title>EndPointService&#45;&gt;MenuModule</title>
<path fill="none" stroke="#000000" d="M948,-122.0336C948,-139.0597 948,-162 948,-162 948,-162 1353.5864,-162 1353.5864,-162"/>
<polygon fill="#000000" stroke="#000000" points="1353.5864,-165.5001 1363.5864,-162 1353.5863,-158.5001 1353.5864,-165.5001"/>
</g>
<!-- GadgetPropertyService -->
<g id="node13" class="node">
<title>GadgetPropertyService</title>
<ellipse fill="#fdb462" stroke="#000000" cx="753" cy="-104" rx="101.2621" ry="18"/>
<text text-anchor="middle" x="753" y="-99.8" font-family="Times,serif" font-size="14.00" fill="#000000">GadgetPropertyService</text>
</g>
<!-- GadgetPropertyService&#45;&gt;MenuModule -->
<g id="edge12" class="edge">
<title>GadgetPropertyService&#45;&gt;MenuModule</title>
<path fill="none" stroke="#000000" d="M753,-122.2222C753,-140.8285 753,-167 753,-167 753,-167 1353.801,-167 1353.801,-167"/>
<polygon fill="#000000" stroke="#000000" points="1353.8011,-170.5001 1363.801,-167 1353.801,-163.5001 1353.8011,-170.5001"/>
</g>
<!-- MenuEventService -->
<g id="node14" class="node">
<title>MenuEventService</title>
<ellipse fill="#fdb462" stroke="#000000" cx="549" cy="-104" rx="85.0928" ry="18"/>
<text text-anchor="middle" x="549" y="-99.8" font-family="Times,serif" font-size="14.00" fill="#000000">MenuEventService</text>
</g>
<!-- MenuEventService&#45;&gt;MenuModule -->
<g id="edge13" class="edge">
<title>MenuEventService&#45;&gt;MenuModule</title>
<path fill="none" stroke="#000000" d="M549,-122.2228C549,-142.3652 549,-172 549,-172 549,-172 1353.7089,-172 1353.7089,-172"/>
<polygon fill="#000000" stroke="#000000" points="1353.7089,-175.5001 1363.7089,-172 1353.7089,-168.5001 1353.7089,-175.5001"/>
</g>
<!-- ObservableWebSocketService -->
<g id="node15" class="node">
<title>ObservableWebSocketService</title>
<ellipse fill="#fdb462" stroke="#000000" cx="317" cy="-104" rx="128.4512" ry="18"/>
<text text-anchor="middle" x="317" y="-99.8" font-family="Times,serif" font-size="14.00" fill="#000000">ObservableWebSocketService</text>
</g>
<!-- ObservableWebSocketService&#45;&gt;MenuModule -->
<g id="edge14" class="edge">
<title>ObservableWebSocketService&#45;&gt;MenuModule</title>
<path fill="none" stroke="#000000" d="M317,-122.0449C317,-143.6623 317,-177 317,-177 317,-177 1353.7333,-177 1353.7333,-177"/>
<polygon fill="#000000" stroke="#000000" points="1353.7333,-180.5001 1363.7333,-177 1353.7332,-173.5001 1353.7333,-180.5001"/>
</g>
<!-- RuntimeService -->
<g id="node16" class="node">
<title>RuntimeService</title>
<ellipse fill="#fdb462" stroke="#000000" cx="97" cy="-104" rx="73.0113" ry="18"/>
<text text-anchor="middle" x="97" y="-99.8" font-family="Times,serif" font-size="14.00" fill="#000000">RuntimeService</text>
</g>
<!-- RuntimeService&#45;&gt;MenuModule -->
<g id="edge15" class="edge">
<title>RuntimeService&#45;&gt;MenuModule</title>
<path fill="none" stroke="#000000" d="M97,-122.0908C97,-145.1328 97,-182 97,-182 97,-182 1353.6553,-182 1353.6553,-182"/>
<polygon fill="#000000" stroke="#000000" points="1353.6553,-185.5001 1363.6553,-182 1353.6553,-178.5001 1353.6553,-185.5001"/>
</g>
</g>
</svg>
