<?xml version="1.0" encoding="UTF-8" standalone="no"?>
<!DOCTYPE svg PUBLIC "-//W3C//DTD SVG 1.1//EN"
 "http://www.w3.org/Graphics/SVG/1.1/DTD/svg11.dtd">
<!-- Generated by graphviz version 2.40.1 (20161225.0304)
 -->
<!-- Title: dependencies Pages: 1 -->
<svg width="2808pt" height="284pt"
 viewBox="0.00 0.00 2808.00 284.00" xmlns="http://www.w3.org/2000/svg" xmlns:xlink="http://www.w3.org/1999/xlink">
<g id="graph0" class="graph" transform="scale(1 1) rotate(0) translate(4 280)">
<title>dependencies</title>
<polygon fill="#ffffff" stroke="transparent" points="-4,4 -4,-280 2804,-280 2804,4 -4,4"/>
<text text-anchor="start" x="1379.0091" y="-42.4" font-family="sans-serif" font-weight="bold" font-size="14.00" fill="#000000">Legend</text>
<polygon fill="#ffffb3" stroke="transparent" points="1166,-10 1166,-30 1186,-30 1186,-10 1166,-10"/>
<text text-anchor="start" x="1189.629" y="-15.4" font-family="sans-serif" font-size="14.00" fill="#000000"> &#160;Declarations</text>
<polygon fill="#8dd3c7" stroke="transparent" points="1279,-10 1279,-30 1299,-30 1299,-10 1279,-10"/>
<text text-anchor="start" x="1302.7251" y="-15.4" font-family="sans-serif" font-size="14.00" fill="#000000"> &#160;Module</text>
<polygon fill="#80b1d3" stroke="transparent" points="1365,-10 1365,-30 1385,-30 1385,-10 1365,-10"/>
<text text-anchor="start" x="1388.7812" y="-15.4" font-family="sans-serif" font-size="14.00" fill="#000000"> &#160;Bootstrap</text>
<polygon fill="#fdb462" stroke="transparent" points="1462,-10 1462,-30 1482,-30 1482,-10 1462,-10"/>
<text text-anchor="start" x="1485.6732" y="-15.4" font-family="sans-serif" font-size="14.00" fill="#000000"> &#160;Providers</text>
<polygon fill="#fb8072" stroke="transparent" points="1558,-10 1558,-30 1578,-30 1578,-10 1558,-10"/>
<text text-anchor="start" x="1581.7258" y="-15.4" font-family="sans-serif" font-size="14.00" fill="#000000"> &#160;Exports</text>
<g id="clust1" class="cluster">
<title>cluster_MenuModule</title>
<polygon fill="none" stroke="#000000" stroke-dasharray="1,5" points="8,-70 8,-268 2792,-268 2792,-70 8,-70"/>
</g>
<g id="clust2" class="cluster">
<title>cluster_MenuModule_declarations</title>
<polygon fill="none" stroke="#000000" points="2654,-78 2654,-130 2784,-130 2784,-78 2654,-78"/>
</g>
<g id="clust4" class="cluster">
<title>cluster_MenuModule_imports</title>
<polygon fill="none" stroke="#000000" points="1246,-78 1246,-130 2646,-130 2646,-78 1246,-78"/>
</g>
<g id="clust5" class="cluster">
<title>cluster_MenuModule_exports</title>
<polygon fill="none" stroke="#000000" points="1520,-208 1520,-260 1654,-260 1654,-208 1520,-208"/>
</g>
<g id="clust7" class="cluster">
<title>cluster_MenuModule_providers</title>
<polygon fill="none" stroke="#000000" points="16,-78 16,-130 1238,-130 1238,-78 16,-78"/>
</g>
<!-- MenuComponent -->
<g id="node1" class="node">
<title>MenuComponent</title>
<polygon fill="#ffffb3" stroke="#000000" points="2775.9916,-122 2662.0084,-122 2662.0084,-86 2775.9916,-86 2775.9916,-122"/>
<text text-anchor="middle" x="2719" y="-99.8" font-family="Times,serif" font-size="14.00" fill="#000000">MenuComponent</text>
</g>
<!-- MenuModule -->
<g id="node2" class="node">
<title>MenuModule</title>
<polygon fill="#8dd3c7" stroke="#000000" points="1633.2092,-187 1630.2092,-191 1609.2092,-191 1606.2092,-187 1540.7908,-187 1540.7908,-151 1633.2092,-151 1633.2092,-187"/>
<text text-anchor="middle" x="1587" y="-164.8" font-family="Times,serif" font-size="14.00" fill="#000000">MenuModule</text>
</g>
<!-- MenuComponent&#45;&gt;MenuModule -->
<g id="edge1" class="edge">
<title>MenuComponent&#45;&gt;MenuModule</title>
<path fill="none" stroke="#000000" d="M2719,-122.3228C2719,-145.6602 2719,-183 2719,-183 2719,-183 1643.1313,-183 1643.1313,-183"/>
<polygon fill="#000000" stroke="#000000" points="1643.1314,-179.5001 1633.1313,-183 1643.1313,-186.5001 1643.1314,-179.5001"/>
</g>
<!-- MenuComponent  -->
<g id="node13" class="node">
<title>MenuComponent </title>
<polygon fill="#fb8072" stroke="#000000" points="1645.9926,-252 1528.0074,-252 1528.0074,-216 1645.9926,-216 1645.9926,-252"/>
<text text-anchor="middle" x="1587" y="-229.8" font-family="Times,serif" font-size="14.00" fill="#000000">MenuComponent </text>
</g>
<!-- MenuModule&#45;&gt;MenuComponent  -->
<g id="edge12" class="edge">
<title>MenuModule&#45;&gt;MenuComponent </title>
<path fill="none" stroke="#000000" stroke-dasharray="5,2" d="M1587,-187.1061C1587,-187.1061 1587,-205.991 1587,-205.991"/>
<polygon fill="#000000" stroke="#000000" points="1583.5001,-205.9909 1587,-215.991 1590.5001,-205.991 1583.5001,-205.9909"/>
</g>
<!-- CommonModule -->
<g id="node3" class="node">
<title>CommonModule</title>
<polygon fill="#8dd3c7" stroke="#000000" points="2637.6681,-122 2634.6681,-126 2613.6681,-126 2610.6681,-122 2526.3319,-122 2526.3319,-86 2637.6681,-86 2637.6681,-122"/>
<text text-anchor="middle" x="2582" y="-99.8" font-family="Times,serif" font-size="14.00" fill="#000000">CommonModule</text>
</g>
<!-- CommonModule&#45;&gt;MenuModule -->
<g id="edge2" class="edge">
<title>CommonModule&#45;&gt;MenuModule</title>
<path fill="none" stroke="#000000" d="M2582,-122.1554C2582,-144.3519 2582,-179 2582,-179 2582,-179 1643.3253,-179 1643.3253,-179"/>
<polygon fill="#000000" stroke="#000000" points="1643.3254,-175.5001 1633.3253,-179 1643.3253,-182.5001 1643.3254,-175.5001"/>
</g>
<!-- NotificationModule -->
<g id="node4" class="node">
<title>NotificationModule</title>
<polygon fill="#8dd3c7" stroke="#000000" points="2508.6994,-122 2505.6994,-126 2484.6994,-126 2481.6994,-122 2381.3006,-122 2381.3006,-86 2508.6994,-86 2508.6994,-122"/>
<text text-anchor="middle" x="2445" y="-99.8" font-family="Times,serif" font-size="14.00" fill="#000000">NotificationModule</text>
</g>
<!-- NotificationModule&#45;&gt;MenuModule -->
<g id="edge3" class="edge">
<title>NotificationModule&#45;&gt;MenuModule</title>
<path fill="none" stroke="#000000" d="M2445,-122.2843C2445,-143.3211 2445,-175 2445,-175 2445,-175 1643.1298,-175 1643.1298,-175"/>
<polygon fill="#000000" stroke="#000000" points="1643.1298,-171.5001 1633.1298,-175 1643.1298,-178.5001 1643.1298,-171.5001"/>
</g>
<!-- AddGadgetModule -->
<g id="node5" class="node">
<title>AddGadgetModule</title>
<polygon fill="#8dd3c7" stroke="#000000" points="2363.0828,-122 2360.0828,-126 2339.0828,-126 2336.0828,-122 2238.9172,-122 2238.9172,-86 2363.0828,-86 2363.0828,-122"/>
<text text-anchor="middle" x="2301" y="-99.8" font-family="Times,serif" font-size="14.00" fill="#000000">AddGadgetModule</text>
</g>
<!-- AddGadgetModule&#45;&gt;MenuModule -->
<g id="edge4" class="edge">
<title>AddGadgetModule&#45;&gt;MenuModule</title>
<path fill="none" stroke="#000000" d="M2301,-122.308C2301,-142.1455 2301,-171 2301,-171 2301,-171 1643.2974,-171 1643.2974,-171"/>
<polygon fill="#000000" stroke="#000000" points="1643.2974,-167.5001 1633.2974,-171 1643.2974,-174.5001 1643.2974,-167.5001"/>
</g>
<!-- LayoutModule -->
<g id="node6" class="node">
<title>LayoutModule</title>
<polygon fill="#8dd3c7" stroke="#000000" points="2220.7078,-122 2217.7078,-126 2196.7078,-126 2193.7078,-122 2121.2922,-122 2121.2922,-86 2220.7078,-86 2220.7078,-122"/>
<text text-anchor="middle" x="2171" y="-99.8" font-family="Times,serif" font-size="14.00" fill="#000000">LayoutModule</text>
</g>
<!-- LayoutModule&#45;&gt;MenuModule -->
<g id="edge5" class="edge">
<title>LayoutModule&#45;&gt;MenuModule</title>
<path fill="none" stroke="#000000" d="M2171,-122.2222C2171,-140.8285 2171,-167 2171,-167 2171,-167 1643.3136,-167 1643.3136,-167"/>
<polygon fill="#000000" stroke="#000000" points="1643.3137,-163.5001 1633.3136,-167 1643.3136,-170.5001 1643.3137,-163.5001"/>
</g>
<!-- ConfigurationModule -->
<g id="node7" class="node">
<title>ConfigurationModule</title>
<polygon fill="#8dd3c7" stroke="#000000" points="2103.094,-122 2100.094,-126 2079.094,-126 2076.094,-122 1964.906,-122 1964.906,-86 2103.094,-86 2103.094,-122"/>
<text text-anchor="middle" x="2034" y="-99.8" font-family="Times,serif" font-size="14.00" fill="#000000">ConfigurationModule</text>
</g>
<!-- ConfigurationModule&#45;&gt;MenuModule -->
<g id="edge6" class="edge">
<title>ConfigurationModule&#45;&gt;MenuModule</title>
<path fill="none" stroke="#000000" d="M2034,-122.0225C2034,-139.3734 2034,-163 2034,-163 2034,-163 1643.1532,-163 1643.1532,-163"/>
<polygon fill="#000000" stroke="#000000" points="1643.1533,-159.5001 1633.1532,-163 1643.1532,-166.5001 1643.1533,-159.5001"/>
</g>
<!-- TypeAheadInputModule -->
<g id="node8" class="node">
<title>TypeAheadInputModule</title>
<polygon fill="#8dd3c7" stroke="#000000" points="1947.4045,-122 1944.4045,-126 1923.4045,-126 1920.4045,-122 1792.5955,-122 1792.5955,-86 1947.4045,-86 1947.4045,-122"/>
<text text-anchor="middle" x="1870" y="-99.8" font-family="Times,serif" font-size="14.00" fill="#000000">TypeAheadInputModule</text>
</g>
<!-- TypeAheadInputModule&#45;&gt;MenuModule -->
<g id="edge7" class="edge">
<title>TypeAheadInputModule&#45;&gt;MenuModule</title>
<path fill="none" stroke="#000000" d="M1870,-122.0091C1870,-138.0494 1870,-159 1870,-159 1870,-159 1643.4148,-159 1643.4148,-159"/>
<polygon fill="#000000" stroke="#000000" points="1643.4148,-155.5001 1633.4148,-159 1643.4148,-162.5001 1643.4148,-155.5001"/>
</g>
<!-- GadgetModule -->
<g id="node9" class="node">
<title>GadgetModule</title>
<polygon fill="#8dd3c7" stroke="#000000" points="1774.9762,-122 1771.9762,-126 1750.9762,-126 1747.9762,-122 1675.0238,-122 1675.0238,-86 1774.9762,-86 1774.9762,-122"/>
<text text-anchor="middle" x="1725" y="-99.8" font-family="Times,serif" font-size="14.00" fill="#000000">GadgetModule</text>
</g>
<!-- GadgetModule&#45;&gt;MenuModule -->
<g id="edge8" class="edge">
<title>GadgetModule&#45;&gt;MenuModule</title>
<path fill="none" stroke="#000000" d="M1725,-122.1243C1725,-136.7832 1725,-155 1725,-155 1725,-155 1643.3359,-155 1643.3359,-155"/>
<polygon fill="#000000" stroke="#000000" points="1643.3359,-151.5001 1633.3359,-155 1643.3359,-158.5001 1643.3359,-151.5001"/>
</g>
<!-- DndModule.forRoot() -->
<g id="node10" class="node">
<title>DndModule.forRoot()</title>
<polygon fill="#8dd3c7" stroke="#000000" points="1657.026,-122 1654.026,-126 1633.026,-126 1630.026,-122 1516.974,-122 1516.974,-86 1657.026,-86 1657.026,-122"/>
<text text-anchor="middle" x="1587" y="-99.8" font-family="Times,serif" font-size="14.00" fill="#000000">DndModule.forRoot()</text>
</g>
<!-- DndModule.forRoot()&#45;&gt;MenuModule -->
<g id="edge9" class="edge">
<title>DndModule.forRoot()&#45;&gt;MenuModule</title>
<path fill="none" stroke="#000000" d="M1587,-122.1061C1587,-122.1061 1587,-140.991 1587,-140.991"/>
<polygon fill="#000000" stroke="#000000" points="1583.5001,-140.9909 1587,-150.991 1590.5001,-140.991 1583.5001,-140.9909"/>
</g>
<!-- MatButtonModule -->
<g id="node11" class="node">
<title>MatButtonModule</title>
<polygon fill="#8dd3c7" stroke="#000000" points="1499.2176,-122 1496.2176,-126 1475.2176,-126 1472.2176,-122 1378.7824,-122 1378.7824,-86 1499.2176,-86 1499.2176,-122"/>
<text text-anchor="middle" x="1439" y="-99.8" font-family="Times,serif" font-size="14.00" fill="#000000">MatButtonModule</text>
</g>
<!-- MatButtonModule&#45;&gt;MenuModule -->
<g id="edge10" class="edge">
<title>MatButtonModule&#45;&gt;MenuModule</title>
<path fill="none" stroke="#000000" d="M1439,-122.1243C1439,-136.7832 1439,-155 1439,-155 1439,-155 1530.5779,-155 1530.5779,-155"/>
<polygon fill="#000000" stroke="#000000" points="1530.578,-158.5001 1540.5779,-155 1530.5779,-151.5001 1530.578,-158.5001"/>
</g>
<!-- MatIconModule -->
<g id="node12" class="node">
<title>MatIconModule</title>
<polygon fill="#8dd3c7" stroke="#000000" points="1360.4748,-122 1357.4748,-126 1336.4748,-126 1333.4748,-122 1253.5252,-122 1253.5252,-86 1360.4748,-86 1360.4748,-122"/>
<text text-anchor="middle" x="1307" y="-99.8" font-family="Times,serif" font-size="14.00" fill="#000000">MatIconModule</text>
</g>
<!-- MatIconModule&#45;&gt;MenuModule -->
<g id="edge11" class="edge">
<title>MatIconModule&#45;&gt;MenuModule</title>
<path fill="none" stroke="#000000" d="M1307,-122.0091C1307,-138.0494 1307,-159 1307,-159 1307,-159 1530.7637,-159 1530.7637,-159"/>
<polygon fill="#000000" stroke="#000000" points="1530.7637,-162.5001 1540.7637,-159 1530.7637,-155.5001 1530.7637,-162.5001"/>
</g>
<!-- EndPointService -->
<g id="node14" class="node">
<title>EndPointService</title>
<ellipse fill="#fdb462" stroke="#000000" cx="1154" cy="-104" rx="75.8817" ry="18"/>
<text text-anchor="middle" x="1154" y="-99.8" font-family="Times,serif" font-size="14.00" fill="#000000">EndPointService</text>
</g>
<!-- EndPointService&#45;&gt;MenuModule -->
<g id="edge13" class="edge">
<title>EndPointService&#45;&gt;MenuModule</title>
<path fill="none" stroke="#000000" d="M1154,-122.0225C1154,-139.3734 1154,-163 1154,-163 1154,-163 1530.6614,-163 1530.6614,-163"/>
<polygon fill="#000000" stroke="#000000" points="1530.6615,-166.5001 1540.6614,-163 1530.6614,-159.5001 1530.6615,-166.5001"/>
</g>
<!-- RuntimeService -->
<g id="node15" class="node">
<title>RuntimeService</title>
<ellipse fill="#fdb462" stroke="#000000" cx="987" cy="-104" rx="73.0113" ry="18"/>
<text text-anchor="middle" x="987" y="-99.8" font-family="Times,serif" font-size="14.00" fill="#000000">RuntimeService</text>
</g>
<!-- RuntimeService&#45;&gt;MenuModule -->
<g id="edge14" class="edge">
<title>RuntimeService&#45;&gt;MenuModule</title>
<path fill="none" stroke="#000000" d="M987,-122.2222C987,-140.8285 987,-167 987,-167 987,-167 1530.4183,-167 1530.4183,-167"/>
<polygon fill="#000000" stroke="#000000" points="1530.4183,-170.5001 1540.4183,-167 1530.4182,-163.5001 1530.4183,-170.5001"/>
</g>
<!-- ConfigurationService -->
<g id="node16" class="node">
<title>ConfigurationService</title>
<ellipse fill="#fdb462" stroke="#000000" cx="802" cy="-104" rx="94.3408" ry="18"/>
<text text-anchor="middle" x="802" y="-99.8" font-family="Times,serif" font-size="14.00" fill="#000000">ConfigurationService</text>
</g>
<!-- ConfigurationService&#45;&gt;MenuModule -->
<g id="edge15" class="edge">
<title>ConfigurationService&#45;&gt;MenuModule</title>
<path fill="none" stroke="#000000" d="M802,-122.308C802,-142.1455 802,-171 802,-171 802,-171 1530.8254,-171 1530.8254,-171"/>
<polygon fill="#000000" stroke="#000000" points="1530.8254,-174.5001 1540.8254,-171 1530.8253,-167.5001 1530.8254,-174.5001"/>
</g>
<!-- GadgetPropertyService -->
<g id="node17" class="node">
<title>GadgetPropertyService</title>
<ellipse fill="#fdb462" stroke="#000000" cx="589" cy="-104" rx="101.2621" ry="18"/>
<text text-anchor="middle" x="589" y="-99.8" font-family="Times,serif" font-size="14.00" fill="#000000">GadgetPropertyService</text>
</g>
<!-- GadgetPropertyService&#45;&gt;MenuModule -->
<g id="edge16" class="edge">
<title>GadgetPropertyService&#45;&gt;MenuModule</title>
<path fill="none" stroke="#000000" d="M589,-122.2843C589,-143.3211 589,-175 589,-175 589,-175 1530.8659,-175 1530.8659,-175"/>
<polygon fill="#000000" stroke="#000000" points="1530.866,-178.5001 1540.8659,-175 1530.8659,-171.5001 1530.866,-178.5001"/>
</g>
<!-- ObservableWebSocketService -->
<g id="node18" class="node">
<title>ObservableWebSocketService</title>
<ellipse fill="#fdb462" stroke="#000000" cx="341" cy="-104" rx="128.4512" ry="18"/>
<text text-anchor="middle" x="341" y="-99.8" font-family="Times,serif" font-size="14.00" fill="#000000">ObservableWebSocketService</text>
</g>
<!-- ObservableWebSocketService&#45;&gt;MenuModule -->
<g id="edge17" class="edge">
<title>ObservableWebSocketService&#45;&gt;MenuModule</title>
<path fill="none" stroke="#000000" d="M341,-122.1554C341,-144.3519 341,-179 341,-179 341,-179 1530.8036,-179 1530.8036,-179"/>
<polygon fill="#000000" stroke="#000000" points="1530.8037,-182.5001 1540.8036,-179 1530.8036,-175.5001 1530.8037,-182.5001"/>
</g>
<!-- MenuEventService -->
<g id="node19" class="node">
<title>MenuEventService</title>
<ellipse fill="#fdb462" stroke="#000000" cx="109" cy="-104" rx="85.0928" ry="18"/>
<text text-anchor="middle" x="109" y="-99.8" font-family="Times,serif" font-size="14.00" fill="#000000">MenuEventService</text>
</g>
<!-- MenuEventService&#45;&gt;MenuModule -->
<g id="edge18" class="edge">
<title>MenuEventService&#45;&gt;MenuModule</title>
<path fill="none" stroke="#000000" d="M109,-122.3228C109,-145.6602 109,-183 109,-183 109,-183 1530.7363,-183 1530.7363,-183"/>
<polygon fill="#000000" stroke="#000000" points="1530.7364,-186.5001 1540.7363,-183 1530.7363,-179.5001 1530.7364,-186.5001"/>
</g>
</g>
</svg>
