<?xml version="1.0" encoding="UTF-8" standalone="no"?>
<!DOCTYPE svg PUBLIC "-//W3C//DTD SVG 1.1//EN"
 "http://www.w3.org/Graphics/SVG/1.1/DTD/svg11.dtd">
<!-- Generated by graphviz version 2.40.1 (20161225.0304)
 -->
<!-- Title: dependencies Pages: 1 -->
<svg width="1871pt" height="284pt"
 viewBox="0.00 0.00 1871.00 284.00" xmlns="http://www.w3.org/2000/svg" xmlns:xlink="http://www.w3.org/1999/xlink">
<g id="graph0" class="graph" transform="scale(1 1) rotate(0) translate(4 280)">
<title>dependencies</title>
<polygon fill="#ffffff" stroke="transparent" points="-4,4 -4,-280 1867,-280 1867,4 -4,4"/>
<text text-anchor="start" x="910.5091" y="-42.4" font-family="sans-serif" font-weight="bold" font-size="14.00" fill="#000000">Legend</text>
<polygon fill="#ffffb3" stroke="transparent" points="697.5,-10 697.5,-30 717.5,-30 717.5,-10 697.5,-10"/>
<text text-anchor="start" x="721.129" y="-15.4" font-family="sans-serif" font-size="14.00" fill="#000000"> &#160;Declarations</text>
<polygon fill="#8dd3c7" stroke="transparent" points="810.5,-10 810.5,-30 830.5,-30 830.5,-10 810.5,-10"/>
<text text-anchor="start" x="834.2251" y="-15.4" font-family="sans-serif" font-size="14.00" fill="#000000"> &#160;Module</text>
<polygon fill="#80b1d3" stroke="transparent" points="896.5,-10 896.5,-30 916.5,-30 916.5,-10 896.5,-10"/>
<text text-anchor="start" x="920.2812" y="-15.4" font-family="sans-serif" font-size="14.00" fill="#000000"> &#160;Bootstrap</text>
<polygon fill="#fdb462" stroke="transparent" points="993.5,-10 993.5,-30 1013.5,-30 1013.5,-10 993.5,-10"/>
<text text-anchor="start" x="1017.1732" y="-15.4" font-family="sans-serif" font-size="14.00" fill="#000000"> &#160;Providers</text>
<polygon fill="#fb8072" stroke="transparent" points="1089.5,-10 1089.5,-30 1109.5,-30 1109.5,-10 1089.5,-10"/>
<text text-anchor="start" x="1113.2258" y="-15.4" font-family="sans-serif" font-size="14.00" fill="#000000"> &#160;Exports</text>
<g id="clust1" class="cluster">
<title>cluster_ConfigurationModule</title>
<polygon fill="none" stroke="#000000" stroke-dasharray="1,5" points="8,-70 8,-268 1855,-268 1855,-70 8,-70"/>
</g>
<g id="clust2" class="cluster">
<title>cluster_ConfigurationModule_declarations</title>
<polygon fill="none" stroke="#000000" points="1299,-78 1299,-130 1847,-130 1847,-78 1299,-78"/>
</g>
<g id="clust6" class="cluster">
<title>cluster_ConfigurationModule_imports</title>
<polygon fill="none" stroke="#000000" points="192,-78 192,-130 1291,-130 1291,-78 192,-78"/>
</g>
<g id="clust7" class="cluster">
<title>cluster_ConfigurationModule_exports</title>
<polygon fill="none" stroke="#000000" points="606,-208 606,-260 1164,-260 1164,-208 606,-208"/>
</g>
<g id="clust9" class="cluster">
<title>cluster_ConfigurationModule_providers</title>
<polygon fill="none" stroke="#000000" points="16,-78 16,-130 184,-130 184,-78 16,-78"/>
</g>
<!-- BoardConfigurationComponent -->
<g id="node1" class="node">
<title>BoardConfigurationComponent</title>
<polygon fill="#ffffb3" stroke="#000000" points="1839.0884,-122 1644.9116,-122 1644.9116,-86 1839.0884,-86 1839.0884,-122"/>
<text text-anchor="middle" x="1742" y="-99.8" font-family="Times,serif" font-size="14.00" fill="#000000">BoardConfigurationComponent</text>
</g>
<!-- ConfigurationModule -->
<g id="node4" class="node">
<title>ConfigurationModule</title>
<polygon fill="#8dd3c7" stroke="#000000" points="941.094,-187 938.094,-191 917.094,-191 914.094,-187 802.906,-187 802.906,-151 941.094,-151 941.094,-187"/>
<text text-anchor="middle" x="872" y="-164.8" font-family="Times,serif" font-size="14.00" fill="#000000">ConfigurationModule</text>
</g>
<!-- BoardConfigurationComponent&#45;&gt;ConfigurationModule -->
<g id="edge1" class="edge">
<title>BoardConfigurationComponent&#45;&gt;ConfigurationModule</title>
<path fill="none" stroke="#000000" d="M1742,-122.0449C1742,-143.6623 1742,-177 1742,-177 1742,-177 951.3595,-177 951.3595,-177"/>
<polygon fill="#000000" stroke="#000000" points="951.3595,-173.5001 941.3595,-177 951.3594,-180.5001 951.3595,-173.5001"/>
</g>
<!-- EndPointComponent -->
<g id="node2" class="node">
<title>EndPointComponent</title>
<polygon fill="#ffffb3" stroke="#000000" points="1626.9496,-122 1493.0504,-122 1493.0504,-86 1626.9496,-86 1626.9496,-122"/>
<text text-anchor="middle" x="1560" y="-99.8" font-family="Times,serif" font-size="14.00" fill="#000000">EndPointComponent</text>
</g>
<!-- EndPointComponent&#45;&gt;ConfigurationModule -->
<g id="edge2" class="edge">
<title>EndPointComponent&#45;&gt;ConfigurationModule</title>
<path fill="none" stroke="#000000" d="M1560,-122.2228C1560,-142.3652 1560,-172 1560,-172 1560,-172 951.1181,-172 951.1181,-172"/>
<polygon fill="#000000" stroke="#000000" points="951.1182,-168.5001 941.1181,-172 951.1181,-175.5001 951.1182,-168.5001"/>
</g>
<!-- EndPointDetailComponent -->
<g id="node3" class="node">
<title>EndPointDetailComponent</title>
<polygon fill="#ffffb3" stroke="#000000" points="1474.6568,-122 1307.3432,-122 1307.3432,-86 1474.6568,-86 1474.6568,-122"/>
<text text-anchor="middle" x="1391" y="-99.8" font-family="Times,serif" font-size="14.00" fill="#000000">EndPointDetailComponent</text>
</g>
<!-- EndPointDetailComponent&#45;&gt;ConfigurationModule -->
<g id="edge3" class="edge">
<title>EndPointDetailComponent&#45;&gt;ConfigurationModule</title>
<path fill="none" stroke="#000000" d="M1391,-122.2222C1391,-140.8285 1391,-167 1391,-167 1391,-167 951.1875,-167 951.1875,-167"/>
<polygon fill="#000000" stroke="#000000" points="951.1875,-163.5001 941.1875,-167 951.1874,-170.5001 951.1875,-163.5001"/>
</g>
<!-- BoardConfigurationComponent  -->
<g id="node13" class="node">
<title>BoardConfigurationComponent </title>
<polygon fill="#fb8072" stroke="#000000" points="1155.5888,-252 958.4112,-252 958.4112,-216 1155.5888,-216 1155.5888,-252"/>
<text text-anchor="middle" x="1057" y="-229.8" font-family="Times,serif" font-size="14.00" fill="#000000">BoardConfigurationComponent </text>
</g>
<!-- ConfigurationModule&#45;&gt;BoardConfigurationComponent  -->
<g id="edge12" class="edge">
<title>ConfigurationModule&#45;&gt;BoardConfigurationComponent </title>
<path fill="none" stroke="#000000" stroke-dasharray="5,2" d="M941.3332,-182C960.6126,-182 976.381,-182 976.381,-182 976.381,-182 976.381,-205.8129 976.381,-205.8129"/>
<polygon fill="#000000" stroke="#000000" points="972.881,-205.8129 976.381,-215.8129 979.881,-205.813 972.881,-205.8129"/>
</g>
<!-- EndPointComponent  -->
<g id="node14" class="node">
<title>EndPointComponent </title>
<polygon fill="#fb8072" stroke="#000000" points="940.4488,-252 803.5512,-252 803.5512,-216 940.4488,-216 940.4488,-252"/>
<text text-anchor="middle" x="872" y="-229.8" font-family="Times,serif" font-size="14.00" fill="#000000">EndPointComponent </text>
</g>
<!-- ConfigurationModule&#45;&gt;EndPointComponent  -->
<g id="edge13" class="edge">
<title>ConfigurationModule&#45;&gt;EndPointComponent </title>
<path fill="none" stroke="#000000" stroke-dasharray="5,2" d="M872,-187.1061C872,-187.1061 872,-205.991 872,-205.991"/>
<polygon fill="#000000" stroke="#000000" points="868.5001,-205.9909 872,-215.991 875.5001,-205.991 868.5001,-205.9909"/>
</g>
<!-- EndPointDetailComponent  -->
<g id="node15" class="node">
<title>EndPointDetailComponent </title>
<polygon fill="#fb8072" stroke="#000000" points="785.6565,-252 614.3435,-252 614.3435,-216 785.6565,-216 785.6565,-252"/>
<text text-anchor="middle" x="700" y="-229.8" font-family="Times,serif" font-size="14.00" fill="#000000">EndPointDetailComponent </text>
</g>
<!-- ConfigurationModule&#45;&gt;EndPointDetailComponent  -->
<g id="edge14" class="edge">
<title>ConfigurationModule&#45;&gt;EndPointDetailComponent </title>
<path fill="none" stroke="#000000" stroke-dasharray="5,2" d="M802.8351,-182C785.0499,-182 770.8217,-182 770.8217,-182 770.8217,-182 770.8217,-205.8129 770.8217,-205.8129"/>
<polygon fill="#000000" stroke="#000000" points="767.3218,-205.8129 770.8217,-215.8129 774.3218,-205.813 767.3218,-205.8129"/>
</g>
<!-- CommonModule -->
<g id="node5" class="node">
<title>CommonModule</title>
<polygon fill="#8dd3c7" stroke="#000000" points="1282.6681,-122 1279.6681,-126 1258.6681,-126 1255.6681,-122 1171.3319,-122 1171.3319,-86 1282.6681,-86 1282.6681,-122"/>
<text text-anchor="middle" x="1227" y="-99.8" font-family="Times,serif" font-size="14.00" fill="#000000">CommonModule</text>
</g>
<!-- CommonModule&#45;&gt;ConfigurationModule -->
<g id="edge4" class="edge">
<title>CommonModule&#45;&gt;ConfigurationModule</title>
<path fill="none" stroke="#000000" d="M1227,-122.0336C1227,-139.0597 1227,-162 1227,-162 1227,-162 951.2903,-162 951.2903,-162"/>
<polygon fill="#000000" stroke="#000000" points="951.2903,-158.5001 941.2903,-162 951.2903,-165.5001 951.2903,-158.5001"/>
</g>
<!-- DndModule.forRoot() -->
<g id="node6" class="node">
<title>DndModule.forRoot()</title>
<polygon fill="#8dd3c7" stroke="#000000" points="1153.026,-122 1150.026,-126 1129.026,-126 1126.026,-122 1012.974,-122 1012.974,-86 1153.026,-86 1153.026,-122"/>
<text text-anchor="middle" x="1083" y="-99.8" font-family="Times,serif" font-size="14.00" fill="#000000">DndModule.forRoot()</text>
</g>
<!-- DndModule.forRoot()&#45;&gt;ConfigurationModule -->
<g id="edge5" class="edge">
<title>DndModule.forRoot()&#45;&gt;ConfigurationModule</title>
<path fill="none" stroke="#000000" d="M1083,-122.2396C1083,-137.5706 1083,-157 1083,-157 1083,-157 951.0893,-157 951.0893,-157"/>
<polygon fill="#000000" stroke="#000000" points="951.0893,-153.5001 941.0893,-157 951.0893,-160.5001 951.0893,-153.5001"/>
</g>
<!-- MdButtonModule -->
<g id="node7" class="node">
<title>MdButtonModule</title>
<polygon fill="#8dd3c7" stroke="#000000" points="994.6123,-122 991.6123,-126 970.6123,-126 967.6123,-122 877.3877,-122 877.3877,-86 994.6123,-86 994.6123,-122"/>
<text text-anchor="middle" x="936" y="-99.8" font-family="Times,serif" font-size="14.00" fill="#000000">MdButtonModule</text>
</g>
<!-- MdButtonModule&#45;&gt;ConfigurationModule -->
<g id="edge6" class="edge">
<title>MdButtonModule&#45;&gt;ConfigurationModule</title>
<path fill="none" stroke="#000000" d="M909.2455,-122.1061C909.2455,-122.1061 909.2455,-140.991 909.2455,-140.991"/>
<polygon fill="#000000" stroke="#000000" points="905.7455,-140.9909 909.2455,-150.991 912.7455,-140.991 905.7455,-140.9909"/>
</g>
<!-- MdIconModule -->
<g id="node8" class="node">
<title>MdIconModule</title>
<polygon fill="#8dd3c7" stroke="#000000" points="859.8697,-122 856.8697,-126 835.8697,-126 832.8697,-122 756.1303,-122 756.1303,-86 859.8697,-86 859.8697,-122"/>
<text text-anchor="middle" x="808" y="-99.8" font-family="Times,serif" font-size="14.00" fill="#000000">MdIconModule</text>
</g>
<!-- MdIconModule&#45;&gt;ConfigurationModule -->
<g id="edge7" class="edge">
<title>MdIconModule&#45;&gt;ConfigurationModule</title>
<path fill="none" stroke="#000000" d="M831.4439,-122.1061C831.4439,-122.1061 831.4439,-140.991 831.4439,-140.991"/>
<polygon fill="#000000" stroke="#000000" points="827.944,-140.9909 831.4439,-150.991 834.944,-140.991 827.944,-140.9909"/>
</g>
<!-- MdCheckboxModule -->
<g id="node9" class="node">
<title>MdCheckboxModule</title>
<polygon fill="#8dd3c7" stroke="#000000" points="737.7604,-122 734.7604,-126 713.7604,-126 710.7604,-122 602.2396,-122 602.2396,-86 737.7604,-86 737.7604,-122"/>
<text text-anchor="middle" x="670" y="-99.8" font-family="Times,serif" font-size="14.00" fill="#000000">MdCheckboxModule</text>
</g>
<!-- MdCheckboxModule&#45;&gt;ConfigurationModule -->
<g id="edge8" class="edge">
<title>MdCheckboxModule&#45;&gt;ConfigurationModule</title>
<path fill="none" stroke="#000000" d="M676.151,-122.2396C676.151,-137.5706 676.151,-157 676.151,-157 676.151,-157 792.951,-157 792.951,-157"/>
<polygon fill="#000000" stroke="#000000" points="792.951,-160.5001 802.951,-157 792.9509,-153.5001 792.951,-160.5001"/>
</g>
<!-- MdInputModule -->
<g id="node10" class="node">
<title>MdInputModule</title>
<polygon fill="#8dd3c7" stroke="#000000" points="584.0465,-122 581.0465,-126 560.0465,-126 557.0465,-122 475.9535,-122 475.9535,-86 584.0465,-86 584.0465,-122"/>
<text text-anchor="middle" x="530" y="-99.8" font-family="Times,serif" font-size="14.00" fill="#000000">MdInputModule</text>
</g>
<!-- MdInputModule&#45;&gt;ConfigurationModule -->
<g id="edge9" class="edge">
<title>MdInputModule&#45;&gt;ConfigurationModule</title>
<path fill="none" stroke="#000000" d="M530,-122.0336C530,-139.0597 530,-162 530,-162 530,-162 792.7912,-162 792.7912,-162"/>
<polygon fill="#000000" stroke="#000000" points="792.7912,-165.5001 802.7912,-162 792.7912,-158.5001 792.7912,-165.5001"/>
</g>
<!-- FormsModule -->
<g id="node11" class="node">
<title>FormsModule</title>
<polygon fill="#8dd3c7" stroke="#000000" points="457.8288,-122 454.8288,-126 433.8288,-126 430.8288,-122 362.1712,-122 362.1712,-86 457.8288,-86 457.8288,-122"/>
<text text-anchor="middle" x="410" y="-99.8" font-family="Times,serif" font-size="14.00" fill="#000000">FormsModule</text>
</g>
<!-- FormsModule&#45;&gt;ConfigurationModule -->
<g id="edge10" class="edge">
<title>FormsModule&#45;&gt;ConfigurationModule</title>
<path fill="none" stroke="#000000" d="M410,-122.2222C410,-140.8285 410,-167 410,-167 410,-167 792.8339,-167 792.8339,-167"/>
<polygon fill="#000000" stroke="#000000" points="792.834,-170.5001 802.8339,-167 792.8339,-163.5001 792.834,-170.5001"/>
</g>
<!-- ReactiveFormsModule -->
<g id="node12" class="node">
<title>ReactiveFormsModule</title>
<polygon fill="#8dd3c7" stroke="#000000" points="344.3047,-122 341.3047,-126 320.3047,-126 317.3047,-122 199.6953,-122 199.6953,-86 344.3047,-86 344.3047,-122"/>
<text text-anchor="middle" x="272" y="-99.8" font-family="Times,serif" font-size="14.00" fill="#000000">ReactiveFormsModule</text>
</g>
<!-- ReactiveFormsModule&#45;&gt;ConfigurationModule -->
<g id="edge11" class="edge">
<title>ReactiveFormsModule&#45;&gt;ConfigurationModule</title>
<path fill="none" stroke="#000000" d="M272,-122.2228C272,-142.3652 272,-172 272,-172 272,-172 792.8795,-172 792.8795,-172"/>
<polygon fill="#000000" stroke="#000000" points="792.8796,-175.5001 802.8795,-172 792.8795,-168.5001 792.8796,-175.5001"/>
</g>
<!-- EndPointService -->
<g id="node16" class="node">
<title>EndPointService</title>
<ellipse fill="#fdb462" stroke="#000000" cx="100" cy="-104" rx="75.8817" ry="18"/>
<text text-anchor="middle" x="100" y="-99.8" font-family="Times,serif" font-size="14.00" fill="#000000">EndPointService</text>
</g>
<!-- EndPointService&#45;&gt;ConfigurationModule -->
<g id="edge15" class="edge">
<title>EndPointService&#45;&gt;ConfigurationModule</title>
<path fill="none" stroke="#000000" d="M100,-122.0449C100,-143.6623 100,-177 100,-177 100,-177 792.8107,-177 792.8107,-177"/>
<polygon fill="#000000" stroke="#000000" points="792.8108,-180.5001 802.8107,-177 792.8107,-173.5001 792.8108,-180.5001"/>
</g>
</g>
</svg>
