<?xml version="1.0" encoding="UTF-8" standalone="no"?>
<!DOCTYPE svg PUBLIC "-//W3C//DTD SVG 1.1//EN"
 "http://www.w3.org/Graphics/SVG/1.1/DTD/svg11.dtd">
<!-- Generated by graphviz version 2.40.1 (20161225.0304)
 -->
<!-- Title: dependencies Pages: 1 -->
<svg width="2965pt" height="211pt"
 viewBox="0.00 0.00 2965.00 211.00" xmlns="http://www.w3.org/2000/svg" xmlns:xlink="http://www.w3.org/1999/xlink">
<g id="graph0" class="graph" transform="scale(1 1) rotate(0) translate(4 207)">
<title>dependencies</title>
<polygon fill="#ffffff" stroke="transparent" points="-4,4 -4,-207 2961,-207 2961,4 -4,4"/>
<text text-anchor="start" x="1457.5091" y="-42.4" font-family="sans-serif" font-weight="bold" font-size="14.00" fill="#000000">Legend</text>
<polygon fill="#ffffb3" stroke="transparent" points="1244.5,-10 1244.5,-30 1264.5,-30 1264.5,-10 1244.5,-10"/>
<text text-anchor="start" x="1268.129" y="-15.4" font-family="sans-serif" font-size="14.00" fill="#000000"> &#160;Declarations</text>
<polygon fill="#8dd3c7" stroke="transparent" points="1357.5,-10 1357.5,-30 1377.5,-30 1377.5,-10 1357.5,-10"/>
<text text-anchor="start" x="1381.2251" y="-15.4" font-family="sans-serif" font-size="14.00" fill="#000000"> &#160;Module</text>
<polygon fill="#80b1d3" stroke="transparent" points="1443.5,-10 1443.5,-30 1463.5,-30 1463.5,-10 1443.5,-10"/>
<text text-anchor="start" x="1467.2812" y="-15.4" font-family="sans-serif" font-size="14.00" fill="#000000"> &#160;Bootstrap</text>
<polygon fill="#fdb462" stroke="transparent" points="1540.5,-10 1540.5,-30 1560.5,-30 1560.5,-10 1540.5,-10"/>
<text text-anchor="start" x="1564.1732" y="-15.4" font-family="sans-serif" font-size="14.00" fill="#000000"> &#160;Providers</text>
<polygon fill="#fb8072" stroke="transparent" points="1636.5,-10 1636.5,-30 1656.5,-30 1656.5,-10 1636.5,-10"/>
<text text-anchor="start" x="1660.2258" y="-15.4" font-family="sans-serif" font-size="14.00" fill="#000000"> &#160;Exports</text>
<g id="clust1" class="cluster">
<title>cluster_BoardModule</title>
<polygon fill="none" stroke="#000000" stroke-dasharray="1,5" points="8,-70 8,-195 2949,-195 2949,-70 8,-70"/>
</g>
<g id="clust2" class="cluster">
<title>cluster_BoardModule_declarations</title>
<polygon fill="none" stroke="#000000" points="2809,-78 2809,-130 2941,-130 2941,-78 2809,-78"/>
</g>
<g id="clust4" class="cluster">
<title>cluster_BoardModule_imports</title>
<polygon fill="none" stroke="#000000" points="1057,-78 1057,-130 2801,-130 2801,-78 1057,-78"/>
</g>
<g id="clust7" class="cluster">
<title>cluster_BoardModule_providers</title>
<polygon fill="none" stroke="#000000" points="16,-78 16,-130 1049,-130 1049,-78 16,-78"/>
</g>
<!-- BoardComponent -->
<g id="node1" class="node">
<title>BoardComponent</title>
<polygon fill="#ffffb3" stroke="#000000" points="2932.5451,-122 2817.4549,-122 2817.4549,-86 2932.5451,-86 2932.5451,-122"/>
<text text-anchor="middle" x="2875" y="-99.8" font-family="Times,serif" font-size="14.00" fill="#000000">BoardComponent</text>
</g>
<!-- BoardModule -->
<g id="node2" class="node">
<title>BoardModule</title>
<polygon fill="#8dd3c7" stroke="#000000" points="1670.7619,-187 1667.7619,-191 1646.7619,-191 1643.7619,-187 1577.2381,-187 1577.2381,-151 1670.7619,-151 1670.7619,-187"/>
<text text-anchor="middle" x="1624" y="-164.8" font-family="Times,serif" font-size="14.00" fill="#000000">BoardModule</text>
</g>
<!-- BoardComponent&#45;&gt;BoardModule -->
<g id="edge1" class="edge">
<title>BoardComponent&#45;&gt;BoardModule</title>
<path fill="none" stroke="#000000" d="M2875,-122.3228C2875,-145.6602 2875,-183 2875,-183 2875,-183 1681.1346,-183 1681.1346,-183"/>
<polygon fill="#000000" stroke="#000000" points="1681.1346,-179.5001 1671.1346,-183 1681.1346,-186.5001 1681.1346,-179.5001"/>
</g>
<!-- CommonModule -->
<g id="node3" class="node">
<title>CommonModule</title>
<polygon fill="#8dd3c7" stroke="#000000" points="2792.6681,-122 2789.6681,-126 2768.6681,-126 2765.6681,-122 2681.3319,-122 2681.3319,-86 2792.6681,-86 2792.6681,-122"/>
<text text-anchor="middle" x="2737" y="-99.8" font-family="Times,serif" font-size="14.00" fill="#000000">CommonModule</text>
</g>
<!-- CommonModule&#45;&gt;BoardModule -->
<g id="edge2" class="edge">
<title>CommonModule&#45;&gt;BoardModule</title>
<path fill="none" stroke="#000000" d="M2737,-122.1554C2737,-144.3519 2737,-179 2737,-179 2737,-179 1681.1133,-179 1681.1133,-179"/>
<polygon fill="#000000" stroke="#000000" points="1681.1134,-175.5001 1671.1133,-179 1681.1133,-182.5001 1681.1134,-175.5001"/>
</g>
<!-- NotificationModule -->
<g id="node4" class="node">
<title>NotificationModule</title>
<polygon fill="#8dd3c7" stroke="#000000" points="2663.6994,-122 2660.6994,-126 2639.6994,-126 2636.6994,-122 2536.3006,-122 2536.3006,-86 2663.6994,-86 2663.6994,-122"/>
<text text-anchor="middle" x="2600" y="-99.8" font-family="Times,serif" font-size="14.00" fill="#000000">NotificationModule</text>
</g>
<!-- NotificationModule&#45;&gt;BoardModule -->
<g id="edge3" class="edge">
<title>NotificationModule&#45;&gt;BoardModule</title>
<path fill="none" stroke="#000000" d="M2600,-122.2843C2600,-143.3211 2600,-175 2600,-175 2600,-175 1681.0745,-175 1681.0745,-175"/>
<polygon fill="#000000" stroke="#000000" points="1681.0745,-171.5001 1671.0745,-175 1681.0745,-178.5001 1681.0745,-171.5001"/>
</g>
<!-- AddGadgetModule -->
<g id="node5" class="node">
<title>AddGadgetModule</title>
<polygon fill="#8dd3c7" stroke="#000000" points="2518.0828,-122 2515.0828,-126 2494.0828,-126 2491.0828,-122 2393.9172,-122 2393.9172,-86 2518.0828,-86 2518.0828,-122"/>
<text text-anchor="middle" x="2456" y="-99.8" font-family="Times,serif" font-size="14.00" fill="#000000">AddGadgetModule</text>
</g>
<!-- AddGadgetModule&#45;&gt;BoardModule -->
<g id="edge4" class="edge">
<title>AddGadgetModule&#45;&gt;BoardModule</title>
<path fill="none" stroke="#000000" d="M2456,-122.308C2456,-142.1455 2456,-171 2456,-171 2456,-171 1680.8148,-171 1680.8148,-171"/>
<polygon fill="#000000" stroke="#000000" points="1680.8149,-167.5001 1670.8148,-171 1680.8148,-174.5001 1680.8149,-167.5001"/>
</g>
<!-- LayoutModule -->
<g id="node6" class="node">
<title>LayoutModule</title>
<polygon fill="#8dd3c7" stroke="#000000" points="2375.7078,-122 2372.7078,-126 2351.7078,-126 2348.7078,-122 2276.2922,-122 2276.2922,-86 2375.7078,-86 2375.7078,-122"/>
<text text-anchor="middle" x="2326" y="-99.8" font-family="Times,serif" font-size="14.00" fill="#000000">LayoutModule</text>
</g>
<!-- LayoutModule&#45;&gt;BoardModule -->
<g id="edge5" class="edge">
<title>LayoutModule&#45;&gt;BoardModule</title>
<path fill="none" stroke="#000000" d="M2326,-122.2222C2326,-140.8285 2326,-167 2326,-167 2326,-167 1680.8767,-167 1680.8767,-167"/>
<polygon fill="#000000" stroke="#000000" points="1680.8767,-163.5001 1670.8767,-167 1680.8767,-170.5001 1680.8767,-163.5001"/>
</g>
<!-- ConfigurationModule -->
<g id="node7" class="node">
<title>ConfigurationModule</title>
<polygon fill="#8dd3c7" stroke="#000000" points="2258.094,-122 2255.094,-126 2234.094,-126 2231.094,-122 2119.906,-122 2119.906,-86 2258.094,-86 2258.094,-122"/>
<text text-anchor="middle" x="2189" y="-99.8" font-family="Times,serif" font-size="14.00" fill="#000000">ConfigurationModule</text>
</g>
<!-- ConfigurationModule&#45;&gt;BoardModule -->
<g id="edge6" class="edge">
<title>ConfigurationModule&#45;&gt;BoardModule</title>
<path fill="none" stroke="#000000" d="M2189,-122.0225C2189,-139.3734 2189,-163 2189,-163 2189,-163 1681.1998,-163 1681.1998,-163"/>
<polygon fill="#000000" stroke="#000000" points="1681.1998,-159.5001 1671.1998,-163 1681.1997,-166.5001 1681.1998,-159.5001"/>
</g>
<!-- TypeAheadInputModule -->
<g id="node8" class="node">
<title>TypeAheadInputModule</title>
<polygon fill="#8dd3c7" stroke="#000000" points="2102.4045,-122 2099.4045,-126 2078.4045,-126 2075.4045,-122 1947.5955,-122 1947.5955,-86 2102.4045,-86 2102.4045,-122"/>
<text text-anchor="middle" x="2025" y="-99.8" font-family="Times,serif" font-size="14.00" fill="#000000">TypeAheadInputModule</text>
</g>
<!-- TypeAheadInputModule&#45;&gt;BoardModule -->
<g id="edge7" class="edge">
<title>TypeAheadInputModule&#45;&gt;BoardModule</title>
<path fill="none" stroke="#000000" d="M2025,-122.0091C2025,-138.0494 2025,-159 2025,-159 2025,-159 1680.7846,-159 1680.7846,-159"/>
<polygon fill="#000000" stroke="#000000" points="1680.7846,-155.5001 1670.7846,-159 1680.7846,-162.5001 1680.7846,-155.5001"/>
</g>
<!-- ToastModule -->
<g id="node9" class="node">
<title>ToastModule</title>
<polygon fill="#8dd3c7" stroke="#000000" points="1929.1529,-122 1926.1529,-126 1905.1529,-126 1902.1529,-122 1838.8471,-122 1838.8471,-86 1929.1529,-86 1929.1529,-122"/>
<text text-anchor="middle" x="1884" y="-99.8" font-family="Times,serif" font-size="14.00" fill="#000000">ToastModule</text>
</g>
<!-- ToastModule&#45;&gt;BoardModule -->
<g id="edge8" class="edge">
<title>ToastModule&#45;&gt;BoardModule</title>
<path fill="none" stroke="#000000" d="M1884,-122.1243C1884,-136.7832 1884,-155 1884,-155 1884,-155 1680.7831,-155 1680.7831,-155"/>
<polygon fill="#000000" stroke="#000000" points="1680.7831,-151.5001 1670.7831,-155 1680.783,-158.5001 1680.7831,-151.5001"/>
</g>
<!-- GridModule.withComponents(args) -->
<g id="node10" class="node">
<title>GridModule.withComponents(args)</title>
<polygon fill="#8dd3c7" stroke="#000000" points="1820.5134,-122 1817.5134,-126 1796.5134,-126 1793.5134,-122 1603.4866,-122 1603.4866,-86 1820.5134,-86 1820.5134,-122"/>
<text text-anchor="middle" x="1712" y="-99.8" font-family="Times,serif" font-size="14.00" fill="#000000">GridModule.withComponents(args)</text>
</g>
<!-- GridModule.withComponents(args)&#45;&gt;BoardModule -->
<g id="edge9" class="edge">
<title>GridModule.withComponents(args)&#45;&gt;BoardModule</title>
<path fill="none" stroke="#000000" d="M1637.1871,-122.1061C1637.1871,-122.1061 1637.1871,-140.991 1637.1871,-140.991"/>
<polygon fill="#000000" stroke="#000000" points="1633.6871,-140.9909 1637.1871,-150.991 1640.6871,-140.991 1633.6871,-140.9909"/>
</g>
<!-- GadgetModule -->
<g id="node11" class="node">
<title>GadgetModule</title>
<polygon fill="#8dd3c7" stroke="#000000" points="1585.9762,-122 1582.9762,-126 1561.9762,-126 1558.9762,-122 1486.0238,-122 1486.0238,-86 1585.9762,-86 1585.9762,-122"/>
<text text-anchor="middle" x="1536" y="-99.8" font-family="Times,serif" font-size="14.00" fill="#000000">GadgetModule</text>
</g>
<!-- GadgetModule&#45;&gt;BoardModule -->
<g id="edge10" class="edge">
<title>GadgetModule&#45;&gt;BoardModule</title>
<path fill="none" stroke="#000000" d="M1581.5537,-122.1061C1581.5537,-122.1061 1581.5537,-140.991 1581.5537,-140.991"/>
<polygon fill="#000000" stroke="#000000" points="1578.0537,-140.9909 1581.5537,-150.991 1585.0537,-140.991 1578.0537,-140.9909"/>
</g>
<!-- DndModule.forRoot() -->
<g id="node12" class="node">
<title>DndModule.forRoot()</title>
<polygon fill="#8dd3c7" stroke="#000000" points="1468.026,-122 1465.026,-126 1444.026,-126 1441.026,-122 1327.974,-122 1327.974,-86 1468.026,-86 1468.026,-122"/>
<text text-anchor="middle" x="1398" y="-99.8" font-family="Times,serif" font-size="14.00" fill="#000000">DndModule.forRoot()</text>
</g>
<!-- DndModule.forRoot()&#45;&gt;BoardModule -->
<g id="edge11" class="edge">
<title>DndModule.forRoot()&#45;&gt;BoardModule</title>
<path fill="none" stroke="#000000" d="M1398,-122.1243C1398,-136.7832 1398,-155 1398,-155 1398,-155 1567.1727,-155 1567.1727,-155"/>
<polygon fill="#000000" stroke="#000000" points="1567.1727,-158.5001 1577.1727,-155 1567.1726,-151.5001 1567.1727,-158.5001"/>
</g>
<!-- MatButtonModule -->
<g id="node13" class="node">
<title>MatButtonModule</title>
<polygon fill="#8dd3c7" stroke="#000000" points="1310.2176,-122 1307.2176,-126 1286.2176,-126 1283.2176,-122 1189.7824,-122 1189.7824,-86 1310.2176,-86 1310.2176,-122"/>
<text text-anchor="middle" x="1250" y="-99.8" font-family="Times,serif" font-size="14.00" fill="#000000">MatButtonModule</text>
</g>
<!-- MatButtonModule&#45;&gt;BoardModule -->
<g id="edge12" class="edge">
<title>MatButtonModule&#45;&gt;BoardModule</title>
<path fill="none" stroke="#000000" d="M1250,-122.0091C1250,-138.0494 1250,-159 1250,-159 1250,-159 1567.0113,-159 1567.0113,-159"/>
<polygon fill="#000000" stroke="#000000" points="1567.0114,-162.5001 1577.0113,-159 1567.0113,-155.5001 1567.0114,-162.5001"/>
</g>
<!-- MatIconModule -->
<g id="node14" class="node">
<title>MatIconModule</title>
<polygon fill="#8dd3c7" stroke="#000000" points="1171.4748,-122 1168.4748,-126 1147.4748,-126 1144.4748,-122 1064.5252,-122 1064.5252,-86 1171.4748,-86 1171.4748,-122"/>
<text text-anchor="middle" x="1118" y="-99.8" font-family="Times,serif" font-size="14.00" fill="#000000">MatIconModule</text>
</g>
<!-- MatIconModule&#45;&gt;BoardModule -->
<g id="edge13" class="edge">
<title>MatIconModule&#45;&gt;BoardModule</title>
<path fill="none" stroke="#000000" d="M1118,-122.0225C1118,-139.3734 1118,-163 1118,-163 1118,-163 1566.8511,-163 1566.8511,-163"/>
<polygon fill="#000000" stroke="#000000" points="1566.8512,-166.5001 1576.8511,-163 1566.8511,-159.5001 1566.8512,-166.5001"/>
</g>
<!-- EndPointService -->
<g id="node15" class="node">
<title>EndPointService</title>
<ellipse fill="#fdb462" stroke="#000000" cx="965" cy="-104" rx="75.8817" ry="18"/>
<text text-anchor="middle" x="965" y="-99.8" font-family="Times,serif" font-size="14.00" fill="#000000">EndPointService</text>
</g>
<!-- EndPointService&#45;&gt;BoardModule -->
<g id="edge14" class="edge">
<title>EndPointService&#45;&gt;BoardModule</title>
<path fill="none" stroke="#000000" d="M965,-122.2222C965,-140.8285 965,-167 965,-167 965,-167 1567.1346,-167 1567.1346,-167"/>
<polygon fill="#000000" stroke="#000000" points="1567.1347,-170.5001 1577.1346,-167 1567.1346,-163.5001 1567.1347,-170.5001"/>
</g>
<!-- RuntimeService -->
<g id="node16" class="node">
<title>RuntimeService</title>
<ellipse fill="#fdb462" stroke="#000000" cx="798" cy="-104" rx="73.0113" ry="18"/>
<text text-anchor="middle" x="798" y="-99.8" font-family="Times,serif" font-size="14.00" fill="#000000">RuntimeService</text>
</g>
<!-- RuntimeService&#45;&gt;BoardModule -->
<g id="edge15" class="edge">
<title>RuntimeService&#45;&gt;BoardModule</title>
<path fill="none" stroke="#000000" d="M798,-122.308C798,-142.1455 798,-171 798,-171 798,-171 1567.224,-171 1567.224,-171"/>
<polygon fill="#000000" stroke="#000000" points="1567.224,-174.5001 1577.224,-171 1567.224,-167.5001 1567.224,-174.5001"/>
</g>
<!-- ConfigurationService -->
<g id="node17" class="node">
<title>ConfigurationService</title>
<ellipse fill="#fdb462" stroke="#000000" cx="613" cy="-104" rx="94.3408" ry="18"/>
<text text-anchor="middle" x="613" y="-99.8" font-family="Times,serif" font-size="14.00" fill="#000000">ConfigurationService</text>
</g>
<!-- ConfigurationService&#45;&gt;BoardModule -->
<g id="edge16" class="edge">
<title>ConfigurationService&#45;&gt;BoardModule</title>
<path fill="none" stroke="#000000" d="M613,-122.2843C613,-143.3211 613,-175 613,-175 613,-175 1566.9297,-175 1566.9297,-175"/>
<polygon fill="#000000" stroke="#000000" points="1566.9298,-178.5001 1576.9297,-175 1566.9297,-171.5001 1566.9298,-178.5001"/>
</g>
<!-- GadgetPropertyService -->
<g id="node18" class="node">
<title>GadgetPropertyService</title>
<ellipse fill="#fdb462" stroke="#000000" cx="400" cy="-104" rx="101.2621" ry="18"/>
<text text-anchor="middle" x="400" y="-99.8" font-family="Times,serif" font-size="14.00" fill="#000000">GadgetPropertyService</text>
</g>
<!-- GadgetPropertyService&#45;&gt;BoardModule -->
<g id="edge17" class="edge">
<title>GadgetPropertyService&#45;&gt;BoardModule</title>
<path fill="none" stroke="#000000" d="M400,-122.1554C400,-144.3519 400,-179 400,-179 400,-179 1567.1407,-179 1567.1407,-179"/>
<polygon fill="#000000" stroke="#000000" points="1567.1408,-182.5001 1577.1407,-179 1567.1407,-175.5001 1567.1408,-182.5001"/>
</g>
<!-- ObservableWebSocketService -->
<g id="node19" class="node">
<title>ObservableWebSocketService</title>
<ellipse fill="#fdb462" stroke="#000000" cx="152" cy="-104" rx="128.4512" ry="18"/>
<text text-anchor="middle" x="152" y="-99.8" font-family="Times,serif" font-size="14.00" fill="#000000">ObservableWebSocketService</text>
</g>
<!-- ObservableWebSocketService&#45;&gt;BoardModule -->
<g id="edge18" class="edge">
<title>ObservableWebSocketService&#45;&gt;BoardModule</title>
<path fill="none" stroke="#000000" d="M152,-122.3228C152,-145.6602 152,-183 152,-183 152,-183 1567.1038,-183 1567.1038,-183"/>
<polygon fill="#000000" stroke="#000000" points="1567.1038,-186.5001 1577.1038,-183 1567.1037,-179.5001 1567.1038,-186.5001"/>
</g>
</g>
</svg>
