<?xml version="1.0" encoding="UTF-8" standalone="no"?>
<!DOCTYPE svg PUBLIC "-//W3C//DTD SVG 1.1//EN"
 "http://www.w3.org/Graphics/SVG/1.1/DTD/svg11.dtd">
<!-- Generated by graphviz version 2.40.1 (20161225.0304)
 -->
<!-- Title: dependencies Pages: 1 -->
<svg width="2403pt" height="211pt"
 viewBox="0.00 0.00 2403.00 211.00" xmlns="http://www.w3.org/2000/svg" xmlns:xlink="http://www.w3.org/1999/xlink">
<g id="graph0" class="graph" transform="scale(1 1) rotate(0) translate(4 207)">
<title>dependencies</title>
<polygon fill="#ffffff" stroke="transparent" points="-4,4 -4,-207 2399,-207 2399,4 -4,4"/>
<text text-anchor="start" x="1176.5091" y="-42.4" font-family="sans-serif" font-weight="bold" font-size="14.00" fill="#000000">Legend</text>
<polygon fill="#ffffb3" stroke="transparent" points="963.5,-10 963.5,-30 983.5,-30 983.5,-10 963.5,-10"/>
<text text-anchor="start" x="987.129" y="-15.4" font-family="sans-serif" font-size="14.00" fill="#000000"> &#160;Declarations</text>
<polygon fill="#8dd3c7" stroke="transparent" points="1076.5,-10 1076.5,-30 1096.5,-30 1096.5,-10 1076.5,-10"/>
<text text-anchor="start" x="1100.2251" y="-15.4" font-family="sans-serif" font-size="14.00" fill="#000000"> &#160;Module</text>
<polygon fill="#80b1d3" stroke="transparent" points="1162.5,-10 1162.5,-30 1182.5,-30 1182.5,-10 1162.5,-10"/>
<text text-anchor="start" x="1186.2812" y="-15.4" font-family="sans-serif" font-size="14.00" fill="#000000"> &#160;Bootstrap</text>
<polygon fill="#fdb462" stroke="transparent" points="1259.5,-10 1259.5,-30 1279.5,-30 1279.5,-10 1259.5,-10"/>
<text text-anchor="start" x="1283.1732" y="-15.4" font-family="sans-serif" font-size="14.00" fill="#000000"> &#160;Providers</text>
<polygon fill="#fb8072" stroke="transparent" points="1355.5,-10 1355.5,-30 1375.5,-30 1375.5,-10 1355.5,-10"/>
<text text-anchor="start" x="1379.2258" y="-15.4" font-family="sans-serif" font-size="14.00" fill="#000000"> &#160;Exports</text>
<g id="clust1" class="cluster">
<title>cluster_BoardModule</title>
<polygon fill="none" stroke="#000000" stroke-dasharray="1,5" points="8,-70 8,-195 2387,-195 2387,-70 8,-70"/>
</g>
<g id="clust2" class="cluster">
<title>cluster_BoardModule_declarations</title>
<polygon fill="none" stroke="#000000" points="2247,-78 2247,-130 2379,-130 2379,-78 2247,-78"/>
</g>
<g id="clust4" class="cluster">
<title>cluster_BoardModule_imports</title>
<polygon fill="none" stroke="#000000" points="782,-78 782,-130 2239,-130 2239,-78 782,-78"/>
</g>
<g id="clust7" class="cluster">
<title>cluster_BoardModule_providers</title>
<polygon fill="none" stroke="#000000" points="16,-78 16,-130 774,-130 774,-78 16,-78"/>
</g>
<!-- BoardComponent -->
<g id="node1" class="node">
<title>BoardComponent</title>
<polygon fill="#ffffb3" stroke="#000000" points="2370.5451,-122 2255.4549,-122 2255.4549,-86 2370.5451,-86 2370.5451,-122"/>
<text text-anchor="middle" x="2313" y="-99.8" font-family="Times,serif" font-size="14.00" fill="#000000">BoardComponent</text>
</g>
<!-- BoardModule -->
<g id="node2" class="node">
<title>BoardModule</title>
<polygon fill="#8dd3c7" stroke="#000000" points="1301.7619,-187 1298.7619,-191 1277.7619,-191 1274.7619,-187 1208.2381,-187 1208.2381,-151 1301.7619,-151 1301.7619,-187"/>
<text text-anchor="middle" x="1255" y="-164.8" font-family="Times,serif" font-size="14.00" fill="#000000">BoardModule</text>
</g>
<!-- BoardComponent&#45;&gt;BoardModule -->
<g id="edge1" class="edge">
<title>BoardComponent&#45;&gt;BoardModule</title>
<path fill="none" stroke="#000000" d="M2313,-122.3228C2313,-145.6602 2313,-183 2313,-183 2313,-183 1311.8261,-183 1311.8261,-183"/>
<polygon fill="#000000" stroke="#000000" points="1311.8261,-179.5001 1301.8261,-183 1311.826,-186.5001 1311.8261,-179.5001"/>
</g>
<!-- CommonModule -->
<g id="node3" class="node">
<title>CommonModule</title>
<polygon fill="#8dd3c7" stroke="#000000" points="2230.6681,-122 2227.6681,-126 2206.6681,-126 2203.6681,-122 2119.3319,-122 2119.3319,-86 2230.6681,-86 2230.6681,-122"/>
<text text-anchor="middle" x="2175" y="-99.8" font-family="Times,serif" font-size="14.00" fill="#000000">CommonModule</text>
</g>
<!-- CommonModule&#45;&gt;BoardModule -->
<g id="edge2" class="edge">
<title>CommonModule&#45;&gt;BoardModule</title>
<path fill="none" stroke="#000000" d="M2175,-122.2921C2175,-144.2057 2175,-178 2175,-178 2175,-178 1311.8878,-178 1311.8878,-178"/>
<polygon fill="#000000" stroke="#000000" points="1311.8878,-174.5001 1301.8878,-178 1311.8877,-181.5001 1311.8878,-174.5001"/>
</g>
<!-- NotificationModule -->
<g id="node4" class="node">
<title>NotificationModule</title>
<polygon fill="#8dd3c7" stroke="#000000" points="2101.6994,-122 2098.6994,-126 2077.6994,-126 2074.6994,-122 1974.3006,-122 1974.3006,-86 2101.6994,-86 2101.6994,-122"/>
<text text-anchor="middle" x="2038" y="-99.8" font-family="Times,serif" font-size="14.00" fill="#000000">NotificationModule</text>
</g>
<!-- NotificationModule&#45;&gt;BoardModule -->
<g id="edge3" class="edge">
<title>NotificationModule&#45;&gt;BoardModule</title>
<path fill="none" stroke="#000000" d="M2038,-122.0267C2038,-142.7672 2038,-174 2038,-174 2038,-174 1311.9257,-174 1311.9257,-174"/>
<polygon fill="#000000" stroke="#000000" points="1311.9257,-170.5001 1301.9257,-174 1311.9257,-177.5001 1311.9257,-170.5001"/>
</g>
<!-- AddGadgetModule -->
<g id="node5" class="node">
<title>AddGadgetModule</title>
<polygon fill="#8dd3c7" stroke="#000000" points="1956.0828,-122 1953.0828,-126 1932.0828,-126 1929.0828,-122 1831.9172,-122 1831.9172,-86 1956.0828,-86 1956.0828,-122"/>
<text text-anchor="middle" x="1894" y="-99.8" font-family="Times,serif" font-size="14.00" fill="#000000">AddGadgetModule</text>
</g>
<!-- AddGadgetModule&#45;&gt;BoardModule -->
<g id="edge4" class="edge">
<title>AddGadgetModule&#45;&gt;BoardModule</title>
<path fill="none" stroke="#000000" d="M1894,-122.1061C1894,-141.3391 1894,-169 1894,-169 1894,-169 1311.9872,-169 1311.9872,-169"/>
<polygon fill="#000000" stroke="#000000" points="1311.9872,-165.5001 1301.9872,-169 1311.9872,-172.5001 1311.9872,-165.5001"/>
</g>
<!-- LayoutModule -->
<g id="node6" class="node">
<title>LayoutModule</title>
<polygon fill="#8dd3c7" stroke="#000000" points="1813.7078,-122 1810.7078,-126 1789.7078,-126 1786.7078,-122 1714.2922,-122 1714.2922,-86 1813.7078,-86 1813.7078,-122"/>
<text text-anchor="middle" x="1764" y="-99.8" font-family="Times,serif" font-size="14.00" fill="#000000">LayoutModule</text>
</g>
<!-- LayoutModule&#45;&gt;BoardModule -->
<g id="edge5" class="edge">
<title>LayoutModule&#45;&gt;BoardModule</title>
<path fill="none" stroke="#000000" d="M1764,-122.302C1764,-140.2699 1764,-165 1764,-165 1764,-165 1311.9731,-165 1311.9731,-165"/>
<polygon fill="#000000" stroke="#000000" points="1311.9732,-161.5001 1301.9731,-165 1311.9731,-168.5001 1311.9732,-161.5001"/>
</g>
<!-- ConfigurationModule -->
<g id="node7" class="node">
<title>ConfigurationModule</title>
<polygon fill="#8dd3c7" stroke="#000000" points="1696.094,-122 1693.094,-126 1672.094,-126 1669.094,-122 1557.906,-122 1557.906,-86 1696.094,-86 1696.094,-122"/>
<text text-anchor="middle" x="1627" y="-99.8" font-family="Times,serif" font-size="14.00" fill="#000000">ConfigurationModule</text>
</g>
<!-- ConfigurationModule&#45;&gt;BoardModule -->
<g id="edge6" class="edge">
<title>ConfigurationModule&#45;&gt;BoardModule</title>
<path fill="none" stroke="#000000" d="M1627,-122.027C1627,-138.3976 1627,-160 1627,-160 1627,-160 1312.1141,-160 1312.1141,-160"/>
<polygon fill="#000000" stroke="#000000" points="1312.1141,-156.5001 1302.1141,-160 1312.114,-163.5001 1312.1141,-156.5001"/>
</g>
<!-- GridModule.withComponents(args) -->
<g id="node8" class="node">
<title>GridModule.withComponents(args)</title>
<polygon fill="#8dd3c7" stroke="#000000" points="1539.5134,-122 1536.5134,-126 1515.5134,-126 1512.5134,-122 1322.4866,-122 1322.4866,-86 1539.5134,-86 1539.5134,-122"/>
<text text-anchor="middle" x="1431" y="-99.8" font-family="Times,serif" font-size="14.00" fill="#000000">GridModule.withComponents(args)</text>
</g>
<!-- GridModule.withComponents(args)&#45;&gt;BoardModule -->
<g id="edge7" class="edge">
<title>GridModule.withComponents(args)&#45;&gt;BoardModule</title>
<path fill="none" stroke="#000000" d="M1431,-122.1871C1431,-137.1824 1431,-156 1431,-156 1431,-156 1312.1648,-156 1312.1648,-156"/>
<polygon fill="#000000" stroke="#000000" points="1312.1648,-152.5001 1302.1648,-156 1312.1647,-159.5001 1312.1648,-152.5001"/>
</g>
<!-- GadgetModule -->
<g id="node9" class="node">
<title>GadgetModule</title>
<polygon fill="#8dd3c7" stroke="#000000" points="1304.9762,-122 1301.9762,-126 1280.9762,-126 1277.9762,-122 1205.0238,-122 1205.0238,-86 1304.9762,-86 1304.9762,-122"/>
<text text-anchor="middle" x="1255" y="-99.8" font-family="Times,serif" font-size="14.00" fill="#000000">GadgetModule</text>
</g>
<!-- GadgetModule&#45;&gt;BoardModule -->
<g id="edge8" class="edge">
<title>GadgetModule&#45;&gt;BoardModule</title>
<path fill="none" stroke="#000000" d="M1255,-122.1061C1255,-122.1061 1255,-140.991 1255,-140.991"/>
<polygon fill="#000000" stroke="#000000" points="1251.5001,-140.9909 1255,-150.991 1258.5001,-140.991 1251.5001,-140.9909"/>
</g>
<!-- DndModule.forRoot() -->
<g id="node10" class="node">
<title>DndModule.forRoot()</title>
<polygon fill="#8dd3c7" stroke="#000000" points="1187.026,-122 1184.026,-126 1163.026,-126 1160.026,-122 1046.974,-122 1046.974,-86 1187.026,-86 1187.026,-122"/>
<text text-anchor="middle" x="1117" y="-99.8" font-family="Times,serif" font-size="14.00" fill="#000000">DndModule.forRoot()</text>
</g>
<!-- DndModule.forRoot()&#45;&gt;BoardModule -->
<g id="edge9" class="edge">
<title>DndModule.forRoot()&#45;&gt;BoardModule</title>
<path fill="none" stroke="#000000" d="M1117,-122.1871C1117,-137.1824 1117,-156 1117,-156 1117,-156 1197.8942,-156 1197.8942,-156"/>
<polygon fill="#000000" stroke="#000000" points="1197.8942,-159.5001 1207.8942,-156 1197.8942,-152.5001 1197.8942,-159.5001"/>
</g>
<!-- MdButtonModule -->
<g id="node11" class="node">
<title>MdButtonModule</title>
<polygon fill="#8dd3c7" stroke="#000000" points="1028.6123,-122 1025.6123,-126 1004.6123,-126 1001.6123,-122 911.3877,-122 911.3877,-86 1028.6123,-86 1028.6123,-122"/>
<text text-anchor="middle" x="970" y="-99.8" font-family="Times,serif" font-size="14.00" fill="#000000">MdButtonModule</text>
</g>
<!-- MdButtonModule&#45;&gt;BoardModule -->
<g id="edge10" class="edge">
<title>MdButtonModule&#45;&gt;BoardModule</title>
<path fill="none" stroke="#000000" d="M970,-122.027C970,-138.3976 970,-160 970,-160 970,-160 1197.938,-160 1197.938,-160"/>
<polygon fill="#000000" stroke="#000000" points="1197.9381,-163.5001 1207.938,-160 1197.938,-156.5001 1197.9381,-163.5001"/>
</g>
<!-- MdIconModule -->
<g id="node12" class="node">
<title>MdIconModule</title>
<polygon fill="#8dd3c7" stroke="#000000" points="893.8697,-122 890.8697,-126 869.8697,-126 866.8697,-122 790.1303,-122 790.1303,-86 893.8697,-86 893.8697,-122"/>
<text text-anchor="middle" x="842" y="-99.8" font-family="Times,serif" font-size="14.00" fill="#000000">MdIconModule</text>
</g>
<!-- MdIconModule&#45;&gt;BoardModule -->
<g id="edge11" class="edge">
<title>MdIconModule&#45;&gt;BoardModule</title>
<path fill="none" stroke="#000000" d="M842,-122.302C842,-140.2699 842,-165 842,-165 842,-165 1198.0257,-165 1198.0257,-165"/>
<polygon fill="#000000" stroke="#000000" points="1198.0258,-168.5001 1208.0257,-165 1198.0257,-161.5001 1198.0258,-168.5001"/>
</g>
<!-- EndPointService -->
<g id="node13" class="node">
<title>EndPointService</title>
<ellipse fill="#fdb462" stroke="#000000" cx="690" cy="-104" rx="75.8817" ry="18"/>
<text text-anchor="middle" x="690" y="-99.8" font-family="Times,serif" font-size="14.00" fill="#000000">EndPointService</text>
</g>
<!-- EndPointService&#45;&gt;BoardModule -->
<g id="edge12" class="edge">
<title>EndPointService&#45;&gt;BoardModule</title>
<path fill="none" stroke="#000000" d="M690,-122.1061C690,-141.3391 690,-169 690,-169 690,-169 1197.8002,-169 1197.8002,-169"/>
<polygon fill="#000000" stroke="#000000" points="1197.8003,-172.5001 1207.8002,-169 1197.8002,-165.5001 1197.8003,-172.5001"/>
</g>
<!-- RuntimeService -->
<g id="node14" class="node">
<title>RuntimeService</title>
<ellipse fill="#fdb462" stroke="#000000" cx="523" cy="-104" rx="73.0113" ry="18"/>
<text text-anchor="middle" x="523" y="-99.8" font-family="Times,serif" font-size="14.00" fill="#000000">RuntimeService</text>
</g>
<!-- RuntimeService&#45;&gt;BoardModule -->
<g id="edge13" class="edge">
<title>RuntimeService&#45;&gt;BoardModule</title>
<path fill="none" stroke="#000000" d="M523,-122.0267C523,-142.7672 523,-174 523,-174 523,-174 1198.0966,-174 1198.0966,-174"/>
<polygon fill="#000000" stroke="#000000" points="1198.0966,-177.5001 1208.0966,-174 1198.0965,-170.5001 1198.0966,-177.5001"/>
</g>
<!-- ConfigurationService -->
<g id="node15" class="node">
<title>ConfigurationService</title>
<ellipse fill="#fdb462" stroke="#000000" cx="338" cy="-104" rx="94.3408" ry="18"/>
<text text-anchor="middle" x="338" y="-99.8" font-family="Times,serif" font-size="14.00" fill="#000000">ConfigurationService</text>
</g>
<!-- ConfigurationService&#45;&gt;BoardModule -->
<g id="edge14" class="edge">
<title>ConfigurationService&#45;&gt;BoardModule</title>
<path fill="none" stroke="#000000" d="M338,-122.2921C338,-144.2057 338,-178 338,-178 338,-178 1197.9476,-178 1197.9476,-178"/>
<polygon fill="#000000" stroke="#000000" points="1197.9476,-181.5001 1207.9476,-178 1197.9475,-174.5001 1197.9476,-181.5001"/>
</g>
<!-- GadgetPropertyService -->
<g id="node16" class="node">
<title>GadgetPropertyService</title>
<ellipse fill="#fdb462" stroke="#000000" cx="125" cy="-104" rx="101.2621" ry="18"/>
<text text-anchor="middle" x="125" y="-99.8" font-family="Times,serif" font-size="14.00" fill="#000000">GadgetPropertyService</text>
</g>
<!-- GadgetPropertyService&#45;&gt;BoardModule -->
<g id="edge15" class="edge">
<title>GadgetPropertyService&#45;&gt;BoardModule</title>
<path fill="none" stroke="#000000" d="M125,-122.3228C125,-145.6602 125,-183 125,-183 125,-183 1197.884,-183 1197.884,-183"/>
<polygon fill="#000000" stroke="#000000" points="1197.884,-186.5001 1207.884,-183 1197.8839,-179.5001 1197.884,-186.5001"/>
</g>
</g>
</svg>
