<?xml version="1.0" encoding="UTF-8" standalone="no"?>
<!DOCTYPE svg PUBLIC "-//W3C//DTD SVG 1.1//EN"
 "http://www.w3.org/Graphics/SVG/1.1/DTD/svg11.dtd">
<!-- Generated by graphviz version 2.40.1 (20161225.0304)
 -->
<!-- Title: dependencies Pages: 1 -->
<svg width="2856pt" height="211pt"
 viewBox="0.00 0.00 2856.00 211.00" xmlns="http://www.w3.org/2000/svg" xmlns:xlink="http://www.w3.org/1999/xlink">
<g id="graph0" class="graph" transform="scale(1 1) rotate(0) translate(4 207)">
<title>dependencies</title>
<polygon fill="#ffffff" stroke="transparent" points="-4,4 -4,-207 2852,-207 2852,4 -4,4"/>
<text text-anchor="start" x="1403.0091" y="-42.4" font-family="sans-serif" font-weight="bold" font-size="14.00" fill="#000000">Legend</text>
<polygon fill="#ffffb3" stroke="transparent" points="1190,-10 1190,-30 1210,-30 1210,-10 1190,-10"/>
<text text-anchor="start" x="1213.629" y="-15.4" font-family="sans-serif" font-size="14.00" fill="#000000"> &#160;Declarations</text>
<polygon fill="#8dd3c7" stroke="transparent" points="1303,-10 1303,-30 1323,-30 1323,-10 1303,-10"/>
<text text-anchor="start" x="1326.7251" y="-15.4" font-family="sans-serif" font-size="14.00" fill="#000000"> &#160;Module</text>
<polygon fill="#80b1d3" stroke="transparent" points="1389,-10 1389,-30 1409,-30 1409,-10 1389,-10"/>
<text text-anchor="start" x="1412.7812" y="-15.4" font-family="sans-serif" font-size="14.00" fill="#000000"> &#160;Bootstrap</text>
<polygon fill="#fdb462" stroke="transparent" points="1486,-10 1486,-30 1506,-30 1506,-10 1486,-10"/>
<text text-anchor="start" x="1509.6732" y="-15.4" font-family="sans-serif" font-size="14.00" fill="#000000"> &#160;Providers</text>
<polygon fill="#fb8072" stroke="transparent" points="1582,-10 1582,-30 1602,-30 1602,-10 1582,-10"/>
<text text-anchor="start" x="1605.7258" y="-15.4" font-family="sans-serif" font-size="14.00" fill="#000000"> &#160;Exports</text>
<g id="clust1" class="cluster">
<title>cluster_BoardModule</title>
<polygon fill="none" stroke="#000000" stroke-dasharray="1,5" points="8,-70 8,-195 2840,-195 2840,-70 8,-70"/>
</g>
<g id="clust2" class="cluster">
<title>cluster_BoardModule_declarations</title>
<polygon fill="none" stroke="#000000" points="2700,-78 2700,-130 2832,-130 2832,-78 2700,-78"/>
</g>
<g id="clust4" class="cluster">
<title>cluster_BoardModule_imports</title>
<polygon fill="none" stroke="#000000" points="1057,-78 1057,-130 2692,-130 2692,-78 1057,-78"/>
</g>
<g id="clust7" class="cluster">
<title>cluster_BoardModule_providers</title>
<polygon fill="none" stroke="#000000" points="16,-78 16,-130 1049,-130 1049,-78 16,-78"/>
</g>
<!-- BoardComponent -->
<g id="node1" class="node">
<title>BoardComponent</title>
<polygon fill="#ffffb3" stroke="#000000" points="2823.5451,-122 2708.4549,-122 2708.4549,-86 2823.5451,-86 2823.5451,-122"/>
<text text-anchor="middle" x="2766" y="-99.8" font-family="Times,serif" font-size="14.00" fill="#000000">BoardComponent</text>
</g>
<!-- BoardModule -->
<g id="node2" class="node">
<title>BoardModule</title>
<polygon fill="#8dd3c7" stroke="#000000" points="1582.7619,-187 1579.7619,-191 1558.7619,-191 1555.7619,-187 1489.2381,-187 1489.2381,-151 1582.7619,-151 1582.7619,-187"/>
<text text-anchor="middle" x="1536" y="-164.8" font-family="Times,serif" font-size="14.00" fill="#000000">BoardModule</text>
</g>
<!-- BoardComponent&#45;&gt;BoardModule -->
<g id="edge1" class="edge">
<title>BoardComponent&#45;&gt;BoardModule</title>
<path fill="none" stroke="#000000" d="M2766,-122.3228C2766,-145.6602 2766,-183 2766,-183 2766,-183 1593.089,-183 1593.089,-183"/>
<polygon fill="#000000" stroke="#000000" points="1593.089,-179.5001 1583.089,-183 1593.0889,-186.5001 1593.089,-179.5001"/>
</g>
<!-- CommonModule -->
<g id="node3" class="node">
<title>CommonModule</title>
<polygon fill="#8dd3c7" stroke="#000000" points="2683.6681,-122 2680.6681,-126 2659.6681,-126 2656.6681,-122 2572.3319,-122 2572.3319,-86 2683.6681,-86 2683.6681,-122"/>
<text text-anchor="middle" x="2628" y="-99.8" font-family="Times,serif" font-size="14.00" fill="#000000">CommonModule</text>
</g>
<!-- CommonModule&#45;&gt;BoardModule -->
<g id="edge2" class="edge">
<title>CommonModule&#45;&gt;BoardModule</title>
<path fill="none" stroke="#000000" d="M2628,-122.1554C2628,-144.3519 2628,-179 2628,-179 2628,-179 1592.9219,-179 1592.9219,-179"/>
<polygon fill="#000000" stroke="#000000" points="1592.9219,-175.5001 1582.9219,-179 1592.9218,-182.5001 1592.9219,-175.5001"/>
</g>
<!-- NotificationModule -->
<g id="node4" class="node">
<title>NotificationModule</title>
<polygon fill="#8dd3c7" stroke="#000000" points="2554.6994,-122 2551.6994,-126 2530.6994,-126 2527.6994,-122 2427.3006,-122 2427.3006,-86 2554.6994,-86 2554.6994,-122"/>
<text text-anchor="middle" x="2491" y="-99.8" font-family="Times,serif" font-size="14.00" fill="#000000">NotificationModule</text>
</g>
<!-- NotificationModule&#45;&gt;BoardModule -->
<g id="edge3" class="edge">
<title>NotificationModule&#45;&gt;BoardModule</title>
<path fill="none" stroke="#000000" d="M2491,-122.2843C2491,-143.3211 2491,-175 2491,-175 2491,-175 1593.0329,-175 1593.0329,-175"/>
<polygon fill="#000000" stroke="#000000" points="1593.0329,-171.5001 1583.0329,-175 1593.0328,-178.5001 1593.0329,-171.5001"/>
</g>
<!-- AddGadgetModule -->
<g id="node5" class="node">
<title>AddGadgetModule</title>
<polygon fill="#8dd3c7" stroke="#000000" points="2409.0828,-122 2406.0828,-126 2385.0828,-126 2382.0828,-122 2284.9172,-122 2284.9172,-86 2409.0828,-86 2409.0828,-122"/>
<text text-anchor="middle" x="2347" y="-99.8" font-family="Times,serif" font-size="14.00" fill="#000000">AddGadgetModule</text>
</g>
<!-- AddGadgetModule&#45;&gt;BoardModule -->
<g id="edge4" class="edge">
<title>AddGadgetModule&#45;&gt;BoardModule</title>
<path fill="none" stroke="#000000" d="M2347,-122.308C2347,-142.1455 2347,-171 2347,-171 2347,-171 1592.8116,-171 1592.8116,-171"/>
<polygon fill="#000000" stroke="#000000" points="1592.8116,-167.5001 1582.8116,-171 1592.8115,-174.5001 1592.8116,-167.5001"/>
</g>
<!-- LayoutModule -->
<g id="node6" class="node">
<title>LayoutModule</title>
<polygon fill="#8dd3c7" stroke="#000000" points="2266.7078,-122 2263.7078,-126 2242.7078,-126 2239.7078,-122 2167.2922,-122 2167.2922,-86 2266.7078,-86 2266.7078,-122"/>
<text text-anchor="middle" x="2217" y="-99.8" font-family="Times,serif" font-size="14.00" fill="#000000">LayoutModule</text>
</g>
<!-- LayoutModule&#45;&gt;BoardModule -->
<g id="edge5" class="edge">
<title>LayoutModule&#45;&gt;BoardModule</title>
<path fill="none" stroke="#000000" d="M2217,-122.2222C2217,-140.8285 2217,-167 2217,-167 2217,-167 1592.8079,-167 1592.8079,-167"/>
<polygon fill="#000000" stroke="#000000" points="1592.8079,-163.5001 1582.8079,-167 1592.8079,-170.5001 1592.8079,-163.5001"/>
</g>
<!-- ConfigurationModule -->
<g id="node7" class="node">
<title>ConfigurationModule</title>
<polygon fill="#8dd3c7" stroke="#000000" points="2149.094,-122 2146.094,-126 2125.094,-126 2122.094,-122 2010.906,-122 2010.906,-86 2149.094,-86 2149.094,-122"/>
<text text-anchor="middle" x="2080" y="-99.8" font-family="Times,serif" font-size="14.00" fill="#000000">ConfigurationModule</text>
</g>
<!-- ConfigurationModule&#45;&gt;BoardModule -->
<g id="edge6" class="edge">
<title>ConfigurationModule&#45;&gt;BoardModule</title>
<path fill="none" stroke="#000000" d="M2080,-122.0225C2080,-139.3734 2080,-163 2080,-163 2080,-163 1592.852,-163 1592.852,-163"/>
<polygon fill="#000000" stroke="#000000" points="1592.852,-159.5001 1582.852,-163 1592.8519,-166.5001 1592.852,-159.5001"/>
</g>
<!-- TypeAheadInputModule -->
<g id="node8" class="node">
<title>TypeAheadInputModule</title>
<polygon fill="#8dd3c7" stroke="#000000" points="1993.4045,-122 1990.4045,-126 1969.4045,-126 1966.4045,-122 1838.5955,-122 1838.5955,-86 1993.4045,-86 1993.4045,-122"/>
<text text-anchor="middle" x="1916" y="-99.8" font-family="Times,serif" font-size="14.00" fill="#000000">TypeAheadInputModule</text>
</g>
<!-- TypeAheadInputModule&#45;&gt;BoardModule -->
<g id="edge7" class="edge">
<title>TypeAheadInputModule&#45;&gt;BoardModule</title>
<path fill="none" stroke="#000000" d="M1916,-122.0091C1916,-138.0494 1916,-159 1916,-159 1916,-159 1592.9766,-159 1592.9766,-159"/>
<polygon fill="#000000" stroke="#000000" points="1592.9766,-155.5001 1582.9766,-159 1592.9766,-162.5001 1592.9766,-155.5001"/>
</g>
<!-- GridModule.withComponents(args) -->
<g id="node9" class="node">
<title>GridModule.withComponents(args)</title>
<polygon fill="#8dd3c7" stroke="#000000" points="1820.5134,-122 1817.5134,-126 1796.5134,-126 1793.5134,-122 1603.4866,-122 1603.4866,-86 1820.5134,-86 1820.5134,-122"/>
<text text-anchor="middle" x="1712" y="-99.8" font-family="Times,serif" font-size="14.00" fill="#000000">GridModule.withComponents(args)</text>
</g>
<!-- GridModule.withComponents(args)&#45;&gt;BoardModule -->
<g id="edge8" class="edge">
<title>GridModule.withComponents(args)&#45;&gt;BoardModule</title>
<path fill="none" stroke="#000000" d="M1712,-122.1243C1712,-136.7832 1712,-155 1712,-155 1712,-155 1593.1648,-155 1593.1648,-155"/>
<polygon fill="#000000" stroke="#000000" points="1593.1648,-151.5001 1583.1648,-155 1593.1647,-158.5001 1593.1648,-151.5001"/>
</g>
<!-- GadgetModule -->
<g id="node10" class="node">
<title>GadgetModule</title>
<polygon fill="#8dd3c7" stroke="#000000" points="1585.9762,-122 1582.9762,-126 1561.9762,-126 1558.9762,-122 1486.0238,-122 1486.0238,-86 1585.9762,-86 1585.9762,-122"/>
<text text-anchor="middle" x="1536" y="-99.8" font-family="Times,serif" font-size="14.00" fill="#000000">GadgetModule</text>
</g>
<!-- GadgetModule&#45;&gt;BoardModule -->
<g id="edge9" class="edge">
<title>GadgetModule&#45;&gt;BoardModule</title>
<path fill="none" stroke="#000000" d="M1536,-122.1061C1536,-122.1061 1536,-140.991 1536,-140.991"/>
<polygon fill="#000000" stroke="#000000" points="1532.5001,-140.9909 1536,-150.991 1539.5001,-140.991 1532.5001,-140.9909"/>
</g>
<!-- DndModule.forRoot() -->
<g id="node11" class="node">
<title>DndModule.forRoot()</title>
<polygon fill="#8dd3c7" stroke="#000000" points="1468.026,-122 1465.026,-126 1444.026,-126 1441.026,-122 1327.974,-122 1327.974,-86 1468.026,-86 1468.026,-122"/>
<text text-anchor="middle" x="1398" y="-99.8" font-family="Times,serif" font-size="14.00" fill="#000000">DndModule.forRoot()</text>
</g>
<!-- DndModule.forRoot()&#45;&gt;BoardModule -->
<g id="edge10" class="edge">
<title>DndModule.forRoot()&#45;&gt;BoardModule</title>
<path fill="none" stroke="#000000" d="M1398,-122.1243C1398,-136.7832 1398,-155 1398,-155 1398,-155 1478.8942,-155 1478.8942,-155"/>
<polygon fill="#000000" stroke="#000000" points="1478.8942,-158.5001 1488.8942,-155 1478.8942,-151.5001 1478.8942,-158.5001"/>
</g>
<!-- MatButtonModule -->
<g id="node12" class="node">
<title>MatButtonModule</title>
<polygon fill="#8dd3c7" stroke="#000000" points="1310.2176,-122 1307.2176,-126 1286.2176,-126 1283.2176,-122 1189.7824,-122 1189.7824,-86 1310.2176,-86 1310.2176,-122"/>
<text text-anchor="middle" x="1250" y="-99.8" font-family="Times,serif" font-size="14.00" fill="#000000">MatButtonModule</text>
</g>
<!-- MatButtonModule&#45;&gt;BoardModule -->
<g id="edge11" class="edge">
<title>MatButtonModule&#45;&gt;BoardModule</title>
<path fill="none" stroke="#000000" d="M1250,-122.0091C1250,-138.0494 1250,-159 1250,-159 1250,-159 1479.0932,-159 1479.0932,-159"/>
<polygon fill="#000000" stroke="#000000" points="1479.0932,-162.5001 1489.0932,-159 1479.0931,-155.5001 1479.0932,-162.5001"/>
</g>
<!-- MatIconModule -->
<g id="node13" class="node">
<title>MatIconModule</title>
<polygon fill="#8dd3c7" stroke="#000000" points="1171.4748,-122 1168.4748,-126 1147.4748,-126 1144.4748,-122 1064.5252,-122 1064.5252,-86 1171.4748,-86 1171.4748,-122"/>
<text text-anchor="middle" x="1118" y="-99.8" font-family="Times,serif" font-size="14.00" fill="#000000">MatIconModule</text>
</g>
<!-- MatIconModule&#45;&gt;BoardModule -->
<g id="edge12" class="edge">
<title>MatIconModule&#45;&gt;BoardModule</title>
<path fill="none" stroke="#000000" d="M1118,-122.0225C1118,-139.3734 1118,-163 1118,-163 1118,-163 1478.8626,-163 1478.8626,-163"/>
<polygon fill="#000000" stroke="#000000" points="1478.8627,-166.5001 1488.8626,-163 1478.8626,-159.5001 1478.8627,-166.5001"/>
</g>
<!-- EndPointService -->
<g id="node14" class="node">
<title>EndPointService</title>
<ellipse fill="#fdb462" stroke="#000000" cx="965" cy="-104" rx="75.8817" ry="18"/>
<text text-anchor="middle" x="965" y="-99.8" font-family="Times,serif" font-size="14.00" fill="#000000">EndPointService</text>
</g>
<!-- EndPointService&#45;&gt;BoardModule -->
<g id="edge13" class="edge">
<title>EndPointService&#45;&gt;BoardModule</title>
<path fill="none" stroke="#000000" d="M965,-122.2222C965,-140.8285 965,-167 965,-167 965,-167 1478.7869,-167 1478.7869,-167"/>
<polygon fill="#000000" stroke="#000000" points="1478.7869,-170.5001 1488.7869,-167 1478.7868,-163.5001 1478.7869,-170.5001"/>
</g>
<!-- RuntimeService -->
<g id="node15" class="node">
<title>RuntimeService</title>
<ellipse fill="#fdb462" stroke="#000000" cx="798" cy="-104" rx="73.0113" ry="18"/>
<text text-anchor="middle" x="798" y="-99.8" font-family="Times,serif" font-size="14.00" fill="#000000">RuntimeService</text>
</g>
<!-- RuntimeService&#45;&gt;BoardModule -->
<g id="edge14" class="edge">
<title>RuntimeService&#45;&gt;BoardModule</title>
<path fill="none" stroke="#000000" d="M798,-122.308C798,-142.1455 798,-171 798,-171 798,-171 1478.9939,-171 1478.9939,-171"/>
<polygon fill="#000000" stroke="#000000" points="1478.9939,-174.5001 1488.9939,-171 1478.9938,-167.5001 1478.9939,-174.5001"/>
</g>
<!-- ConfigurationService -->
<g id="node16" class="node">
<title>ConfigurationService</title>
<ellipse fill="#fdb462" stroke="#000000" cx="613" cy="-104" rx="94.3408" ry="18"/>
<text text-anchor="middle" x="613" y="-99.8" font-family="Times,serif" font-size="14.00" fill="#000000">ConfigurationService</text>
</g>
<!-- ConfigurationService&#45;&gt;BoardModule -->
<g id="edge15" class="edge">
<title>ConfigurationService&#45;&gt;BoardModule</title>
<path fill="none" stroke="#000000" d="M613,-122.2843C613,-143.3211 613,-175 613,-175 613,-175 1478.9593,-175 1478.9593,-175"/>
<polygon fill="#000000" stroke="#000000" points="1478.9594,-178.5001 1488.9593,-175 1478.9593,-171.5001 1478.9594,-178.5001"/>
</g>
<!-- GadgetPropertyService -->
<g id="node17" class="node">
<title>GadgetPropertyService</title>
<ellipse fill="#fdb462" stroke="#000000" cx="400" cy="-104" rx="101.2621" ry="18"/>
<text text-anchor="middle" x="400" y="-99.8" font-family="Times,serif" font-size="14.00" fill="#000000">GadgetPropertyService</text>
</g>
<!-- GadgetPropertyService&#45;&gt;BoardModule -->
<g id="edge16" class="edge">
<title>GadgetPropertyService&#45;&gt;BoardModule</title>
<path fill="none" stroke="#000000" d="M400,-122.1554C400,-144.3519 400,-179 400,-179 400,-179 1478.9923,-179 1478.9923,-179"/>
<polygon fill="#000000" stroke="#000000" points="1478.9923,-182.5001 1488.9923,-179 1478.9923,-175.5001 1478.9923,-182.5001"/>
</g>
<!-- ObservableWebSocketService -->
<g id="node18" class="node">
<title>ObservableWebSocketService</title>
<ellipse fill="#fdb462" stroke="#000000" cx="152" cy="-104" rx="128.4512" ry="18"/>
<text text-anchor="middle" x="152" y="-99.8" font-family="Times,serif" font-size="14.00" fill="#000000">ObservableWebSocketService</text>
</g>
<!-- ObservableWebSocketService&#45;&gt;BoardModule -->
<g id="edge17" class="edge">
<title>ObservableWebSocketService&#45;&gt;BoardModule</title>
<path fill="none" stroke="#000000" d="M152,-122.3228C152,-145.6602 152,-183 152,-183 152,-183 1479.1588,-183 1479.1588,-183"/>
<polygon fill="#000000" stroke="#000000" points="1479.1588,-186.5001 1489.1588,-183 1479.1588,-179.5001 1479.1588,-186.5001"/>
</g>
</g>
</svg>
