<?xml version="1.0" encoding="UTF-8" standalone="no"?>
<!DOCTYPE svg PUBLIC "-//W3C//DTD SVG 1.1//EN"
 "http://www.w3.org/Graphics/SVG/1.1/DTD/svg11.dtd">
<!-- Generated by graphviz version 2.40.1 (20161225.0304)
 -->
<!-- Title: dependencies Pages: 1 -->
<svg width="2678pt" height="211pt"
 viewBox="0.00 0.00 2678.00 211.00" xmlns="http://www.w3.org/2000/svg" xmlns:xlink="http://www.w3.org/1999/xlink">
<g id="graph0" class="graph" transform="scale(1 1) rotate(0) translate(4 207)">
<title>dependencies</title>
<polygon fill="#ffffff" stroke="transparent" points="-4,4 -4,-207 2674,-207 2674,4 -4,4"/>
<text text-anchor="start" x="1314.0091" y="-42.4" font-family="sans-serif" font-weight="bold" font-size="14.00" fill="#000000">Legend</text>
<polygon fill="#ffffb3" stroke="transparent" points="1101,-10 1101,-30 1121,-30 1121,-10 1101,-10"/>
<text text-anchor="start" x="1124.629" y="-15.4" font-family="sans-serif" font-size="14.00" fill="#000000"> &#160;Declarations</text>
<polygon fill="#8dd3c7" stroke="transparent" points="1214,-10 1214,-30 1234,-30 1234,-10 1214,-10"/>
<text text-anchor="start" x="1237.7251" y="-15.4" font-family="sans-serif" font-size="14.00" fill="#000000"> &#160;Module</text>
<polygon fill="#80b1d3" stroke="transparent" points="1300,-10 1300,-30 1320,-30 1320,-10 1300,-10"/>
<text text-anchor="start" x="1323.7812" y="-15.4" font-family="sans-serif" font-size="14.00" fill="#000000"> &#160;Bootstrap</text>
<polygon fill="#fdb462" stroke="transparent" points="1397,-10 1397,-30 1417,-30 1417,-10 1397,-10"/>
<text text-anchor="start" x="1420.6732" y="-15.4" font-family="sans-serif" font-size="14.00" fill="#000000"> &#160;Providers</text>
<polygon fill="#fb8072" stroke="transparent" points="1493,-10 1493,-30 1513,-30 1513,-10 1493,-10"/>
<text text-anchor="start" x="1516.7258" y="-15.4" font-family="sans-serif" font-size="14.00" fill="#000000"> &#160;Exports</text>
<g id="clust1" class="cluster">
<title>cluster_BoardModule</title>
<polygon fill="none" stroke="#000000" stroke-dasharray="1,5" points="8,-70 8,-195 2662,-195 2662,-70 8,-70"/>
</g>
<g id="clust2" class="cluster">
<title>cluster_BoardModule_declarations</title>
<polygon fill="none" stroke="#000000" points="2522,-78 2522,-130 2654,-130 2654,-78 2522,-78"/>
</g>
<g id="clust4" class="cluster">
<title>cluster_BoardModule_imports</title>
<polygon fill="none" stroke="#000000" points="1057,-78 1057,-130 2514,-130 2514,-78 1057,-78"/>
</g>
<g id="clust7" class="cluster">
<title>cluster_BoardModule_providers</title>
<polygon fill="none" stroke="#000000" points="16,-78 16,-130 1049,-130 1049,-78 16,-78"/>
</g>
<!-- BoardComponent -->
<g id="node1" class="node">
<title>BoardComponent</title>
<polygon fill="#ffffb3" stroke="#000000" points="2645.5451,-122 2530.4549,-122 2530.4549,-86 2645.5451,-86 2645.5451,-122"/>
<text text-anchor="middle" x="2588" y="-99.8" font-family="Times,serif" font-size="14.00" fill="#000000">BoardComponent</text>
</g>
<!-- BoardModule -->
<g id="node2" class="node">
<title>BoardModule</title>
<polygon fill="#8dd3c7" stroke="#000000" points="1507.7619,-187 1504.7619,-191 1483.7619,-191 1480.7619,-187 1414.2381,-187 1414.2381,-151 1507.7619,-151 1507.7619,-187"/>
<text text-anchor="middle" x="1461" y="-164.8" font-family="Times,serif" font-size="14.00" fill="#000000">BoardModule</text>
</g>
<!-- BoardComponent&#45;&gt;BoardModule -->
<g id="edge1" class="edge">
<title>BoardComponent&#45;&gt;BoardModule</title>
<path fill="none" stroke="#000000" d="M2588,-122.3228C2588,-145.6602 2588,-183 2588,-183 2588,-183 1517.991,-183 1517.991,-183"/>
<polygon fill="#000000" stroke="#000000" points="1517.991,-179.5001 1507.991,-183 1517.9909,-186.5001 1517.991,-179.5001"/>
</g>
<!-- CommonModule -->
<g id="node3" class="node">
<title>CommonModule</title>
<polygon fill="#8dd3c7" stroke="#000000" points="2505.6681,-122 2502.6681,-126 2481.6681,-126 2478.6681,-122 2394.3319,-122 2394.3319,-86 2505.6681,-86 2505.6681,-122"/>
<text text-anchor="middle" x="2450" y="-99.8" font-family="Times,serif" font-size="14.00" fill="#000000">CommonModule</text>
</g>
<!-- CommonModule&#45;&gt;BoardModule -->
<g id="edge2" class="edge">
<title>CommonModule&#45;&gt;BoardModule</title>
<path fill="none" stroke="#000000" d="M2450,-122.2921C2450,-144.2057 2450,-178 2450,-178 2450,-178 1518.0362,-178 1518.0362,-178"/>
<polygon fill="#000000" stroke="#000000" points="1518.0362,-174.5001 1508.0362,-178 1518.0361,-181.5001 1518.0362,-174.5001"/>
</g>
<!-- NotificationModule -->
<g id="node4" class="node">
<title>NotificationModule</title>
<polygon fill="#8dd3c7" stroke="#000000" points="2376.6994,-122 2373.6994,-126 2352.6994,-126 2349.6994,-122 2249.3006,-122 2249.3006,-86 2376.6994,-86 2376.6994,-122"/>
<text text-anchor="middle" x="2313" y="-99.8" font-family="Times,serif" font-size="14.00" fill="#000000">NotificationModule</text>
</g>
<!-- NotificationModule&#45;&gt;BoardModule -->
<g id="edge3" class="edge">
<title>NotificationModule&#45;&gt;BoardModule</title>
<path fill="none" stroke="#000000" d="M2313,-122.0267C2313,-142.7672 2313,-174 2313,-174 2313,-174 1518.0208,-174 1518.0208,-174"/>
<polygon fill="#000000" stroke="#000000" points="1518.0209,-170.5001 1508.0208,-174 1518.0208,-177.5001 1518.0209,-170.5001"/>
</g>
<!-- AddGadgetModule -->
<g id="node5" class="node">
<title>AddGadgetModule</title>
<polygon fill="#8dd3c7" stroke="#000000" points="2231.0828,-122 2228.0828,-126 2207.0828,-126 2204.0828,-122 2106.9172,-122 2106.9172,-86 2231.0828,-86 2231.0828,-122"/>
<text text-anchor="middle" x="2169" y="-99.8" font-family="Times,serif" font-size="14.00" fill="#000000">AddGadgetModule</text>
</g>
<!-- AddGadgetModule&#45;&gt;BoardModule -->
<g id="edge4" class="edge">
<title>AddGadgetModule&#45;&gt;BoardModule</title>
<path fill="none" stroke="#000000" d="M2169,-122.1061C2169,-141.3391 2169,-169 2169,-169 2169,-169 1518.0022,-169 1518.0022,-169"/>
<polygon fill="#000000" stroke="#000000" points="1518.0022,-165.5001 1508.0022,-169 1518.0021,-172.5001 1518.0022,-165.5001"/>
</g>
<!-- LayoutModule -->
<g id="node6" class="node">
<title>LayoutModule</title>
<polygon fill="#8dd3c7" stroke="#000000" points="2088.7078,-122 2085.7078,-126 2064.7078,-126 2061.7078,-122 1989.2922,-122 1989.2922,-86 2088.7078,-86 2088.7078,-122"/>
<text text-anchor="middle" x="2039" y="-99.8" font-family="Times,serif" font-size="14.00" fill="#000000">LayoutModule</text>
</g>
<!-- LayoutModule&#45;&gt;BoardModule -->
<g id="edge5" class="edge">
<title>LayoutModule&#45;&gt;BoardModule</title>
<path fill="none" stroke="#000000" d="M2039,-122.302C2039,-140.2699 2039,-165 2039,-165 2039,-165 1517.8106,-165 1517.8106,-165"/>
<polygon fill="#000000" stroke="#000000" points="1517.8106,-161.5001 1507.8106,-165 1517.8105,-168.5001 1517.8106,-161.5001"/>
</g>
<!-- ConfigurationModule -->
<g id="node7" class="node">
<title>ConfigurationModule</title>
<polygon fill="#8dd3c7" stroke="#000000" points="1971.094,-122 1968.094,-126 1947.094,-126 1944.094,-122 1832.906,-122 1832.906,-86 1971.094,-86 1971.094,-122"/>
<text text-anchor="middle" x="1902" y="-99.8" font-family="Times,serif" font-size="14.00" fill="#000000">ConfigurationModule</text>
</g>
<!-- ConfigurationModule&#45;&gt;BoardModule -->
<g id="edge6" class="edge">
<title>ConfigurationModule&#45;&gt;BoardModule</title>
<path fill="none" stroke="#000000" d="M1902,-122.027C1902,-138.3976 1902,-160 1902,-160 1902,-160 1517.7772,-160 1517.7772,-160"/>
<polygon fill="#000000" stroke="#000000" points="1517.7773,-156.5001 1507.7772,-160 1517.7772,-163.5001 1517.7773,-156.5001"/>
</g>
<!-- GridModule.withComponents(args) -->
<g id="node8" class="node">
<title>GridModule.withComponents(args)</title>
<polygon fill="#8dd3c7" stroke="#000000" points="1814.5134,-122 1811.5134,-126 1790.5134,-126 1787.5134,-122 1597.4866,-122 1597.4866,-86 1814.5134,-86 1814.5134,-122"/>
<text text-anchor="middle" x="1706" y="-99.8" font-family="Times,serif" font-size="14.00" fill="#000000">GridModule.withComponents(args)</text>
</g>
<!-- GridModule.withComponents(args)&#45;&gt;BoardModule -->
<g id="edge7" class="edge">
<title>GridModule.withComponents(args)&#45;&gt;BoardModule</title>
<path fill="none" stroke="#000000" d="M1706,-122.1871C1706,-137.1824 1706,-156 1706,-156 1706,-156 1517.9486,-156 1517.9486,-156"/>
<polygon fill="#000000" stroke="#000000" points="1517.9486,-152.5001 1507.9486,-156 1517.9485,-159.5001 1517.9486,-152.5001"/>
</g>
<!-- GadgetModule -->
<g id="node9" class="node">
<title>GadgetModule</title>
<polygon fill="#8dd3c7" stroke="#000000" points="1579.9762,-122 1576.9762,-126 1555.9762,-126 1552.9762,-122 1480.0238,-122 1480.0238,-86 1579.9762,-86 1579.9762,-122"/>
<text text-anchor="middle" x="1530" y="-99.8" font-family="Times,serif" font-size="14.00" fill="#000000">GadgetModule</text>
</g>
<!-- GadgetModule&#45;&gt;BoardModule -->
<g id="edge8" class="edge">
<title>GadgetModule&#45;&gt;BoardModule</title>
<path fill="none" stroke="#000000" d="M1493.9464,-122.1061C1493.9464,-122.1061 1493.9464,-140.991 1493.9464,-140.991"/>
<polygon fill="#000000" stroke="#000000" points="1490.4464,-140.9909 1493.9464,-150.991 1497.4464,-140.991 1490.4464,-140.9909"/>
</g>
<!-- DndModule.forRoot() -->
<g id="node10" class="node">
<title>DndModule.forRoot()</title>
<polygon fill="#8dd3c7" stroke="#000000" points="1462.026,-122 1459.026,-126 1438.026,-126 1435.026,-122 1321.974,-122 1321.974,-86 1462.026,-86 1462.026,-122"/>
<text text-anchor="middle" x="1392" y="-99.8" font-family="Times,serif" font-size="14.00" fill="#000000">DndModule.forRoot()</text>
</g>
<!-- DndModule.forRoot()&#45;&gt;BoardModule -->
<g id="edge9" class="edge">
<title>DndModule.forRoot()&#45;&gt;BoardModule</title>
<path fill="none" stroke="#000000" d="M1438.0661,-122.1061C1438.0661,-122.1061 1438.0661,-140.991 1438.0661,-140.991"/>
<polygon fill="#000000" stroke="#000000" points="1434.5662,-140.9909 1438.0661,-150.991 1441.5662,-140.991 1434.5662,-140.9909"/>
</g>
<!-- MdButtonModule -->
<g id="node11" class="node">
<title>MdButtonModule</title>
<polygon fill="#8dd3c7" stroke="#000000" points="1303.6123,-122 1300.6123,-126 1279.6123,-126 1276.6123,-122 1186.3877,-122 1186.3877,-86 1303.6123,-86 1303.6123,-122"/>
<text text-anchor="middle" x="1245" y="-99.8" font-family="Times,serif" font-size="14.00" fill="#000000">MdButtonModule</text>
</g>
<!-- MdButtonModule&#45;&gt;BoardModule -->
<g id="edge10" class="edge">
<title>MdButtonModule&#45;&gt;BoardModule</title>
<path fill="none" stroke="#000000" d="M1245,-122.1871C1245,-137.1824 1245,-156 1245,-156 1245,-156 1404.1312,-156 1404.1312,-156"/>
<polygon fill="#000000" stroke="#000000" points="1404.1313,-159.5001 1414.1312,-156 1404.1312,-152.5001 1404.1313,-159.5001"/>
</g>
<!-- MdIconModule -->
<g id="node12" class="node">
<title>MdIconModule</title>
<polygon fill="#8dd3c7" stroke="#000000" points="1168.8697,-122 1165.8697,-126 1144.8697,-126 1141.8697,-122 1065.1303,-122 1065.1303,-86 1168.8697,-86 1168.8697,-122"/>
<text text-anchor="middle" x="1117" y="-99.8" font-family="Times,serif" font-size="14.00" fill="#000000">MdIconModule</text>
</g>
<!-- MdIconModule&#45;&gt;BoardModule -->
<g id="edge11" class="edge">
<title>MdIconModule&#45;&gt;BoardModule</title>
<path fill="none" stroke="#000000" d="M1117,-122.027C1117,-138.3976 1117,-160 1117,-160 1117,-160 1403.8896,-160 1403.8896,-160"/>
<polygon fill="#000000" stroke="#000000" points="1403.8896,-163.5001 1413.8896,-160 1403.8895,-156.5001 1403.8896,-163.5001"/>
</g>
<!-- EndPointService -->
<g id="node13" class="node">
<title>EndPointService</title>
<ellipse fill="#fdb462" stroke="#000000" cx="965" cy="-104" rx="75.8817" ry="18"/>
<text text-anchor="middle" x="965" y="-99.8" font-family="Times,serif" font-size="14.00" fill="#000000">EndPointService</text>
</g>
<!-- EndPointService&#45;&gt;BoardModule -->
<g id="edge12" class="edge">
<title>EndPointService&#45;&gt;BoardModule</title>
<path fill="none" stroke="#000000" d="M965,-122.302C965,-140.2699 965,-165 965,-165 965,-165 1403.8904,-165 1403.8904,-165"/>
<polygon fill="#000000" stroke="#000000" points="1403.8904,-168.5001 1413.8904,-165 1403.8903,-161.5001 1403.8904,-168.5001"/>
</g>
<!-- RuntimeService -->
<g id="node14" class="node">
<title>RuntimeService</title>
<ellipse fill="#fdb462" stroke="#000000" cx="798" cy="-104" rx="73.0113" ry="18"/>
<text text-anchor="middle" x="798" y="-99.8" font-family="Times,serif" font-size="14.00" fill="#000000">RuntimeService</text>
</g>
<!-- RuntimeService&#45;&gt;BoardModule -->
<g id="edge13" class="edge">
<title>RuntimeService&#45;&gt;BoardModule</title>
<path fill="none" stroke="#000000" d="M798,-122.1061C798,-141.3391 798,-169 798,-169 798,-169 1404.115,-169 1404.115,-169"/>
<polygon fill="#000000" stroke="#000000" points="1404.115,-172.5001 1414.115,-169 1404.1149,-165.5001 1404.115,-172.5001"/>
</g>
<!-- ConfigurationService -->
<g id="node15" class="node">
<title>ConfigurationService</title>
<ellipse fill="#fdb462" stroke="#000000" cx="613" cy="-104" rx="94.3408" ry="18"/>
<text text-anchor="middle" x="613" y="-99.8" font-family="Times,serif" font-size="14.00" fill="#000000">ConfigurationService</text>
</g>
<!-- ConfigurationService&#45;&gt;BoardModule -->
<g id="edge14" class="edge">
<title>ConfigurationService&#45;&gt;BoardModule</title>
<path fill="none" stroke="#000000" d="M613,-122.0267C613,-142.7672 613,-174 613,-174 613,-174 1404.1999,-174 1404.1999,-174"/>
<polygon fill="#000000" stroke="#000000" points="1404.2,-177.5001 1414.1999,-174 1404.1999,-170.5001 1404.2,-177.5001"/>
</g>
<!-- GadgetPropertyService -->
<g id="node16" class="node">
<title>GadgetPropertyService</title>
<ellipse fill="#fdb462" stroke="#000000" cx="400" cy="-104" rx="101.2621" ry="18"/>
<text text-anchor="middle" x="400" y="-99.8" font-family="Times,serif" font-size="14.00" fill="#000000">GadgetPropertyService</text>
</g>
<!-- GadgetPropertyService&#45;&gt;BoardModule -->
<g id="edge15" class="edge">
<title>GadgetPropertyService&#45;&gt;BoardModule</title>
<path fill="none" stroke="#000000" d="M400,-122.2921C400,-144.2057 400,-178 400,-178 400,-178 1404.0411,-178 1404.0411,-178"/>
<polygon fill="#000000" stroke="#000000" points="1404.0412,-181.5001 1414.0411,-178 1404.0411,-174.5001 1404.0412,-181.5001"/>
</g>
<!-- ObservableWebSocketService -->
<g id="node17" class="node">
<title>ObservableWebSocketService</title>
<ellipse fill="#fdb462" stroke="#000000" cx="152" cy="-104" rx="128.4512" ry="18"/>
<text text-anchor="middle" x="152" y="-99.8" font-family="Times,serif" font-size="14.00" fill="#000000">ObservableWebSocketService</text>
</g>
<!-- ObservableWebSocketService&#45;&gt;BoardModule -->
<g id="edge16" class="edge">
<title>ObservableWebSocketService&#45;&gt;BoardModule</title>
<path fill="none" stroke="#000000" d="M152,-122.3228C152,-145.6602 152,-183 152,-183 152,-183 1404.0261,-183 1404.0261,-183"/>
<polygon fill="#000000" stroke="#000000" points="1404.0261,-186.5001 1414.0261,-183 1404.026,-179.5001 1404.0261,-186.5001"/>
</g>
</g>
</svg>
