<?xml version="1.0" encoding="UTF-8" standalone="no"?>
<!DOCTYPE svg PUBLIC "-//W3C//DTD SVG 1.1//EN"
 "http://www.w3.org/Graphics/SVG/1.1/DTD/svg11.dtd">
<!-- Generated by graphviz version 2.40.1 (20161225.0304)
 -->
<!-- Title: dependencies Pages: 1 -->
<svg width="1135pt" height="284pt"
 viewBox="0.00 0.00 1135.00 284.00" xmlns="http://www.w3.org/2000/svg" xmlns:xlink="http://www.w3.org/1999/xlink">
<g id="graph0" class="graph" transform="scale(1 1) rotate(0) translate(4 280)">
<title>dependencies</title>
<polygon fill="#ffffff" stroke="transparent" points="-4,4 -4,-280 1131,-280 1131,4 -4,4"/>
<text text-anchor="start" x="542.5091" y="-42.4" font-family="sans-serif" font-weight="bold" font-size="14.00" fill="#000000">Legend</text>
<polygon fill="#ffffb3" stroke="transparent" points="329.5,-10 329.5,-30 349.5,-30 349.5,-10 329.5,-10"/>
<text text-anchor="start" x="353.129" y="-15.4" font-family="sans-serif" font-size="14.00" fill="#000000"> &#160;Declarations</text>
<polygon fill="#8dd3c7" stroke="transparent" points="442.5,-10 442.5,-30 462.5,-30 462.5,-10 442.5,-10"/>
<text text-anchor="start" x="466.2251" y="-15.4" font-family="sans-serif" font-size="14.00" fill="#000000"> &#160;Module</text>
<polygon fill="#80b1d3" stroke="transparent" points="528.5,-10 528.5,-30 548.5,-30 548.5,-10 528.5,-10"/>
<text text-anchor="start" x="552.2812" y="-15.4" font-family="sans-serif" font-size="14.00" fill="#000000"> &#160;Bootstrap</text>
<polygon fill="#fdb462" stroke="transparent" points="625.5,-10 625.5,-30 645.5,-30 645.5,-10 625.5,-10"/>
<text text-anchor="start" x="649.1732" y="-15.4" font-family="sans-serif" font-size="14.00" fill="#000000"> &#160;Providers</text>
<polygon fill="#fb8072" stroke="transparent" points="721.5,-10 721.5,-30 741.5,-30 741.5,-10 721.5,-10"/>
<text text-anchor="start" x="745.2258" y="-15.4" font-family="sans-serif" font-size="14.00" fill="#000000"> &#160;Exports</text>
<g id="clust1" class="cluster">
<title>cluster_AppModule</title>
<polygon fill="none" stroke="#000000" stroke-dasharray="1,5" points="8,-70 8,-268 1119,-268 1119,-70 8,-70"/>
</g>
<g id="clust2" class="cluster">
<title>cluster_AppModule_declarations</title>
<polygon fill="none" stroke="#000000" points="989,-78 989,-130 1111,-130 1111,-78 989,-78"/>
</g>
<g id="clust4" class="cluster">
<title>cluster_AppModule_imports</title>
<polygon fill="none" stroke="#000000" points="16,-78 16,-130 981,-130 981,-78 16,-78"/>
</g>
<g id="clust6" class="cluster">
<title>cluster_AppModule_bootstrap</title>
<polygon fill="none" stroke="#000000" points="485,-208 485,-260 609,-260 609,-208 485,-208"/>
</g>
<!-- AppComponent -->
<g id="node1" class="node">
<title>AppComponent</title>
<polygon fill="#ffffb3" stroke="#000000" points="1102.9399,-122 997.0601,-122 997.0601,-86 1102.9399,-86 1102.9399,-122"/>
<text text-anchor="middle" x="1050" y="-99.8" font-family="Times,serif" font-size="14.00" fill="#000000">AppComponent</text>
</g>
<!-- AppModule -->
<g id="node2" class="node">
<title>AppModule</title>
<polygon fill="#8dd3c7" stroke="#000000" points="588.6571,-187 585.6571,-191 564.6571,-191 561.6571,-187 505.3429,-187 505.3429,-151 588.6571,-151 588.6571,-187"/>
<text text-anchor="middle" x="547" y="-164.8" font-family="Times,serif" font-size="14.00" fill="#000000">AppModule</text>
</g>
<!-- AppComponent&#45;&gt;AppModule -->
<g id="edge1" class="edge">
<title>AppComponent&#45;&gt;AppModule</title>
<path fill="none" stroke="#000000" d="M1050,-122.2921C1050,-144.2057 1050,-178 1050,-178 1050,-178 599.0203,-178 599.0203,-178"/>
<polygon fill="#000000" stroke="#000000" points="599.0204,-174.5001 589.0203,-178 599.0203,-181.5001 599.0204,-174.5001"/>
</g>
<!-- AppComponent  -->
<g id="node10" class="node">
<title>AppComponent </title>
<polygon fill="#80b1d3" stroke="#000000" points="601.439,-252 492.561,-252 492.561,-216 601.439,-216 601.439,-252"/>
<text text-anchor="middle" x="547" y="-229.8" font-family="Times,serif" font-size="14.00" fill="#000000">AppComponent </text>
</g>
<!-- AppModule&#45;&gt;AppComponent  -->
<g id="edge9" class="edge">
<title>AppModule&#45;&gt;AppComponent </title>
<path fill="none" stroke="#000000" stroke-dasharray="1,5" d="M547,-187.1061C547,-187.1061 547,-205.991 547,-205.991"/>
<polygon fill="#000000" stroke="#000000" points="543.5001,-205.9909 547,-215.991 550.5001,-205.991 543.5001,-205.9909"/>
</g>
<!-- BrowserModule -->
<g id="node3" class="node">
<title>BrowserModule</title>
<polygon fill="#8dd3c7" stroke="#000000" points="973.4734,-122 970.4734,-126 949.4734,-126 946.4734,-122 866.5266,-122 866.5266,-86 973.4734,-86 973.4734,-122"/>
<text text-anchor="middle" x="920" y="-99.8" font-family="Times,serif" font-size="14.00" fill="#000000">BrowserModule</text>
</g>
<!-- BrowserModule&#45;&gt;AppModule -->
<g id="edge2" class="edge">
<title>BrowserModule&#45;&gt;AppModule</title>
<path fill="none" stroke="#000000" d="M920,-122.1061C920,-141.3391 920,-169 920,-169 920,-169 598.7021,-169 598.7021,-169"/>
<polygon fill="#000000" stroke="#000000" points="598.7021,-165.5001 588.7021,-169 598.7021,-172.5001 598.7021,-165.5001"/>
</g>
<!-- BrowserAnimationsModule -->
<g id="node4" class="node">
<title>BrowserAnimationsModule</title>
<polygon fill="#8dd3c7" stroke="#000000" points="848.3019,-122 845.3019,-126 824.3019,-126 821.3019,-122 675.6981,-122 675.6981,-86 848.3019,-86 848.3019,-122"/>
<text text-anchor="middle" x="762" y="-99.8" font-family="Times,serif" font-size="14.00" fill="#000000">BrowserAnimationsModule</text>
</g>
<!-- BrowserAnimationsModule&#45;&gt;AppModule -->
<g id="edge3" class="edge">
<title>BrowserAnimationsModule&#45;&gt;AppModule</title>
<path fill="none" stroke="#000000" d="M762,-122.027C762,-138.3976 762,-160 762,-160 762,-160 598.7091,-160 598.7091,-160"/>
<polygon fill="#000000" stroke="#000000" points="598.7091,-156.5001 588.7091,-160 598.7091,-163.5001 598.7091,-156.5001"/>
</g>
<!-- RoutingModule -->
<g id="node5" class="node">
<title>RoutingModule</title>
<polygon fill="#8dd3c7" stroke="#000000" points="658.1681,-122 655.1681,-126 634.1681,-126 631.1681,-122 553.8319,-122 553.8319,-86 658.1681,-86 658.1681,-122"/>
<text text-anchor="middle" x="606" y="-99.8" font-family="Times,serif" font-size="14.00" fill="#000000">RoutingModule</text>
</g>
<!-- RoutingModule&#45;&gt;AppModule -->
<g id="edge4" class="edge">
<title>RoutingModule&#45;&gt;AppModule</title>
<path fill="none" stroke="#000000" d="M571.2472,-122.1061C571.2472,-122.1061 571.2472,-140.991 571.2472,-140.991"/>
<polygon fill="#000000" stroke="#000000" points="567.7473,-140.9909 571.2472,-150.991 574.7473,-140.991 567.7473,-140.9909"/>
</g>
<!-- FormsModule -->
<g id="node6" class="node">
<title>FormsModule</title>
<polygon fill="#8dd3c7" stroke="#000000" points="535.8288,-122 532.8288,-126 511.8288,-126 508.8288,-122 440.1712,-122 440.1712,-86 535.8288,-86 535.8288,-122"/>
<text text-anchor="middle" x="488" y="-99.8" font-family="Times,serif" font-size="14.00" fill="#000000">FormsModule</text>
</g>
<!-- FormsModule&#45;&gt;AppModule -->
<g id="edge5" class="edge">
<title>FormsModule&#45;&gt;AppModule</title>
<path fill="none" stroke="#000000" d="M520.418,-122.1061C520.418,-122.1061 520.418,-140.991 520.418,-140.991"/>
<polygon fill="#000000" stroke="#000000" points="516.918,-140.9909 520.418,-150.991 523.918,-140.991 516.918,-140.9909"/>
</g>
<!-- HttpClientModule -->
<g id="node7" class="node">
<title>HttpClientModule</title>
<polygon fill="#8dd3c7" stroke="#000000" points="422.1611,-122 419.1611,-126 398.1611,-126 395.1611,-122 303.8389,-122 303.8389,-86 422.1611,-86 422.1611,-122"/>
<text text-anchor="middle" x="363" y="-99.8" font-family="Times,serif" font-size="14.00" fill="#000000">HttpClientModule</text>
</g>
<!-- HttpClientModule&#45;&gt;AppModule -->
<g id="edge6" class="edge">
<title>HttpClientModule&#45;&gt;AppModule</title>
<path fill="none" stroke="#000000" d="M363,-122.027C363,-138.3976 363,-160 363,-160 363,-160 495.2476,-160 495.2476,-160"/>
<polygon fill="#000000" stroke="#000000" points="495.2476,-163.5001 505.2476,-160 495.2475,-156.5001 495.2476,-163.5001"/>
</g>
<!-- BoardModule -->
<g id="node8" class="node">
<title>BoardModule</title>
<polygon fill="#8dd3c7" stroke="#000000" points="285.7619,-122 282.7619,-126 261.7619,-126 258.7619,-122 192.2381,-122 192.2381,-86 285.7619,-86 285.7619,-122"/>
<text text-anchor="middle" x="239" y="-99.8" font-family="Times,serif" font-size="14.00" fill="#000000">BoardModule</text>
</g>
<!-- BoardModule&#45;&gt;AppModule -->
<g id="edge7" class="edge">
<title>BoardModule&#45;&gt;AppModule</title>
<path fill="none" stroke="#000000" d="M239,-122.1061C239,-141.3391 239,-169 239,-169 239,-169 495.1412,-169 495.1412,-169"/>
<polygon fill="#000000" stroke="#000000" points="495.1412,-172.5001 505.1412,-169 495.1412,-165.5001 495.1412,-172.5001"/>
</g>
<!-- HttpClientJsonpModule -->
<g id="node9" class="node">
<title>HttpClientJsonpModule</title>
<polygon fill="#8dd3c7" stroke="#000000" points="174.0505,-122 171.0505,-126 150.0505,-126 147.0505,-122 23.9495,-122 23.9495,-86 174.0505,-86 174.0505,-122"/>
<text text-anchor="middle" x="99" y="-99.8" font-family="Times,serif" font-size="14.00" fill="#000000">HttpClientJsonpModule</text>
</g>
<!-- HttpClientJsonpModule&#45;&gt;AppModule -->
<g id="edge8" class="edge">
<title>HttpClientJsonpModule&#45;&gt;AppModule</title>
<path fill="none" stroke="#000000" d="M99,-122.2921C99,-144.2057 99,-178 99,-178 99,-178 495.2555,-178 495.2555,-178"/>
<polygon fill="#000000" stroke="#000000" points="495.2556,-181.5001 505.2555,-178 495.2555,-174.5001 495.2556,-181.5001"/>
</g>
</g>
</svg>
