<?xml version="1.0" encoding="UTF-8" standalone="no"?>
<!DOCTYPE svg PUBLIC "-//W3C//DTD SVG 1.1//EN"
 "http://www.w3.org/Graphics/SVG/1.1/DTD/svg11.dtd">
<!-- Generated by graphviz version 2.40.1 (20161225.0304)
 -->
<!-- Title: dependencies Pages: 1 -->
<svg width="1225pt" height="284pt"
 viewBox="0.00 0.00 1225.00 284.00" xmlns="http://www.w3.org/2000/svg" xmlns:xlink="http://www.w3.org/1999/xlink">
<g id="graph0" class="graph" transform="scale(1 1) rotate(0) translate(4 280)">
<title>dependencies</title>
<polygon fill="#ffffff" stroke="transparent" points="-4,4 -4,-280 1221,-280 1221,4 -4,4"/>
<text text-anchor="start" x="587.5091" y="-42.4" font-family="sans-serif" font-weight="bold" font-size="14.00" fill="#000000">Legend</text>
<polygon fill="#ffffb3" stroke="transparent" points="374.5,-10 374.5,-30 394.5,-30 394.5,-10 374.5,-10"/>
<text text-anchor="start" x="398.129" y="-15.4" font-family="sans-serif" font-size="14.00" fill="#000000"> &#160;Declarations</text>
<polygon fill="#8dd3c7" stroke="transparent" points="487.5,-10 487.5,-30 507.5,-30 507.5,-10 487.5,-10"/>
<text text-anchor="start" x="511.2251" y="-15.4" font-family="sans-serif" font-size="14.00" fill="#000000"> &#160;Module</text>
<polygon fill="#80b1d3" stroke="transparent" points="573.5,-10 573.5,-30 593.5,-30 593.5,-10 573.5,-10"/>
<text text-anchor="start" x="597.2812" y="-15.4" font-family="sans-serif" font-size="14.00" fill="#000000"> &#160;Bootstrap</text>
<polygon fill="#fdb462" stroke="transparent" points="670.5,-10 670.5,-30 690.5,-30 690.5,-10 670.5,-10"/>
<text text-anchor="start" x="694.1732" y="-15.4" font-family="sans-serif" font-size="14.00" fill="#000000"> &#160;Providers</text>
<polygon fill="#fb8072" stroke="transparent" points="766.5,-10 766.5,-30 786.5,-30 786.5,-10 766.5,-10"/>
<text text-anchor="start" x="790.2258" y="-15.4" font-family="sans-serif" font-size="14.00" fill="#000000"> &#160;Exports</text>
<g id="clust1" class="cluster">
<title>cluster_AppModule</title>
<polygon fill="none" stroke="#000000" stroke-dasharray="1,5" points="8,-70 8,-268 1209,-268 1209,-70 8,-70"/>
</g>
<g id="clust2" class="cluster">
<title>cluster_AppModule_declarations</title>
<polygon fill="none" stroke="#000000" points="1079,-78 1079,-130 1201,-130 1201,-78 1079,-78"/>
</g>
<g id="clust4" class="cluster">
<title>cluster_AppModule_imports</title>
<polygon fill="none" stroke="#000000" points="16,-78 16,-130 1071,-130 1071,-78 16,-78"/>
</g>
<g id="clust6" class="cluster">
<title>cluster_AppModule_bootstrap</title>
<polygon fill="none" stroke="#000000" points="504,-208 504,-260 628,-260 628,-208 504,-208"/>
</g>
<!-- AppComponent -->
<g id="node1" class="node">
<title>AppComponent</title>
<polygon fill="#ffffb3" stroke="#000000" points="1192.9399,-122 1087.0601,-122 1087.0601,-86 1192.9399,-86 1192.9399,-122"/>
<text text-anchor="middle" x="1140" y="-99.8" font-family="Times,serif" font-size="14.00" fill="#000000">AppComponent</text>
</g>
<!-- AppModule -->
<g id="node2" class="node">
<title>AppModule</title>
<polygon fill="#8dd3c7" stroke="#000000" points="607.6571,-187 604.6571,-191 583.6571,-191 580.6571,-187 524.3429,-187 524.3429,-151 607.6571,-151 607.6571,-187"/>
<text text-anchor="middle" x="566" y="-164.8" font-family="Times,serif" font-size="14.00" fill="#000000">AppModule</text>
</g>
<!-- AppComponent&#45;&gt;AppModule -->
<g id="edge1" class="edge">
<title>AppComponent&#45;&gt;AppModule</title>
<path fill="none" stroke="#000000" d="M1140,-122.0109C1140,-144.4852 1140,-180 1140,-180 1140,-180 617.743,-180 617.743,-180"/>
<polygon fill="#000000" stroke="#000000" points="617.7431,-176.5001 607.743,-180 617.743,-183.5001 617.7431,-176.5001"/>
</g>
<!-- AppComponent  -->
<g id="node11" class="node">
<title>AppComponent </title>
<polygon fill="#80b1d3" stroke="#000000" points="620.439,-252 511.561,-252 511.561,-216 620.439,-216 620.439,-252"/>
<text text-anchor="middle" x="566" y="-229.8" font-family="Times,serif" font-size="14.00" fill="#000000">AppComponent </text>
</g>
<!-- AppModule&#45;&gt;AppComponent  -->
<g id="edge10" class="edge">
<title>AppModule&#45;&gt;AppComponent </title>
<path fill="none" stroke="#000000" stroke-dasharray="1,5" d="M566,-187.1061C566,-187.1061 566,-205.991 566,-205.991"/>
<polygon fill="#000000" stroke="#000000" points="562.5001,-205.9909 566,-215.991 569.5001,-205.991 562.5001,-205.9909"/>
</g>
<!-- CommonModule -->
<g id="node3" class="node">
<title>CommonModule</title>
<polygon fill="#8dd3c7" stroke="#000000" points="1062.6681,-122 1059.6681,-126 1038.6681,-126 1035.6681,-122 951.3319,-122 951.3319,-86 1062.6681,-86 1062.6681,-122"/>
<text text-anchor="middle" x="1007" y="-99.8" font-family="Times,serif" font-size="14.00" fill="#000000">CommonModule</text>
</g>
<!-- CommonModule&#45;&gt;AppModule -->
<g id="edge2" class="edge">
<title>CommonModule&#45;&gt;AppModule</title>
<path fill="none" stroke="#000000" d="M1007,-122.1289C1007,-142.5724 1007,-173 1007,-173 1007,-173 617.8858,-173 617.8858,-173"/>
<polygon fill="#000000" stroke="#000000" points="617.8858,-169.5001 607.8858,-173 617.8858,-176.5001 617.8858,-169.5001"/>
</g>
<!-- BrowserModule -->
<g id="node4" class="node">
<title>BrowserModule</title>
<polygon fill="#8dd3c7" stroke="#000000" points="933.4734,-122 930.4734,-126 909.4734,-126 906.4734,-122 826.5266,-122 826.5266,-86 933.4734,-86 933.4734,-122"/>
<text text-anchor="middle" x="880" y="-99.8" font-family="Times,serif" font-size="14.00" fill="#000000">BrowserModule</text>
</g>
<!-- BrowserModule&#45;&gt;AppModule -->
<g id="edge3" class="edge">
<title>BrowserModule&#45;&gt;AppModule</title>
<path fill="none" stroke="#000000" d="M880,-122.2667C880,-140.5552 880,-166 880,-166 880,-166 617.6968,-166 617.6968,-166"/>
<polygon fill="#000000" stroke="#000000" points="617.6968,-162.5001 607.6968,-166 617.6967,-169.5001 617.6968,-162.5001"/>
</g>
<!-- BrowserAnimationsModule -->
<g id="node5" class="node">
<title>BrowserAnimationsModule</title>
<polygon fill="#8dd3c7" stroke="#000000" points="808.3019,-122 805.3019,-126 784.3019,-126 781.3019,-122 635.6981,-122 635.6981,-86 808.3019,-86 808.3019,-122"/>
<text text-anchor="middle" x="722" y="-99.8" font-family="Times,serif" font-size="14.00" fill="#000000">BrowserAnimationsModule</text>
</g>
<!-- BrowserAnimationsModule&#45;&gt;AppModule -->
<g id="edge4" class="edge">
<title>BrowserAnimationsModule&#45;&gt;AppModule</title>
<path fill="none" stroke="#000000" d="M722,-122.0091C722,-138.0494 722,-159 722,-159 722,-159 617.8051,-159 617.8051,-159"/>
<polygon fill="#000000" stroke="#000000" points="617.8052,-155.5001 607.8051,-159 617.8051,-162.5001 617.8052,-155.5001"/>
</g>
<!-- RoutingModule -->
<g id="node6" class="node">
<title>RoutingModule</title>
<polygon fill="#8dd3c7" stroke="#000000" points="618.1681,-122 615.1681,-126 594.1681,-126 591.1681,-122 513.8319,-122 513.8319,-86 618.1681,-86 618.1681,-122"/>
<text text-anchor="middle" x="566" y="-99.8" font-family="Times,serif" font-size="14.00" fill="#000000">RoutingModule</text>
</g>
<!-- RoutingModule&#45;&gt;AppModule -->
<g id="edge5" class="edge">
<title>RoutingModule&#45;&gt;AppModule</title>
<path fill="none" stroke="#000000" d="M566,-122.1061C566,-122.1061 566,-140.991 566,-140.991"/>
<polygon fill="#000000" stroke="#000000" points="562.5001,-140.9909 566,-150.991 569.5001,-140.991 562.5001,-140.9909"/>
</g>
<!-- FormsModule -->
<g id="node7" class="node">
<title>FormsModule</title>
<polygon fill="#8dd3c7" stroke="#000000" points="495.8288,-122 492.8288,-126 471.8288,-126 468.8288,-122 400.1712,-122 400.1712,-86 495.8288,-86 495.8288,-122"/>
<text text-anchor="middle" x="448" y="-99.8" font-family="Times,serif" font-size="14.00" fill="#000000">FormsModule</text>
</g>
<!-- FormsModule&#45;&gt;AppModule -->
<g id="edge6" class="edge">
<title>FormsModule&#45;&gt;AppModule</title>
<path fill="none" stroke="#000000" d="M448,-122.0091C448,-138.0494 448,-159 448,-159 448,-159 514.0654,-159 514.0654,-159"/>
<polygon fill="#000000" stroke="#000000" points="514.0654,-162.5001 524.0654,-159 514.0653,-155.5001 514.0654,-162.5001"/>
</g>
<!-- HttpModule -->
<g id="node8" class="node">
<title>HttpModule</title>
<polygon fill="#8dd3c7" stroke="#000000" points="382.4387,-122 379.4387,-126 358.4387,-126 355.4387,-122 297.5613,-122 297.5613,-86 382.4387,-86 382.4387,-122"/>
<text text-anchor="middle" x="340" y="-99.8" font-family="Times,serif" font-size="14.00" fill="#000000">HttpModule</text>
</g>
<!-- HttpModule&#45;&gt;AppModule -->
<g id="edge7" class="edge">
<title>HttpModule&#45;&gt;AppModule</title>
<path fill="none" stroke="#000000" d="M340,-122.2667C340,-140.5552 340,-166 340,-166 340,-166 514.2847,-166 514.2847,-166"/>
<polygon fill="#000000" stroke="#000000" points="514.2848,-169.5001 524.2847,-166 514.2847,-162.5001 514.2848,-169.5001"/>
</g>
<!-- ReactiveFormsModule -->
<g id="node9" class="node">
<title>ReactiveFormsModule</title>
<polygon fill="#8dd3c7" stroke="#000000" points="280.3047,-122 277.3047,-126 256.3047,-126 253.3047,-122 135.6953,-122 135.6953,-86 280.3047,-86 280.3047,-122"/>
<text text-anchor="middle" x="208" y="-99.8" font-family="Times,serif" font-size="14.00" fill="#000000">ReactiveFormsModule</text>
</g>
<!-- ReactiveFormsModule&#45;&gt;AppModule -->
<g id="edge8" class="edge">
<title>ReactiveFormsModule&#45;&gt;AppModule</title>
<path fill="none" stroke="#000000" d="M208,-122.1289C208,-142.5724 208,-173 208,-173 208,-173 514.2322,-173 514.2322,-173"/>
<polygon fill="#000000" stroke="#000000" points="514.2322,-176.5001 524.2322,-173 514.2322,-169.5001 514.2322,-176.5001"/>
</g>
<!-- BoardModule -->
<g id="node10" class="node">
<title>BoardModule</title>
<polygon fill="#8dd3c7" stroke="#000000" points="117.7619,-122 114.7619,-126 93.7619,-126 90.7619,-122 24.2381,-122 24.2381,-86 117.7619,-86 117.7619,-122"/>
<text text-anchor="middle" x="71" y="-99.8" font-family="Times,serif" font-size="14.00" fill="#000000">BoardModule</text>
</g>
<!-- BoardModule&#45;&gt;AppModule -->
<g id="edge9" class="edge">
<title>BoardModule&#45;&gt;AppModule</title>
<path fill="none" stroke="#000000" d="M71,-122.0109C71,-144.4852 71,-180 71,-180 71,-180 514.2232,-180 514.2232,-180"/>
<polygon fill="#000000" stroke="#000000" points="514.2232,-183.5001 524.2232,-180 514.2232,-176.5001 514.2232,-183.5001"/>
</g>
</g>
</svg>
