<?xml version="1.0" encoding="UTF-8" standalone="no"?>
<!DOCTYPE svg PUBLIC "-//W3C//DTD SVG 1.1//EN"
 "http://www.w3.org/Graphics/SVG/1.1/DTD/svg11.dtd">
<!-- Generated by graphviz version 2.40.1 (20161225.0304)
 -->
<!-- Title: dependencies Pages: 1 -->
<svg width="929pt" height="284pt"
 viewBox="0.00 0.00 929.00 284.00" xmlns="http://www.w3.org/2000/svg" xmlns:xlink="http://www.w3.org/1999/xlink">
<g id="graph0" class="graph" transform="scale(1 1) rotate(0) translate(4 280)">
<title>dependencies</title>
<polygon fill="#ffffff" stroke="transparent" points="-4,4 -4,-280 925,-280 925,4 -4,4"/>
<text text-anchor="start" x="439.5091" y="-42.4" font-family="sans-serif" font-weight="bold" font-size="14.00" fill="#000000">Legend</text>
<polygon fill="#ffffb3" stroke="transparent" points="226.5,-10 226.5,-30 246.5,-30 246.5,-10 226.5,-10"/>
<text text-anchor="start" x="250.129" y="-15.4" font-family="sans-serif" font-size="14.00" fill="#000000"> &#160;Declarations</text>
<polygon fill="#8dd3c7" stroke="transparent" points="339.5,-10 339.5,-30 359.5,-30 359.5,-10 339.5,-10"/>
<text text-anchor="start" x="363.2251" y="-15.4" font-family="sans-serif" font-size="14.00" fill="#000000"> &#160;Module</text>
<polygon fill="#80b1d3" stroke="transparent" points="425.5,-10 425.5,-30 445.5,-30 445.5,-10 425.5,-10"/>
<text text-anchor="start" x="449.2812" y="-15.4" font-family="sans-serif" font-size="14.00" fill="#000000"> &#160;Bootstrap</text>
<polygon fill="#fdb462" stroke="transparent" points="522.5,-10 522.5,-30 542.5,-30 542.5,-10 522.5,-10"/>
<text text-anchor="start" x="546.1732" y="-15.4" font-family="sans-serif" font-size="14.00" fill="#000000"> &#160;Providers</text>
<polygon fill="#fb8072" stroke="transparent" points="618.5,-10 618.5,-30 638.5,-30 638.5,-10 618.5,-10"/>
<text text-anchor="start" x="642.2258" y="-15.4" font-family="sans-serif" font-size="14.00" fill="#000000"> &#160;Exports</text>
<g id="clust1" class="cluster">
<title>cluster_DataListModule</title>
<polygon fill="none" stroke="#000000" stroke-dasharray="1,5" points="8,-70 8,-268 913,-268 913,-70 8,-70"/>
</g>
<g id="clust2" class="cluster">
<title>cluster_DataListModule_declarations</title>
<polygon fill="none" stroke="#000000" points="759,-78 759,-130 905,-130 905,-78 759,-78"/>
</g>
<g id="clust4" class="cluster">
<title>cluster_DataListModule_imports</title>
<polygon fill="none" stroke="#000000" points="16,-78 16,-130 751,-130 751,-78 16,-78"/>
</g>
<g id="clust5" class="cluster">
<title>cluster_DataListModule_exports</title>
<polygon fill="none" stroke="#000000" points="423,-208 423,-260 573,-260 573,-208 423,-208"/>
</g>
<!-- DataListComponent -->
<g id="node1" class="node">
<title>DataListComponent</title>
<polygon fill="#ffffb3" stroke="#000000" points="896.538,-122 767.462,-122 767.462,-86 896.538,-86 896.538,-122"/>
<text text-anchor="middle" x="832" y="-99.8" font-family="Times,serif" font-size="14.00" fill="#000000">DataListComponent</text>
</g>
<!-- DataListModule -->
<g id="node2" class="node">
<title>DataListModule</title>
<polygon fill="#8dd3c7" stroke="#000000" points="551.7549,-187 548.7549,-191 527.7549,-191 524.7549,-187 444.2451,-187 444.2451,-151 551.7549,-151 551.7549,-187"/>
<text text-anchor="middle" x="498" y="-164.8" font-family="Times,serif" font-size="14.00" fill="#000000">DataListModule</text>
</g>
<!-- DataListComponent&#45;&gt;DataListModule -->
<g id="edge1" class="edge">
<title>DataListComponent&#45;&gt;DataListModule</title>
<path fill="none" stroke="#000000" d="M832,-122.2843C832,-143.3211 832,-175 832,-175 832,-175 562.0341,-175 562.0341,-175"/>
<polygon fill="#000000" stroke="#000000" points="562.0341,-171.5001 552.0341,-175 562.034,-178.5001 562.0341,-171.5001"/>
</g>
<!-- DataListComponent  -->
<g id="node8" class="node">
<title>DataListComponent </title>
<polygon fill="#fb8072" stroke="#000000" points="564.5372,-252 431.4628,-252 431.4628,-216 564.5372,-216 564.5372,-252"/>
<text text-anchor="middle" x="498" y="-229.8" font-family="Times,serif" font-size="14.00" fill="#000000">DataListComponent </text>
</g>
<!-- DataListModule&#45;&gt;DataListComponent  -->
<g id="edge7" class="edge">
<title>DataListModule&#45;&gt;DataListComponent </title>
<path fill="none" stroke="#000000" stroke-dasharray="5,2" d="M498,-187.1061C498,-187.1061 498,-205.991 498,-205.991"/>
<polygon fill="#000000" stroke="#000000" points="494.5001,-205.9909 498,-215.991 501.5001,-205.991 494.5001,-205.9909"/>
</g>
<!-- CommonModule -->
<g id="node3" class="node">
<title>CommonModule</title>
<polygon fill="#8dd3c7" stroke="#000000" points="742.6681,-122 739.6681,-126 718.6681,-126 715.6681,-122 631.3319,-122 631.3319,-86 742.6681,-86 742.6681,-122"/>
<text text-anchor="middle" x="687" y="-99.8" font-family="Times,serif" font-size="14.00" fill="#000000">CommonModule</text>
</g>
<!-- CommonModule&#45;&gt;DataListModule -->
<g id="edge2" class="edge">
<title>CommonModule&#45;&gt;DataListModule</title>
<path fill="none" stroke="#000000" d="M687,-122.0225C687,-139.3734 687,-163 687,-163 687,-163 561.9069,-163 561.9069,-163"/>
<polygon fill="#000000" stroke="#000000" points="561.9069,-159.5001 551.9069,-163 561.9068,-166.5001 561.9069,-159.5001"/>
</g>
<!-- FacetModule -->
<g id="node4" class="node">
<title>FacetModule</title>
<polygon fill="#8dd3c7" stroke="#000000" points="612.8669,-122 609.8669,-126 588.8669,-126 585.8669,-122 523.1331,-122 523.1331,-86 612.8669,-86 612.8669,-122"/>
<text text-anchor="middle" x="568" y="-99.8" font-family="Times,serif" font-size="14.00" fill="#000000">FacetModule</text>
</g>
<!-- FacetModule&#45;&gt;DataListModule -->
<g id="edge3" class="edge">
<title>FacetModule&#45;&gt;DataListModule</title>
<path fill="none" stroke="#000000" d="M537.472,-122.1061C537.472,-122.1061 537.472,-140.991 537.472,-140.991"/>
<polygon fill="#000000" stroke="#000000" points="533.972,-140.9909 537.472,-150.991 540.972,-140.991 533.972,-140.9909"/>
</g>
<!-- TypeAheadInputModule -->
<g id="node5" class="node">
<title>TypeAheadInputModule</title>
<polygon fill="#8dd3c7" stroke="#000000" points="505.4045,-122 502.4045,-126 481.4045,-126 478.4045,-122 350.5955,-122 350.5955,-86 505.4045,-86 505.4045,-122"/>
<text text-anchor="middle" x="428" y="-99.8" font-family="Times,serif" font-size="14.00" fill="#000000">TypeAheadInputModule</text>
</g>
<!-- TypeAheadInputModule&#45;&gt;DataListModule -->
<g id="edge4" class="edge">
<title>TypeAheadInputModule&#45;&gt;DataListModule</title>
<path fill="none" stroke="#000000" d="M474.6624,-122.1061C474.6624,-122.1061 474.6624,-140.991 474.6624,-140.991"/>
<polygon fill="#000000" stroke="#000000" points="471.1624,-140.9909 474.6624,-150.991 478.1624,-140.991 471.1624,-140.9909"/>
</g>
<!-- HttpClientModule -->
<g id="node6" class="node">
<title>HttpClientModule</title>
<polygon fill="#8dd3c7" stroke="#000000" points="332.1611,-122 329.1611,-126 308.1611,-126 305.1611,-122 213.8389,-122 213.8389,-86 332.1611,-86 332.1611,-122"/>
<text text-anchor="middle" x="273" y="-99.8" font-family="Times,serif" font-size="14.00" fill="#000000">HttpClientModule</text>
</g>
<!-- HttpClientModule&#45;&gt;DataListModule -->
<g id="edge5" class="edge">
<title>HttpClientModule&#45;&gt;DataListModule</title>
<path fill="none" stroke="#000000" d="M273,-122.0225C273,-139.3734 273,-163 273,-163 273,-163 434.1069,-163 434.1069,-163"/>
<polygon fill="#000000" stroke="#000000" points="434.1069,-166.5001 444.1069,-163 434.1069,-159.5001 434.1069,-166.5001"/>
</g>
<!-- BrowserAnimationsModule -->
<g id="node7" class="node">
<title>BrowserAnimationsModule</title>
<polygon fill="#8dd3c7" stroke="#000000" points="196.3019,-122 193.3019,-126 172.3019,-126 169.3019,-122 23.6981,-122 23.6981,-86 196.3019,-86 196.3019,-122"/>
<text text-anchor="middle" x="110" y="-99.8" font-family="Times,serif" font-size="14.00" fill="#000000">BrowserAnimationsModule</text>
</g>
<!-- BrowserAnimationsModule&#45;&gt;DataListModule -->
<g id="edge6" class="edge">
<title>BrowserAnimationsModule&#45;&gt;DataListModule</title>
<path fill="none" stroke="#000000" d="M110,-122.2843C110,-143.3211 110,-175 110,-175 110,-175 434.0503,-175 434.0503,-175"/>
<polygon fill="#000000" stroke="#000000" points="434.0503,-178.5001 444.0503,-175 434.0502,-171.5001 434.0503,-178.5001"/>
</g>
</g>
</svg>
