<?xml version="1.0" encoding="UTF-8" standalone="no"?>
<!DOCTYPE svg PUBLIC "-//W3C//DTD SVG 1.1//EN"
 "http://www.w3.org/Graphics/SVG/1.1/DTD/svg11.dtd">
<!-- Generated by graphviz version 2.40.1 (20161225.0304)
 -->
<!-- Title: dependencies Pages: 1 -->
<svg width="504pt" height="284pt"
 viewBox="0.00 0.00 504.00 284.00" xmlns="http://www.w3.org/2000/svg" xmlns:xlink="http://www.w3.org/1999/xlink">
<g id="graph0" class="graph" transform="scale(1 1) rotate(0) translate(4 280)">
<title>dependencies</title>
<polygon fill="#ffffff" stroke="transparent" points="-4,4 -4,-280 500,-280 500,4 -4,4"/>
<text text-anchor="start" x="227.0091" y="-42.4" font-family="sans-serif" font-weight="bold" font-size="14.00" fill="#000000">Legend</text>
<polygon fill="#ffffb3" stroke="transparent" points="14,-10 14,-30 34,-30 34,-10 14,-10"/>
<text text-anchor="start" x="37.629" y="-15.4" font-family="sans-serif" font-size="14.00" fill="#000000"> &#160;Declarations</text>
<polygon fill="#8dd3c7" stroke="transparent" points="127,-10 127,-30 147,-30 147,-10 127,-10"/>
<text text-anchor="start" x="150.7251" y="-15.4" font-family="sans-serif" font-size="14.00" fill="#000000"> &#160;Module</text>
<polygon fill="#80b1d3" stroke="transparent" points="213,-10 213,-30 233,-30 233,-10 213,-10"/>
<text text-anchor="start" x="236.7812" y="-15.4" font-family="sans-serif" font-size="14.00" fill="#000000"> &#160;Bootstrap</text>
<polygon fill="#fdb462" stroke="transparent" points="310,-10 310,-30 330,-30 330,-10 310,-10"/>
<text text-anchor="start" x="333.6732" y="-15.4" font-family="sans-serif" font-size="14.00" fill="#000000"> &#160;Providers</text>
<polygon fill="#fb8072" stroke="transparent" points="406,-10 406,-30 426,-30 426,-10 406,-10"/>
<text text-anchor="start" x="429.7258" y="-15.4" font-family="sans-serif" font-size="14.00" fill="#000000"> &#160;Exports</text>
<g id="clust1" class="cluster">
<title>cluster_DataListModule</title>
<polygon fill="none" stroke="#000000" stroke-dasharray="1,5" points="24,-70 24,-268 472,-268 472,-70 24,-70"/>
</g>
<g id="clust2" class="cluster">
<title>cluster_DataListModule_declarations</title>
<polygon fill="none" stroke="#000000" points="318,-78 318,-130 464,-130 464,-78 318,-78"/>
</g>
<g id="clust4" class="cluster">
<title>cluster_DataListModule_imports</title>
<polygon fill="none" stroke="#000000" points="32,-78 32,-130 310,-130 310,-78 32,-78"/>
</g>
<g id="clust5" class="cluster">
<title>cluster_DataListModule_exports</title>
<polygon fill="none" stroke="#000000" points="182,-208 182,-260 332,-260 332,-208 182,-208"/>
</g>
<!-- DataListComponent -->
<g id="node1" class="node">
<title>DataListComponent</title>
<polygon fill="#ffffb3" stroke="#000000" points="455.538,-122 326.462,-122 326.462,-86 455.538,-86 455.538,-122"/>
<text text-anchor="middle" x="391" y="-99.8" font-family="Times,serif" font-size="14.00" fill="#000000">DataListComponent</text>
</g>
<!-- DataListModule -->
<g id="node2" class="node">
<title>DataListModule</title>
<polygon fill="#8dd3c7" stroke="#000000" points="310.7549,-187 307.7549,-191 286.7549,-191 283.7549,-187 203.2451,-187 203.2451,-151 310.7549,-151 310.7549,-187"/>
<text text-anchor="middle" x="257" y="-164.8" font-family="Times,serif" font-size="14.00" fill="#000000">DataListModule</text>
</g>
<!-- DataListComponent&#45;&gt;DataListModule -->
<g id="edge1" class="edge">
<title>DataListComponent&#45;&gt;DataListModule</title>
<path fill="none" stroke="#000000" d="M326.4531,-104C314.8744,-104 306.4054,-104 306.4054,-104 306.4054,-104 306.4054,-140.8939 306.4054,-140.8939"/>
<polygon fill="#000000" stroke="#000000" points="302.9054,-140.8938 306.4054,-150.8939 309.9054,-140.8939 302.9054,-140.8938"/>
</g>
<!-- DataListComponent  -->
<g id="node5" class="node">
<title>DataListComponent </title>
<polygon fill="#fb8072" stroke="#000000" points="323.5372,-252 190.4628,-252 190.4628,-216 323.5372,-216 323.5372,-252"/>
<text text-anchor="middle" x="257" y="-229.8" font-family="Times,serif" font-size="14.00" fill="#000000">DataListComponent </text>
</g>
<!-- DataListModule&#45;&gt;DataListComponent  -->
<g id="edge4" class="edge">
<title>DataListModule&#45;&gt;DataListComponent </title>
<path fill="none" stroke="#000000" stroke-dasharray="5,2" d="M257,-187.1061C257,-187.1061 257,-205.991 257,-205.991"/>
<polygon fill="#000000" stroke="#000000" points="253.5001,-205.9909 257,-215.991 260.5001,-205.991 253.5001,-205.9909"/>
</g>
<!-- FacetModule -->
<g id="node3" class="node">
<title>FacetModule</title>
<polygon fill="#8dd3c7" stroke="#000000" points="301.8669,-122 298.8669,-126 277.8669,-126 274.8669,-122 212.1331,-122 212.1331,-86 301.8669,-86 301.8669,-122"/>
<text text-anchor="middle" x="257" y="-99.8" font-family="Times,serif" font-size="14.00" fill="#000000">FacetModule</text>
</g>
<!-- FacetModule&#45;&gt;DataListModule -->
<g id="edge2" class="edge">
<title>FacetModule&#45;&gt;DataListModule</title>
<path fill="none" stroke="#000000" d="M257,-122.1061C257,-122.1061 257,-140.991 257,-140.991"/>
<polygon fill="#000000" stroke="#000000" points="253.5001,-140.9909 257,-150.991 260.5001,-140.991 253.5001,-140.9909"/>
</g>
<!-- TypeAheadInputModule -->
<g id="node4" class="node">
<title>TypeAheadInputModule</title>
<polygon fill="#8dd3c7" stroke="#000000" points="194.4045,-122 191.4045,-126 170.4045,-126 167.4045,-122 39.5955,-122 39.5955,-86 194.4045,-86 194.4045,-122"/>
<text text-anchor="middle" x="117" y="-99.8" font-family="Times,serif" font-size="14.00" fill="#000000">TypeAheadInputModule</text>
</g>
<!-- TypeAheadInputModule&#45;&gt;DataListModule -->
<g id="edge3" class="edge">
<title>TypeAheadInputModule&#45;&gt;DataListModule</title>
<path fill="none" stroke="#000000" d="M194.2271,-104C202.2808,-104 207.5947,-104 207.5947,-104 207.5947,-104 207.5947,-140.8939 207.5947,-140.8939"/>
<polygon fill="#000000" stroke="#000000" points="204.0947,-140.8938 207.5947,-150.8939 211.0947,-140.8939 204.0947,-140.8938"/>
</g>
</g>
</svg>
