<?xml version="1.0" encoding="UTF-8" standalone="no"?>
<!DOCTYPE svg PUBLIC "-//W3C//DTD SVG 1.1//EN"
 "http://www.w3.org/Graphics/SVG/1.1/DTD/svg11.dtd">
<!-- Generated by graphviz version 2.40.1 (20161225.0304)
 -->
<!-- Title: dependencies Pages: 1 -->
<svg width="1218pt" height="284pt"
 viewBox="0.00 0.00 1218.00 284.00" xmlns="http://www.w3.org/2000/svg" xmlns:xlink="http://www.w3.org/1999/xlink">
<g id="graph0" class="graph" transform="scale(1 1) rotate(0) translate(4 280)">
<title>dependencies</title>
<polygon fill="#ffffff" stroke="transparent" points="-4,4 -4,-280 1214,-280 1214,4 -4,4"/>
<text text-anchor="start" x="584.0091" y="-42.4" font-family="sans-serif" font-weight="bold" font-size="14.00" fill="#000000">Legend</text>
<polygon fill="#ffffb3" stroke="transparent" points="371,-10 371,-30 391,-30 391,-10 371,-10"/>
<text text-anchor="start" x="394.629" y="-15.4" font-family="sans-serif" font-size="14.00" fill="#000000"> &#160;Declarations</text>
<polygon fill="#8dd3c7" stroke="transparent" points="484,-10 484,-30 504,-30 504,-10 484,-10"/>
<text text-anchor="start" x="507.7251" y="-15.4" font-family="sans-serif" font-size="14.00" fill="#000000"> &#160;Module</text>
<polygon fill="#80b1d3" stroke="transparent" points="570,-10 570,-30 590,-30 590,-10 570,-10"/>
<text text-anchor="start" x="593.7812" y="-15.4" font-family="sans-serif" font-size="14.00" fill="#000000"> &#160;Bootstrap</text>
<polygon fill="#fdb462" stroke="transparent" points="667,-10 667,-30 687,-30 687,-10 667,-10"/>
<text text-anchor="start" x="690.6732" y="-15.4" font-family="sans-serif" font-size="14.00" fill="#000000"> &#160;Providers</text>
<polygon fill="#fb8072" stroke="transparent" points="763,-10 763,-30 783,-30 783,-10 763,-10"/>
<text text-anchor="start" x="786.7258" y="-15.4" font-family="sans-serif" font-size="14.00" fill="#000000"> &#160;Exports</text>
<g id="clust1" class="cluster">
<title>cluster_GadgetSharedModule</title>
<polygon fill="none" stroke="#000000" stroke-dasharray="1,5" points="8,-70 8,-268 1202,-268 1202,-70 8,-70"/>
</g>
<g id="clust2" class="cluster">
<title>cluster_GadgetSharedModule_declarations</title>
<polygon fill="none" stroke="#000000" points="478,-78 478,-130 1194,-130 1194,-78 478,-78"/>
</g>
<g id="clust7" class="cluster">
<title>cluster_GadgetSharedModule_imports</title>
<polygon fill="none" stroke="#000000" points="16,-78 16,-130 470,-130 470,-78 16,-78"/>
</g>
<g id="clust8" class="cluster">
<title>cluster_GadgetSharedModule_exports</title>
<polygon fill="none" stroke="#000000" points="211,-208 211,-260 941,-260 941,-208 211,-208"/>
</g>
<!-- GadgetHeaderComponent -->
<g id="node1" class="node">
<title>GadgetHeaderComponent</title>
<polygon fill="#ffffb3" stroke="#000000" points="1186.1699,-122 1023.8301,-122 1023.8301,-86 1186.1699,-86 1186.1699,-122"/>
<text text-anchor="middle" x="1105" y="-99.8" font-family="Times,serif" font-size="14.00" fill="#000000">GadgetHeaderComponent</text>
</g>
<!-- GadgetSharedModule -->
<g id="node5" class="node">
<title>GadgetSharedModule</title>
<polygon fill="#8dd3c7" stroke="#000000" points="636.3487,-187 633.3487,-191 612.3487,-191 609.3487,-187 497.6513,-187 497.6513,-151 636.3487,-151 636.3487,-187"/>
<text text-anchor="middle" x="567" y="-164.8" font-family="Times,serif" font-size="14.00" fill="#000000">GadgetSharedModule</text>
</g>
<!-- GadgetHeaderComponent&#45;&gt;GadgetSharedModule -->
<g id="edge1" class="edge">
<title>GadgetHeaderComponent&#45;&gt;GadgetSharedModule</title>
<path fill="none" stroke="#000000" d="M1105,-122.1289C1105,-142.5724 1105,-173 1105,-173 1105,-173 646.5074,-173 646.5074,-173"/>
<polygon fill="#000000" stroke="#000000" points="646.5074,-169.5001 636.5074,-173 646.5074,-176.5001 646.5074,-169.5001"/>
</g>
<!-- GadgetOperationComponent -->
<g id="node2" class="node">
<title>GadgetOperationComponent</title>
<polygon fill="#ffffb3" stroke="#000000" points="1005.7366,-122 828.2634,-122 828.2634,-86 1005.7366,-86 1005.7366,-122"/>
<text text-anchor="middle" x="917" y="-99.8" font-family="Times,serif" font-size="14.00" fill="#000000">GadgetOperationComponent</text>
</g>
<!-- GadgetOperationComponent&#45;&gt;GadgetSharedModule -->
<g id="edge2" class="edge">
<title>GadgetOperationComponent&#45;&gt;GadgetSharedModule</title>
<path fill="none" stroke="#000000" d="M880.4834,-122.2667C880.4834,-140.5552 880.4834,-166 880.4834,-166 880.4834,-166 646.5721,-166 646.5721,-166"/>
<polygon fill="#000000" stroke="#000000" points="646.5722,-162.5001 636.5721,-166 646.5721,-169.5001 646.5722,-162.5001"/>
</g>
<!-- HelpModalComponent -->
<g id="node3" class="node">
<title>HelpModalComponent</title>
<polygon fill="#ffffb3" stroke="#000000" points="810.594,-122 665.406,-122 665.406,-86 810.594,-86 810.594,-122"/>
<text text-anchor="middle" x="738" y="-99.8" font-family="Times,serif" font-size="14.00" fill="#000000">HelpModalComponent</text>
</g>
<!-- HelpModalComponent&#45;&gt;GadgetSharedModule -->
<g id="edge3" class="edge">
<title>HelpModalComponent&#45;&gt;GadgetSharedModule</title>
<path fill="none" stroke="#000000" d="M707.5356,-122.0091C707.5356,-138.0494 707.5356,-159 707.5356,-159 707.5356,-159 646.4444,-159 646.4444,-159"/>
<polygon fill="#000000" stroke="#000000" points="646.4444,-155.5001 636.4444,-159 646.4443,-162.5001 646.4444,-155.5001"/>
</g>
<!-- VisDrillDownComponent -->
<g id="node4" class="node">
<title>VisDrillDownComponent</title>
<polygon fill="#ffffb3" stroke="#000000" points="647.927,-122 486.073,-122 486.073,-86 647.927,-86 647.927,-122"/>
<text text-anchor="middle" x="567" y="-99.8" font-family="Times,serif" font-size="14.00" fill="#000000">VisDrillDownComponent</text>
</g>
<!-- VisDrillDownComponent&#45;&gt;GadgetSharedModule -->
<g id="edge4" class="edge">
<title>VisDrillDownComponent&#45;&gt;GadgetSharedModule</title>
<path fill="none" stroke="#000000" d="M567,-122.1061C567,-122.1061 567,-140.991 567,-140.991"/>
<polygon fill="#000000" stroke="#000000" points="563.5001,-140.9909 567,-150.991 570.5001,-140.991 563.5001,-140.9909"/>
</g>
<!-- GadgetHeaderComponent  -->
<g id="node9" class="node">
<title>GadgetHeaderComponent </title>
<polygon fill="#fb8072" stroke="#000000" points="932.6701,-252 767.3299,-252 767.3299,-216 932.6701,-216 932.6701,-252"/>
<text text-anchor="middle" x="850" y="-229.8" font-family="Times,serif" font-size="14.00" fill="#000000">GadgetHeaderComponent </text>
</g>
<!-- GadgetSharedModule&#45;&gt;GadgetHeaderComponent  -->
<g id="edge8" class="edge">
<title>GadgetSharedModule&#45;&gt;GadgetHeaderComponent </title>
<path fill="none" stroke="#000000" stroke-dasharray="5,2" d="M636.5879,-180C701.651,-180 788.8561,-180 788.8561,-180 788.8561,-180 788.8561,-205.7181 788.8561,-205.7181"/>
<polygon fill="#000000" stroke="#000000" points="785.3561,-205.718 788.8561,-215.7181 792.3561,-205.7181 785.3561,-205.718"/>
</g>
<!-- GadgetOperationComponent  -->
<g id="node10" class="node">
<title>GadgetOperationComponent </title>
<polygon fill="#fb8072" stroke="#000000" points="749.7366,-252 568.2634,-252 568.2634,-216 749.7366,-216 749.7366,-252"/>
<text text-anchor="middle" x="659" y="-229.8" font-family="Times,serif" font-size="14.00" fill="#000000">GadgetOperationComponent </text>
</g>
<!-- GadgetSharedModule&#45;&gt;GadgetOperationComponent  -->
<g id="edge9" class="edge">
<title>GadgetSharedModule&#45;&gt;GadgetOperationComponent </title>
<path fill="none" stroke="#000000" stroke-dasharray="5,2" d="M602.4031,-187.1061C602.4031,-187.1061 602.4031,-205.991 602.4031,-205.991"/>
<polygon fill="#000000" stroke="#000000" points="598.9031,-205.9909 602.4031,-215.991 605.9031,-205.991 598.9031,-205.9909"/>
</g>
<!-- HelpModalComponent  -->
<g id="node11" class="node">
<title>HelpModalComponent </title>
<polygon fill="#fb8072" stroke="#000000" points="550.0946,-252 401.9054,-252 401.9054,-216 550.0946,-216 550.0946,-252"/>
<text text-anchor="middle" x="476" y="-229.8" font-family="Times,serif" font-size="14.00" fill="#000000">HelpModalComponent </text>
</g>
<!-- GadgetSharedModule&#45;&gt;HelpModalComponent  -->
<g id="edge10" class="edge">
<title>GadgetSharedModule&#45;&gt;HelpModalComponent </title>
<path fill="none" stroke="#000000" stroke-dasharray="5,2" d="M523.9363,-187.1061C523.9363,-187.1061 523.9363,-205.991 523.9363,-205.991"/>
<polygon fill="#000000" stroke="#000000" points="520.4364,-205.9909 523.9363,-215.991 527.4364,-205.991 520.4364,-205.9909"/>
</g>
<!-- VisDrillDownComponent  -->
<g id="node12" class="node">
<title>VisDrillDownComponent </title>
<polygon fill="#fb8072" stroke="#000000" points="383.4264,-252 218.5736,-252 218.5736,-216 383.4264,-216 383.4264,-252"/>
<text text-anchor="middle" x="301" y="-229.8" font-family="Times,serif" font-size="14.00" fill="#000000">VisDrillDownComponent </text>
</g>
<!-- GadgetSharedModule&#45;&gt;VisDrillDownComponent  -->
<g id="edge11" class="edge">
<title>GadgetSharedModule&#45;&gt;VisDrillDownComponent </title>
<path fill="none" stroke="#000000" stroke-dasharray="5,2" d="M497.5467,-180C439.7284,-180 366.8147,-180 366.8147,-180 366.8147,-180 366.8147,-205.7181 366.8147,-205.7181"/>
<polygon fill="#000000" stroke="#000000" points="363.3148,-205.718 366.8147,-215.7181 370.3148,-205.7181 363.3148,-205.718"/>
</g>
<!-- CommonModule -->
<g id="node6" class="node">
<title>CommonModule</title>
<polygon fill="#8dd3c7" stroke="#000000" points="461.6681,-122 458.6681,-126 437.6681,-126 434.6681,-122 350.3319,-122 350.3319,-86 461.6681,-86 461.6681,-122"/>
<text text-anchor="middle" x="406" y="-99.8" font-family="Times,serif" font-size="14.00" fill="#000000">CommonModule</text>
</g>
<!-- CommonModule&#45;&gt;GadgetSharedModule -->
<g id="edge5" class="edge">
<title>CommonModule&#45;&gt;GadgetSharedModule</title>
<path fill="none" stroke="#000000" d="M431.7684,-122.0091C431.7684,-138.0494 431.7684,-159 431.7684,-159 431.7684,-159 487.4035,-159 487.4035,-159"/>
<polygon fill="#000000" stroke="#000000" points="487.4036,-162.5001 497.4035,-159 487.4035,-155.5001 487.4036,-162.5001"/>
</g>
<!-- DndModule.forRoot() -->
<g id="node7" class="node">
<title>DndModule.forRoot()</title>
<polygon fill="#8dd3c7" stroke="#000000" points="332.026,-122 329.026,-126 308.026,-126 305.026,-122 191.974,-122 191.974,-86 332.026,-86 332.026,-122"/>
<text text-anchor="middle" x="262" y="-99.8" font-family="Times,serif" font-size="14.00" fill="#000000">DndModule.forRoot()</text>
</g>
<!-- DndModule.forRoot()&#45;&gt;GadgetSharedModule -->
<g id="edge6" class="edge">
<title>DndModule.forRoot()&#45;&gt;GadgetSharedModule</title>
<path fill="none" stroke="#000000" d="M275.2749,-122.2667C275.2749,-140.5552 275.2749,-166 275.2749,-166 275.2749,-166 487.4952,-166 487.4952,-166"/>
<polygon fill="#000000" stroke="#000000" points="487.4952,-169.5001 497.4952,-166 487.4952,-162.5001 487.4952,-169.5001"/>
</g>
<!-- MatProgressBarModule -->
<g id="node8" class="node">
<title>MatProgressBarModule</title>
<polygon fill="#8dd3c7" stroke="#000000" points="174.0198,-122 171.0198,-126 150.0198,-126 147.0198,-122 23.9802,-122 23.9802,-86 174.0198,-86 174.0198,-122"/>
<text text-anchor="middle" x="99" y="-99.8" font-family="Times,serif" font-size="14.00" fill="#000000">MatProgressBarModule</text>
</g>
<!-- MatProgressBarModule&#45;&gt;GadgetSharedModule -->
<g id="edge7" class="edge">
<title>MatProgressBarModule&#45;&gt;GadgetSharedModule</title>
<path fill="none" stroke="#000000" d="M99,-122.1289C99,-142.5724 99,-173 99,-173 99,-173 487.441,-173 487.441,-173"/>
<polygon fill="#000000" stroke="#000000" points="487.4411,-176.5001 497.441,-173 487.441,-169.5001 487.4411,-176.5001"/>
</g>
</g>
</svg>
