<?xml version="1.0" encoding="UTF-8" standalone="no"?>
<!DOCTYPE svg PUBLIC "-//W3C//DTD SVG 1.1//EN"
 "http://www.w3.org/Graphics/SVG/1.1/DTD/svg11.dtd">
<!-- Generated by graphviz version 2.40.1 (20161225.0304)
 -->
<!-- Title: dependencies Pages: 1 -->
<svg width="770pt" height="284pt"
 viewBox="0.00 0.00 770.00 284.00" xmlns="http://www.w3.org/2000/svg" xmlns:xlink="http://www.w3.org/1999/xlink">
<g id="graph0" class="graph" transform="scale(1 1) rotate(0) translate(4 280)">
<title>dependencies</title>
<polygon fill="#ffffff" stroke="transparent" points="-4,4 -4,-280 766,-280 766,4 -4,4"/>
<text text-anchor="start" x="360.0091" y="-42.4" font-family="sans-serif" font-weight="bold" font-size="14.00" fill="#000000">Legend</text>
<polygon fill="#ffffb3" stroke="transparent" points="147,-10 147,-30 167,-30 167,-10 147,-10"/>
<text text-anchor="start" x="170.629" y="-15.4" font-family="sans-serif" font-size="14.00" fill="#000000"> &#160;Declarations</text>
<polygon fill="#8dd3c7" stroke="transparent" points="260,-10 260,-30 280,-30 280,-10 260,-10"/>
<text text-anchor="start" x="283.7251" y="-15.4" font-family="sans-serif" font-size="14.00" fill="#000000"> &#160;Module</text>
<polygon fill="#80b1d3" stroke="transparent" points="346,-10 346,-30 366,-30 366,-10 346,-10"/>
<text text-anchor="start" x="369.7812" y="-15.4" font-family="sans-serif" font-size="14.00" fill="#000000"> &#160;Bootstrap</text>
<polygon fill="#fdb462" stroke="transparent" points="443,-10 443,-30 463,-30 463,-10 443,-10"/>
<text text-anchor="start" x="466.6732" y="-15.4" font-family="sans-serif" font-size="14.00" fill="#000000"> &#160;Providers</text>
<polygon fill="#fb8072" stroke="transparent" points="539,-10 539,-30 559,-30 559,-10 539,-10"/>
<text text-anchor="start" x="562.7258" y="-15.4" font-family="sans-serif" font-size="14.00" fill="#000000"> &#160;Exports</text>
<g id="clust1" class="cluster">
<title>cluster_GadgetSharedModule</title>
<polygon fill="none" stroke="#000000" stroke-dasharray="1,5" points="8,-70 8,-268 754,-268 754,-70 8,-70"/>
</g>
<g id="clust2" class="cluster">
<title>cluster_GadgetSharedModule_declarations</title>
<polygon fill="none" stroke="#000000" points="24,-78 24,-130 740,-130 740,-78 24,-78"/>
</g>
<g id="clust8" class="cluster">
<title>cluster_GadgetSharedModule_exports</title>
<polygon fill="none" stroke="#000000" points="16,-208 16,-260 746,-260 746,-208 16,-208"/>
</g>
<!-- GadgetHeaderComponent -->
<g id="node1" class="node">
<title>GadgetHeaderComponent</title>
<polygon fill="#ffffb3" stroke="#000000" points="732.1699,-122 569.8301,-122 569.8301,-86 732.1699,-86 732.1699,-122"/>
<text text-anchor="middle" x="651" y="-99.8" font-family="Times,serif" font-size="14.00" fill="#000000">GadgetHeaderComponent</text>
</g>
<!-- GadgetSharedModule -->
<g id="node5" class="node">
<title>GadgetSharedModule</title>
<polygon fill="#8dd3c7" stroke="#000000" points="355.3487,-187 352.3487,-191 331.3487,-191 328.3487,-187 216.6513,-187 216.6513,-151 355.3487,-151 355.3487,-187"/>
<text text-anchor="middle" x="286" y="-164.8" font-family="Times,serif" font-size="14.00" fill="#000000">GadgetSharedModule</text>
</g>
<!-- GadgetHeaderComponent&#45;&gt;GadgetSharedModule -->
<g id="edge1" class="edge">
<title>GadgetHeaderComponent&#45;&gt;GadgetSharedModule</title>
<path fill="none" stroke="#000000" d="M678.7783,-122.2667C678.7783,-140.5552 678.7783,-166 678.7783,-166 678.7783,-166 365.7683,-166 365.7683,-166"/>
<polygon fill="#000000" stroke="#000000" points="365.7683,-162.5001 355.7683,-166 365.7683,-169.5001 365.7683,-162.5001"/>
</g>
<!-- GadgetOperationComponent -->
<g id="node2" class="node">
<title>GadgetOperationComponent</title>
<polygon fill="#ffffb3" stroke="#000000" points="551.7366,-122 374.2634,-122 374.2634,-86 551.7366,-86 551.7366,-122"/>
<text text-anchor="middle" x="463" y="-99.8" font-family="Times,serif" font-size="14.00" fill="#000000">GadgetOperationComponent</text>
</g>
<!-- GadgetOperationComponent&#45;&gt;GadgetSharedModule -->
<g id="edge2" class="edge">
<title>GadgetOperationComponent&#45;&gt;GadgetSharedModule</title>
<path fill="none" stroke="#000000" d="M492.6227,-122.0091C492.6227,-138.0494 492.6227,-159 492.6227,-159 492.6227,-159 365.3772,-159 365.3772,-159"/>
<polygon fill="#000000" stroke="#000000" points="365.3772,-155.5001 355.3772,-159 365.3771,-162.5001 365.3772,-155.5001"/>
</g>
<!-- HelpModalComponent -->
<g id="node3" class="node">
<title>HelpModalComponent</title>
<polygon fill="#ffffb3" stroke="#000000" points="356.594,-122 211.406,-122 211.406,-86 356.594,-86 356.594,-122"/>
<text text-anchor="middle" x="284" y="-99.8" font-family="Times,serif" font-size="14.00" fill="#000000">HelpModalComponent</text>
</g>
<!-- HelpModalComponent&#45;&gt;GadgetSharedModule -->
<g id="edge3" class="edge">
<title>HelpModalComponent&#45;&gt;GadgetSharedModule</title>
<path fill="none" stroke="#000000" d="M286,-122.1061C286,-122.1061 286,-140.991 286,-140.991"/>
<polygon fill="#000000" stroke="#000000" points="282.5001,-140.9909 286,-150.991 289.5001,-140.991 282.5001,-140.9909"/>
</g>
<!-- VisDrillDownComponent -->
<g id="node4" class="node">
<title>VisDrillDownComponent</title>
<polygon fill="#ffffb3" stroke="#000000" points="193.927,-122 32.073,-122 32.073,-86 193.927,-86 193.927,-122"/>
<text text-anchor="middle" x="113" y="-99.8" font-family="Times,serif" font-size="14.00" fill="#000000">VisDrillDownComponent</text>
</g>
<!-- VisDrillDownComponent&#45;&gt;GadgetSharedModule -->
<g id="edge4" class="edge">
<title>VisDrillDownComponent&#45;&gt;GadgetSharedModule</title>
<path fill="none" stroke="#000000" d="M136.4044,-122.0225C136.4044,-139.3734 136.4044,-163 136.4044,-163 136.4044,-163 206.4576,-163 206.4576,-163"/>
<polygon fill="#000000" stroke="#000000" points="206.4576,-166.5001 216.4576,-163 206.4575,-159.5001 206.4576,-166.5001"/>
</g>
<!-- GadgetHeaderComponent  -->
<g id="node6" class="node">
<title>GadgetHeaderComponent </title>
<polygon fill="#fb8072" stroke="#000000" points="737.6701,-252 572.3299,-252 572.3299,-216 737.6701,-216 737.6701,-252"/>
<text text-anchor="middle" x="655" y="-229.8" font-family="Times,serif" font-size="14.00" fill="#000000">GadgetHeaderComponent </text>
</g>
<!-- GadgetSharedModule&#45;&gt;GadgetHeaderComponent  -->
<g id="edge5" class="edge">
<title>GadgetSharedModule&#45;&gt;GadgetHeaderComponent </title>
<path fill="none" stroke="#000000" stroke-dasharray="5,2" d="M355.5163,-173C454.8332,-173 625.4717,-173 625.4717,-173 625.4717,-173 625.4717,-205.698 625.4717,-205.698"/>
<polygon fill="#000000" stroke="#000000" points="621.9718,-205.698 625.4717,-215.698 628.9718,-205.698 621.9718,-205.698"/>
</g>
<!-- GadgetOperationComponent  -->
<g id="node7" class="node">
<title>GadgetOperationComponent </title>
<polygon fill="#fb8072" stroke="#000000" points="554.7366,-252 373.2634,-252 373.2634,-216 554.7366,-216 554.7366,-252"/>
<text text-anchor="middle" x="464" y="-229.8" font-family="Times,serif" font-size="14.00" fill="#000000">GadgetOperationComponent </text>
</g>
<!-- GadgetSharedModule&#45;&gt;GadgetOperationComponent  -->
<g id="edge6" class="edge">
<title>GadgetSharedModule&#45;&gt;GadgetOperationComponent </title>
<path fill="none" stroke="#000000" stroke-dasharray="5,2" d="M355.3731,-180C393.5983,-180 433.3773,-180 433.3773,-180 433.3773,-180 433.3773,-205.7181 433.3773,-205.7181"/>
<polygon fill="#000000" stroke="#000000" points="429.8774,-205.718 433.3773,-215.7181 436.8774,-205.7181 429.8774,-205.718"/>
</g>
<!-- HelpModalComponent  -->
<g id="node8" class="node">
<title>HelpModalComponent </title>
<polygon fill="#fb8072" stroke="#000000" points="355.0946,-252 206.9054,-252 206.9054,-216 355.0946,-216 355.0946,-252"/>
<text text-anchor="middle" x="281" y="-229.8" font-family="Times,serif" font-size="14.00" fill="#000000">HelpModalComponent </text>
</g>
<!-- GadgetSharedModule&#45;&gt;HelpModalComponent  -->
<g id="edge7" class="edge">
<title>GadgetSharedModule&#45;&gt;HelpModalComponent </title>
<path fill="none" stroke="#000000" stroke-dasharray="5,2" d="M285.9363,-187.1061C285.9363,-187.1061 285.9363,-205.991 285.9363,-205.991"/>
<polygon fill="#000000" stroke="#000000" points="282.4364,-205.9909 285.9363,-215.991 289.4364,-205.991 282.4364,-205.9909"/>
</g>
<!-- VisDrillDownComponent  -->
<g id="node9" class="node">
<title>VisDrillDownComponent </title>
<polygon fill="#fb8072" stroke="#000000" points="188.4264,-252 23.5736,-252 23.5736,-216 188.4264,-216 188.4264,-252"/>
<text text-anchor="middle" x="106" y="-229.8" font-family="Times,serif" font-size="14.00" fill="#000000">VisDrillDownComponent </text>
</g>
<!-- GadgetSharedModule&#45;&gt;VisDrillDownComponent  -->
<g id="edge8" class="edge">
<title>GadgetSharedModule&#45;&gt;VisDrillDownComponent </title>
<path fill="none" stroke="#000000" stroke-dasharray="5,2" d="M216.602,-175C158.2706,-175 84.3456,-175 84.3456,-175 84.3456,-175 84.3456,-205.9775 84.3456,-205.9775"/>
<polygon fill="#000000" stroke="#000000" points="80.8457,-205.9774 84.3456,-215.9775 87.8457,-205.9775 80.8457,-205.9774"/>
</g>
</g>
</svg>
