<?xml version="1.0" encoding="UTF-8" standalone="no"?>
<!DOCTYPE svg PUBLIC "-//W3C//DTD SVG 1.1//EN"
 "http://www.w3.org/Graphics/SVG/1.1/DTD/svg11.dtd">
<!-- Generated by graphviz version 2.40.1 (20161225.0304)
 -->
<!-- Title: dependencies Pages: 1 -->
<svg width="504pt" height="284pt"
 viewBox="0.00 0.00 504.00 284.00" xmlns="http://www.w3.org/2000/svg" xmlns:xlink="http://www.w3.org/1999/xlink">
<g id="graph0" class="graph" transform="scale(1 1) rotate(0) translate(4 280)">
<title>dependencies</title>
<polygon fill="#ffffff" stroke="transparent" points="-4,4 -4,-280 500,-280 500,4 -4,4"/>
<text text-anchor="start" x="227.0091" y="-42.4" font-family="sans-serif" font-weight="bold" font-size="14.00" fill="#000000">Legend</text>
<polygon fill="#ffffb3" stroke="transparent" points="14,-10 14,-30 34,-30 34,-10 14,-10"/>
<text text-anchor="start" x="37.629" y="-15.4" font-family="sans-serif" font-size="14.00" fill="#000000"> &#160;Declarations</text>
<polygon fill="#8dd3c7" stroke="transparent" points="127,-10 127,-30 147,-30 147,-10 127,-10"/>
<text text-anchor="start" x="150.7251" y="-15.4" font-family="sans-serif" font-size="14.00" fill="#000000"> &#160;Module</text>
<polygon fill="#80b1d3" stroke="transparent" points="213,-10 213,-30 233,-30 233,-10 213,-10"/>
<text text-anchor="start" x="236.7812" y="-15.4" font-family="sans-serif" font-size="14.00" fill="#000000"> &#160;Bootstrap</text>
<polygon fill="#fdb462" stroke="transparent" points="310,-10 310,-30 330,-30 330,-10 310,-10"/>
<text text-anchor="start" x="333.6732" y="-15.4" font-family="sans-serif" font-size="14.00" fill="#000000"> &#160;Providers</text>
<polygon fill="#fb8072" stroke="transparent" points="406,-10 406,-30 426,-30 426,-10 406,-10"/>
<text text-anchor="start" x="429.7258" y="-15.4" font-family="sans-serif" font-size="14.00" fill="#000000"> &#160;Exports</text>
<g id="clust1" class="cluster">
<title>cluster_ErrorHandlerModule</title>
<polygon fill="none" stroke="#000000" stroke-dasharray="1,5" points="86,-70 86,-268 410,-268 410,-70 86,-70"/>
</g>
<g id="clust2" class="cluster">
<title>cluster_ErrorHandlerModule_declarations</title>
<polygon fill="none" stroke="#000000" points="230,-78 230,-130 402,-130 402,-78 230,-78"/>
</g>
<g id="clust4" class="cluster">
<title>cluster_ErrorHandlerModule_imports</title>
<polygon fill="none" stroke="#000000" points="94,-78 94,-130 222,-130 222,-78 94,-78"/>
</g>
<g id="clust5" class="cluster">
<title>cluster_ErrorHandlerModule_exports</title>
<polygon fill="none" stroke="#000000" points="160,-208 160,-260 336,-260 336,-208 160,-208"/>
</g>
<!-- ErrorHandlerComponent -->
<g id="node1" class="node">
<title>ErrorHandlerComponent</title>
<polygon fill="#ffffb3" stroke="#000000" points="393.9538,-122 238.0462,-122 238.0462,-86 393.9538,-86 393.9538,-122"/>
<text text-anchor="middle" x="316" y="-99.8" font-family="Times,serif" font-size="14.00" fill="#000000">ErrorHandlerComponent</text>
</g>
<!-- ErrorHandlerModule -->
<g id="node2" class="node">
<title>ErrorHandlerModule</title>
<polygon fill="#8dd3c7" stroke="#000000" points="315.1713,-187 312.1713,-191 291.1713,-191 288.1713,-187 180.8287,-187 180.8287,-151 315.1713,-151 315.1713,-187"/>
<text text-anchor="middle" x="248" y="-164.8" font-family="Times,serif" font-size="14.00" fill="#000000">ErrorHandlerModule</text>
</g>
<!-- ErrorHandlerComponent&#45;&gt;ErrorHandlerModule -->
<g id="edge1" class="edge">
<title>ErrorHandlerComponent&#45;&gt;ErrorHandlerModule</title>
<path fill="none" stroke="#000000" d="M276.5544,-122.1061C276.5544,-122.1061 276.5544,-140.991 276.5544,-140.991"/>
<polygon fill="#000000" stroke="#000000" points="273.0544,-140.9909 276.5544,-150.991 280.0544,-140.991 273.0544,-140.9909"/>
</g>
<!-- ErrorHandlerComponent  -->
<g id="node4" class="node">
<title>ErrorHandlerComponent </title>
<polygon fill="#fb8072" stroke="#000000" points="327.9544,-252 168.0456,-252 168.0456,-216 327.9544,-216 327.9544,-252"/>
<text text-anchor="middle" x="248" y="-229.8" font-family="Times,serif" font-size="14.00" fill="#000000">ErrorHandlerComponent </text>
</g>
<!-- ErrorHandlerModule&#45;&gt;ErrorHandlerComponent  -->
<g id="edge3" class="edge">
<title>ErrorHandlerModule&#45;&gt;ErrorHandlerComponent </title>
<path fill="none" stroke="#000000" stroke-dasharray="5,2" d="M248,-187.1061C248,-187.1061 248,-205.991 248,-205.991"/>
<polygon fill="#000000" stroke="#000000" points="244.5001,-205.9909 248,-215.991 251.5001,-205.991 244.5001,-205.9909"/>
</g>
<!-- CommonModule -->
<g id="node3" class="node">
<title>CommonModule</title>
<polygon fill="#8dd3c7" stroke="#000000" points="213.6681,-122 210.6681,-126 189.6681,-126 186.6681,-122 102.3319,-122 102.3319,-86 213.6681,-86 213.6681,-122"/>
<text text-anchor="middle" x="158" y="-99.8" font-family="Times,serif" font-size="14.00" fill="#000000">CommonModule</text>
</g>
<!-- CommonModule&#45;&gt;ErrorHandlerModule -->
<g id="edge2" class="edge">
<title>CommonModule&#45;&gt;ErrorHandlerModule</title>
<path fill="none" stroke="#000000" d="M197.3741,-122.1061C197.3741,-122.1061 197.3741,-140.991 197.3741,-140.991"/>
<polygon fill="#000000" stroke="#000000" points="193.8742,-140.9909 197.3741,-150.991 200.8742,-140.991 193.8742,-140.9909"/>
</g>
</g>
</svg>
