<?xml version="1.0" encoding="UTF-8" standalone="no"?>
<!DOCTYPE svg PUBLIC "-//W3C//DTD SVG 1.1//EN"
 "http://www.w3.org/Graphics/SVG/1.1/DTD/svg11.dtd">
<!-- Generated by graphviz version 2.40.1 (20161225.0304)
 -->
<!-- Title: dependencies Pages: 1 -->
<svg width="1211pt" height="284pt"
 viewBox="0.00 0.00 1211.00 284.00" xmlns="http://www.w3.org/2000/svg" xmlns:xlink="http://www.w3.org/1999/xlink">
<g id="graph0" class="graph" transform="scale(1 1) rotate(0) translate(4 280)">
<title>dependencies</title>
<polygon fill="#ffffff" stroke="transparent" points="-4,4 -4,-280 1207,-280 1207,4 -4,4"/>
<text text-anchor="start" x="580.5091" y="-42.4" font-family="sans-serif" font-weight="bold" font-size="14.00" fill="#000000">Legend</text>
<polygon fill="#ffffb3" stroke="transparent" points="367.5,-10 367.5,-30 387.5,-30 387.5,-10 367.5,-10"/>
<text text-anchor="start" x="391.129" y="-15.4" font-family="sans-serif" font-size="14.00" fill="#000000"> &#160;Declarations</text>
<polygon fill="#8dd3c7" stroke="transparent" points="480.5,-10 480.5,-30 500.5,-30 500.5,-10 480.5,-10"/>
<text text-anchor="start" x="504.2251" y="-15.4" font-family="sans-serif" font-size="14.00" fill="#000000"> &#160;Module</text>
<polygon fill="#80b1d3" stroke="transparent" points="566.5,-10 566.5,-30 586.5,-30 586.5,-10 566.5,-10"/>
<text text-anchor="start" x="590.2812" y="-15.4" font-family="sans-serif" font-size="14.00" fill="#000000"> &#160;Bootstrap</text>
<polygon fill="#fdb462" stroke="transparent" points="663.5,-10 663.5,-30 683.5,-30 683.5,-10 663.5,-10"/>
<text text-anchor="start" x="687.1732" y="-15.4" font-family="sans-serif" font-size="14.00" fill="#000000"> &#160;Providers</text>
<polygon fill="#fb8072" stroke="transparent" points="759.5,-10 759.5,-30 779.5,-30 779.5,-10 759.5,-10"/>
<text text-anchor="start" x="783.2258" y="-15.4" font-family="sans-serif" font-size="14.00" fill="#000000"> &#160;Exports</text>
<g id="clust1" class="cluster">
<title>cluster_FacetModule</title>
<polygon fill="none" stroke="#000000" stroke-dasharray="1,5" points="8,-70 8,-268 1195,-268 1195,-70 8,-70"/>
</g>
<g id="clust2" class="cluster">
<title>cluster_FacetModule_declarations</title>
<polygon fill="none" stroke="#000000" points="615,-78 615,-130 1187,-130 1187,-78 615,-78"/>
</g>
<g id="clust7" class="cluster">
<title>cluster_FacetModule_imports</title>
<polygon fill="none" stroke="#000000" points="210,-78 210,-130 607,-130 607,-78 210,-78"/>
</g>
<g id="clust8" class="cluster">
<title>cluster_FacetModule_exports</title>
<polygon fill="none" stroke="#000000" points="316,-208 316,-260 902,-260 902,-208 316,-208"/>
</g>
<g id="clust10" class="cluster">
<title>cluster_FacetModule_providers</title>
<polygon fill="none" stroke="#000000" points="16,-78 16,-130 202,-130 202,-78 16,-78"/>
</g>
<!-- FacetComponent -->
<g id="node1" class="node">
<title>FacetComponent</title>
<polygon fill="#ffffb3" stroke="#000000" points="1178.6499,-122 1067.3501,-122 1067.3501,-86 1178.6499,-86 1178.6499,-122"/>
<text text-anchor="middle" x="1123" y="-99.8" font-family="Times,serif" font-size="14.00" fill="#000000">FacetComponent</text>
</g>
<!-- FacetModule -->
<g id="node5" class="node">
<title>FacetModule</title>
<polygon fill="#8dd3c7" stroke="#000000" points="658.8669,-187 655.8669,-191 634.8669,-191 631.8669,-187 569.1331,-187 569.1331,-151 658.8669,-151 658.8669,-187"/>
<text text-anchor="middle" x="614" y="-164.8" font-family="Times,serif" font-size="14.00" fill="#000000">FacetModule</text>
</g>
<!-- FacetComponent&#45;&gt;FacetModule -->
<g id="edge1" class="edge">
<title>FacetComponent&#45;&gt;FacetModule</title>
<path fill="none" stroke="#000000" d="M1123,-122.1289C1123,-142.5724 1123,-173 1123,-173 1123,-173 669.1704,-173 669.1704,-173"/>
<polygon fill="#000000" stroke="#000000" points="669.1704,-169.5001 659.1704,-173 669.1703,-176.5001 669.1704,-169.5001"/>
</g>
<!-- FilterListComponent -->
<g id="node2" class="node">
<title>FilterListComponent</title>
<polygon fill="#ffffb3" stroke="#000000" points="1048.9411,-122 915.0589,-122 915.0589,-86 1048.9411,-86 1048.9411,-122"/>
<text text-anchor="middle" x="982" y="-99.8" font-family="Times,serif" font-size="14.00" fill="#000000">FilterListComponent</text>
</g>
<!-- FilterListComponent&#45;&gt;FacetModule -->
<g id="edge2" class="edge">
<title>FilterListComponent&#45;&gt;FacetModule</title>
<path fill="none" stroke="#000000" d="M982,-122.2667C982,-140.5552 982,-166 982,-166 982,-166 669.124,-166 669.124,-166"/>
<polygon fill="#000000" stroke="#000000" points="669.1241,-162.5001 659.124,-166 669.124,-169.5001 669.1241,-162.5001"/>
</g>
<!-- FilterTagComponent -->
<g id="node3" class="node">
<title>FilterTagComponent</title>
<polygon fill="#ffffb3" stroke="#000000" points="897.9299,-122 764.0701,-122 764.0701,-86 897.9299,-86 897.9299,-122"/>
<text text-anchor="middle" x="831" y="-99.8" font-family="Times,serif" font-size="14.00" fill="#000000">FilterTagComponent</text>
</g>
<!-- FilterTagComponent&#45;&gt;FacetModule -->
<g id="edge3" class="edge">
<title>FilterTagComponent&#45;&gt;FacetModule</title>
<path fill="none" stroke="#000000" d="M771.3554,-122.0091C771.3554,-138.0494 771.3554,-159 771.3554,-159 771.3554,-159 669.0917,-159 669.0917,-159"/>
<polygon fill="#000000" stroke="#000000" points="669.0918,-155.5001 659.0917,-159 669.0917,-162.5001 669.0918,-155.5001"/>
</g>
<!-- CapitalizeFirstPipe -->
<g id="node4" class="node">
<title>CapitalizeFirstPipe</title>
<polygon fill="#ffffb3" stroke="#000000" points="746.8146,-122 623.1854,-122 623.1854,-86 746.8146,-86 746.8146,-122"/>
<text text-anchor="middle" x="685" y="-99.8" font-family="Times,serif" font-size="14.00" fill="#000000">CapitalizeFirstPipe</text>
</g>
<!-- CapitalizeFirstPipe&#45;&gt;FacetModule -->
<g id="edge4" class="edge">
<title>CapitalizeFirstPipe&#45;&gt;FacetModule</title>
<path fill="none" stroke="#000000" d="M641.1382,-122.1061C641.1382,-122.1061 641.1382,-140.991 641.1382,-140.991"/>
<polygon fill="#000000" stroke="#000000" points="637.6382,-140.9909 641.1382,-150.991 644.6382,-140.991 637.6382,-140.9909"/>
</g>
<!-- FacetComponent  -->
<g id="node9" class="node">
<title>FacetComponent </title>
<polygon fill="#fb8072" stroke="#000000" points="893.6495,-252 778.3505,-252 778.3505,-216 893.6495,-216 893.6495,-252"/>
<text text-anchor="middle" x="836" y="-229.8" font-family="Times,serif" font-size="14.00" fill="#000000">FacetComponent </text>
</g>
<!-- FacetModule&#45;&gt;FacetComponent  -->
<g id="edge8" class="edge">
<title>FacetModule&#45;&gt;FacetComponent </title>
<path fill="none" stroke="#000000" stroke-dasharray="5,2" d="M658.925,-180C723.7941,-180 836,-180 836,-180 836,-180 836,-205.7181 836,-205.7181"/>
<polygon fill="#000000" stroke="#000000" points="832.5001,-205.718 836,-215.7181 839.5001,-205.7181 832.5001,-205.718"/>
</g>
<!-- FilterListComponent  -->
<g id="node10" class="node">
<title>FilterListComponent </title>
<polygon fill="#fb8072" stroke="#000000" points="760.4404,-252 623.5596,-252 623.5596,-216 760.4404,-216 760.4404,-252"/>
<text text-anchor="middle" x="692" y="-229.8" font-family="Times,serif" font-size="14.00" fill="#000000">FilterListComponent </text>
</g>
<!-- FacetModule&#45;&gt;FilterListComponent  -->
<g id="edge9" class="edge">
<title>FacetModule&#45;&gt;FilterListComponent </title>
<path fill="none" stroke="#000000" stroke-dasharray="5,2" d="M641.2316,-187.1061C641.2316,-187.1061 641.2316,-205.991 641.2316,-205.991"/>
<polygon fill="#000000" stroke="#000000" points="637.7317,-205.9909 641.2316,-215.991 644.7317,-205.991 637.7317,-205.9909"/>
</g>
<!-- FilterTagComponent  -->
<g id="node11" class="node">
<title>FilterTagComponent </title>
<polygon fill="#fb8072" stroke="#000000" points="605.4292,-252 468.5708,-252 468.5708,-216 605.4292,-216 605.4292,-252"/>
<text text-anchor="middle" x="537" y="-229.8" font-family="Times,serif" font-size="14.00" fill="#000000">FilterTagComponent </text>
</g>
<!-- FacetModule&#45;&gt;FilterTagComponent  -->
<g id="edge10" class="edge">
<title>FacetModule&#45;&gt;FilterTagComponent </title>
<path fill="none" stroke="#000000" stroke-dasharray="5,2" d="M587.2656,-187.1061C587.2656,-187.1061 587.2656,-205.991 587.2656,-205.991"/>
<polygon fill="#000000" stroke="#000000" points="583.7657,-205.9909 587.2656,-215.991 590.7657,-205.991 583.7657,-205.9909"/>
</g>
<!-- CapitalizeFirstPipe  -->
<g id="node12" class="node">
<title>CapitalizeFirstPipe </title>
<polygon fill="#fb8072" stroke="#000000" points="450.3143,-252 323.6857,-252 323.6857,-216 450.3143,-216 450.3143,-252"/>
<text text-anchor="middle" x="387" y="-229.8" font-family="Times,serif" font-size="14.00" fill="#000000">CapitalizeFirstPipe </text>
</g>
<!-- FacetModule&#45;&gt;CapitalizeFirstPipe  -->
<g id="edge11" class="edge">
<title>FacetModule&#45;&gt;CapitalizeFirstPipe </title>
<path fill="none" stroke="#000000" stroke-dasharray="5,2" d="M569.0016,-180C509.5771,-180 412.3715,-180 412.3715,-180 412.3715,-180 412.3715,-205.7181 412.3715,-205.7181"/>
<polygon fill="#000000" stroke="#000000" points="408.8716,-205.718 412.3715,-215.7181 415.8716,-205.7181 408.8716,-205.718"/>
</g>
<!-- CommonModule -->
<g id="node6" class="node">
<title>CommonModule</title>
<polygon fill="#8dd3c7" stroke="#000000" points="598.6681,-122 595.6681,-126 574.6681,-126 571.6681,-122 487.3319,-122 487.3319,-86 598.6681,-86 598.6681,-122"/>
<text text-anchor="middle" x="543" y="-99.8" font-family="Times,serif" font-size="14.00" fill="#000000">CommonModule</text>
</g>
<!-- CommonModule&#45;&gt;FacetModule -->
<g id="edge5" class="edge">
<title>CommonModule&#45;&gt;FacetModule</title>
<path fill="none" stroke="#000000" d="M583.9502,-122.1061C583.9502,-122.1061 583.9502,-140.991 583.9502,-140.991"/>
<polygon fill="#000000" stroke="#000000" points="580.4503,-140.9909 583.9502,-150.991 587.4503,-140.991 580.4503,-140.9909"/>
</g>
<!-- FormsModule -->
<g id="node7" class="node">
<title>FormsModule</title>
<polygon fill="#8dd3c7" stroke="#000000" points="469.8288,-122 466.8288,-126 445.8288,-126 442.8288,-122 374.1712,-122 374.1712,-86 469.8288,-86 469.8288,-122"/>
<text text-anchor="middle" x="422" y="-99.8" font-family="Times,serif" font-size="14.00" fill="#000000">FormsModule</text>
</g>
<!-- FormsModule&#45;&gt;FacetModule -->
<g id="edge6" class="edge">
<title>FormsModule&#45;&gt;FacetModule</title>
<path fill="none" stroke="#000000" d="M459.4713,-122.0091C459.4713,-138.0494 459.4713,-159 459.4713,-159 459.4713,-159 558.8885,-159 558.8885,-159"/>
<polygon fill="#000000" stroke="#000000" points="558.8885,-162.5001 568.8885,-159 558.8884,-155.5001 558.8885,-162.5001"/>
</g>
<!-- MatCheckboxModule -->
<g id="node8" class="node">
<title>MatCheckboxModule</title>
<polygon fill="#8dd3c7" stroke="#000000" points="356.3655,-122 353.3655,-126 332.3655,-126 329.3655,-122 217.6345,-122 217.6345,-86 356.3655,-86 356.3655,-122"/>
<text text-anchor="middle" x="287" y="-99.8" font-family="Times,serif" font-size="14.00" fill="#000000">MatCheckboxModule</text>
</g>
<!-- MatCheckboxModule&#45;&gt;FacetModule -->
<g id="edge7" class="edge">
<title>MatCheckboxModule&#45;&gt;FacetModule</title>
<path fill="none" stroke="#000000" d="M340.0128,-122.2667C340.0128,-140.5552 340.0128,-166 340.0128,-166 340.0128,-166 559.0634,-166 559.0634,-166"/>
<polygon fill="#000000" stroke="#000000" points="559.0634,-169.5001 569.0634,-166 559.0634,-162.5001 559.0634,-169.5001"/>
</g>
<!-- AddGadgetService -->
<g id="node13" class="node">
<title>AddGadgetService</title>
<ellipse fill="#fdb462" stroke="#000000" cx="109" cy="-104" rx="84.5112" ry="18"/>
<text text-anchor="middle" x="109" y="-99.8" font-family="Times,serif" font-size="14.00" fill="#000000">AddGadgetService</text>
</g>
<!-- AddGadgetService&#45;&gt;FacetModule -->
<g id="edge12" class="edge">
<title>AddGadgetService&#45;&gt;FacetModule</title>
<path fill="none" stroke="#000000" d="M109,-122.1289C109,-142.5724 109,-173 109,-173 109,-173 558.7402,-173 558.7402,-173"/>
<polygon fill="#000000" stroke="#000000" points="558.7402,-176.5001 568.7402,-173 558.7402,-169.5001 558.7402,-176.5001"/>
</g>
</g>
</svg>
