<?xml version="1.0" encoding="UTF-8" standalone="no"?>
<!DOCTYPE svg PUBLIC "-//W3C//DTD SVG 1.1//EN"
 "http://www.w3.org/Graphics/SVG/1.1/DTD/svg11.dtd">
<!-- Generated by graphviz version 2.40.1 (20161225.0304)
 -->
<!-- Title: dependencies Pages: 1 -->
<svg width="806pt" height="284pt"
 viewBox="0.00 0.00 806.00 284.00" xmlns="http://www.w3.org/2000/svg" xmlns:xlink="http://www.w3.org/1999/xlink">
<g id="graph0" class="graph" transform="scale(1 1) rotate(0) translate(4 280)">
<title>dependencies</title>
<polygon fill="#ffffff" stroke="transparent" points="-4,4 -4,-280 802,-280 802,4 -4,4"/>
<text text-anchor="start" x="378.0091" y="-42.4" font-family="sans-serif" font-weight="bold" font-size="14.00" fill="#000000">Legend</text>
<polygon fill="#ffffb3" stroke="transparent" points="165,-10 165,-30 185,-30 185,-10 165,-10"/>
<text text-anchor="start" x="188.629" y="-15.4" font-family="sans-serif" font-size="14.00" fill="#000000"> &#160;Declarations</text>
<polygon fill="#8dd3c7" stroke="transparent" points="278,-10 278,-30 298,-30 298,-10 278,-10"/>
<text text-anchor="start" x="301.7251" y="-15.4" font-family="sans-serif" font-size="14.00" fill="#000000"> &#160;Module</text>
<polygon fill="#80b1d3" stroke="transparent" points="364,-10 364,-30 384,-30 384,-10 364,-10"/>
<text text-anchor="start" x="387.7812" y="-15.4" font-family="sans-serif" font-size="14.00" fill="#000000"> &#160;Bootstrap</text>
<polygon fill="#fdb462" stroke="transparent" points="461,-10 461,-30 481,-30 481,-10 461,-10"/>
<text text-anchor="start" x="484.6732" y="-15.4" font-family="sans-serif" font-size="14.00" fill="#000000"> &#160;Providers</text>
<polygon fill="#fb8072" stroke="transparent" points="557,-10 557,-30 577,-30 577,-10 557,-10"/>
<text text-anchor="start" x="580.7258" y="-15.4" font-family="sans-serif" font-size="14.00" fill="#000000"> &#160;Exports</text>
<g id="clust1" class="cluster">
<title>cluster_FacetModule</title>
<polygon fill="none" stroke="#000000" stroke-dasharray="1,5" points="8,-70 8,-268 790,-268 790,-70 8,-70"/>
</g>
<g id="clust2" class="cluster">
<title>cluster_FacetModule_declarations</title>
<polygon fill="none" stroke="#000000" points="210,-78 210,-130 782,-130 782,-78 210,-78"/>
</g>
<g id="clust8" class="cluster">
<title>cluster_FacetModule_exports</title>
<polygon fill="none" stroke="#000000" points="129,-208 129,-260 714,-260 714,-208 129,-208"/>
</g>
<g id="clust10" class="cluster">
<title>cluster_FacetModule_providers</title>
<polygon fill="none" stroke="#000000" points="16,-78 16,-130 202,-130 202,-78 16,-78"/>
</g>
<!-- CapitalizeFirstPipe -->
<g id="node1" class="node">
<title>CapitalizeFirstPipe</title>
<polygon fill="#ffffb3" stroke="#000000" points="773.8146,-122 650.1854,-122 650.1854,-86 773.8146,-86 773.8146,-122"/>
<text text-anchor="middle" x="712" y="-99.8" font-family="Times,serif" font-size="14.00" fill="#000000">CapitalizeFirstPipe</text>
</g>
<!-- FacetModule -->
<g id="node5" class="node">
<title>FacetModule</title>
<polygon fill="#8dd3c7" stroke="#000000" points="480.8669,-187 477.8669,-191 456.8669,-191 453.8669,-187 391.1331,-187 391.1331,-151 480.8669,-151 480.8669,-187"/>
<text text-anchor="middle" x="436" y="-164.8" font-family="Times,serif" font-size="14.00" fill="#000000">FacetModule</text>
</g>
<!-- CapitalizeFirstPipe&#45;&gt;FacetModule -->
<g id="edge1" class="edge">
<title>CapitalizeFirstPipe&#45;&gt;FacetModule</title>
<path fill="none" stroke="#000000" d="M678.375,-122.1061C678.375,-141.3391 678.375,-169 678.375,-169 678.375,-169 491.0209,-169 491.0209,-169"/>
<polygon fill="#000000" stroke="#000000" points="491.0209,-165.5001 481.0209,-169 491.0208,-172.5001 491.0209,-165.5001"/>
</g>
<!-- FacetComponent -->
<g id="node2" class="node">
<title>FacetComponent</title>
<polygon fill="#ffffb3" stroke="#000000" points="632.6499,-122 521.3501,-122 521.3501,-86 632.6499,-86 632.6499,-122"/>
<text text-anchor="middle" x="577" y="-99.8" font-family="Times,serif" font-size="14.00" fill="#000000">FacetComponent</text>
</g>
<!-- FacetComponent&#45;&gt;FacetModule -->
<g id="edge2" class="edge">
<title>FacetComponent&#45;&gt;FacetModule</title>
<path fill="none" stroke="#000000" d="M541.375,-122.027C541.375,-138.3976 541.375,-160 541.375,-160 541.375,-160 490.9941,-160 490.9941,-160"/>
<polygon fill="#000000" stroke="#000000" points="490.9942,-156.5001 480.9941,-160 490.9941,-163.5001 490.9942,-156.5001"/>
</g>
<!-- FilterListComponent -->
<g id="node3" class="node">
<title>FilterListComponent</title>
<polygon fill="#ffffb3" stroke="#000000" points="502.9411,-122 369.0589,-122 369.0589,-86 502.9411,-86 502.9411,-122"/>
<text text-anchor="middle" x="436" y="-99.8" font-family="Times,serif" font-size="14.00" fill="#000000">FilterListComponent</text>
</g>
<!-- FilterListComponent&#45;&gt;FacetModule -->
<g id="edge3" class="edge">
<title>FilterListComponent&#45;&gt;FacetModule</title>
<path fill="none" stroke="#000000" d="M436,-122.1061C436,-122.1061 436,-140.991 436,-140.991"/>
<polygon fill="#000000" stroke="#000000" points="432.5001,-140.9909 436,-150.991 439.5001,-140.991 432.5001,-140.9909"/>
</g>
<!-- FilterTagComponent -->
<g id="node4" class="node">
<title>FilterTagComponent</title>
<polygon fill="#ffffb3" stroke="#000000" points="351.9299,-122 218.0701,-122 218.0701,-86 351.9299,-86 351.9299,-122"/>
<text text-anchor="middle" x="285" y="-99.8" font-family="Times,serif" font-size="14.00" fill="#000000">FilterTagComponent</text>
</g>
<!-- FilterTagComponent&#45;&gt;FacetModule -->
<g id="edge4" class="edge">
<title>FilterTagComponent&#45;&gt;FacetModule</title>
<path fill="none" stroke="#000000" d="M321.6222,-122.027C321.6222,-138.3976 321.6222,-160 321.6222,-160 321.6222,-160 381.1231,-160 381.1231,-160"/>
<polygon fill="#000000" stroke="#000000" points="381.1232,-163.5001 391.1231,-160 381.1231,-156.5001 381.1232,-163.5001"/>
</g>
<!-- CapitalizeFirstPipe  -->
<g id="node6" class="node">
<title>CapitalizeFirstPipe </title>
<polygon fill="#fb8072" stroke="#000000" points="706.3143,-252 579.6857,-252 579.6857,-216 706.3143,-216 706.3143,-252"/>
<text text-anchor="middle" x="643" y="-229.8" font-family="Times,serif" font-size="14.00" fill="#000000">CapitalizeFirstPipe </text>
</g>
<!-- FacetModule&#45;&gt;CapitalizeFirstPipe  -->
<g id="edge5" class="edge">
<title>FacetModule&#45;&gt;CapitalizeFirstPipe </title>
<path fill="none" stroke="#000000" stroke-dasharray="5,2" d="M481.166,-178C531.5912,-178 606.2088,-178 606.2088,-178 606.2088,-178 606.2088,-205.973 606.2088,-205.973"/>
<polygon fill="#000000" stroke="#000000" points="602.7089,-205.973 606.2088,-215.973 609.7089,-205.973 602.7089,-205.973"/>
</g>
<!-- FacetComponent  -->
<g id="node7" class="node">
<title>FacetComponent </title>
<polygon fill="#fb8072" stroke="#000000" points="561.6495,-252 446.3505,-252 446.3505,-216 561.6495,-216 561.6495,-252"/>
<text text-anchor="middle" x="504" y="-229.8" font-family="Times,serif" font-size="14.00" fill="#000000">FacetComponent </text>
</g>
<!-- FacetModule&#45;&gt;FacetComponent  -->
<g id="edge6" class="edge">
<title>FacetModule&#45;&gt;FacetComponent </title>
<path fill="none" stroke="#000000" stroke-dasharray="5,2" d="M463.6794,-187.1061C463.6794,-187.1061 463.6794,-205.991 463.6794,-205.991"/>
<polygon fill="#000000" stroke="#000000" points="460.1794,-205.9909 463.6794,-215.991 467.1794,-205.991 460.1794,-205.9909"/>
</g>
<!-- FilterListComponent  -->
<g id="node8" class="node">
<title>FilterListComponent </title>
<polygon fill="#fb8072" stroke="#000000" points="428.4404,-252 291.5596,-252 291.5596,-216 428.4404,-216 428.4404,-252"/>
<text text-anchor="middle" x="360" y="-229.8" font-family="Times,serif" font-size="14.00" fill="#000000">FilterListComponent </text>
</g>
<!-- FacetModule&#45;&gt;FilterListComponent  -->
<g id="edge7" class="edge">
<title>FacetModule&#45;&gt;FilterListComponent </title>
<path fill="none" stroke="#000000" stroke-dasharray="5,2" d="M409.7684,-187.1061C409.7684,-187.1061 409.7684,-205.991 409.7684,-205.991"/>
<polygon fill="#000000" stroke="#000000" points="406.2685,-205.9909 409.7684,-215.991 413.2685,-205.991 406.2685,-205.9909"/>
</g>
<!-- FilterTagComponent  -->
<g id="node9" class="node">
<title>FilterTagComponent </title>
<polygon fill="#fb8072" stroke="#000000" points="273.4292,-252 136.5708,-252 136.5708,-216 273.4292,-216 273.4292,-252"/>
<text text-anchor="middle" x="205" y="-229.8" font-family="Times,serif" font-size="14.00" fill="#000000">FilterTagComponent </text>
</g>
<!-- FacetModule&#45;&gt;FilterTagComponent  -->
<g id="edge8" class="edge">
<title>FacetModule&#45;&gt;FilterTagComponent </title>
<path fill="none" stroke="#000000" stroke-dasharray="5,2" d="M390.943,-178C334.7205,-178 245.875,-178 245.875,-178 245.875,-178 245.875,-205.973 245.875,-205.973"/>
<polygon fill="#000000" stroke="#000000" points="242.3751,-205.973 245.875,-215.973 249.3751,-205.973 242.3751,-205.973"/>
</g>
<!-- AddGadgetService -->
<g id="node10" class="node">
<title>AddGadgetService</title>
<ellipse fill="#fdb462" stroke="#000000" cx="109" cy="-104" rx="84.5112" ry="18"/>
<text text-anchor="middle" x="109" y="-99.8" font-family="Times,serif" font-size="14.00" fill="#000000">AddGadgetService</text>
</g>
<!-- AddGadgetService&#45;&gt;FacetModule -->
<g id="edge9" class="edge">
<title>AddGadgetService&#45;&gt;FacetModule</title>
<path fill="none" stroke="#000000" d="M165.0205,-117.7848C165.0205,-136.865 165.0205,-169 165.0205,-169 165.0205,-169 380.9491,-169 380.9491,-169"/>
<polygon fill="#000000" stroke="#000000" points="380.9491,-172.5001 390.9491,-169 380.949,-165.5001 380.9491,-172.5001"/>
</g>
</g>
</svg>
