<?xml version="1.0" encoding="UTF-8" standalone="no"?>
<!DOCTYPE svg PUBLIC "-//W3C//DTD SVG 1.1//EN"
 "http://www.w3.org/Graphics/SVG/1.1/DTD/svg11.dtd">
<!-- Generated by graphviz version 2.40.1 (20161225.0304)
 -->
<!-- Title: dependencies Pages: 1 -->
<svg width="1686pt" height="284pt"
 viewBox="0.00 0.00 1686.00 284.00" xmlns="http://www.w3.org/2000/svg" xmlns:xlink="http://www.w3.org/1999/xlink">
<g id="graph0" class="graph" transform="scale(1 1) rotate(0) translate(4 280)">
<title>dependencies</title>
<polygon fill="#ffffff" stroke="transparent" points="-4,4 -4,-280 1682,-280 1682,4 -4,4"/>
<text text-anchor="start" x="818.0091" y="-42.4" font-family="sans-serif" font-weight="bold" font-size="14.00" fill="#000000">Legend</text>
<polygon fill="#ffffb3" stroke="transparent" points="605,-10 605,-30 625,-30 625,-10 605,-10"/>
<text text-anchor="start" x="628.629" y="-15.4" font-family="sans-serif" font-size="14.00" fill="#000000"> &#160;Declarations</text>
<polygon fill="#8dd3c7" stroke="transparent" points="718,-10 718,-30 738,-30 738,-10 718,-10"/>
<text text-anchor="start" x="741.7251" y="-15.4" font-family="sans-serif" font-size="14.00" fill="#000000"> &#160;Module</text>
<polygon fill="#80b1d3" stroke="transparent" points="804,-10 804,-30 824,-30 824,-10 804,-10"/>
<text text-anchor="start" x="827.7812" y="-15.4" font-family="sans-serif" font-size="14.00" fill="#000000"> &#160;Bootstrap</text>
<polygon fill="#fdb462" stroke="transparent" points="901,-10 901,-30 921,-30 921,-10 901,-10"/>
<text text-anchor="start" x="924.6732" y="-15.4" font-family="sans-serif" font-size="14.00" fill="#000000"> &#160;Providers</text>
<polygon fill="#fb8072" stroke="transparent" points="997,-10 997,-30 1017,-30 1017,-10 997,-10"/>
<text text-anchor="start" x="1020.7258" y="-15.4" font-family="sans-serif" font-size="14.00" fill="#000000"> &#160;Exports</text>
<g id="clust1" class="cluster">
<title>cluster_ConfigurationModule</title>
<polygon fill="none" stroke="#000000" stroke-dasharray="1,5" points="8,-70 8,-268 1670,-268 1670,-70 8,-70"/>
</g>
<g id="clust2" class="cluster">
<title>cluster_ConfigurationModule_declarations</title>
<polygon fill="none" stroke="#000000" points="352,-78 352,-130 1662,-130 1662,-78 352,-78"/>
</g>
<g id="clust10" class="cluster">
<title>cluster_ConfigurationModule_exports</title>
<polygon fill="none" stroke="#000000" points="233,-208 233,-260 1346,-260 1346,-208 233,-208"/>
</g>
<g id="clust12" class="cluster">
<title>cluster_ConfigurationModule_providers</title>
<polygon fill="none" stroke="#000000" points="16,-78 16,-130 344,-130 344,-78 16,-78"/>
</g>
<!-- AIConfigurationTabComponent -->
<g id="node1" class="node">
<title>AIConfigurationTabComponent</title>
<polygon fill="#ffffb3" stroke="#000000" points="1654.4114,-122 1457.5886,-122 1457.5886,-86 1654.4114,-86 1654.4114,-122"/>
<text text-anchor="middle" x="1556" y="-99.8" font-family="Times,serif" font-size="14.00" fill="#000000">AIConfigurationTabComponent</text>
</g>
<!-- ConfigurationModule -->
<g id="node7" class="node">
<title>ConfigurationModule</title>
<polygon fill="#8dd3c7" stroke="#000000" points="898.094,-187 895.094,-191 874.094,-191 871.094,-187 759.906,-187 759.906,-151 898.094,-151 898.094,-187"/>
<text text-anchor="middle" x="829" y="-164.8" font-family="Times,serif" font-size="14.00" fill="#000000">ConfigurationModule</text>
</g>
<!-- AIConfigurationTabComponent&#45;&gt;ConfigurationModule -->
<g id="edge1" class="edge">
<title>AIConfigurationTabComponent&#45;&gt;ConfigurationModule</title>
<path fill="none" stroke="#000000" d="M1556,-122.1061C1556,-141.3391 1556,-169 1556,-169 1556,-169 908.0498,-169 908.0498,-169"/>
<polygon fill="#000000" stroke="#000000" points="908.0499,-165.5001 898.0498,-169 908.0498,-172.5001 908.0499,-165.5001"/>
</g>
<!-- BoardsConfigurationTabComponent -->
<g id="node2" class="node">
<title>BoardsConfigurationTabComponent</title>
<polygon fill="#ffffb3" stroke="#000000" points="1439.8004,-122 1218.1996,-122 1218.1996,-86 1439.8004,-86 1439.8004,-122"/>
<text text-anchor="middle" x="1329" y="-99.8" font-family="Times,serif" font-size="14.00" fill="#000000">BoardsConfigurationTabComponent</text>
</g>
<!-- BoardsConfigurationTabComponent&#45;&gt;ConfigurationModule -->
<g id="edge2" class="edge">
<title>BoardsConfigurationTabComponent&#45;&gt;ConfigurationModule</title>
<path fill="none" stroke="#000000" d="M1278.375,-122.0225C1278.375,-139.3734 1278.375,-163 1278.375,-163 1278.375,-163 908.23,-163 908.23,-163"/>
<polygon fill="#000000" stroke="#000000" points="908.2301,-159.5001 898.23,-163 908.23,-166.5001 908.2301,-159.5001"/>
</g>
<!-- ConfigurationComponent -->
<g id="node3" class="node">
<title>ConfigurationComponent</title>
<polygon fill="#ffffb3" stroke="#000000" points="1199.8766,-122 1040.1234,-122 1040.1234,-86 1199.8766,-86 1199.8766,-122"/>
<text text-anchor="middle" x="1120" y="-99.8" font-family="Times,serif" font-size="14.00" fill="#000000">ConfigurationComponent</text>
</g>
<!-- ConfigurationComponent&#45;&gt;ConfigurationModule -->
<g id="edge3" class="edge">
<title>ConfigurationComponent&#45;&gt;ConfigurationModule</title>
<path fill="none" stroke="#000000" d="M1067.875,-122.2396C1067.875,-137.5706 1067.875,-157 1067.875,-157 1067.875,-157 908.0925,-157 908.0925,-157"/>
<polygon fill="#000000" stroke="#000000" points="908.0926,-153.5001 898.0925,-157 908.0925,-160.5001 908.0926,-153.5001"/>
</g>
<!-- EndPointDetailComponent -->
<g id="node4" class="node">
<title>EndPointDetailComponent</title>
<polygon fill="#ffffb3" stroke="#000000" points="1021.6568,-122 854.3432,-122 854.3432,-86 1021.6568,-86 1021.6568,-122"/>
<text text-anchor="middle" x="938" y="-99.8" font-family="Times,serif" font-size="14.00" fill="#000000">EndPointDetailComponent</text>
</g>
<!-- EndPointDetailComponent&#45;&gt;ConfigurationModule -->
<g id="edge4" class="edge">
<title>EndPointDetailComponent&#45;&gt;ConfigurationModule</title>
<path fill="none" stroke="#000000" d="M876.1094,-122.1061C876.1094,-122.1061 876.1094,-140.991 876.1094,-140.991"/>
<polygon fill="#000000" stroke="#000000" points="872.6095,-140.9909 876.1094,-150.991 879.6095,-140.991 872.6095,-140.9909"/>
</g>
<!-- EndpointConfigurationTabComponent -->
<g id="node5" class="node">
<title>EndpointConfigurationTabComponent</title>
<polygon fill="#ffffb3" stroke="#000000" points="836.4776,-122 603.5224,-122 603.5224,-86 836.4776,-86 836.4776,-122"/>
<text text-anchor="middle" x="720" y="-99.8" font-family="Times,serif" font-size="14.00" fill="#000000">EndpointConfigurationTabComponent</text>
</g>
<!-- EndpointConfigurationTabComponent&#45;&gt;ConfigurationModule -->
<g id="edge5" class="edge">
<title>EndpointConfigurationTabComponent&#45;&gt;ConfigurationModule</title>
<path fill="none" stroke="#000000" d="M798.2209,-122.1061C798.2209,-122.1061 798.2209,-140.991 798.2209,-140.991"/>
<polygon fill="#000000" stroke="#000000" points="794.721,-140.9909 798.2209,-150.991 801.721,-140.991 794.721,-140.9909"/>
</g>
<!-- OptionsConfigurationTabComponent -->
<g id="node6" class="node">
<title>OptionsConfigurationTabComponent</title>
<polygon fill="#ffffb3" stroke="#000000" points="585.9762,-122 360.0238,-122 360.0238,-86 585.9762,-86 585.9762,-122"/>
<text text-anchor="middle" x="473" y="-99.8" font-family="Times,serif" font-size="14.00" fill="#000000">OptionsConfigurationTabComponent</text>
</g>
<!-- OptionsConfigurationTabComponent&#45;&gt;ConfigurationModule -->
<g id="edge6" class="edge">
<title>OptionsConfigurationTabComponent&#45;&gt;ConfigurationModule</title>
<path fill="none" stroke="#000000" d="M537.3747,-122.2396C537.3747,-137.5706 537.3747,-157 537.3747,-157 537.3747,-157 749.8889,-157 749.8889,-157"/>
<polygon fill="#000000" stroke="#000000" points="749.8889,-160.5001 759.8889,-157 749.8888,-153.5001 749.8889,-160.5001"/>
</g>
<!-- BoardsConfigurationTabComponent  -->
<g id="node8" class="node">
<title>BoardsConfigurationTabComponent </title>
<polygon fill="#fb8072" stroke="#000000" points="1338.3003,-252 1113.6997,-252 1113.6997,-216 1338.3003,-216 1338.3003,-252"/>
<text text-anchor="middle" x="1226" y="-229.8" font-family="Times,serif" font-size="14.00" fill="#000000">BoardsConfigurationTabComponent </text>
</g>
<!-- ConfigurationModule&#45;&gt;BoardsConfigurationTabComponent  -->
<g id="edge7" class="edge">
<title>ConfigurationModule&#45;&gt;BoardsConfigurationTabComponent </title>
<path fill="none" stroke="#000000" stroke-dasharray="5,2" d="M898.1109,-175C994.2746,-175 1156.7691,-175 1156.7691,-175 1156.7691,-175 1156.7691,-205.9775 1156.7691,-205.9775"/>
<polygon fill="#000000" stroke="#000000" points="1153.2692,-205.9774 1156.7691,-215.9775 1160.2692,-205.9775 1153.2692,-205.9774"/>
</g>
<!-- ConfigurationComponent  -->
<g id="node9" class="node">
<title>ConfigurationComponent </title>
<polygon fill="#fb8072" stroke="#000000" points="1095.877,-252 932.123,-252 932.123,-216 1095.877,-216 1095.877,-252"/>
<text text-anchor="middle" x="1014" y="-229.8" font-family="Times,serif" font-size="14.00" fill="#000000">ConfigurationComponent </text>
</g>
<!-- ConfigurationModule&#45;&gt;ConfigurationComponent  -->
<g id="edge8" class="edge">
<title>ConfigurationModule&#45;&gt;ConfigurationComponent </title>
<path fill="none" stroke="#000000" stroke-dasharray="5,2" d="M898.2661,-181C936.8029,-181 977.07,-181 977.07,-181 977.07,-181 977.07,-205.7604 977.07,-205.7604"/>
<polygon fill="#000000" stroke="#000000" points="973.57,-205.7604 977.07,-215.7604 980.57,-205.7604 973.57,-205.7604"/>
</g>
<!-- EndPointDetailComponent  -->
<g id="node10" class="node">
<title>EndPointDetailComponent </title>
<polygon fill="#fb8072" stroke="#000000" points="914.6565,-252 743.3435,-252 743.3435,-216 914.6565,-216 914.6565,-252"/>
<text text-anchor="middle" x="829" y="-229.8" font-family="Times,serif" font-size="14.00" fill="#000000">EndPointDetailComponent </text>
</g>
<!-- ConfigurationModule&#45;&gt;EndPointDetailComponent  -->
<g id="edge9" class="edge">
<title>ConfigurationModule&#45;&gt;EndPointDetailComponent </title>
<path fill="none" stroke="#000000" stroke-dasharray="5,2" d="M829,-187.1061C829,-187.1061 829,-205.991 829,-205.991"/>
<polygon fill="#000000" stroke="#000000" points="825.5001,-205.9909 829,-215.991 832.5001,-205.991 825.5001,-205.9909"/>
</g>
<!-- EndpointConfigurationTabComponent  -->
<g id="node11" class="node">
<title>EndpointConfigurationTabComponent </title>
<polygon fill="#fb8072" stroke="#000000" points="725.4781,-252 488.5219,-252 488.5219,-216 725.4781,-216 725.4781,-252"/>
<text text-anchor="middle" x="607" y="-229.8" font-family="Times,serif" font-size="14.00" fill="#000000">EndpointConfigurationTabComponent </text>
</g>
<!-- ConfigurationModule&#45;&gt;EndpointConfigurationTabComponent  -->
<g id="edge10" class="edge">
<title>ConfigurationModule&#45;&gt;EndpointConfigurationTabComponent </title>
<path fill="none" stroke="#000000" stroke-dasharray="5,2" d="M759.6613,-181C714.6705,-181 664.375,-181 664.375,-181 664.375,-181 664.375,-205.7604 664.375,-205.7604"/>
<polygon fill="#000000" stroke="#000000" points="660.8751,-205.7604 664.375,-215.7604 667.8751,-205.7604 660.8751,-205.7604"/>
</g>
<!-- OptionsConfigurationTabComponent  -->
<g id="node12" class="node">
<title>OptionsConfigurationTabComponent </title>
<polygon fill="#fb8072" stroke="#000000" points="470.9767,-252 241.0233,-252 241.0233,-216 470.9767,-216 470.9767,-252"/>
<text text-anchor="middle" x="356" y="-229.8" font-family="Times,serif" font-size="14.00" fill="#000000">OptionsConfigurationTabComponent </text>
</g>
<!-- ConfigurationModule&#45;&gt;OptionsConfigurationTabComponent  -->
<g id="edge11" class="edge">
<title>ConfigurationModule&#45;&gt;OptionsConfigurationTabComponent </title>
<path fill="none" stroke="#000000" stroke-dasharray="5,2" d="M759.7685,-175C642.0195,-175 415.375,-175 415.375,-175 415.375,-175 415.375,-205.9775 415.375,-205.9775"/>
<polygon fill="#000000" stroke="#000000" points="411.8751,-205.9774 415.375,-215.9775 418.8751,-205.9775 411.8751,-205.9774"/>
</g>
<!-- EndPointService -->
<g id="node13" class="node">
<title>EndPointService</title>
<ellipse fill="#fdb462" stroke="#000000" cx="260" cy="-104" rx="75.8817" ry="18"/>
<text text-anchor="middle" x="260" y="-99.8" font-family="Times,serif" font-size="14.00" fill="#000000">EndPointService</text>
</g>
<!-- EndPointService&#45;&gt;ConfigurationModule -->
<g id="edge12" class="edge">
<title>EndPointService&#45;&gt;ConfigurationModule</title>
<path fill="none" stroke="#000000" d="M288.6014,-120.7492C288.6014,-138.1922 288.6014,-163 288.6014,-163 288.6014,-163 749.7342,-163 749.7342,-163"/>
<polygon fill="#000000" stroke="#000000" points="749.7342,-166.5001 759.7342,-163 749.7341,-159.5001 749.7342,-166.5001"/>
</g>
<!-- OptionsService -->
<g id="node14" class="node">
<title>OptionsService</title>
<ellipse fill="#fdb462" stroke="#000000" cx="95" cy="-104" rx="70.6432" ry="18"/>
<text text-anchor="middle" x="95" y="-99.8" font-family="Times,serif" font-size="14.00" fill="#000000">OptionsService</text>
</g>
<!-- OptionsService&#45;&gt;ConfigurationModule -->
<g id="edge13" class="edge">
<title>OptionsService&#45;&gt;ConfigurationModule</title>
<path fill="none" stroke="#000000" d="M95,-122.1061C95,-141.3391 95,-169 95,-169 95,-169 749.9471,-169 749.9471,-169"/>
<polygon fill="#000000" stroke="#000000" points="749.9471,-172.5001 759.9471,-169 749.947,-165.5001 749.9471,-172.5001"/>
</g>
</g>
</svg>
