<?xml version="1.0" encoding="UTF-8" standalone="no"?>
<!DOCTYPE svg PUBLIC "-//W3C//DTD SVG 1.1//EN"
 "http://www.w3.org/Graphics/SVG/1.1/DTD/svg11.dtd">
<!-- Generated by graphviz version 2.40.1 (20161225.0304)
 -->
<!-- Title: dependencies Pages: 1 -->
<svg width="543pt" height="211pt"
 viewBox="0.00 0.00 543.00 211.00" xmlns="http://www.w3.org/2000/svg" xmlns:xlink="http://www.w3.org/1999/xlink">
<g id="graph0" class="graph" transform="scale(1 1) rotate(0) translate(4 207)">
<title>dependencies</title>
<polygon fill="#ffffff" stroke="transparent" points="-4,4 -4,-207 539,-207 539,4 -4,4"/>
<text text-anchor="start" x="246.5091" y="-42.4" font-family="sans-serif" font-weight="bold" font-size="14.00" fill="#000000">Legend</text>
<polygon fill="#ffffb3" stroke="transparent" points="33.5,-10 33.5,-30 53.5,-30 53.5,-10 33.5,-10"/>
<text text-anchor="start" x="57.129" y="-15.4" font-family="sans-serif" font-size="14.00" fill="#000000"> &#160;Declarations</text>
<polygon fill="#8dd3c7" stroke="transparent" points="146.5,-10 146.5,-30 166.5,-30 166.5,-10 146.5,-10"/>
<text text-anchor="start" x="170.2251" y="-15.4" font-family="sans-serif" font-size="14.00" fill="#000000"> &#160;Module</text>
<polygon fill="#80b1d3" stroke="transparent" points="232.5,-10 232.5,-30 252.5,-30 252.5,-10 232.5,-10"/>
<text text-anchor="start" x="256.2812" y="-15.4" font-family="sans-serif" font-size="14.00" fill="#000000"> &#160;Bootstrap</text>
<polygon fill="#fdb462" stroke="transparent" points="329.5,-10 329.5,-30 349.5,-30 349.5,-10 329.5,-10"/>
<text text-anchor="start" x="353.1732" y="-15.4" font-family="sans-serif" font-size="14.00" fill="#000000"> &#160;Providers</text>
<polygon fill="#fb8072" stroke="transparent" points="425.5,-10 425.5,-30 445.5,-30 445.5,-10 425.5,-10"/>
<text text-anchor="start" x="449.2258" y="-15.4" font-family="sans-serif" font-size="14.00" fill="#000000"> &#160;Exports</text>
<g id="clust1" class="cluster">
<title>cluster_BoardModule</title>
<polygon fill="none" stroke="#000000" stroke-dasharray="1,5" points="8,-70 8,-195 527,-195 527,-70 8,-70"/>
</g>
<g id="clust2" class="cluster">
<title>cluster_BoardModule_declarations</title>
<polygon fill="none" stroke="#000000" points="387,-78 387,-130 519,-130 519,-78 387,-78"/>
</g>
<g id="clust4" class="cluster">
<title>cluster_BoardModule_imports</title>
<polygon fill="none" stroke="#000000" points="16,-78 16,-130 379,-130 379,-78 16,-78"/>
</g>
<!-- BoardComponent -->
<g id="node1" class="node">
<title>BoardComponent</title>
<polygon fill="#ffffb3" stroke="#000000" points="510.5451,-122 395.4549,-122 395.4549,-86 510.5451,-86 510.5451,-122"/>
<text text-anchor="middle" x="453" y="-99.8" font-family="Times,serif" font-size="14.00" fill="#000000">BoardComponent</text>
</g>
<!-- BoardModule -->
<g id="node2" class="node">
<title>BoardModule</title>
<polygon fill="#8dd3c7" stroke="#000000" points="361.7619,-187 358.7619,-191 337.7619,-191 334.7619,-187 268.2381,-187 268.2381,-151 361.7619,-151 361.7619,-187"/>
<text text-anchor="middle" x="315" y="-164.8" font-family="Times,serif" font-size="14.00" fill="#000000">BoardModule</text>
</g>
<!-- BoardComponent&#45;&gt;BoardModule -->
<g id="edge1" class="edge">
<title>BoardComponent&#45;&gt;BoardModule</title>
<path fill="none" stroke="#000000" d="M453,-122.1061C453,-141.3391 453,-169 453,-169 453,-169 372.1058,-169 372.1058,-169"/>
<polygon fill="#000000" stroke="#000000" points="372.1058,-165.5001 362.1058,-169 372.1058,-172.5001 372.1058,-165.5001"/>
</g>
<!-- CommonModule -->
<g id="node3" class="node">
<title>CommonModule</title>
<polygon fill="#8dd3c7" stroke="#000000" points="370.6681,-122 367.6681,-126 346.6681,-126 343.6681,-122 259.3319,-122 259.3319,-86 370.6681,-86 370.6681,-122"/>
<text text-anchor="middle" x="315" y="-99.8" font-family="Times,serif" font-size="14.00" fill="#000000">CommonModule</text>
</g>
<!-- CommonModule&#45;&gt;BoardModule -->
<g id="edge2" class="edge">
<title>CommonModule&#45;&gt;BoardModule</title>
<path fill="none" stroke="#000000" d="M315,-122.1061C315,-122.1061 315,-140.991 315,-140.991"/>
<polygon fill="#000000" stroke="#000000" points="311.5001,-140.9909 315,-150.991 318.5001,-140.991 311.5001,-140.9909"/>
</g>
<!-- GridModule.withComponents(args) -->
<g id="node4" class="node">
<title>GridModule.withComponents(args)</title>
<polygon fill="#8dd3c7" stroke="#000000" points="241.5134,-122 238.5134,-126 217.5134,-126 214.5134,-122 24.4866,-122 24.4866,-86 241.5134,-86 241.5134,-122"/>
<text text-anchor="middle" x="133" y="-99.8" font-family="Times,serif" font-size="14.00" fill="#000000">GridModule.withComponents(args)</text>
</g>
<!-- GridModule.withComponents(args)&#45;&gt;BoardModule -->
<g id="edge3" class="edge">
<title>GridModule.withComponents(args)&#45;&gt;BoardModule</title>
<path fill="none" stroke="#000000" d="M133,-122.1061C133,-141.3391 133,-169 133,-169 133,-169 258.1305,-169 258.1305,-169"/>
<polygon fill="#000000" stroke="#000000" points="258.1305,-172.5001 268.1305,-169 258.1304,-165.5001 258.1305,-172.5001"/>
</g>
</g>
</svg>
